<svg class="rich-terminal" viewBox="0 0 1482 1026.0" xmlns="http://www.w3.org/2000/svg">
    <!-- Generated with Rich https://www.textualize.io -->
    <style>

    @font-face {
        font-family: "Fira Code";
        src: local("FiraCode-Regular"),
                url("https://cdnjs.cloudflare.com/ajax/libs/firacode/6.2.0/woff2/FiraCode-Regular.woff2") format("woff2"),
                url("https://cdnjs.cloudflare.com/ajax/libs/firacode/6.2.0/woff/FiraCode-Regular.woff") format("woff");
        font-style: normal;
        font-weight: 400;
    }
    @font-face {
        font-family: "Fira Code";
        src: local("FiraCode-Bold"),
                url("https://cdnjs.cloudflare.com/ajax/libs/firacode/6.2.0/woff2/FiraCode-Bold.woff2") format("woff2"),
                url("https://cdnjs.cloudflare.com/ajax/libs/firacode/6.2.0/woff/FiraCode-Bold.woff") format("woff");
        font-style: bold;
        font-weight: 700;
    }

    .terminal-3168176534-matrix {
        font-family: Fira Code, monospace;
        font-size: 20px;
        line-height: 24.4px;
        font-variant-east-asian: full-width;
    }

    .terminal-3168176534-title {
        font-size: 18px;
        font-weight: bold;
        font-family: arial;
    }

    .terminal-3168176534-r1 { fill: #c5c8c6 }
.terminal-3168176534-r2 { fill: #000000;font-weight: bold }
.terminal-3168176534-r3 { fill: #000000 }
.terminal-3168176534-r4 { fill: #121212 }
.terminal-3168176534-r5 { fill: #c0c0c0 }
.terminal-3168176534-r6 { fill: #121212;font-weight: bold }
    </style>

    <defs>
    <clipPath id="terminal-3168176534-clip-terminal">
      <rect x="0" y="0" width="1463.0" height="975.0" />
    </clipPath>
    <clipPath id="terminal-3168176534-line-0">
    <rect x="0" y="1.5" width="1464" height="24.65"/>
            </clipPath>
<clipPath id="terminal-3168176534-line-1">
    <rect x="0" y="25.9" width="1464" height="24.65"/>
            </clipPath>
<clipPath id="terminal-3168176534-line-2">
    <rect x="0" y="50.3" width="1464" height="24.65"/>
            </clipPath>
<clipPath id="terminal-3168176534-line-3">
    <rect x="0" y="74.7" width="1464" height="24.65"/>
            </clipPath>
<clipPath id="terminal-3168176534-line-4">
    <rect x="0" y="99.1" width="1464" height="24.65"/>
            </clipPath>
<clipPath id="terminal-3168176534-line-5">
    <rect x="0" y="123.5" width="1464" height="24.65"/>
            </clipPath>
<clipPath id="terminal-3168176534-line-6">
    <rect x="0" y="147.9" width="1464" height="24.65"/>
            </clipPath>
<clipPath id="terminal-3168176534-line-7">
    <rect x="0" y="172.3" width="1464" height="24.65"/>
            </clipPath>
<clipPath id="terminal-3168176534-line-8">
    <rect x="0" y="196.7" width="1464" height="24.65"/>
            </clipPath>
<clipPath id="terminal-3168176534-line-9">
    <rect x="0" y="221.1" width="1464" height="24.65"/>
            </clipPath>
<clipPath id="terminal-3168176534-line-10">
    <rect x="0" y="245.5" width="1464" height="24.65"/>
            </clipPath>
<clipPath id="terminal-3168176534-line-11">
    <rect x="0" y="269.9" width="1464" height="24.65"/>
            </clipPath>
<clipPath id="terminal-3168176534-line-12">
    <rect x="0" y="294.3" width="1464" height="24.65"/>
            </clipPath>
<clipPath id="terminal-3168176534-line-13">
    <rect x="0" y="318.7" width="1464" height="24.65"/>
            </clipPath>
<clipPath id="terminal-3168176534-line-14">
    <rect x="0" y="343.1" width="1464" height="24.65"/>
            </clipPath>
<clipPath id="terminal-3168176534-line-15">
    <rect x="0" y="367.5" width="1464" height="24.65"/>
            </clipPath>
<clipPath id="terminal-3168176534-line-16">
    <rect x="0" y="391.9" width="1464" height="24.65"/>
            </clipPath>
<clipPath id="terminal-3168176534-line-17">
    <rect x="0" y="416.3" width="1464" height="24.65"/>
            </clipPath>
<clipPath id="terminal-3168176534-line-18">
    <rect x="0" y="440.7" width="1464" height="24.65"/>
            </clipPath>
<clipPath id="terminal-3168176534-line-19">
    <rect x="0" y="465.1" width="1464" height="24.65"/>
            </clipPath>
<clipPath id="terminal-3168176534-line-20">
    <rect x="0" y="489.5" width="1464" height="24.65"/>
            </clipPath>
<clipPath id="terminal-3168176534-line-21">
    <rect x="0" y="513.9" width="1464" height="24.65"/>
            </clipPath>
<clipPath id="terminal-3168176534-line-22">
    <rect x="0" y="538.3" width="1464" height="24.65"/>
            </clipPath>
<clipPath id="terminal-3168176534-line-23">
    <rect x="0" y="562.7" width="1464" height="24.65"/>
            </clipPath>
<clipPath id="terminal-3168176534-line-24">
    <rect x="0" y="587.1" width="1464" height="24.65"/>
            </clipPath>
<clipPath id="terminal-3168176534-line-25">
    <rect x="0" y="611.5" width="1464" height="24.65"/>
            </clipPath>
<clipPath id="terminal-3168176534-line-26">
    <rect x="0" y="635.9" width="1464" height="24.65"/>
            </clipPath>
<clipPath id="terminal-3168176534-line-27">
    <rect x="0" y="660.3" width="1464" height="24.65"/>
            </clipPath>
<clipPath id="terminal-3168176534-line-28">
    <rect x="0" y="684.7" width="1464" height="24.65"/>
            </clipPath>
<clipPath id="terminal-3168176534-line-29">
    <rect x="0" y="709.1" width="1464" height="24.65"/>
            </clipPath>
<clipPath id="terminal-3168176534-line-30">
    <rect x="0" y="733.5" width="1464" height="24.65"/>
            </clipPath>
<clipPath id="terminal-3168176534-line-31">
    <rect x="0" y="757.9" width="1464" height="24.65"/>
            </clipPath>
<clipPath id="terminal-3168176534-line-32">
    <rect x="0" y="782.3" width="1464" height="24.65"/>
            </clipPath>
<clipPath id="terminal-3168176534-line-33">
    <rect x="0" y="806.7" width="1464" height="24.65"/>
            </clipPath>
<clipPath id="terminal-3168176534-line-34">
    <rect x="0" y="831.1" width="1464" height="24.65"/>
            </clipPath>
<clipPath id="terminal-3168176534-line-35">
    <rect x="0" y="855.5" width="1464" height="24.65"/>
            </clipPath>
<clipPath id="terminal-3168176534-line-36">
    <rect x="0" y="879.9" width="1464" height="24.65"/>
            </clipPath>
<clipPath id="terminal-3168176534-line-37">
    <rect x="0" y="904.3" width="1464" height="24.65"/>
            </clipPath>
<clipPath id="terminal-3168176534-line-38">
    <rect x="0" y="928.7" width="1464" height="24.65"/>
            </clipPath>
    </defs>

    <rect fill="#292929" stroke="rgba(255,255,255,0.35)" stroke-width="1" x="1" y="1" width="1480" height="1024" rx="8"/><text class="terminal-3168176534-title" fill="#c5c8c6" text-anchor="middle" x="740" y="27">Neuro&#160;Code&#160;visual&#160;baseline</text>
            <g transform="translate(26,22)">
            <circle cx="0" cy="0" r="7" fill="#ff5f57"/>
            <circle cx="22" cy="0" r="7" fill="#febc2e"/>
            <circle cx="44" cy="0" r="7" fill="#28c840"/>
            </g>

    <g transform="translate(9, 41)" clip-path="url(#terminal-3168176534-clip-terminal)">
    <rect fill="#000000" x="0" y="1.5" width="1464" height="24.65" shape-rendering="crispEdges"/><rect fill="#000000" x="0" y="25.9" width="48.8" height="24.65" shape-rendering="crispEdges"/><rect fill="#000000" x="48.8" y="25.9" width="61" height="24.65" shape-rendering="crispEdges"/><rect fill="#000000" x="109.8" y="25.9" width="85.4" height="24.65" shape-rendering="crispEdges"/><rect fill="#000000" x="195.2" y="25.9" width="0" height="24.65" shape-rendering="crispEdges"/><rect fill="#000000" x="195.2" y="25.9" width="1159" height="24.65" shape-rendering="crispEdges"/><rect fill="#000000" x="1354.2" y="25.9" width="61" height="24.65" shape-rendering="crispEdges"/><rect fill="#000000" x="1415.2" y="25.9" width="48.8" height="24.65" shape-rendering="crispEdges"/><rect fill="#000000" x="0" y="50.3" width="48.8" height="24.65" shape-rendering="crispEdges"/><rect fill="#000000" x="48.8" y="50.3" width="1366.4" height="24.65" shape-rendering="crispEdges"/><rect fill="#000000" x="1415.2" y="50.3" width="48.8" height="24.65" shape-rendering="crispEdges"/><rect fill="#000000" x="0" y="74.7" width="1464" height="24.65" shape-rendering="crispEdges"/><rect fill="#000000" x="0" y="99.1" width="48.8" height="24.65" shape-rendering="crispEdges"/><rect fill="#000000" x="48.8" y="99.1" width="1354.2" height="24.65" shape-rendering="crispEdges"/><rect fill="#000000" x="1403" y="99.1" width="12.2" height="24.65" shape-rendering="crispEdges"/><rect fill="#000000" x="1415.2" y="99.1" width="12.2" height="24.65" shape-rendering="crispEdges"/><rect fill="#000000" x="1427.4" y="99.1" width="36.6" height="24.65" shape-rendering="crispEdges"/><rect fill="#000000" x="0" y="123.5" width="48.8" height="24.65" shape-rendering="crispEdges"/><rect fill="#000000" x="48.8" y="123.5" width="1354.2" height="24.65" shape-rendering="crispEdges"/><rect fill="#000000" x="1403" y="123.5" width="12.2" height="24.65" shape-rendering="crispEdges"/><rect fill="#000000" x="1415.2" y="123.5" width="12.2" height="24.65" shape-rendering="crispEdges"/><rect fill="#000000" x="1427.4" y="123.5" width="36.6" height="24.65" shape-rendering="crispEdges"/><rect fill="#000000" x="0" y="147.9" width="1415.2" height="24.65" shape-rendering="crispEdges"/><rect fill="#000000" x="1415.2" y="147.9" width="12.2" height="24.65" shape-rendering="crispEdges"/><rect fill="#000000" x="1427.4" y="147.9" width="36.6" height="24.65" shape-rendering="crispEdges"/><rect fill="#000000" x="0" y="172.3" width="48.8" height="24.65" shape-rendering="crispEdges"/><rect fill="#000000" x="48.8" y="172.3" width="97.6" height="24.65" shape-rendering="crispEdges"/><rect fill="#000000" x="146.4" y="172.3" width="1256.6" height="24.65" shape-rendering="crispEdges"/><rect fill="#000000" x="1403" y="172.3" width="12.2" height="24.65" shape-rendering="crispEdges"/><rect fill="#000000" x="1415.2" y="172.3" width="12.2" height="24.65" shape-rendering="crispEdges"/><rect fill="#000000" x="1427.4" y="172.3" width="36.6" height="24.65" shape-rendering="crispEdges"/><rect fill="#000000" x="0" y="196.7" width="1415.2" height="24.65" shape-rendering="crispEdges"/><rect fill="#000000" x="1415.2" y="196.7" width="12.2" height="24.65" shape-rendering="crispEdges"/><rect fill="#000000" x="1427.4" y="196.7" width="36.6" height="24.65" shape-rendering="crispEdges"/><rect fill="#000000" x="0" y="221.1" width="48.8" height="24.65" shape-rendering="crispEdges"/><rect fill="#000000" x="48.8" y="221.1" width="36.6" height="24.65" shape-rendering="crispEdges"/><rect fill="#000000" x="85.4" y="221.1" width="439.2" height="24.65" shape-rendering="crispEdges"/><rect fill="#000000" x="524.6" y="221.1" width="878.4" height="24.65" shape-rendering="crispEdges"/><rect fill="#000000" x="1403" y="221.1" width="12.2" height="24.65" shape-rendering="crispEdges"/><rect fill="#000000" x="1415.2" y="221.1" width="12.2" height="24.65" shape-rendering="crispEdges"/><rect fill="#000000" x="1427.4" y="221.1" width="36.6" height="24.65" shape-rendering="crispEdges"/><rect fill="#000000" x="0" y="245.5" width="48.8" height="24.65" shape-rendering="crispEdges"/><rect fill="#000000" x="48.8" y="245.5" width="36.6" height="24.65" shape-rendering="crispEdges"/><rect fill="#000000" x="85.4" y="245.5" width="1317.6" height="24.65" shape-rendering="crispEdges"/><rect fill="#000000" x="1403" y="245.5" width="12.2" height="24.65" shape-rendering="crispEdges"/><rect fill="#000000" x="1415.2" y="245.5" width="12.2" height="24.65" shape-rendering="crispEdges"/><rect fill="#000000" x="1427.4" y="245.5" width="36.6" height="24.65" shape-rendering="crispEdges"/><rect fill="#000000" x="0" y="269.9" width="48.8" height="24.65" shape-rendering="crispEdges"/><rect fill="#000000" x="48.8" y="269.9" width="36.6" height="24.65" shape-rendering="crispEdges"/><rect fill="#000000" x="85.4" y="269.9" width="1317.6" height="24.65" shape-rendering="crispEdges"/><rect fill="#000000" x="1403" y="269.9" width="12.2" height="24.65" shape-rendering="crispEdges"/><rect fill="#000000" x="1415.2" y="269.9" width="12.2" height="24.65" shape-rendering="crispEdges"/><rect fill="#000000" x="1427.4" y="269.9" width="36.6" height="24.65" shape-rendering="crispEdges"/><rect fill="#000000" x="0" y="294.3" width="1415.2" height="24.65" shape-rendering="crispEdges"/><rect fill="#c0c0c0" x="1415.2" y="294.3" width="12.2" height="24.65" shape-rendering="crispEdges"/><rect fill="#000000" x="1427.4" y="294.3" width="36.6" height="24.65" shape-rendering="crispEdges"/><rect fill="#000000" x="0" y="318.7" width="48.8" height="24.65" shape-rendering="crispEdges"/><rect fill="#000000" x="48.8" y="318.7" width="585.6" height="24.65" shape-rendering="crispEdges"/><rect fill="#000000" x="634.4" y="318.7" width="780.8" height="24.65" shape-rendering="crispEdges"/><rect fill="#c0c0c0" x="1415.2" y="318.7" width="12.2" height="24.65" shape-rendering="crispEdges"/><rect fill="#000000" x="1427.4" y="318.7" width="36.6" height="24.65" shape-rendering="crispEdges"/><rect fill="#000000" x="0" y="343.1" width="48.8" height="24.65" shape-rendering="crispEdges"/><rect fill="#000000" x="48.8" y="343.1" width="12.2" height="24.65" shape-rendering="crispEdges"/><rect fill="#000000" x="61" y="343.1" width="158.6" height="24.65" shape-rendering="crispEdges"/><rect fill="#000000" x="219.6" y="343.1" width="12.2" height="24.65" shape-rendering="crispEdges"/><rect fill="#000000" x="231.8" y="343.1" width="390.4" height="24.65" shape-rendering="crispEdges"/><rect fill="#000000" x="622.2" y="343.1" width="12.2" height="24.65" shape-rendering="crispEdges"/><rect fill="#000000" x="634.4" y="343.1" width="780.8" height="24.65" shape-rendering="crispEdges"/><rect fill="#c0c0c0" x="1415.2" y="343.1" width="12.2" height="24.65" shape-rendering="crispEdges"/><rect fill="#000000" x="1427.4" y="343.1" width="36.6" height="24.65" shape-rendering="crispEdges"/><rect fill="#000000" x="0" y="367.5" width="48.8" height="24.65" shape-rendering="crispEdges"/><rect fill="#000000" x="48.8" y="367.5" width="585.6" height="24.65" shape-rendering="crispEdges"/><rect fill="#000000" x="634.4" y="367.5" width="780.8" height="24.65" shape-rendering="crispEdges"/><rect fill="#c0c0c0" x="1415.2" y="367.5" width="12.2" height="24.65" shape-rendering="crispEdges"/><rect fill="#000000" x="1427.4" y="367.5" width="36.6" height="24.65" shape-rendering="crispEdges"/><rect fill="#000000" x="0" y="391.9" width="48.8" height="24.65" shape-rendering="crispEdges"/><rect fill="#000000" x="48.8" y="391.9" width="12.2" height="24.65" shape-rendering="crispEdges"/><rect fill="#000000" x="61" y="391.9" width="158.6" height="24.65" shape-rendering="crispEdges"/><rect fill="#000000" x="219.6" y="391.9" width="12.2" height="24.65" shape-rendering="crispEdges"/><rect fill="#000000" x="231.8" y="391.9" width="390.4" height="24.65" shape-rendering="crispEdges"/><rect fill="#000000" x="622.2" y="391.9" width="12.2" height="24.65" shape-rendering="crispEdges"/><rect fill="#000000" x="634.4" y="391.9" width="780.8" height="24.65" shape-rendering="crispEdges"/><rect fill="#c0c0c0" x="1415.2" y="391.9" width="12.2" height="24.65" shape-rendering="crispEdges"/><rect fill="#000000" x="1427.4" y="391.9" width="36.6" height="24.65" shape-rendering="crispEdges"/><rect fill="#000000" x="0" y="416.3" width="48.8" height="24.65" shape-rendering="crispEdges"/><rect fill="#000000" x="48.8" y="416.3" width="12.2" height="24.65" shape-rendering="crispEdges"/><rect fill="#000000" x="61" y="416.3" width="158.6" height="24.65" shape-rendering="crispEdges"/><rect fill="#000000" x="219.6" y="416.3" width="12.2" height="24.65" shape-rendering="crispEdges"/><rect fill="#000000" x="231.8" y="416.3" width="390.4" height="24.65" shape-rendering="crispEdges"/><rect fill="#000000" x="622.2" y="416.3" width="12.2" height="24.65" shape-rendering="crispEdges"/><rect fill="#000000" x="634.4" y="416.3" width="780.8" height="24.65" shape-rendering="crispEdges"/><rect fill="#c0c0c0" x="1415.2" y="416.3" width="12.2" height="24.65" shape-rendering="crispEdges"/><rect fill="#000000" x="1427.4" y="416.3" width="36.6" height="24.65" shape-rendering="crispEdges"/><rect fill="#000000" x="0" y="440.7" width="48.8" height="24.65" shape-rendering="crispEdges"/><rect fill="#000000" x="48.8" y="440.7" width="12.2" height="24.65" shape-rendering="crispEdges"/><rect fill="#000000" x="61" y="440.7" width="158.6" height="24.65" shape-rendering="crispEdges"/><rect fill="#000000" x="219.6" y="440.7" width="12.2" height="24.65" shape-rendering="crispEdges"/><rect fill="#000000" x="231.8" y="440.7" width="390.4" height="24.65" shape-rendering="crispEdges"/><rect fill="#000000" x="622.2" y="440.7" width="12.2" height="24.65" shape-rendering="crispEdges"/><rect fill="#000000" x="634.4" y="440.7" width="780.8" height="24.65" shape-rendering="crispEdges"/><rect fill="#c0c0c0" x="1415.2" y="440.7" width="12.2" height="24.65" shape-rendering="crispEdges"/><rect fill="#000000" x="1427.4" y="440.7" width="36.6" height="24.65" shape-rendering="crispEdges"/><rect fill="#000000" x="0" y="465.1" width="48.8" height="24.65" shape-rendering="crispEdges"/><rect fill="#000000" x="48.8" y="465.1" width="585.6" height="24.65" shape-rendering="crispEdges"/><rect fill="#000000" x="634.4" y="465.1" width="780.8" height="24.65" shape-rendering="crispEdges"/><rect fill="#c0c0c0" x="1415.2" y="465.1" width="12.2" height="24.65" shape-rendering="crispEdges"/><rect fill="#000000" x="1427.4" y="465.1" width="36.6" height="24.65" shape-rendering="crispEdges"/><rect fill="#000000" x="0" y="489.5" width="1415.2" height="24.65" shape-rendering="crispEdges"/><rect fill="#c0c0c0" x="1415.2" y="489.5" width="12.2" height="24.65" shape-rendering="crispEdges"/><rect fill="#000000" x="1427.4" y="489.5" width="36.6" height="24.65" shape-rendering="crispEdges"/><rect fill="#000000" x="0" y="513.9" width="48.8" height="24.65" shape-rendering="crispEdges"/><rect fill="#000000" x="48.8" y="513.9" width="1354.2" height="24.65" shape-rendering="crispEdges"/><rect fill="#000000" x="1403" y="513.9" width="12.2" height="24.65" shape-rendering="crispEdges"/><rect fill="#c0c0c0" x="1415.2" y="513.9" width="12.2" height="24.65" shape-rendering="crispEdges"/><rect fill="#000000" x="1427.4" y="513.9" width="36.6" height="24.65" shape-rendering="crispEdges"/><rect fill="#000000" x="0" y="538.3" width="48.8" height="24.65" shape-rendering="crispEdges"/><rect fill="#000000" x="48.8" y="538.3" width="12.2" height="24.65" shape-rendering="crispEdges"/><rect fill="#000000" x="61" y="538.3" width="36.6" height="24.65" shape-rendering="crispEdges"/><rect fill="#000000" x="97.6" y="538.3" width="12.2" height="24.65" shape-rendering="crispEdges"/><rect fill="#000000" x="109.8" y="538.3" width="231.8" height="24.65" shape-rendering="crispEdges"/><rect fill="#000000" x="341.6" y="538.3" width="97.6" height="24.65" shape-rendering="crispEdges"/><rect fill="#000000" x="439.2" y="538.3" width="36.6" height="24.65" shape-rendering="crispEdges"/><rect fill="#000000" x="475.8" y="538.3" width="122" height="24.65" shape-rendering="crispEdges"/><rect fill="#000000" x="597.8" y="538.3" width="36.6" height="24.65" shape-rendering="crispEdges"/><rect fill="#000000" x="634.4" y="538.3" width="61" height="24.65" shape-rendering="crispEdges"/><rect fill="#000000" x="695.4" y="538.3" width="61" height="24.65" shape-rendering="crispEdges"/><rect fill="#000000" x="756.4" y="538.3" width="12.2" height="24.65" shape-rendering="crispEdges"/><rect fill="#000000" x="768.6" y="538.3" width="36.6" height="24.65" shape-rendering="crispEdges"/><rect fill="#000000" x="805.2" y="538.3" width="24.4" height="24.65" shape-rendering="crispEdges"/><rect fill="#000000" x="829.6" y="538.3" width="36.6" height="24.65" shape-rendering="crispEdges"/><rect fill="#000000" x="866.2" y="538.3" width="24.4" height="24.65" shape-rendering="crispEdges"/><rect fill="#000000" x="890.6" y="538.3" width="512.4" height="24.65" shape-rendering="crispEdges"/><rect fill="#000000" x="1403" y="538.3" width="12.2" height="24.65" shape-rendering="crispEdges"/><rect fill="#c0c0c0" x="1415.2" y="538.3" width="12.2" height="24.65" shape-rendering="crispEdges"/><rect fill="#000000" x="1427.4" y="538.3" width="36.6" height="24.65" shape-rendering="crispEdges"/><rect fill="#000000" x="0" y="562.7" width="48.8" height="24.65" shape-rendering="crispEdges"/><rect fill="#000000" x="48.8" y="562.7" width="12.2" height="24.65" shape-rendering="crispEdges"/><rect fill="#000000" x="61" y="562.7" width="48.8" height="24.65" shape-rendering="crispEdges"/><rect fill="#000000" x="109.8" y="562.7" width="73.2" height="24.65" shape-rendering="crispEdges"/><rect fill="#000000" x="183" y="562.7" width="170.8" height="24.65" shape-rendering="crispEdges"/><rect fill="#000000" x="353.8" y="562.7" width="1049.2" height="24.65" shape-rendering="crispEdges"/><rect fill="#000000" x="1403" y="562.7" width="12.2" height="24.65" shape-rendering="crispEdges"/><rect fill="#c0c0c0" x="1415.2" y="562.7" width="12.2" height="24.65" shape-rendering="crispEdges"/><rect fill="#000000" x="1427.4" y="562.7" width="36.6" height="24.65" shape-rendering="crispEdges"/><rect fill="#000000" x="0" y="587.1" width="48.8" height="24.65" shape-rendering="crispEdges"/><rect fill="#000000" x="48.8" y="587.1" width="1354.2" height="24.65" shape-rendering="crispEdges"/><rect fill="#000000" x="1403" y="587.1" width="12.2" height="24.65" shape-rendering="crispEdges"/><rect fill="#c0c0c0" x="1415.2" y="587.1" width="12.2" height="24.65" shape-rendering="crispEdges"/><rect fill="#000000" x="1427.4" y="587.1" width="36.6" height="24.65" shape-rendering="crispEdges"/><rect fill="#000000" x="0" y="611.5" width="1415.2" height="24.65" shape-rendering="crispEdges"/><rect fill="#c0c0c0" x="1415.2" y="611.5" width="12.2" height="24.65" shape-rendering="crispEdges"/><rect fill="#000000" x="1427.4" y="611.5" width="36.6" height="24.65" shape-rendering="crispEdges"/><rect fill="#000000" x="0" y="635.9" width="48.8" height="24.65" shape-rendering="crispEdges"/><rect fill="#000000" x="48.8" y="635.9" width="1354.2" height="24.65" shape-rendering="crispEdges"/><rect fill="#000000" x="1403" y="635.9" width="12.2" height="24.65" shape-rendering="crispEdges"/><rect fill="#c0c0c0" x="1415.2" y="635.9" width="12.2" height="24.65" shape-rendering="crispEdges"/><rect fill="#000000" x="1427.4" y="635.9" width="36.6" height="24.65" shape-rendering="crispEdges"/><rect fill="#000000" x="0" y="660.3" width="48.8" height="24.65" shape-rendering="crispEdges"/><rect fill="#000000" x="48.8" y="660.3" width="1354.2" height="24.65" shape-rendering="crispEdges"/><rect fill="#000000" x="1403" y="660.3" width="12.2" height="24.65" shape-rendering="crispEdges"/><rect fill="#c0c0c0" x="1415.2" y="660.3" width="12.2" height="24.65" shape-rendering="crispEdges"/><rect fill="#000000" x="1427.4" y="660.3" width="36.6" height="24.65" shape-rendering="crispEdges"/><rect fill="#000000" x="0" y="684.7" width="36.6" height="24.65" shape-rendering="crispEdges"/><rect fill="#000000" x="36.6" y="684.7" width="1378.6" height="24.65" shape-rendering="crispEdges"/><rect fill="#c0c0c0" x="1415.2" y="684.7" width="12.2" height="24.65" shape-rendering="crispEdges"/><rect fill="#000000" x="1427.4" y="684.7" width="36.6" height="24.65" shape-rendering="crispEdges"/><rect fill="#000000" x="0" y="709.1" width="36.6" height="24.65" shape-rendering="crispEdges"/><rect fill="#000000" x="36.6" y="709.1" width="1378.6" height="24.65" shape-rendering="crispEdges"/><rect fill="#c0c0c0" x="1415.2" y="709.1" width="12.2" height="24.65" shape-rendering="crispEdges"/><rect fill="#000000" x="1427.4" y="709.1" width="36.6" height="24.65" shape-rendering="crispEdges"/><rect fill="#000000" x="0" y="733.5" width="1464" height="24.65" shape-rendering="crispEdges"/><rect fill="#000000" x="0" y="757.9" width="1464" height="24.65" shape-rendering="crispEdges"/><rect fill="#000000" x="0" y="782.3" width="48.8" height="24.65" shape-rendering="crispEdges"/><rect fill="#000000" x="48.8" y="782.3" width="0" height="24.65" shape-rendering="crispEdges"/><rect fill="#000000" x="48.8" y="782.3" width="341.6" height="24.65" shape-rendering="crispEdges"/><rect fill="#000000" x="390.4" y="782.3" width="1024.8" height="24.65" shape-rendering="crispEdges"/><rect fill="#000000" x="1415.2" y="782.3" width="48.8" height="24.65" shape-rendering="crispEdges"/><rect fill="#000000" x="0" y="806.7" width="48.8" height="24.65" shape-rendering="crispEdges"/><rect fill="#000000" x="48.8" y="806.7" width="1366.4" height="24.65" shape-rendering="crispEdges"/><rect fill="#000000" x="1415.2" y="806.7" width="48.8" height="24.65" shape-rendering="crispEdges"/><rect fill="#000000" x="0" y="831.1" width="48.8" height="24.65" shape-rendering="crispEdges"/><rect fill="#000000" x="48.8" y="831.1" width="1098" height="24.65" shape-rendering="crispEdges"/><rect fill="#000000" x="1146.8" y="831.1" width="12.2" height="24.65" shape-rendering="crispEdges"/><rect fill="#000000" x="1159" y="831.1" width="109.8" height="24.65" shape-rendering="crispEdges"/><rect fill="#000000" x="1268.8" y="831.1" width="12.2" height="24.65" shape-rendering="crispEdges"/><rect fill="#000000" x="1281" y="831.1" width="12.2" height="24.65" shape-rendering="crispEdges"/><rect fill="#000000" x="1293.2" y="831.1" width="12.2" height="24.65" shape-rendering="crispEdges"/><rect fill="#000000" x="1305.4" y="831.1" width="97.6" height="24.65" shape-rendering="crispEdges"/><rect fill="#000000" x="1403" y="831.1" width="61" height="24.65" shape-rendering="crispEdges"/><rect fill="#000000" x="0" y="855.5" width="48.8" height="24.65" shape-rendering="crispEdges"/><rect fill="#000000" x="48.8" y="855.5" width="1366.4" height="24.65" shape-rendering="crispEdges"/><rect fill="#000000" x="1415.2" y="855.5" width="48.8" height="24.65" shape-rendering="crispEdges"/><rect fill="#000000" x="0" y="879.9" width="1464" height="24.65" shape-rendering="crispEdges"/><rect fill="#000000" x="0" y="904.3" width="36.6" height="24.65" shape-rendering="crispEdges"/><rect fill="#000000" x="36.6" y="904.3" width="1390.8" height="24.65" shape-rendering="crispEdges"/><rect fill="#000000" x="1427.4" y="904.3" width="36.6" height="24.65" shape-rendering="crispEdges"/><rect fill="#000000" x="0" y="928.7" width="48.8" height="24.65" shape-rendering="crispEdges"/><rect fill="#000000" x="48.8" y="928.7" width="1366.4" height="24.65" shape-rendering="crispEdges"/><rect fill="#000000" x="1415.2" y="928.7" width="48.8" height="24.65" shape-rendering="crispEdges"/><rect fill="#000000" x="0" y="953.1" width="1464" height="24.65" shape-rendering="crispEdges"/>
    <g class="terminal-3168176534-matrix">
    <text class="terminal-3168176534-r1" x="1464" y="20" textLength="12.2" clip-path="url(#terminal-3168176534-line-0)">
</text><text class="terminal-3168176534-r2" x="48.8" y="44.4" textLength="61" clip-path="url(#terminal-3168176534-line-1)">NEURO</text><text class="terminal-3168176534-r3" x="109.8" y="44.4" textLength="85.4" clip-path="url(#terminal-3168176534-line-1)">&#160;/&#160;CODE</text><text class="terminal-3168176534-r3" x="1354.2" y="44.4" textLength="61" clip-path="url(#terminal-3168176534-line-1)">13:37</text><text class="terminal-3168176534-r1" x="1464" y="44.4" textLength="12.2" clip-path="url(#terminal-3168176534-line-1)">
</text><text class="terminal-3168176534-r1" x="1464" y="68.8" textLength="12.2" clip-path="url(#terminal-3168176534-line-2)">
</text><text class="terminal-3168176534-r1" x="1464" y="93.2" textLength="12.2" clip-path="url(#terminal-3168176534-line-3)">
</text><text class="terminal-3168176534-r3" x="48.8" y="117.6" textLength="1354.2" clip-path="url(#terminal-3168176534-line-4)">wraps&#160;at&#160;the&#160;selected&#160;terminal&#160;width.&#160;The&#160;stable&#160;baseline&#160;should&#160;make&#160;changes&#160;to&#160;line&#160;flow&#160;and&#160;code&#160;treatment&#160;&#160;</text><text class="terminal-3168176534-r1" x="1464" y="117.6" textLength="12.2" clip-path="url(#terminal-3168176534-line-4)">
</text><text class="terminal-3168176534-r3" x="48.8" y="142" textLength="1354.2" clip-path="url(#terminal-3168176534-line-5)">visible&#160;without&#160;relying&#160;on&#160;a&#160;live&#160;repository&#160;or&#160;a&#160;real&#160;model&#160;response.&#160;&#160;&#160;&#160;&#160;&#160;&#160;&#160;&#160;&#160;&#160;&#160;&#160;&#160;&#160;&#160;&#160;&#160;&#160;&#160;&#160;&#160;&#160;&#160;&#160;&#160;&#160;&#160;&#160;&#160;&#160;&#160;&#160;&#160;&#160;&#160;&#160;&#160;&#160;&#160;&#160;</text><text class="terminal-3168176534-r1" x="1464" y="142" textLength="12.2" clip-path="url(#terminal-3168176534-line-5)">
</text><text class="terminal-3168176534-r1" x="1464" y="166.4" textLength="12.2" clip-path="url(#terminal-3168176534-line-6)">
</text><text class="terminal-3168176534-r2" x="48.8" y="190.8" textLength="97.6" clip-path="url(#terminal-3168176534-line-7)">Evidence</text><text class="terminal-3168176534-r1" x="1464" y="190.8" textLength="12.2" clip-path="url(#terminal-3168176534-line-7)">
</text><text class="terminal-3168176534-r1" x="1464" y="215.2" textLength="12.2" clip-path="url(#terminal-3168176534-line-8)">
</text><text class="terminal-3168176534-r2" x="48.8" y="239.6" textLength="36.6" clip-path="url(#terminal-3168176534-line-9)">&#160;•&#160;</text><text class="terminal-3168176534-r4" x="85.4" y="239.6" textLength="439.2" clip-path="url(#terminal-3168176534-line-9)">src/neuro_code/interfaces/tui/app.py</text><text class="terminal-3168176534-r3" x="524.6" y="239.6" textLength="878.4" clip-path="url(#terminal-3168176534-line-9)">&#160;owns&#160;the&#160;main&#160;shell.&#160;&#160;&#160;&#160;&#160;&#160;&#160;&#160;&#160;&#160;&#160;&#160;&#160;&#160;&#160;&#160;&#160;&#160;&#160;&#160;&#160;&#160;&#160;&#160;&#160;&#160;&#160;&#160;&#160;&#160;&#160;&#160;&#160;&#160;&#160;&#160;&#160;&#160;&#160;&#160;&#160;&#160;&#160;&#160;&#160;&#160;&#160;&#160;&#160;&#160;&#160;</text><text class="terminal-3168176534-r1" x="1464" y="239.6" textLength="12.2" clip-path="url(#terminal-3168176534-line-9)">
</text><text class="terminal-3168176534-r2" x="48.8" y="264" textLength="36.6" clip-path="url(#terminal-3168176534-line-10)">&#160;•&#160;</text><text class="terminal-3168176534-r3" x="85.4" y="264" textLength="1317.6" clip-path="url(#terminal-3168176534-line-10)">Settings&#160;and&#160;trace&#160;are&#160;separate&#160;modal&#160;surfaces.&#160;&#160;&#160;&#160;&#160;&#160;&#160;&#160;&#160;&#160;&#160;&#160;&#160;&#160;&#160;&#160;&#160;&#160;&#160;&#160;&#160;&#160;&#160;&#160;&#160;&#160;&#160;&#160;&#160;&#160;&#160;&#160;&#160;&#160;&#160;&#160;&#160;&#160;&#160;&#160;&#160;&#160;&#160;&#160;&#160;&#160;&#160;&#160;&#160;&#160;&#160;&#160;&#160;&#160;&#160;&#160;&#160;&#160;&#160;&#160;&#160;</text><text class="terminal-3168176534-r1" x="1464" y="264" textLength="12.2" clip-path="url(#terminal-3168176534-line-10)">
</text><text class="terminal-3168176534-r2" x="48.8" y="288.4" textLength="36.6" clip-path="url(#terminal-3168176534-line-11)">&#160;•&#160;</text><text class="terminal-3168176534-r3" x="85.4" y="288.4" textLength="1317.6" clip-path="url(#terminal-3168176534-line-11)">Tool&#160;activity&#160;is&#160;grouped&#160;into&#160;a&#160;bounded&#160;presentation&#160;block.&#160;&#160;&#160;&#160;&#160;&#160;&#160;&#160;&#160;&#160;&#160;&#160;&#160;&#160;&#160;&#160;&#160;&#160;&#160;&#160;&#160;&#160;&#160;&#160;&#160;&#160;&#160;&#160;&#160;&#160;&#160;&#160;&#160;&#160;&#160;&#160;&#160;&#160;&#160;&#160;&#160;&#160;&#160;&#160;&#160;&#160;&#160;&#160;&#160;</text><text class="terminal-3168176534-r5" x="1415.2" y="288.4" textLength="12.2" clip-path="url(#terminal-3168176534-line-11)">▇</text><text class="terminal-3168176534-r1" x="1464" y="288.4" textLength="12.2" clip-path="url(#terminal-3168176534-line-11)">
</text><text class="terminal-3168176534-r1" x="1464" y="312.8" textLength="12.2" clip-path="url(#terminal-3168176534-line-12)">
</text><text class="terminal-3168176534-r1" x="1464" y="337.2" textLength="12.2" clip-path="url(#terminal-3168176534-line-13)">
</text><text class="terminal-3168176534-r2" x="61" y="361.6" textLength="158.6" clip-path="url(#terminal-3168176534-line-14)">Surface&#160;&#160;&#160;&#160;&#160;&#160;</text><text class="terminal-3168176534-r2" x="231.8" y="361.6" textLength="390.4" clip-path="url(#terminal-3168176534-line-14)">Fixture&#160;purpose&#160;&#160;&#160;&#160;&#160;&#160;&#160;&#160;&#160;&#160;&#160;&#160;&#160;&#160;&#160;&#160;&#160;</text><text class="terminal-3168176534-r1" x="1464" y="361.6" textLength="12.2" clip-path="url(#terminal-3168176534-line-14)">
</text><text class="terminal-3168176534-r5" x="48.8" y="386" textLength="585.6" clip-path="url(#terminal-3168176534-line-15)">&#160;──────────────────────────────────────────────&#160;</text><text class="terminal-3168176534-r1" x="1464" y="386" textLength="12.2" clip-path="url(#terminal-3168176534-line-15)">
</text><text class="terminal-3168176534-r3" x="61" y="410.4" textLength="158.6" clip-path="url(#terminal-3168176534-line-16)">Conversation&#160;</text><text class="terminal-3168176534-r3" x="231.8" y="410.4" textLength="390.4" clip-path="url(#terminal-3168176534-line-16)">Reading&#160;axis&#160;and&#160;message&#160;spacing</text><text class="terminal-3168176534-r1" x="1464" y="410.4" textLength="12.2" clip-path="url(#terminal-3168176534-line-16)">
</text><text class="terminal-3168176534-r3" x="61" y="434.8" textLength="158.6" clip-path="url(#terminal-3168176534-line-17)">Code&#160;&#160;&#160;&#160;&#160;&#160;&#160;&#160;&#160;</text><text class="terminal-3168176534-r3" x="231.8" y="434.8" textLength="390.4" clip-path="url(#terminal-3168176534-line-17)">Isolated&#160;syntax&#160;palette&#160;&#160;&#160;&#160;&#160;&#160;&#160;&#160;&#160;</text><text class="terminal-3168176534-r1" x="1464" y="434.8" textLength="12.2" clip-path="url(#terminal-3168176534-line-17)">
</text><text class="terminal-3168176534-r3" x="61" y="459.2" textLength="158.6" clip-path="url(#terminal-3168176534-line-18)">Composer&#160;&#160;&#160;&#160;&#160;</text><text class="terminal-3168176534-r3" x="231.8" y="459.2" textLength="390.4" clip-path="url(#terminal-3168176534-line-18)">Fixed&#160;footer&#160;and&#160;multiline&#160;input</text><text class="terminal-3168176534-r1" x="1464" y="459.2" textLength="12.2" clip-path="url(#terminal-3168176534-line-18)">
</text><text class="terminal-3168176534-r1" x="1464" y="483.6" textLength="12.2" clip-path="url(#terminal-3168176534-line-19)">
</text><text class="terminal-3168176534-r1" x="1464" y="508" textLength="12.2" clip-path="url(#terminal-3168176534-line-20)">
</text><text class="terminal-3168176534-r1" x="1464" y="532.4" textLength="12.2" clip-path="url(#terminal-3168176534-line-21)">
</text><text class="terminal-3168176534-r6" x="61" y="556.8" textLength="36.6" clip-path="url(#terminal-3168176534-line-22)">def</text><text class="terminal-3168176534-r6" x="109.8" y="556.8" textLength="231.8" clip-path="url(#terminal-3168176534-line-22)">stable_visual_state</text><text class="terminal-3168176534-r3" x="341.6" y="556.8" textLength="97.6" clip-path="url(#terminal-3168176534-line-22)">(width:&#160;</text><text class="terminal-3168176534-r4" x="439.2" y="556.8" textLength="36.6" clip-path="url(#terminal-3168176534-line-22)">int</text><text class="terminal-3168176534-r3" x="475.8" y="556.8" textLength="122" clip-path="url(#terminal-3168176534-line-22)">,&#160;height:&#160;</text><text class="terminal-3168176534-r4" x="597.8" y="556.8" textLength="36.6" clip-path="url(#terminal-3168176534-line-22)">int</text><text class="terminal-3168176534-r3" x="634.4" y="556.8" textLength="61" clip-path="url(#terminal-3168176534-line-22)">)&#160;-&gt;&#160;</text><text class="terminal-3168176534-r4" x="695.4" y="556.8" textLength="61" clip-path="url(#terminal-3168176534-line-22)">tuple</text><text class="terminal-3168176534-r3" x="756.4" y="556.8" textLength="12.2" clip-path="url(#terminal-3168176534-line-22)">[</text><text class="terminal-3168176534-r4" x="768.6" y="556.8" textLength="36.6" clip-path="url(#terminal-3168176534-line-22)">int</text><text class="terminal-3168176534-r3" x="805.2" y="556.8" textLength="24.4" clip-path="url(#terminal-3168176534-line-22)">,&#160;</text><text class="terminal-3168176534-r4" x="829.6" y="556.8" textLength="36.6" clip-path="url(#terminal-3168176534-line-22)">int</text><text class="terminal-3168176534-r3" x="866.2" y="556.8" textLength="24.4" clip-path="url(#terminal-3168176534-line-22)">]:</text><text class="terminal-3168176534-r1" x="1464" y="556.8" textLength="12.2" clip-path="url(#terminal-3168176534-line-22)">
</text><text class="terminal-3168176534-r6" x="109.8" y="581.2" textLength="73.2" clip-path="url(#terminal-3168176534-line-23)">return</text><text class="terminal-3168176534-r3" x="183" y="581.2" textLength="170.8" clip-path="url(#terminal-3168176534-line-23)">&#160;width,&#160;height</text><text class="terminal-3168176534-r1" x="1464" y="581.2" textLength="12.2" clip-path="url(#terminal-3168176534-line-23)">
</text><text class="terminal-3168176534-r1" x="1464" y="605.6" textLength="12.2" clip-path="url(#terminal-3168176534-line-24)">
</text><text class="terminal-3168176534-r1" x="1464" y="630" textLength="12.2" clip-path="url(#terminal-3168176534-line-25)">
</text><text class="terminal-3168176534-r3" x="48.8" y="654.4" textLength="1354.2" clip-path="url(#terminal-3168176534-line-26)">The&#160;final&#160;paragraph&#160;gives&#160;the&#160;long-message&#160;viewport&#160;a&#160;repeatable&#160;continuation&#160;and&#160;exercises&#160;the&#160;same&#160;Markdown&#160;&#160;</text><text class="terminal-3168176534-r1" x="1464" y="654.4" textLength="12.2" clip-path="url(#terminal-3168176534-line-26)">
</text><text class="terminal-3168176534-r3" x="48.8" y="678.8" textLength="1354.2" clip-path="url(#terminal-3168176534-line-27)">renderer&#160;used&#160;for&#160;ordinary&#160;assistant&#160;messages.&#160;&#160;&#160;&#160;&#160;&#160;&#160;&#160;&#160;&#160;&#160;&#160;&#160;&#160;&#160;&#160;&#160;&#160;&#160;&#160;&#160;&#160;&#160;&#160;&#160;&#160;&#160;&#160;&#160;&#160;&#160;&#160;&#160;&#160;&#160;&#160;&#160;&#160;&#160;&#160;&#160;&#160;&#160;&#160;&#160;&#160;&#160;&#160;&#160;&#160;&#160;&#160;&#160;&#160;&#160;&#160;&#160;&#160;&#160;&#160;&#160;&#160;&#160;&#160;&#160;</text><text class="terminal-3168176534-r1" x="1464" y="678.8" textLength="12.2" clip-path="url(#terminal-3168176534-line-27)">
</text><text class="terminal-3168176534-r1" x="1464" y="703.2" textLength="12.2" clip-path="url(#terminal-3168176534-line-28)">
</text><text class="terminal-3168176534-r1" x="1464" y="727.6" textLength="12.2" clip-path="url(#terminal-3168176534-line-29)">
</text><text class="terminal-3168176534-r1" x="1464" y="752" textLength="12.2" clip-path="url(#terminal-3168176534-line-30)">
</text><text class="terminal-3168176534-r1" x="1464" y="776.4" textLength="12.2" clip-path="url(#terminal-3168176534-line-31)">
</text><text class="terminal-3168176534-r3" x="48.8" y="800.8" textLength="341.6" clip-path="url(#terminal-3168176534-line-32)">What&#160;shall&#160;we&#160;work&#160;on&#160;next?&#160;</text><text class="terminal-3168176534-r1" x="1464" y="800.8" textLength="12.2" clip-path="url(#terminal-3168176534-line-32)">
</text><text class="terminal-3168176534-r1" x="1464" y="825.2" textLength="12.2" clip-path="url(#terminal-3168176534-line-33)">
</text><text class="terminal-3168176534-r3" x="48.8" y="849.6" textLength="1098" clip-path="url(#terminal-3168176534-line-34)">Ctrl+J&#160;/&#160;F2&#160;newline&#160;·&#160;/&#160;commands&#160;&#160;&#160;&#160;&#160;&#160;&#160;&#160;&#160;&#160;&#160;&#160;&#160;&#160;&#160;&#160;&#160;&#160;&#160;&#160;&#160;&#160;&#160;&#160;&#160;&#160;&#160;&#160;&#160;&#160;&#160;&#160;&#160;&#160;&#160;&#160;&#160;&#160;&#160;&#160;&#160;&#160;&#160;&#160;&#160;&#160;&#160;&#160;&#160;&#160;&#160;&#160;&#160;&#160;&#160;&#160;&#160;&#160;</text><text class="terminal-3168176534-r3" x="1159" y="849.6" textLength="109.8" clip-path="url(#terminal-3168176534-line-34)">&#160;Newline&#160;</text><text class="terminal-3168176534-r6" x="1305.4" y="849.6" textLength="97.6" clip-path="url(#terminal-3168176534-line-34)">&#160;Send&#160;↑&#160;</text><text class="terminal-3168176534-r1" x="1464" y="849.6" textLength="12.2" clip-path="url(#terminal-3168176534-line-34)">
</text><text class="terminal-3168176534-r1" x="1464" y="874" textLength="12.2" clip-path="url(#terminal-3168176534-line-35)">
</text><text class="terminal-3168176534-r1" x="1464" y="898.4" textLength="12.2" clip-path="url(#terminal-3168176534-line-36)">
</text><text class="terminal-3168176534-r1" x="1464" y="922.8" textLength="12.2" clip-path="url(#terminal-3168176534-line-37)">
</text><text class="terminal-3168176534-r3" x="48.8" y="947.2" textLength="1366.4" clip-path="url(#terminal-3168176534-line-38)">fixture-model&#160;&#160;&#160;&#160;&#160;&#160;&#160;&#160;&#160;&#160;&#160;&#160;&#160;&#160;&#160;&#160;&#160;&#160;&#160;&#160;&#160;&#160;&#160;&#160;&#160;&#160;&#160;&#160;&#160;&#160;&#160;&#160;&#160;&#160;&#160;&#160;&#160;&#160;&#160;&#160;&#160;&#160;&#160;&#160;&#160;·&#160;high&#160;·&#160;normal&#160;&#160;ctx&#160;≈0&#160;tok&#160;&#160;&#160;&#160;&#160;&#160;/workspace/neuro-code</text><text class="terminal-3168176534-r1" x="1464" y="947.2" textLength="12.2" clip-path="url(#terminal-3168176534-line-38)">
</text>
    </g>
    </g>
</svg>
