<svg class="rich-terminal" viewBox="0 0 1238 830.8" xmlns="http://www.w3.org/2000/svg">
    <!-- Generated with Rich https://www.textualize.io -->
    <style>

    @font-face {
        font-family: "Fira Code";
        src: local("FiraCode-Regular"),
                url("https://cdnjs.cloudflare.com/ajax/libs/firacode/6.2.0/woff2/FiraCode-Regular.woff2") format("woff2"),
                url("https://cdnjs.cloudflare.com/ajax/libs/firacode/6.2.0/woff/FiraCode-Regular.woff") format("woff");
        font-style: normal;
        font-weight: 400;
    }
    @font-face {
        font-family: "Fira Code";
        src: local("FiraCode-Bold"),
                url("https://cdnjs.cloudflare.com/ajax/libs/firacode/6.2.0/woff2/FiraCode-Bold.woff2") format("woff2"),
                url("https://cdnjs.cloudflare.com/ajax/libs/firacode/6.2.0/woff/FiraCode-Bold.woff") format("woff");
        font-style: bold;
        font-weight: 700;
    }

    .terminal-1174115241-matrix {
        font-family: Fira Code, monospace;
        font-size: 20px;
        line-height: 24.4px;
        font-variant-east-asian: full-width;
    }

    .terminal-1174115241-title {
        font-size: 18px;
        font-weight: bold;
        font-family: arial;
    }

    .terminal-1174115241-r1 { fill: #c5c8c6 }
.terminal-1174115241-r2 { fill: #000000 }
.terminal-1174115241-r3 { fill: #c0c0c0 }
.terminal-1174115241-r4 { fill: #000000;font-weight: bold }
.terminal-1174115241-r5 { fill: #121212 }
    </style>

    <defs>
    <clipPath id="terminal-1174115241-clip-terminal">
      <rect x="0" y="0" width="1219.0" height="779.8" />
    </clipPath>
    <clipPath id="terminal-1174115241-line-0">
    <rect x="0" y="1.5" width="1220" height="24.65"/>
            </clipPath>
<clipPath id="terminal-1174115241-line-1">
    <rect x="0" y="25.9" width="1220" height="24.65"/>
            </clipPath>
<clipPath id="terminal-1174115241-line-2">
    <rect x="0" y="50.3" width="1220" height="24.65"/>
            </clipPath>
<clipPath id="terminal-1174115241-line-3">
    <rect x="0" y="74.7" width="1220" height="24.65"/>
            </clipPath>
<clipPath id="terminal-1174115241-line-4">
    <rect x="0" y="99.1" width="1220" height="24.65"/>
            </clipPath>
<clipPath id="terminal-1174115241-line-5">
    <rect x="0" y="123.5" width="1220" height="24.65"/>
            </clipPath>
<clipPath id="terminal-1174115241-line-6">
    <rect x="0" y="147.9" width="1220" height="24.65"/>
            </clipPath>
<clipPath id="terminal-1174115241-line-7">
    <rect x="0" y="172.3" width="1220" height="24.65"/>
            </clipPath>
<clipPath id="terminal-1174115241-line-8">
    <rect x="0" y="196.7" width="1220" height="24.65"/>
            </clipPath>
<clipPath id="terminal-1174115241-line-9">
    <rect x="0" y="221.1" width="1220" height="24.65"/>
            </clipPath>
<clipPath id="terminal-1174115241-line-10">
    <rect x="0" y="245.5" width="1220" height="24.65"/>
            </clipPath>
<clipPath id="terminal-1174115241-line-11">
    <rect x="0" y="269.9" width="1220" height="24.65"/>
            </clipPath>
<clipPath id="terminal-1174115241-line-12">
    <rect x="0" y="294.3" width="1220" height="24.65"/>
            </clipPath>
<clipPath id="terminal-1174115241-line-13">
    <rect x="0" y="318.7" width="1220" height="24.65"/>
            </clipPath>
<clipPath id="terminal-1174115241-line-14">
    <rect x="0" y="343.1" width="1220" height="24.65"/>
            </clipPath>
<clipPath id="terminal-1174115241-line-15">
    <rect x="0" y="367.5" width="1220" height="24.65"/>
            </clipPath>
<clipPath id="terminal-1174115241-line-16">
    <rect x="0" y="391.9" width="1220" height="24.65"/>
            </clipPath>
<clipPath id="terminal-1174115241-line-17">
    <rect x="0" y="416.3" width="1220" height="24.65"/>
            </clipPath>
<clipPath id="terminal-1174115241-line-18">
    <rect x="0" y="440.7" width="1220" height="24.65"/>
            </clipPath>
<clipPath id="terminal-1174115241-line-19">
    <rect x="0" y="465.1" width="1220" height="24.65"/>
            </clipPath>
<clipPath id="terminal-1174115241-line-20">
    <rect x="0" y="489.5" width="1220" height="24.65"/>
            </clipPath>
<clipPath id="terminal-1174115241-line-21">
    <rect x="0" y="513.9" width="1220" height="24.65"/>
            </clipPath>
<clipPath id="terminal-1174115241-line-22">
    <rect x="0" y="538.3" width="1220" height="24.65"/>
            </clipPath>
<clipPath id="terminal-1174115241-line-23">
    <rect x="0" y="562.7" width="1220" height="24.65"/>
            </clipPath>
<clipPath id="terminal-1174115241-line-24">
    <rect x="0" y="587.1" width="1220" height="24.65"/>
            </clipPath>
<clipPath id="terminal-1174115241-line-25">
    <rect x="0" y="611.5" width="1220" height="24.65"/>
            </clipPath>
<clipPath id="terminal-1174115241-line-26">
    <rect x="0" y="635.9" width="1220" height="24.65"/>
            </clipPath>
<clipPath id="terminal-1174115241-line-27">
    <rect x="0" y="660.3" width="1220" height="24.65"/>
            </clipPath>
<clipPath id="terminal-1174115241-line-28">
    <rect x="0" y="684.7" width="1220" height="24.65"/>
            </clipPath>
<clipPath id="terminal-1174115241-line-29">
    <rect x="0" y="709.1" width="1220" height="24.65"/>
            </clipPath>
<clipPath id="terminal-1174115241-line-30">
    <rect x="0" y="733.5" width="1220" height="24.65"/>
            </clipPath>
    </defs>

    <rect fill="#292929" stroke="rgba(255,255,255,0.35)" stroke-width="1" x="1" y="1" width="1236" height="828.8" rx="8"/><text class="terminal-1174115241-title" fill="#c5c8c6" text-anchor="middle" x="618" y="27">Neuro&#160;Code&#160;visual&#160;baseline</text>
            <g transform="translate(26,22)">
            <circle cx="0" cy="0" r="7" fill="#ff5f57"/>
            <circle cx="22" cy="0" r="7" fill="#febc2e"/>
            <circle cx="44" cy="0" r="7" fill="#28c840"/>
            </g>

    <g transform="translate(9, 41)" clip-path="url(#terminal-1174115241-clip-terminal)">
    <rect fill="#000000" x="0" y="1.5" width="1220" height="24.65" shape-rendering="crispEdges"/><rect fill="#000000" x="0" y="25.9" width="48.8" height="24.65" shape-rendering="crispEdges"/><rect fill="#000000" x="48.8" y="25.9" width="61" height="24.65" shape-rendering="crispEdges"/><rect fill="#000000" x="109.8" y="25.9" width="85.4" height="24.65" shape-rendering="crispEdges"/><rect fill="#000000" x="195.2" y="25.9" width="0" height="24.65" shape-rendering="crispEdges"/><rect fill="#000000" x="195.2" y="25.9" width="915" height="24.65" shape-rendering="crispEdges"/><rect fill="#000000" x="1110.2" y="25.9" width="61" height="24.65" shape-rendering="crispEdges"/><rect fill="#000000" x="1171.2" y="25.9" width="48.8" height="24.65" shape-rendering="crispEdges"/><rect fill="#000000" x="0" y="50.3" width="48.8" height="24.65" shape-rendering="crispEdges"/><rect fill="#000000" x="48.8" y="50.3" width="1122.4" height="24.65" shape-rendering="crispEdges"/><rect fill="#000000" x="1171.2" y="50.3" width="48.8" height="24.65" shape-rendering="crispEdges"/><rect fill="#000000" x="0" y="74.7" width="1220" height="24.65" shape-rendering="crispEdges"/><rect fill="#000000" x="0" y="99.1" width="1171.2" height="24.65" shape-rendering="crispEdges"/><rect fill="#000000" x="1171.2" y="99.1" width="12.2" height="24.65" shape-rendering="crispEdges"/><rect fill="#000000" x="1183.4" y="99.1" width="36.6" height="24.65" shape-rendering="crispEdges"/><rect fill="#000000" x="0" y="123.5" width="48.8" height="24.65" shape-rendering="crispEdges"/><rect fill="#000000" x="48.8" y="123.5" width="585.6" height="24.65" shape-rendering="crispEdges"/><rect fill="#000000" x="634.4" y="123.5" width="536.8" height="24.65" shape-rendering="crispEdges"/><rect fill="#000000" x="1171.2" y="123.5" width="12.2" height="24.65" shape-rendering="crispEdges"/><rect fill="#000000" x="1183.4" y="123.5" width="36.6" height="24.65" shape-rendering="crispEdges"/><rect fill="#000000" x="0" y="147.9" width="48.8" height="24.65" shape-rendering="crispEdges"/><rect fill="#000000" x="48.8" y="147.9" width="12.2" height="24.65" shape-rendering="crispEdges"/><rect fill="#000000" x="61" y="147.9" width="158.6" height="24.65" shape-rendering="crispEdges"/><rect fill="#000000" x="219.6" y="147.9" width="12.2" height="24.65" shape-rendering="crispEdges"/><rect fill="#000000" x="231.8" y="147.9" width="390.4" height="24.65" shape-rendering="crispEdges"/><rect fill="#000000" x="622.2" y="147.9" width="12.2" height="24.65" shape-rendering="crispEdges"/><rect fill="#000000" x="634.4" y="147.9" width="536.8" height="24.65" shape-rendering="crispEdges"/><rect fill="#000000" x="1171.2" y="147.9" width="12.2" height="24.65" shape-rendering="crispEdges"/><rect fill="#000000" x="1183.4" y="147.9" width="36.6" height="24.65" shape-rendering="crispEdges"/><rect fill="#000000" x="0" y="172.3" width="48.8" height="24.65" shape-rendering="crispEdges"/><rect fill="#000000" x="48.8" y="172.3" width="585.6" height="24.65" shape-rendering="crispEdges"/><rect fill="#000000" x="634.4" y="172.3" width="536.8" height="24.65" shape-rendering="crispEdges"/><rect fill="#000000" x="1171.2" y="172.3" width="12.2" height="24.65" shape-rendering="crispEdges"/><rect fill="#000000" x="1183.4" y="172.3" width="36.6" height="24.65" shape-rendering="crispEdges"/><rect fill="#000000" x="0" y="196.7" width="48.8" height="24.65" shape-rendering="crispEdges"/><rect fill="#000000" x="48.8" y="196.7" width="12.2" height="24.65" shape-rendering="crispEdges"/><rect fill="#000000" x="61" y="196.7" width="158.6" height="24.65" shape-rendering="crispEdges"/><rect fill="#000000" x="219.6" y="196.7" width="12.2" height="24.65" shape-rendering="crispEdges"/><rect fill="#000000" x="231.8" y="196.7" width="390.4" height="24.65" shape-rendering="crispEdges"/><rect fill="#000000" x="622.2" y="196.7" width="12.2" height="24.65" shape-rendering="crispEdges"/><rect fill="#000000" x="634.4" y="196.7" width="536.8" height="24.65" shape-rendering="crispEdges"/><rect fill="#000000" x="1171.2" y="196.7" width="12.2" height="24.65" shape-rendering="crispEdges"/><rect fill="#000000" x="1183.4" y="196.7" width="36.6" height="24.65" shape-rendering="crispEdges"/><rect fill="#000000" x="0" y="221.1" width="48.8" height="24.65" shape-rendering="crispEdges"/><rect fill="#000000" x="48.8" y="221.1" width="12.2" height="24.65" shape-rendering="crispEdges"/><rect fill="#000000" x="61" y="221.1" width="158.6" height="24.65" shape-rendering="crispEdges"/><rect fill="#000000" x="219.6" y="221.1" width="12.2" height="24.65" shape-rendering="crispEdges"/><rect fill="#000000" x="231.8" y="221.1" width="390.4" height="24.65" shape-rendering="crispEdges"/><rect fill="#000000" x="622.2" y="221.1" width="12.2" height="24.65" shape-rendering="crispEdges"/><rect fill="#000000" x="634.4" y="221.1" width="536.8" height="24.65" shape-rendering="crispEdges"/><rect fill="#000000" x="1171.2" y="221.1" width="12.2" height="24.65" shape-rendering="crispEdges"/><rect fill="#000000" x="1183.4" y="221.1" width="36.6" height="24.65" shape-rendering="crispEdges"/><rect fill="#000000" x="0" y="245.5" width="48.8" height="24.65" shape-rendering="crispEdges"/><rect fill="#000000" x="48.8" y="245.5" width="12.2" height="24.65" shape-rendering="crispEdges"/><rect fill="#000000" x="61" y="245.5" width="158.6" height="24.65" shape-rendering="crispEdges"/><rect fill="#000000" x="219.6" y="245.5" width="12.2" height="24.65" shape-rendering="crispEdges"/><rect fill="#000000" x="231.8" y="245.5" width="390.4" height="24.65" shape-rendering="crispEdges"/><rect fill="#000000" x="622.2" y="245.5" width="12.2" height="24.65" shape-rendering="crispEdges"/><rect fill="#000000" x="634.4" y="245.5" width="536.8" height="24.65" shape-rendering="crispEdges"/><rect fill="#000000" x="1171.2" y="245.5" width="12.2" height="24.65" shape-rendering="crispEdges"/><rect fill="#000000" x="1183.4" y="245.5" width="36.6" height="24.65" shape-rendering="crispEdges"/><rect fill="#000000" x="0" y="269.9" width="48.8" height="24.65" shape-rendering="crispEdges"/><rect fill="#000000" x="48.8" y="269.9" width="585.6" height="24.65" shape-rendering="crispEdges"/><rect fill="#000000" x="634.4" y="269.9" width="536.8" height="24.65" shape-rendering="crispEdges"/><rect fill="#000000" x="1171.2" y="269.9" width="12.2" height="24.65" shape-rendering="crispEdges"/><rect fill="#000000" x="1183.4" y="269.9" width="36.6" height="24.65" shape-rendering="crispEdges"/><rect fill="#000000" x="0" y="294.3" width="1171.2" height="24.65" shape-rendering="crispEdges"/><rect fill="#000000" x="1171.2" y="294.3" width="12.2" height="24.65" shape-rendering="crispEdges"/><rect fill="#000000" x="1183.4" y="294.3" width="36.6" height="24.65" shape-rendering="crispEdges"/><rect fill="#000000" x="0" y="318.7" width="48.8" height="24.65" shape-rendering="crispEdges"/><rect fill="#000000" x="48.8" y="318.7" width="1110.2" height="24.65" shape-rendering="crispEdges"/><rect fill="#000000" x="1159" y="318.7" width="12.2" height="24.65" shape-rendering="crispEdges"/><rect fill="#000000" x="1171.2" y="318.7" width="12.2" height="24.65" shape-rendering="crispEdges"/><rect fill="#000000" x="1183.4" y="318.7" width="36.6" height="24.65" shape-rendering="crispEdges"/><rect fill="#000000" x="0" y="343.1" width="48.8" height="24.65" shape-rendering="crispEdges"/><rect fill="#000000" x="48.8" y="343.1" width="12.2" height="24.65" shape-rendering="crispEdges"/><rect fill="#000000" x="61" y="343.1" width="36.6" height="24.65" shape-rendering="crispEdges"/><rect fill="#000000" x="97.6" y="343.1" width="12.2" height="24.65" shape-rendering="crispEdges"/><rect fill="#000000" x="109.8" y="343.1" width="231.8" height="24.65" shape-rendering="crispEdges"/><rect fill="#000000" x="341.6" y="343.1" width="97.6" height="24.65" shape-rendering="crispEdges"/><rect fill="#000000" x="439.2" y="343.1" width="36.6" height="24.65" shape-rendering="crispEdges"/><rect fill="#000000" x="475.8" y="343.1" width="122" height="24.65" shape-rendering="crispEdges"/><rect fill="#000000" x="597.8" y="343.1" width="36.6" height="24.65" shape-rendering="crispEdges"/><rect fill="#000000" x="634.4" y="343.1" width="61" height="24.65" shape-rendering="crispEdges"/><rect fill="#000000" x="695.4" y="343.1" width="61" height="24.65" shape-rendering="crispEdges"/><rect fill="#000000" x="756.4" y="343.1" width="12.2" height="24.65" shape-rendering="crispEdges"/><rect fill="#000000" x="768.6" y="343.1" width="36.6" height="24.65" shape-rendering="crispEdges"/><rect fill="#000000" x="805.2" y="343.1" width="24.4" height="24.65" shape-rendering="crispEdges"/><rect fill="#000000" x="829.6" y="343.1" width="36.6" height="24.65" shape-rendering="crispEdges"/><rect fill="#000000" x="866.2" y="343.1" width="24.4" height="24.65" shape-rendering="crispEdges"/><rect fill="#000000" x="890.6" y="343.1" width="268.4" height="24.65" shape-rendering="crispEdges"/><rect fill="#000000" x="1159" y="343.1" width="12.2" height="24.65" shape-rendering="crispEdges"/><rect fill="#c0c0c0" x="1171.2" y="343.1" width="12.2" height="24.65" shape-rendering="crispEdges"/><rect fill="#000000" x="1183.4" y="343.1" width="36.6" height="24.65" shape-rendering="crispEdges"/><rect fill="#000000" x="0" y="367.5" width="48.8" height="24.65" shape-rendering="crispEdges"/><rect fill="#000000" x="48.8" y="367.5" width="12.2" height="24.65" shape-rendering="crispEdges"/><rect fill="#000000" x="61" y="367.5" width="48.8" height="24.65" shape-rendering="crispEdges"/><rect fill="#000000" x="109.8" y="367.5" width="73.2" height="24.65" shape-rendering="crispEdges"/><rect fill="#000000" x="183" y="367.5" width="170.8" height="24.65" shape-rendering="crispEdges"/><rect fill="#000000" x="353.8" y="367.5" width="805.2" height="24.65" shape-rendering="crispEdges"/><rect fill="#000000" x="1159" y="367.5" width="12.2" height="24.65" shape-rendering="crispEdges"/><rect fill="#c0c0c0" x="1171.2" y="367.5" width="12.2" height="24.65" shape-rendering="crispEdges"/><rect fill="#000000" x="1183.4" y="367.5" width="36.6" height="24.65" shape-rendering="crispEdges"/><rect fill="#000000" x="0" y="391.9" width="48.8" height="24.65" shape-rendering="crispEdges"/><rect fill="#000000" x="48.8" y="391.9" width="1110.2" height="24.65" shape-rendering="crispEdges"/><rect fill="#000000" x="1159" y="391.9" width="12.2" height="24.65" shape-rendering="crispEdges"/><rect fill="#c0c0c0" x="1171.2" y="391.9" width="12.2" height="24.65" shape-rendering="crispEdges"/><rect fill="#000000" x="1183.4" y="391.9" width="36.6" height="24.65" shape-rendering="crispEdges"/><rect fill="#000000" x="0" y="416.3" width="1171.2" height="24.65" shape-rendering="crispEdges"/><rect fill="#c0c0c0" x="1171.2" y="416.3" width="12.2" height="24.65" shape-rendering="crispEdges"/><rect fill="#000000" x="1183.4" y="416.3" width="36.6" height="24.65" shape-rendering="crispEdges"/><rect fill="#000000" x="0" y="440.7" width="48.8" height="24.65" shape-rendering="crispEdges"/><rect fill="#000000" x="48.8" y="440.7" width="1110.2" height="24.65" shape-rendering="crispEdges"/><rect fill="#000000" x="1159" y="440.7" width="12.2" height="24.65" shape-rendering="crispEdges"/><rect fill="#c0c0c0" x="1171.2" y="440.7" width="12.2" height="24.65" shape-rendering="crispEdges"/><rect fill="#000000" x="1183.4" y="440.7" width="36.6" height="24.65" shape-rendering="crispEdges"/><rect fill="#000000" x="0" y="465.1" width="48.8" height="24.65" shape-rendering="crispEdges"/><rect fill="#000000" x="48.8" y="465.1" width="1110.2" height="24.65" shape-rendering="crispEdges"/><rect fill="#000000" x="1159" y="465.1" width="12.2" height="24.65" shape-rendering="crispEdges"/><rect fill="#c0c0c0" x="1171.2" y="465.1" width="12.2" height="24.65" shape-rendering="crispEdges"/><rect fill="#000000" x="1183.4" y="465.1" width="36.6" height="24.65" shape-rendering="crispEdges"/><rect fill="#000000" x="0" y="489.5" width="36.6" height="24.65" shape-rendering="crispEdges"/><rect fill="#000000" x="36.6" y="489.5" width="1134.6" height="24.65" shape-rendering="crispEdges"/><rect fill="#c0c0c0" x="1171.2" y="489.5" width="12.2" height="24.65" shape-rendering="crispEdges"/><rect fill="#000000" x="1183.4" y="489.5" width="36.6" height="24.65" shape-rendering="crispEdges"/><rect fill="#000000" x="0" y="513.9" width="36.6" height="24.65" shape-rendering="crispEdges"/><rect fill="#000000" x="36.6" y="513.9" width="1134.6" height="24.65" shape-rendering="crispEdges"/><rect fill="#c0c0c0" x="1171.2" y="513.9" width="12.2" height="24.65" shape-rendering="crispEdges"/><rect fill="#000000" x="1183.4" y="513.9" width="36.6" height="24.65" shape-rendering="crispEdges"/><rect fill="#000000" x="0" y="538.3" width="1220" height="24.65" shape-rendering="crispEdges"/><rect fill="#000000" x="0" y="562.7" width="1220" height="24.65" shape-rendering="crispEdges"/><rect fill="#000000" x="0" y="587.1" width="48.8" height="24.65" shape-rendering="crispEdges"/><rect fill="#000000" x="48.8" y="587.1" width="0" height="24.65" shape-rendering="crispEdges"/><rect fill="#000000" x="48.8" y="587.1" width="341.6" height="24.65" shape-rendering="crispEdges"/><rect fill="#000000" x="390.4" y="587.1" width="780.8" height="24.65" shape-rendering="crispEdges"/><rect fill="#000000" x="1171.2" y="587.1" width="48.8" height="24.65" shape-rendering="crispEdges"/><rect fill="#000000" x="0" y="611.5" width="48.8" height="24.65" shape-rendering="crispEdges"/><rect fill="#000000" x="48.8" y="611.5" width="1122.4" height="24.65" shape-rendering="crispEdges"/><rect fill="#000000" x="1171.2" y="611.5" width="48.8" height="24.65" shape-rendering="crispEdges"/><rect fill="#000000" x="0" y="635.9" width="48.8" height="24.65" shape-rendering="crispEdges"/><rect fill="#000000" x="48.8" y="635.9" width="854" height="24.65" shape-rendering="crispEdges"/><rect fill="#000000" x="902.8" y="635.9" width="12.2" height="24.65" shape-rendering="crispEdges"/><rect fill="#000000" x="915" y="635.9" width="109.8" height="24.65" shape-rendering="crispEdges"/><rect fill="#000000" x="1024.8" y="635.9" width="12.2" height="24.65" shape-rendering="crispEdges"/><rect fill="#000000" x="1037" y="635.9" width="12.2" height="24.65" shape-rendering="crispEdges"/><rect fill="#000000" x="1049.2" y="635.9" width="12.2" height="24.65" shape-rendering="crispEdges"/><rect fill="#000000" x="1061.4" y="635.9" width="97.6" height="24.65" shape-rendering="crispEdges"/><rect fill="#000000" x="1159" y="635.9" width="61" height="24.65" shape-rendering="crispEdges"/><rect fill="#000000" x="0" y="660.3" width="48.8" height="24.65" shape-rendering="crispEdges"/><rect fill="#000000" x="48.8" y="660.3" width="1122.4" height="24.65" shape-rendering="crispEdges"/><rect fill="#000000" x="1171.2" y="660.3" width="48.8" height="24.65" shape-rendering="crispEdges"/><rect fill="#000000" x="0" y="684.7" width="1220" height="24.65" shape-rendering="crispEdges"/><rect fill="#000000" x="0" y="709.1" width="36.6" height="24.65" shape-rendering="crispEdges"/><rect fill="#000000" x="36.6" y="709.1" width="1146.8" height="24.65" shape-rendering="crispEdges"/><rect fill="#000000" x="1183.4" y="709.1" width="36.6" height="24.65" shape-rendering="crispEdges"/><rect fill="#000000" x="0" y="733.5" width="48.8" height="24.65" shape-rendering="crispEdges"/><rect fill="#000000" x="48.8" y="733.5" width="1122.4" height="24.65" shape-rendering="crispEdges"/><rect fill="#000000" x="1171.2" y="733.5" width="48.8" height="24.65" shape-rendering="crispEdges"/><rect fill="#000000" x="0" y="757.9" width="1220" height="24.65" shape-rendering="crispEdges"/>
    <g class="terminal-1174115241-matrix">
    <text class="terminal-1174115241-r1" x="1220" y="20" textLength="12.2" clip-path="url(#terminal-1174115241-line-0)">
</text><text class="terminal-1174115241-r2" x="48.8" y="44.4" textLength="61" clip-path="url(#terminal-1174115241-line-1)">NEURO</text><text class="terminal-1174115241-r2" x="109.8" y="44.4" textLength="85.4" clip-path="url(#terminal-1174115241-line-1)">&#160;/&#160;CODE</text><text class="terminal-1174115241-r2" x="1110.2" y="44.4" textLength="61" clip-path="url(#terminal-1174115241-line-1)">13:37</text><text class="terminal-1174115241-r1" x="1220" y="44.4" textLength="12.2" clip-path="url(#terminal-1174115241-line-1)">
</text><text class="terminal-1174115241-r1" x="1220" y="68.8" textLength="12.2" clip-path="url(#terminal-1174115241-line-2)">
</text><text class="terminal-1174115241-r1" x="1220" y="93.2" textLength="12.2" clip-path="url(#terminal-1174115241-line-3)">
</text><text class="terminal-1174115241-r1" x="1220" y="117.6" textLength="12.2" clip-path="url(#terminal-1174115241-line-4)">
</text><text class="terminal-1174115241-r1" x="1220" y="142" textLength="12.2" clip-path="url(#terminal-1174115241-line-5)">
</text><text class="terminal-1174115241-r4" x="61" y="166.4" textLength="158.6" clip-path="url(#terminal-1174115241-line-6)">Surface&#160;&#160;&#160;&#160;&#160;&#160;</text><text class="terminal-1174115241-r4" x="231.8" y="166.4" textLength="390.4" clip-path="url(#terminal-1174115241-line-6)">Fixture&#160;purpose&#160;&#160;&#160;&#160;&#160;&#160;&#160;&#160;&#160;&#160;&#160;&#160;&#160;&#160;&#160;&#160;&#160;</text><text class="terminal-1174115241-r1" x="1220" y="166.4" textLength="12.2" clip-path="url(#terminal-1174115241-line-6)">
</text><text class="terminal-1174115241-r3" x="48.8" y="190.8" textLength="585.6" clip-path="url(#terminal-1174115241-line-7)">&#160;──────────────────────────────────────────────&#160;</text><text class="terminal-1174115241-r1" x="1220" y="190.8" textLength="12.2" clip-path="url(#terminal-1174115241-line-7)">
</text><text class="terminal-1174115241-r2" x="61" y="215.2" textLength="158.6" clip-path="url(#terminal-1174115241-line-8)">Conversation&#160;</text><text class="terminal-1174115241-r2" x="231.8" y="215.2" textLength="390.4" clip-path="url(#terminal-1174115241-line-8)">Reading&#160;axis&#160;and&#160;message&#160;spacing</text><text class="terminal-1174115241-r1" x="1220" y="215.2" textLength="12.2" clip-path="url(#terminal-1174115241-line-8)">
</text><text class="terminal-1174115241-r2" x="61" y="239.6" textLength="158.6" clip-path="url(#terminal-1174115241-line-9)">Code&#160;&#160;&#160;&#160;&#160;&#160;&#160;&#160;&#160;</text><text class="terminal-1174115241-r2" x="231.8" y="239.6" textLength="390.4" clip-path="url(#terminal-1174115241-line-9)">Isolated&#160;syntax&#160;palette&#160;&#160;&#160;&#160;&#160;&#160;&#160;&#160;&#160;</text><text class="terminal-1174115241-r1" x="1220" y="239.6" textLength="12.2" clip-path="url(#terminal-1174115241-line-9)">
</text><text class="terminal-1174115241-r2" x="61" y="264" textLength="158.6" clip-path="url(#terminal-1174115241-line-10)">Composer&#160;&#160;&#160;&#160;&#160;</text><text class="terminal-1174115241-r2" x="231.8" y="264" textLength="390.4" clip-path="url(#terminal-1174115241-line-10)">Fixed&#160;footer&#160;and&#160;multiline&#160;input</text><text class="terminal-1174115241-r1" x="1220" y="264" textLength="12.2" clip-path="url(#terminal-1174115241-line-10)">
</text><text class="terminal-1174115241-r1" x="1220" y="288.4" textLength="12.2" clip-path="url(#terminal-1174115241-line-11)">
</text><text class="terminal-1174115241-r1" x="1220" y="312.8" textLength="12.2" clip-path="url(#terminal-1174115241-line-12)">
</text><text class="terminal-1174115241-r3" x="1171.2" y="337.2" textLength="12.2" clip-path="url(#terminal-1174115241-line-13)">▇</text><text class="terminal-1174115241-r1" x="1220" y="337.2" textLength="12.2" clip-path="url(#terminal-1174115241-line-13)">
</text><text class="terminal-1174115241-r5" x="61" y="361.6" textLength="36.6" clip-path="url(#terminal-1174115241-line-14)">def</text><text class="terminal-1174115241-r5" x="109.8" y="361.6" textLength="231.8" clip-path="url(#terminal-1174115241-line-14)">stable_visual_state</text><text class="terminal-1174115241-r2" x="341.6" y="361.6" textLength="97.6" clip-path="url(#terminal-1174115241-line-14)">(width:&#160;</text><text class="terminal-1174115241-r5" x="439.2" y="361.6" textLength="36.6" clip-path="url(#terminal-1174115241-line-14)">int</text><text class="terminal-1174115241-r2" x="475.8" y="361.6" textLength="122" clip-path="url(#terminal-1174115241-line-14)">,&#160;height:&#160;</text><text class="terminal-1174115241-r5" x="597.8" y="361.6" textLength="36.6" clip-path="url(#terminal-1174115241-line-14)">int</text><text class="terminal-1174115241-r2" x="634.4" y="361.6" textLength="61" clip-path="url(#terminal-1174115241-line-14)">)&#160;-&gt;&#160;</text><text class="terminal-1174115241-r5" x="695.4" y="361.6" textLength="61" clip-path="url(#terminal-1174115241-line-14)">tuple</text><text class="terminal-1174115241-r2" x="756.4" y="361.6" textLength="12.2" clip-path="url(#terminal-1174115241-line-14)">[</text><text class="terminal-1174115241-r5" x="768.6" y="361.6" textLength="36.6" clip-path="url(#terminal-1174115241-line-14)">int</text><text class="terminal-1174115241-r2" x="805.2" y="361.6" textLength="24.4" clip-path="url(#terminal-1174115241-line-14)">,&#160;</text><text class="terminal-1174115241-r5" x="829.6" y="361.6" textLength="36.6" clip-path="url(#terminal-1174115241-line-14)">int</text><text class="terminal-1174115241-r2" x="866.2" y="361.6" textLength="24.4" clip-path="url(#terminal-1174115241-line-14)">]:</text><text class="terminal-1174115241-r1" x="1220" y="361.6" textLength="12.2" clip-path="url(#terminal-1174115241-line-14)">
</text><text class="terminal-1174115241-r5" x="109.8" y="386" textLength="73.2" clip-path="url(#terminal-1174115241-line-15)">return</text><text class="terminal-1174115241-r2" x="183" y="386" textLength="170.8" clip-path="url(#terminal-1174115241-line-15)">&#160;width,&#160;height</text><text class="terminal-1174115241-r1" x="1220" y="386" textLength="12.2" clip-path="url(#terminal-1174115241-line-15)">
</text><text class="terminal-1174115241-r1" x="1220" y="410.4" textLength="12.2" clip-path="url(#terminal-1174115241-line-16)">
</text><text class="terminal-1174115241-r1" x="1220" y="434.8" textLength="12.2" clip-path="url(#terminal-1174115241-line-17)">
</text><text class="terminal-1174115241-r2" x="48.8" y="459.2" textLength="1110.2" clip-path="url(#terminal-1174115241-line-18)">The&#160;final&#160;paragraph&#160;gives&#160;the&#160;long-message&#160;viewport&#160;a&#160;repeatable&#160;continuation&#160;and&#160;exercises</text><text class="terminal-1174115241-r1" x="1220" y="459.2" textLength="12.2" clip-path="url(#terminal-1174115241-line-18)">
</text><text class="terminal-1174115241-r2" x="48.8" y="483.6" textLength="1110.2" clip-path="url(#terminal-1174115241-line-19)">the&#160;same&#160;Markdown&#160;renderer&#160;used&#160;for&#160;ordinary&#160;assistant&#160;messages.&#160;&#160;&#160;&#160;&#160;&#160;&#160;&#160;&#160;&#160;&#160;&#160;&#160;&#160;&#160;&#160;&#160;&#160;&#160;&#160;&#160;&#160;&#160;&#160;&#160;&#160;&#160;</text><text class="terminal-1174115241-r1" x="1220" y="483.6" textLength="12.2" clip-path="url(#terminal-1174115241-line-19)">
</text><text class="terminal-1174115241-r1" x="1220" y="508" textLength="12.2" clip-path="url(#terminal-1174115241-line-20)">
</text><text class="terminal-1174115241-r1" x="1220" y="532.4" textLength="12.2" clip-path="url(#terminal-1174115241-line-21)">
</text><text class="terminal-1174115241-r1" x="1220" y="556.8" textLength="12.2" clip-path="url(#terminal-1174115241-line-22)">
</text><text class="terminal-1174115241-r1" x="1220" y="581.2" textLength="12.2" clip-path="url(#terminal-1174115241-line-23)">
</text><text class="terminal-1174115241-r2" x="48.8" y="605.6" textLength="341.6" clip-path="url(#terminal-1174115241-line-24)">What&#160;shall&#160;we&#160;work&#160;on&#160;next?&#160;</text><text class="terminal-1174115241-r1" x="1220" y="605.6" textLength="12.2" clip-path="url(#terminal-1174115241-line-24)">
</text><text class="terminal-1174115241-r1" x="1220" y="630" textLength="12.2" clip-path="url(#terminal-1174115241-line-25)">
</text><text class="terminal-1174115241-r2" x="48.8" y="654.4" textLength="854" clip-path="url(#terminal-1174115241-line-26)">Ctrl+J&#160;/&#160;F2&#160;newline&#160;·&#160;/&#160;commands&#160;&#160;&#160;&#160;&#160;&#160;&#160;&#160;&#160;&#160;&#160;&#160;&#160;&#160;&#160;&#160;&#160;&#160;&#160;&#160;&#160;&#160;&#160;&#160;&#160;&#160;&#160;&#160;&#160;&#160;&#160;&#160;&#160;&#160;&#160;&#160;&#160;&#160;</text><text class="terminal-1174115241-r2" x="915" y="654.4" textLength="109.8" clip-path="url(#terminal-1174115241-line-26)">&#160;Newline&#160;</text><text class="terminal-1174115241-r5" x="1061.4" y="654.4" textLength="97.6" clip-path="url(#terminal-1174115241-line-26)">&#160;Send&#160;↑&#160;</text><text class="terminal-1174115241-r1" x="1220" y="654.4" textLength="12.2" clip-path="url(#terminal-1174115241-line-26)">
</text><text class="terminal-1174115241-r1" x="1220" y="678.8" textLength="12.2" clip-path="url(#terminal-1174115241-line-27)">
</text><text class="terminal-1174115241-r1" x="1220" y="703.2" textLength="12.2" clip-path="url(#terminal-1174115241-line-28)">
</text><text class="terminal-1174115241-r1" x="1220" y="727.6" textLength="12.2" clip-path="url(#terminal-1174115241-line-29)">
</text><text class="terminal-1174115241-r2" x="48.8" y="752" textLength="1122.4" clip-path="url(#terminal-1174115241-line-30)">fixture-model&#160;&#160;&#160;&#160;&#160;&#160;&#160;&#160;&#160;&#160;&#160;&#160;&#160;&#160;&#160;&#160;&#160;&#160;&#160;&#160;&#160;&#160;&#160;&#160;&#160;&#160;&#160;&#160;&#160;&#160;&#160;&#160;·&#160;high&#160;·&#160;normal&#160;&#160;ctx&#160;≈0&#160;tok&#160;/workspace/neuro-c…</text><text class="terminal-1174115241-r1" x="1220" y="752" textLength="12.2" clip-path="url(#terminal-1174115241-line-30)">
</text>
    </g>
    </g>
</svg>
