<svg class="rich-terminal" viewBox="0 0 994 635.5999999999999" xmlns="http://www.w3.org/2000/svg">
    <!-- Generated with Rich https://www.textualize.io -->
    <style>

    @font-face {
        font-family: "Fira Code";
        src: local("FiraCode-Regular"),
                url("https://cdnjs.cloudflare.com/ajax/libs/firacode/6.2.0/woff2/FiraCode-Regular.woff2") format("woff2"),
                url("https://cdnjs.cloudflare.com/ajax/libs/firacode/6.2.0/woff/FiraCode-Regular.woff") format("woff");
        font-style: normal;
        font-weight: 400;
    }
    @font-face {
        font-family: "Fira Code";
        src: local("FiraCode-Bold"),
                url("https://cdnjs.cloudflare.com/ajax/libs/firacode/6.2.0/woff2/FiraCode-Bold.woff2") format("woff2"),
                url("https://cdnjs.cloudflare.com/ajax/libs/firacode/6.2.0/woff/FiraCode-Bold.woff") format("woff");
        font-style: bold;
        font-weight: 700;
    }

    .terminal-659498974-matrix {
        font-family: Fira Code, monospace;
        font-size: 20px;
        line-height: 24.4px;
        font-variant-east-asian: full-width;
    }

    .terminal-659498974-title {
        font-size: 18px;
        font-weight: bold;
        font-family: arial;
    }

    .terminal-659498974-r1 { fill: #c5c8c6 }
.terminal-659498974-r2 { fill: #f0f0f0 }
.terminal-659498974-r3 { fill: #9e9e9e }
.terminal-659498974-r4 { fill: #e9e9e9 }
.terminal-659498974-r5 { fill: #494949 }
.terminal-659498974-r6 { fill: #d8d8d8;font-weight: bold }
.terminal-659498974-r7 { fill: #e9e9e9;font-weight: bold }
.terminal-659498974-r8 { fill: #737373 }
.terminal-659498974-r9 { fill: #171717 }
.terminal-659498974-r10 { fill: #b1b1b1 }
.terminal-659498974-r11 { fill: #b9b9b9 }
.terminal-659498974-r12 { fill: #000000 }
.terminal-659498974-r13 { fill: #c3c3c3 }
.terminal-659498974-r14 { fill: #282828 }
.terminal-659498974-r15 { fill: #bababa }
.terminal-659498974-r16 { fill: #d8d8d8 }
.terminal-659498974-r17 { fill: #939393 }
    </style>

    <defs>
    <clipPath id="terminal-659498974-clip-terminal">
      <rect x="0" y="0" width="975.0" height="584.5999999999999" />
    </clipPath>
    <clipPath id="terminal-659498974-line-0">
    <rect x="0" y="1.5" width="976" height="24.65"/>
            </clipPath>
<clipPath id="terminal-659498974-line-1">
    <rect x="0" y="25.9" width="976" height="24.65"/>
            </clipPath>
<clipPath id="terminal-659498974-line-2">
    <rect x="0" y="50.3" width="976" height="24.65"/>
            </clipPath>
<clipPath id="terminal-659498974-line-3">
    <rect x="0" y="74.7" width="976" height="24.65"/>
            </clipPath>
<clipPath id="terminal-659498974-line-4">
    <rect x="0" y="99.1" width="976" height="24.65"/>
            </clipPath>
<clipPath id="terminal-659498974-line-5">
    <rect x="0" y="123.5" width="976" height="24.65"/>
            </clipPath>
<clipPath id="terminal-659498974-line-6">
    <rect x="0" y="147.9" width="976" height="24.65"/>
            </clipPath>
<clipPath id="terminal-659498974-line-7">
    <rect x="0" y="172.3" width="976" height="24.65"/>
            </clipPath>
<clipPath id="terminal-659498974-line-8">
    <rect x="0" y="196.7" width="976" height="24.65"/>
            </clipPath>
<clipPath id="terminal-659498974-line-9">
    <rect x="0" y="221.1" width="976" height="24.65"/>
            </clipPath>
<clipPath id="terminal-659498974-line-10">
    <rect x="0" y="245.5" width="976" height="24.65"/>
            </clipPath>
<clipPath id="terminal-659498974-line-11">
    <rect x="0" y="269.9" width="976" height="24.65"/>
            </clipPath>
<clipPath id="terminal-659498974-line-12">
    <rect x="0" y="294.3" width="976" height="24.65"/>
            </clipPath>
<clipPath id="terminal-659498974-line-13">
    <rect x="0" y="318.7" width="976" height="24.65"/>
            </clipPath>
<clipPath id="terminal-659498974-line-14">
    <rect x="0" y="343.1" width="976" height="24.65"/>
            </clipPath>
<clipPath id="terminal-659498974-line-15">
    <rect x="0" y="367.5" width="976" height="24.65"/>
            </clipPath>
<clipPath id="terminal-659498974-line-16">
    <rect x="0" y="391.9" width="976" height="24.65"/>
            </clipPath>
<clipPath id="terminal-659498974-line-17">
    <rect x="0" y="416.3" width="976" height="24.65"/>
            </clipPath>
<clipPath id="terminal-659498974-line-18">
    <rect x="0" y="440.7" width="976" height="24.65"/>
            </clipPath>
<clipPath id="terminal-659498974-line-19">
    <rect x="0" y="465.1" width="976" height="24.65"/>
            </clipPath>
<clipPath id="terminal-659498974-line-20">
    <rect x="0" y="489.5" width="976" height="24.65"/>
            </clipPath>
<clipPath id="terminal-659498974-line-21">
    <rect x="0" y="513.9" width="976" height="24.65"/>
            </clipPath>
<clipPath id="terminal-659498974-line-22">
    <rect x="0" y="538.3" width="976" height="24.65"/>
            </clipPath>
    </defs>

    <rect fill="#292929" stroke="rgba(255,255,255,0.35)" stroke-width="1" x="1" y="1" width="992" height="633.6" rx="8"/><text class="terminal-659498974-title" fill="#c5c8c6" text-anchor="middle" x="496" y="27">Neuro&#160;Code&#160;visual&#160;baseline</text>
            <g transform="translate(26,22)">
            <circle cx="0" cy="0" r="7" fill="#ff5f57"/>
            <circle cx="22" cy="0" r="7" fill="#febc2e"/>
            <circle cx="44" cy="0" r="7" fill="#28c840"/>
            </g>

    <g transform="translate(9, 41)" clip-path="url(#terminal-659498974-clip-terminal)">
    <rect fill="#171717" x="0" y="1.5" width="24.4" height="24.65" shape-rendering="crispEdges"/><rect fill="#171717" x="24.4" y="1.5" width="61" height="24.65" shape-rendering="crispEdges"/><rect fill="#171717" x="85.4" y="1.5" width="85.4" height="24.65" shape-rendering="crispEdges"/><rect fill="#171717" x="170.8" y="1.5" width="0" height="24.65" shape-rendering="crispEdges"/><rect fill="#171717" x="170.8" y="1.5" width="719.8" height="24.65" shape-rendering="crispEdges"/><rect fill="#171717" x="890.6" y="1.5" width="61" height="24.65" shape-rendering="crispEdges"/><rect fill="#171717" x="951.6" y="1.5" width="24.4" height="24.65" shape-rendering="crispEdges"/><rect fill="#171717" x="0" y="25.9" width="976" height="24.65" shape-rendering="crispEdges"/><rect fill="#171717" x="0" y="50.3" width="951.6" height="24.65" shape-rendering="crispEdges"/><rect fill="#171717" x="951.6" y="50.3" width="12.2" height="24.65" shape-rendering="crispEdges"/><rect fill="#171717" x="963.8" y="50.3" width="12.2" height="24.65" shape-rendering="crispEdges"/><rect fill="#171717" x="0" y="74.7" width="24.4" height="24.65" shape-rendering="crispEdges"/><rect fill="#171717" x="24.4" y="74.7" width="719.8" height="24.65" shape-rendering="crispEdges"/><rect fill="#171717" x="744.2" y="74.7" width="207.4" height="24.65" shape-rendering="crispEdges"/><rect fill="#171717" x="951.6" y="74.7" width="12.2" height="24.65" shape-rendering="crispEdges"/><rect fill="#171717" x="963.8" y="74.7" width="12.2" height="24.65" shape-rendering="crispEdges"/><rect fill="#171717" x="0" y="99.1" width="24.4" height="24.65" shape-rendering="crispEdges"/><rect fill="#171717" x="24.4" y="99.1" width="12.2" height="24.65" shape-rendering="crispEdges"/><rect fill="#171717" x="36.6" y="99.1" width="85.4" height="24.65" shape-rendering="crispEdges"/><rect fill="#171717" x="122" y="99.1" width="73.2" height="24.65" shape-rendering="crispEdges"/><rect fill="#171717" x="195.2" y="99.1" width="12.2" height="24.65" shape-rendering="crispEdges"/><rect fill="#171717" x="207.4" y="99.1" width="183" height="24.65" shape-rendering="crispEdges"/><rect fill="#171717" x="390.4" y="99.1" width="341.6" height="24.65" shape-rendering="crispEdges"/><rect fill="#171717" x="732" y="99.1" width="12.2" height="24.65" shape-rendering="crispEdges"/><rect fill="#171717" x="744.2" y="99.1" width="207.4" height="24.65" shape-rendering="crispEdges"/><rect fill="#171717" x="951.6" y="99.1" width="12.2" height="24.65" shape-rendering="crispEdges"/><rect fill="#171717" x="963.8" y="99.1" width="12.2" height="24.65" shape-rendering="crispEdges"/><rect fill="#171717" x="0" y="123.5" width="24.4" height="24.65" shape-rendering="crispEdges"/><rect fill="#171717" x="24.4" y="123.5" width="719.8" height="24.65" shape-rendering="crispEdges"/><rect fill="#171717" x="744.2" y="123.5" width="207.4" height="24.65" shape-rendering="crispEdges"/><rect fill="#171717" x="951.6" y="123.5" width="12.2" height="24.65" shape-rendering="crispEdges"/><rect fill="#171717" x="963.8" y="123.5" width="12.2" height="24.65" shape-rendering="crispEdges"/><rect fill="#171717" x="0" y="147.9" width="24.4" height="24.65" shape-rendering="crispEdges"/><rect fill="#171717" x="24.4" y="147.9" width="12.2" height="24.65" shape-rendering="crispEdges"/><rect fill="#171717" x="36.6" y="147.9" width="158.6" height="24.65" shape-rendering="crispEdges"/><rect fill="#171717" x="195.2" y="147.9" width="12.2" height="24.65" shape-rendering="crispEdges"/><rect fill="#171717" x="207.4" y="147.9" width="524.6" height="24.65" shape-rendering="crispEdges"/><rect fill="#171717" x="732" y="147.9" width="12.2" height="24.65" shape-rendering="crispEdges"/><rect fill="#171717" x="744.2" y="147.9" width="207.4" height="24.65" shape-rendering="crispEdges"/><rect fill="#171717" x="951.6" y="147.9" width="12.2" height="24.65" shape-rendering="crispEdges"/><rect fill="#171717" x="963.8" y="147.9" width="12.2" height="24.65" shape-rendering="crispEdges"/><rect fill="#171717" x="0" y="172.3" width="24.4" height="24.65" shape-rendering="crispEdges"/><rect fill="#171717" x="24.4" y="172.3" width="12.2" height="24.65" shape-rendering="crispEdges"/><rect fill="#171717" x="36.6" y="172.3" width="158.6" height="24.65" shape-rendering="crispEdges"/><rect fill="#171717" x="195.2" y="172.3" width="12.2" height="24.65" shape-rendering="crispEdges"/><rect fill="#171717" x="207.4" y="172.3" width="524.6" height="24.65" shape-rendering="crispEdges"/><rect fill="#171717" x="732" y="172.3" width="12.2" height="24.65" shape-rendering="crispEdges"/><rect fill="#171717" x="744.2" y="172.3" width="207.4" height="24.65" shape-rendering="crispEdges"/><rect fill="#171717" x="951.6" y="172.3" width="12.2" height="24.65" shape-rendering="crispEdges"/><rect fill="#171717" x="963.8" y="172.3" width="12.2" height="24.65" shape-rendering="crispEdges"/><rect fill="#171717" x="0" y="196.7" width="24.4" height="24.65" shape-rendering="crispEdges"/><rect fill="#171717" x="24.4" y="196.7" width="12.2" height="24.65" shape-rendering="crispEdges"/><rect fill="#171717" x="36.6" y="196.7" width="158.6" height="24.65" shape-rendering="crispEdges"/><rect fill="#171717" x="195.2" y="196.7" width="12.2" height="24.65" shape-rendering="crispEdges"/><rect fill="#171717" x="207.4" y="196.7" width="524.6" height="24.65" shape-rendering="crispEdges"/><rect fill="#171717" x="732" y="196.7" width="12.2" height="24.65" shape-rendering="crispEdges"/><rect fill="#171717" x="744.2" y="196.7" width="207.4" height="24.65" shape-rendering="crispEdges"/><rect fill="#171717" x="951.6" y="196.7" width="12.2" height="24.65" shape-rendering="crispEdges"/><rect fill="#171717" x="963.8" y="196.7" width="12.2" height="24.65" shape-rendering="crispEdges"/><rect fill="#171717" x="0" y="221.1" width="24.4" height="24.65" shape-rendering="crispEdges"/><rect fill="#171717" x="24.4" y="221.1" width="719.8" height="24.65" shape-rendering="crispEdges"/><rect fill="#171717" x="744.2" y="221.1" width="207.4" height="24.65" shape-rendering="crispEdges"/><rect fill="#171717" x="951.6" y="221.1" width="12.2" height="24.65" shape-rendering="crispEdges"/><rect fill="#171717" x="963.8" y="221.1" width="12.2" height="24.65" shape-rendering="crispEdges"/><rect fill="#171717" x="0" y="245.5" width="951.6" height="24.65" shape-rendering="crispEdges"/><rect fill="#171717" x="951.6" y="245.5" width="12.2" height="24.65" shape-rendering="crispEdges"/><rect fill="#171717" x="963.8" y="245.5" width="12.2" height="24.65" shape-rendering="crispEdges"/><rect fill="#171717" x="0" y="269.9" width="24.4" height="24.65" shape-rendering="crispEdges"/><rect fill="#202020" x="24.4" y="269.9" width="915" height="24.65" shape-rendering="crispEdges"/><rect fill="#171717" x="939.4" y="269.9" width="12.2" height="24.65" shape-rendering="crispEdges"/><rect fill="#737373" x="951.6" y="269.9" width="12.2" height="24.65" shape-rendering="crispEdges"/><rect fill="#171717" x="963.8" y="269.9" width="12.2" height="24.65" shape-rendering="crispEdges"/><rect fill="#171717" x="0" y="294.3" width="24.4" height="24.65" shape-rendering="crispEdges"/><rect fill="#202020" x="24.4" y="294.3" width="12.2" height="24.65" shape-rendering="crispEdges"/><rect fill="#202020" x="36.6" y="294.3" width="36.6" height="24.65" shape-rendering="crispEdges"/><rect fill="#202020" x="73.2" y="294.3" width="12.2" height="24.65" shape-rendering="crispEdges"/><rect fill="#202020" x="85.4" y="294.3" width="231.8" height="24.65" shape-rendering="crispEdges"/><rect fill="#202020" x="317.2" y="294.3" width="12.2" height="24.65" shape-rendering="crispEdges"/><rect fill="#202020" x="329.4" y="294.3" width="61" height="24.65" shape-rendering="crispEdges"/><rect fill="#202020" x="390.4" y="294.3" width="12.2" height="24.65" shape-rendering="crispEdges"/><rect fill="#202020" x="402.6" y="294.3" width="12.2" height="24.65" shape-rendering="crispEdges"/><rect fill="#202020" x="414.8" y="294.3" width="36.6" height="24.65" shape-rendering="crispEdges"/><rect fill="#202020" x="451.4" y="294.3" width="12.2" height="24.65" shape-rendering="crispEdges"/><rect fill="#202020" x="463.6" y="294.3" width="85.4" height="24.65" shape-rendering="crispEdges"/><rect fill="#202020" x="549" y="294.3" width="12.2" height="24.65" shape-rendering="crispEdges"/><rect fill="#202020" x="561.2" y="294.3" width="12.2" height="24.65" shape-rendering="crispEdges"/><rect fill="#202020" x="573.4" y="294.3" width="36.6" height="24.65" shape-rendering="crispEdges"/><rect fill="#202020" x="610" y="294.3" width="12.2" height="24.65" shape-rendering="crispEdges"/><rect fill="#202020" x="622.2" y="294.3" width="12.2" height="24.65" shape-rendering="crispEdges"/><rect fill="#202020" x="634.4" y="294.3" width="24.4" height="24.65" shape-rendering="crispEdges"/><rect fill="#202020" x="658.8" y="294.3" width="12.2" height="24.65" shape-rendering="crispEdges"/><rect fill="#202020" x="671" y="294.3" width="61" height="24.65" shape-rendering="crispEdges"/><rect fill="#202020" x="732" y="294.3" width="12.2" height="24.65" shape-rendering="crispEdges"/><rect fill="#202020" x="744.2" y="294.3" width="36.6" height="24.65" shape-rendering="crispEdges"/><rect fill="#202020" x="780.8" y="294.3" width="12.2" height="24.65" shape-rendering="crispEdges"/><rect fill="#202020" x="793" y="294.3" width="12.2" height="24.65" shape-rendering="crispEdges"/><rect fill="#202020" x="805.2" y="294.3" width="36.6" height="24.65" shape-rendering="crispEdges"/><rect fill="#202020" x="841.8" y="294.3" width="24.4" height="24.65" shape-rendering="crispEdges"/><rect fill="#202020" x="866.2" y="294.3" width="73.2" height="24.65" shape-rendering="crispEdges"/><rect fill="#171717" x="939.4" y="294.3" width="12.2" height="24.65" shape-rendering="crispEdges"/><rect fill="#737373" x="951.6" y="294.3" width="12.2" height="24.65" shape-rendering="crispEdges"/><rect fill="#171717" x="963.8" y="294.3" width="12.2" height="24.65" shape-rendering="crispEdges"/><rect fill="#171717" x="0" y="318.7" width="24.4" height="24.65" shape-rendering="crispEdges"/><rect fill="#202020" x="24.4" y="318.7" width="12.2" height="24.65" shape-rendering="crispEdges"/><rect fill="#202020" x="36.6" y="318.7" width="48.8" height="24.65" shape-rendering="crispEdges"/><rect fill="#202020" x="85.4" y="318.7" width="73.2" height="24.65" shape-rendering="crispEdges"/><rect fill="#202020" x="158.6" y="318.7" width="73.2" height="24.65" shape-rendering="crispEdges"/><rect fill="#202020" x="231.8" y="318.7" width="12.2" height="24.65" shape-rendering="crispEdges"/><rect fill="#202020" x="244" y="318.7" width="85.4" height="24.65" shape-rendering="crispEdges"/><rect fill="#202020" x="329.4" y="318.7" width="610" height="24.65" shape-rendering="crispEdges"/><rect fill="#171717" x="939.4" y="318.7" width="12.2" height="24.65" shape-rendering="crispEdges"/><rect fill="#737373" x="951.6" y="318.7" width="12.2" height="24.65" shape-rendering="crispEdges"/><rect fill="#171717" x="963.8" y="318.7" width="12.2" height="24.65" shape-rendering="crispEdges"/><rect fill="#171717" x="0" y="343.1" width="24.4" height="24.65" shape-rendering="crispEdges"/><rect fill="#202020" x="24.4" y="343.1" width="915" height="24.65" shape-rendering="crispEdges"/><rect fill="#171717" x="939.4" y="343.1" width="12.2" height="24.65" shape-rendering="crispEdges"/><rect fill="#737373" x="951.6" y="343.1" width="12.2" height="24.65" shape-rendering="crispEdges"/><rect fill="#171717" x="963.8" y="343.1" width="12.2" height="24.65" shape-rendering="crispEdges"/><rect fill="#171717" x="0" y="367.5" width="951.6" height="24.65" shape-rendering="crispEdges"/><rect fill="#737373" x="951.6" y="367.5" width="12.2" height="24.65" shape-rendering="crispEdges"/><rect fill="#171717" x="963.8" y="367.5" width="12.2" height="24.65" shape-rendering="crispEdges"/><rect fill="#171717" x="0" y="391.9" width="24.4" height="24.65" shape-rendering="crispEdges"/><rect fill="#171717" x="24.4" y="391.9" width="915" height="24.65" shape-rendering="crispEdges"/><rect fill="#171717" x="939.4" y="391.9" width="12.2" height="24.65" shape-rendering="crispEdges"/><rect fill="#737373" x="951.6" y="391.9" width="12.2" height="24.65" shape-rendering="crispEdges"/><rect fill="#171717" x="963.8" y="391.9" width="12.2" height="24.65" shape-rendering="crispEdges"/><rect fill="#171717" x="0" y="416.3" width="24.4" height="24.65" shape-rendering="crispEdges"/><rect fill="#171717" x="24.4" y="416.3" width="915" height="24.65" shape-rendering="crispEdges"/><rect fill="#171717" x="939.4" y="416.3" width="12.2" height="24.65" shape-rendering="crispEdges"/><rect fill="#737373" x="951.6" y="416.3" width="12.2" height="24.65" shape-rendering="crispEdges"/><rect fill="#171717" x="963.8" y="416.3" width="12.2" height="24.65" shape-rendering="crispEdges"/><rect fill="#171717" x="0" y="440.7" width="24.4" height="24.65" shape-rendering="crispEdges"/><rect fill="#171717" x="24.4" y="440.7" width="915" height="24.65" shape-rendering="crispEdges"/><rect fill="#171717" x="939.4" y="440.7" width="12.2" height="24.65" shape-rendering="crispEdges"/><rect fill="#737373" x="951.6" y="440.7" width="12.2" height="24.65" shape-rendering="crispEdges"/><rect fill="#171717" x="963.8" y="440.7" width="12.2" height="24.65" shape-rendering="crispEdges"/><rect fill="#171717" x="0" y="465.1" width="12.2" height="24.65" shape-rendering="crispEdges"/><rect fill="#171717" x="12.2" y="465.1" width="939.4" height="24.65" shape-rendering="crispEdges"/><rect fill="#737373" x="951.6" y="465.1" width="12.2" height="24.65" shape-rendering="crispEdges"/><rect fill="#171717" x="963.8" y="465.1" width="12.2" height="24.65" shape-rendering="crispEdges"/><rect fill="#171717" x="0" y="489.5" width="12.2" height="24.65" shape-rendering="crispEdges"/><rect fill="#171717" x="12.2" y="489.5" width="939.4" height="24.65" shape-rendering="crispEdges"/><rect fill="#737373" x="951.6" y="489.5" width="12.2" height="24.65" shape-rendering="crispEdges"/><rect fill="#171717" x="963.8" y="489.5" width="12.2" height="24.65" shape-rendering="crispEdges"/><rect fill="#171717" x="0" y="513.9" width="976" height="24.65" shape-rendering="crispEdges"/><rect fill="#171717" x="0" y="538.3" width="12.2" height="24.65" shape-rendering="crispEdges"/><rect fill="#282828" x="12.2" y="538.3" width="12.2" height="24.65" shape-rendering="crispEdges"/><rect fill="#282828" x="24.4" y="538.3" width="0" height="24.65" shape-rendering="crispEdges"/><rect fill="#f0f0f0" x="24.4" y="538.3" width="12.2" height="24.65" shape-rendering="crispEdges"/><rect fill="#282828" x="36.6" y="538.3" width="793" height="24.65" shape-rendering="crispEdges"/><rect fill="#282828" x="829.6" y="538.3" width="12.2" height="24.65" shape-rendering="crispEdges"/><rect fill="#282828" x="841.8" y="538.3" width="97.6" height="24.65" shape-rendering="crispEdges"/><rect fill="#282828" x="939.4" y="538.3" width="24.4" height="24.65" shape-rendering="crispEdges"/><rect fill="#171717" x="963.8" y="538.3" width="12.2" height="24.65" shape-rendering="crispEdges"/><rect fill="#171717" x="0" y="562.7" width="24.4" height="24.65" shape-rendering="crispEdges"/><rect fill="#171717" x="24.4" y="562.7" width="256.2" height="24.65" shape-rendering="crispEdges"/><rect fill="#171717" x="280.6" y="562.7" width="36.6" height="24.65" shape-rendering="crispEdges"/><rect fill="#171717" x="317.2" y="562.7" width="48.8" height="24.65" shape-rendering="crispEdges"/><rect fill="#171717" x="366" y="562.7" width="36.6" height="24.65" shape-rendering="crispEdges"/><rect fill="#171717" x="402.6" y="562.7" width="85.4" height="24.65" shape-rendering="crispEdges"/><rect fill="#171717" x="488" y="562.7" width="48.8" height="24.65" shape-rendering="crispEdges"/><rect fill="#171717" x="536.8" y="562.7" width="85.4" height="24.65" shape-rendering="crispEdges"/><rect fill="#171717" x="622.2" y="562.7" width="329.4" height="24.65" shape-rendering="crispEdges"/><rect fill="#171717" x="951.6" y="562.7" width="24.4" height="24.65" shape-rendering="crispEdges"/>
    <g class="terminal-659498974-matrix">
    <text class="terminal-659498974-r2" x="24.4" y="20" textLength="61" clip-path="url(#terminal-659498974-line-0)">NEURO</text><text class="terminal-659498974-r3" x="85.4" y="20" textLength="85.4" clip-path="url(#terminal-659498974-line-0)">&#160;/&#160;CODE</text><text class="terminal-659498974-r3" x="890.6" y="20" textLength="61" clip-path="url(#terminal-659498974-line-0)">13:37</text><text class="terminal-659498974-r1" x="976" y="20" textLength="12.2" clip-path="url(#terminal-659498974-line-0)">
</text><text class="terminal-659498974-r1" x="976" y="44.4" textLength="12.2" clip-path="url(#terminal-659498974-line-1)">
</text><text class="terminal-659498974-r1" x="976" y="68.8" textLength="12.2" clip-path="url(#terminal-659498974-line-2)">
</text><text class="terminal-659498974-r1" x="976" y="93.2" textLength="12.2" clip-path="url(#terminal-659498974-line-3)">
</text><text class="terminal-659498974-r6" x="36.6" y="117.6" textLength="85.4" clip-path="url(#terminal-659498974-line-4)">Surface</text><text class="terminal-659498974-r6" x="207.4" y="117.6" textLength="183" clip-path="url(#terminal-659498974-line-4)">Fixture&#160;purpose</text><text class="terminal-659498974-r1" x="976" y="117.6" textLength="12.2" clip-path="url(#terminal-659498974-line-4)">
</text><text class="terminal-659498974-r5" x="24.4" y="142" textLength="719.8" clip-path="url(#terminal-659498974-line-5)">&#160;─────────────────────────────────────────────────────────&#160;</text><text class="terminal-659498974-r1" x="976" y="142" textLength="12.2" clip-path="url(#terminal-659498974-line-5)">
</text><text class="terminal-659498974-r4" x="36.6" y="166.4" textLength="158.6" clip-path="url(#terminal-659498974-line-6)">Conversation&#160;</text><text class="terminal-659498974-r4" x="207.4" y="166.4" textLength="524.6" clip-path="url(#terminal-659498974-line-6)">Reading&#160;axis&#160;and&#160;message&#160;spacing&#160;&#160;&#160;&#160;&#160;&#160;&#160;&#160;&#160;&#160;&#160;</text><text class="terminal-659498974-r1" x="976" y="166.4" textLength="12.2" clip-path="url(#terminal-659498974-line-6)">
</text><text class="terminal-659498974-r4" x="36.6" y="190.8" textLength="158.6" clip-path="url(#terminal-659498974-line-7)">Code&#160;&#160;&#160;&#160;&#160;&#160;&#160;&#160;&#160;</text><text class="terminal-659498974-r4" x="207.4" y="190.8" textLength="524.6" clip-path="url(#terminal-659498974-line-7)">Isolated&#160;syntax&#160;palette&#160;&#160;&#160;&#160;&#160;&#160;&#160;&#160;&#160;&#160;&#160;&#160;&#160;&#160;&#160;&#160;&#160;&#160;&#160;&#160;</text><text class="terminal-659498974-r1" x="976" y="190.8" textLength="12.2" clip-path="url(#terminal-659498974-line-7)">
</text><text class="terminal-659498974-r4" x="36.6" y="215.2" textLength="158.6" clip-path="url(#terminal-659498974-line-8)">Composer&#160;&#160;&#160;&#160;&#160;</text><text class="terminal-659498974-r4" x="207.4" y="215.2" textLength="524.6" clip-path="url(#terminal-659498974-line-8)">Bounded&#160;adaptive&#160;footer&#160;and&#160;multiline&#160;input</text><text class="terminal-659498974-r1" x="976" y="215.2" textLength="12.2" clip-path="url(#terminal-659498974-line-8)">
</text><text class="terminal-659498974-r1" x="976" y="239.6" textLength="12.2" clip-path="url(#terminal-659498974-line-9)">
</text><text class="terminal-659498974-r8" x="951.6" y="264" textLength="12.2" clip-path="url(#terminal-659498974-line-10)">▅</text><text class="terminal-659498974-r1" x="976" y="264" textLength="12.2" clip-path="url(#terminal-659498974-line-10)">
</text><text class="terminal-659498974-r1" x="976" y="288.4" textLength="12.2" clip-path="url(#terminal-659498974-line-11)">
</text><text class="terminal-659498974-r10" x="36.6" y="312.8" textLength="36.6" clip-path="url(#terminal-659498974-line-12)">def</text><text class="terminal-659498974-r11" x="85.4" y="312.8" textLength="231.8" clip-path="url(#terminal-659498974-line-12)">stable_visual_state</text><text class="terminal-659498974-r12" x="317.2" y="312.8" textLength="12.2" clip-path="url(#terminal-659498974-line-12)">(</text><text class="terminal-659498974-r4" x="329.4" y="312.8" textLength="61" clip-path="url(#terminal-659498974-line-12)">width</text><text class="terminal-659498974-r12" x="390.4" y="312.8" textLength="12.2" clip-path="url(#terminal-659498974-line-12)">:</text><text class="terminal-659498974-r11" x="414.8" y="312.8" textLength="36.6" clip-path="url(#terminal-659498974-line-12)">int</text><text class="terminal-659498974-r12" x="451.4" y="312.8" textLength="12.2" clip-path="url(#terminal-659498974-line-12)">,</text><text class="terminal-659498974-r4" x="463.6" y="312.8" textLength="85.4" clip-path="url(#terminal-659498974-line-12)">&#160;height</text><text class="terminal-659498974-r12" x="549" y="312.8" textLength="12.2" clip-path="url(#terminal-659498974-line-12)">:</text><text class="terminal-659498974-r11" x="573.4" y="312.8" textLength="36.6" clip-path="url(#terminal-659498974-line-12)">int</text><text class="terminal-659498974-r12" x="610" y="312.8" textLength="12.2" clip-path="url(#terminal-659498974-line-12)">)</text><text class="terminal-659498974-r13" x="634.4" y="312.8" textLength="24.4" clip-path="url(#terminal-659498974-line-12)">-&gt;</text><text class="terminal-659498974-r11" x="671" y="312.8" textLength="61" clip-path="url(#terminal-659498974-line-12)">tuple</text><text class="terminal-659498974-r12" x="732" y="312.8" textLength="12.2" clip-path="url(#terminal-659498974-line-12)">[</text><text class="terminal-659498974-r11" x="744.2" y="312.8" textLength="36.6" clip-path="url(#terminal-659498974-line-12)">int</text><text class="terminal-659498974-r12" x="780.8" y="312.8" textLength="12.2" clip-path="url(#terminal-659498974-line-12)">,</text><text class="terminal-659498974-r11" x="805.2" y="312.8" textLength="36.6" clip-path="url(#terminal-659498974-line-12)">int</text><text class="terminal-659498974-r12" x="841.8" y="312.8" textLength="24.4" clip-path="url(#terminal-659498974-line-12)">]:</text><text class="terminal-659498974-r1" x="976" y="312.8" textLength="12.2" clip-path="url(#terminal-659498974-line-12)">
</text><text class="terminal-659498974-r10" x="85.4" y="337.2" textLength="73.2" clip-path="url(#terminal-659498974-line-13)">return</text><text class="terminal-659498974-r4" x="158.6" y="337.2" textLength="73.2" clip-path="url(#terminal-659498974-line-13)">&#160;width</text><text class="terminal-659498974-r12" x="231.8" y="337.2" textLength="12.2" clip-path="url(#terminal-659498974-line-13)">,</text><text class="terminal-659498974-r4" x="244" y="337.2" textLength="85.4" clip-path="url(#terminal-659498974-line-13)">&#160;height</text><text class="terminal-659498974-r1" x="976" y="337.2" textLength="12.2" clip-path="url(#terminal-659498974-line-13)">
</text><text class="terminal-659498974-r1" x="976" y="361.6" textLength="12.2" clip-path="url(#terminal-659498974-line-14)">
</text><text class="terminal-659498974-r1" x="976" y="386" textLength="12.2" clip-path="url(#terminal-659498974-line-15)">
</text><text class="terminal-659498974-r4" x="24.4" y="410.4" textLength="915" clip-path="url(#terminal-659498974-line-16)">The&#160;final&#160;paragraph&#160;gives&#160;the&#160;long-message&#160;viewport&#160;a&#160;repeatable&#160;&#160;&#160;&#160;&#160;&#160;&#160;&#160;&#160;&#160;&#160;</text><text class="terminal-659498974-r1" x="976" y="410.4" textLength="12.2" clip-path="url(#terminal-659498974-line-16)">
</text><text class="terminal-659498974-r4" x="24.4" y="434.8" textLength="915" clip-path="url(#terminal-659498974-line-17)">continuation&#160;and&#160;exercises&#160;the&#160;same&#160;Markdown&#160;renderer&#160;used&#160;for&#160;ordinary&#160;&#160;&#160;&#160;</text><text class="terminal-659498974-r1" x="976" y="434.8" textLength="12.2" clip-path="url(#terminal-659498974-line-17)">
</text><text class="terminal-659498974-r4" x="24.4" y="459.2" textLength="915" clip-path="url(#terminal-659498974-line-18)">assistant&#160;messages.&#160;&#160;&#160;&#160;&#160;&#160;&#160;&#160;&#160;&#160;&#160;&#160;&#160;&#160;&#160;&#160;&#160;&#160;&#160;&#160;&#160;&#160;&#160;&#160;&#160;&#160;&#160;&#160;&#160;&#160;&#160;&#160;&#160;&#160;&#160;&#160;&#160;&#160;&#160;&#160;&#160;&#160;&#160;&#160;&#160;&#160;&#160;&#160;&#160;&#160;&#160;&#160;&#160;&#160;&#160;&#160;</text><text class="terminal-659498974-r1" x="976" y="459.2" textLength="12.2" clip-path="url(#terminal-659498974-line-18)">
</text><text class="terminal-659498974-r1" x="976" y="483.6" textLength="12.2" clip-path="url(#terminal-659498974-line-19)">
</text><text class="terminal-659498974-r1" x="976" y="508" textLength="12.2" clip-path="url(#terminal-659498974-line-20)">
</text><text class="terminal-659498974-r1" x="976" y="532.4" textLength="12.2" clip-path="url(#terminal-659498974-line-21)">
</text><text class="terminal-659498974-r14" x="24.4" y="556.8" textLength="12.2" clip-path="url(#terminal-659498974-line-22)">W</text><text class="terminal-659498974-r2" x="36.6" y="556.8" textLength="793" clip-path="url(#terminal-659498974-line-22)">hat&#160;shall&#160;we&#160;work&#160;on&#160;next?&#160;&#160;&#160;&#160;&#160;&#160;&#160;&#160;&#160;&#160;&#160;&#160;&#160;&#160;&#160;&#160;&#160;&#160;&#160;&#160;&#160;&#160;&#160;&#160;&#160;&#160;&#160;&#160;&#160;&#160;&#160;&#160;&#160;&#160;&#160;&#160;&#160;&#160;&#160;</text><text class="terminal-659498974-r15" x="841.8" y="556.8" textLength="97.6" clip-path="url(#terminal-659498974-line-22)">&#160;Send&#160;↑&#160;</text><text class="terminal-659498974-r1" x="976" y="556.8" textLength="12.2" clip-path="url(#terminal-659498974-line-22)">
</text><text class="terminal-659498974-r16" x="24.4" y="581.2" textLength="256.2" clip-path="url(#terminal-659498974-line-23)">fixture-model&#160;&#160;&#160;&#160;&#160;&#160;&#160;&#160;</text><text class="terminal-659498974-r17" x="280.6" y="581.2" textLength="36.6" clip-path="url(#terminal-659498974-line-23)">&#160;·&#160;</text><text class="terminal-659498974-r13" x="317.2" y="581.2" textLength="48.8" clip-path="url(#terminal-659498974-line-23)">high</text><text class="terminal-659498974-r17" x="366" y="581.2" textLength="36.6" clip-path="url(#terminal-659498974-line-23)">&#160;·&#160;</text><text class="terminal-659498974-r13" x="402.6" y="581.2" textLength="85.4" clip-path="url(#terminal-659498974-line-23)">normal&#160;</text><text class="terminal-659498974-r3" x="488" y="581.2" textLength="48.8" clip-path="url(#terminal-659498974-line-23)">ctx&#160;</text><text class="terminal-659498974-r13" x="536.8" y="581.2" textLength="85.4" clip-path="url(#terminal-659498974-line-23)">≈0&#160;tok&#160;</text><text class="terminal-659498974-r3" x="622.2" y="581.2" textLength="329.4" clip-path="url(#terminal-659498974-line-23)">&#160;&#160;&#160;&#160;&#160;&#160;/workspace/neuro-code</text>
    </g>
    </g>
</svg>
