<svg class="rich-terminal" viewBox="0 0 1238 830.8" xmlns="http://www.w3.org/2000/svg">
    <!-- Generated with Rich https://www.textualize.io -->
    <style>

    @font-face {
        font-family: "Fira Code";
        src: local("FiraCode-Regular"),
                url("https://cdnjs.cloudflare.com/ajax/libs/firacode/6.2.0/woff2/FiraCode-Regular.woff2") format("woff2"),
                url("https://cdnjs.cloudflare.com/ajax/libs/firacode/6.2.0/woff/FiraCode-Regular.woff") format("woff");
        font-style: normal;
        font-weight: 400;
    }
    @font-face {
        font-family: "Fira Code";
        src: local("FiraCode-Bold"),
                url("https://cdnjs.cloudflare.com/ajax/libs/firacode/6.2.0/woff2/FiraCode-Bold.woff2") format("woff2"),
                url("https://cdnjs.cloudflare.com/ajax/libs/firacode/6.2.0/woff/FiraCode-Bold.woff") format("woff");
        font-style: bold;
        font-weight: 700;
    }

    .terminal-188473165-matrix {
        font-family: Fira Code, monospace;
        font-size: 20px;
        line-height: 24.4px;
        font-variant-east-asian: full-width;
    }

    .terminal-188473165-title {
        font-size: 18px;
        font-weight: bold;
        font-family: arial;
    }

    .terminal-188473165-r1 { fill: #c5c8c6 }
.terminal-188473165-r2 { fill: #262320 }
.terminal-188473165-r3 { fill: #68625c }
.terminal-188473165-r4 { fill: #92887e }
.terminal-188473165-r5 { fill: #2e2b28 }
.terminal-188473165-r6 { fill: #007020 }
.terminal-188473165-r7 { fill: #767676 }
.terminal-188473165-r8 { fill: #06287e }
.terminal-188473165-r9 { fill: #666666 }
.terminal-188473165-r10 { fill: #35855d }
.terminal-188473165-r11 { fill: #4c7e8b;font-style: italic; }
.terminal-188473165-r12 { fill: #4070a0 }
.terminal-188473165-r13 { fill: #49443f }
.terminal-188473165-r14 { fill: #ffffff }
.terminal-188473165-r15 { fill: #76618f }
.terminal-188473165-r16 { fill: #827c75 }
.terminal-188473165-r17 { fill: #58534e }
    </style>

    <defs>
    <clipPath id="terminal-188473165-clip-terminal">
      <rect x="0" y="0" width="1219.0" height="779.8" />
    </clipPath>
    <clipPath id="terminal-188473165-line-0">
    <rect x="0" y="1.5" width="1220" height="24.65"/>
            </clipPath>
<clipPath id="terminal-188473165-line-1">
    <rect x="0" y="25.9" width="1220" height="24.65"/>
            </clipPath>
<clipPath id="terminal-188473165-line-2">
    <rect x="0" y="50.3" width="1220" height="24.65"/>
            </clipPath>
<clipPath id="terminal-188473165-line-3">
    <rect x="0" y="74.7" width="1220" height="24.65"/>
            </clipPath>
<clipPath id="terminal-188473165-line-4">
    <rect x="0" y="99.1" width="1220" height="24.65"/>
            </clipPath>
<clipPath id="terminal-188473165-line-5">
    <rect x="0" y="123.5" width="1220" height="24.65"/>
            </clipPath>
<clipPath id="terminal-188473165-line-6">
    <rect x="0" y="147.9" width="1220" height="24.65"/>
            </clipPath>
<clipPath id="terminal-188473165-line-7">
    <rect x="0" y="172.3" width="1220" height="24.65"/>
            </clipPath>
<clipPath id="terminal-188473165-line-8">
    <rect x="0" y="196.7" width="1220" height="24.65"/>
            </clipPath>
<clipPath id="terminal-188473165-line-9">
    <rect x="0" y="221.1" width="1220" height="24.65"/>
            </clipPath>
<clipPath id="terminal-188473165-line-10">
    <rect x="0" y="245.5" width="1220" height="24.65"/>
            </clipPath>
<clipPath id="terminal-188473165-line-11">
    <rect x="0" y="269.9" width="1220" height="24.65"/>
            </clipPath>
<clipPath id="terminal-188473165-line-12">
    <rect x="0" y="294.3" width="1220" height="24.65"/>
            </clipPath>
<clipPath id="terminal-188473165-line-13">
    <rect x="0" y="318.7" width="1220" height="24.65"/>
            </clipPath>
<clipPath id="terminal-188473165-line-14">
    <rect x="0" y="343.1" width="1220" height="24.65"/>
            </clipPath>
<clipPath id="terminal-188473165-line-15">
    <rect x="0" y="367.5" width="1220" height="24.65"/>
            </clipPath>
<clipPath id="terminal-188473165-line-16">
    <rect x="0" y="391.9" width="1220" height="24.65"/>
            </clipPath>
<clipPath id="terminal-188473165-line-17">
    <rect x="0" y="416.3" width="1220" height="24.65"/>
            </clipPath>
<clipPath id="terminal-188473165-line-18">
    <rect x="0" y="440.7" width="1220" height="24.65"/>
            </clipPath>
<clipPath id="terminal-188473165-line-19">
    <rect x="0" y="465.1" width="1220" height="24.65"/>
            </clipPath>
<clipPath id="terminal-188473165-line-20">
    <rect x="0" y="489.5" width="1220" height="24.65"/>
            </clipPath>
<clipPath id="terminal-188473165-line-21">
    <rect x="0" y="513.9" width="1220" height="24.65"/>
            </clipPath>
<clipPath id="terminal-188473165-line-22">
    <rect x="0" y="538.3" width="1220" height="24.65"/>
            </clipPath>
<clipPath id="terminal-188473165-line-23">
    <rect x="0" y="562.7" width="1220" height="24.65"/>
            </clipPath>
<clipPath id="terminal-188473165-line-24">
    <rect x="0" y="587.1" width="1220" height="24.65"/>
            </clipPath>
<clipPath id="terminal-188473165-line-25">
    <rect x="0" y="611.5" width="1220" height="24.65"/>
            </clipPath>
<clipPath id="terminal-188473165-line-26">
    <rect x="0" y="635.9" width="1220" height="24.65"/>
            </clipPath>
<clipPath id="terminal-188473165-line-27">
    <rect x="0" y="660.3" width="1220" height="24.65"/>
            </clipPath>
<clipPath id="terminal-188473165-line-28">
    <rect x="0" y="684.7" width="1220" height="24.65"/>
            </clipPath>
<clipPath id="terminal-188473165-line-29">
    <rect x="0" y="709.1" width="1220" height="24.65"/>
            </clipPath>
<clipPath id="terminal-188473165-line-30">
    <rect x="0" y="733.5" width="1220" height="24.65"/>
            </clipPath>
    </defs>

    <rect fill="#292929" stroke="rgba(255,255,255,0.35)" stroke-width="1" x="1" y="1" width="1236" height="828.8" rx="8"/><text class="terminal-188473165-title" fill="#c5c8c6" text-anchor="middle" x="618" y="27">Neuro&#160;Code&#160;visual&#160;baseline</text>
            <g transform="translate(26,22)">
            <circle cx="0" cy="0" r="7" fill="#ff5f57"/>
            <circle cx="22" cy="0" r="7" fill="#febc2e"/>
            <circle cx="44" cy="0" r="7" fill="#28c840"/>
            </g>

    <g transform="translate(9, 41)" clip-path="url(#terminal-188473165-clip-terminal)">
    <rect fill="#f6f5f2" x="0" y="1.5" width="36.6" height="24.65" shape-rendering="crispEdges"/><rect fill="#f6f5f2" x="36.6" y="1.5" width="61" height="24.65" shape-rendering="crispEdges"/><rect fill="#f6f5f2" x="97.6" y="1.5" width="85.4" height="24.65" shape-rendering="crispEdges"/><rect fill="#f6f5f2" x="183" y="1.5" width="0" height="24.65" shape-rendering="crispEdges"/><rect fill="#f6f5f2" x="183" y="1.5" width="939.4" height="24.65" shape-rendering="crispEdges"/><rect fill="#f6f5f2" x="1122.4" y="1.5" width="61" height="24.65" shape-rendering="crispEdges"/><rect fill="#f6f5f2" x="1183.4" y="1.5" width="36.6" height="24.65" shape-rendering="crispEdges"/><rect fill="#f6f5f2" x="0" y="25.9" width="1220" height="24.65" shape-rendering="crispEdges"/><rect fill="#f6f5f2" x="0" y="50.3" width="36.6" height="24.65" shape-rendering="crispEdges"/><rect fill="#f1efeb" x="36.6" y="50.3" width="12.2" height="24.65" shape-rendering="crispEdges"/><rect fill="#f1efeb" x="48.8" y="50.3" width="1134.6" height="24.65" shape-rendering="crispEdges"/><rect fill="#f6f5f2" x="1183.4" y="50.3" width="36.6" height="24.65" shape-rendering="crispEdges"/><rect fill="#f6f5f2" x="0" y="74.7" width="36.6" height="24.65" shape-rendering="crispEdges"/><rect fill="#f1efeb" x="36.6" y="74.7" width="12.2" height="24.65" shape-rendering="crispEdges"/><rect fill="#f1efeb" x="48.8" y="74.7" width="12.2" height="24.65" shape-rendering="crispEdges"/><rect fill="#f1efeb" x="61" y="74.7" width="597.8" height="24.65" shape-rendering="crispEdges"/><rect fill="#f1efeb" x="658.8" y="74.7" width="524.6" height="24.65" shape-rendering="crispEdges"/><rect fill="#f6f5f2" x="1183.4" y="74.7" width="36.6" height="24.65" shape-rendering="crispEdges"/><rect fill="#f6f5f2" x="0" y="99.1" width="36.6" height="24.65" shape-rendering="crispEdges"/><rect fill="#f1efeb" x="36.6" y="99.1" width="12.2" height="24.65" shape-rendering="crispEdges"/><rect fill="#f1efeb" x="48.8" y="99.1" width="1134.6" height="24.65" shape-rendering="crispEdges"/><rect fill="#f6f5f2" x="1183.4" y="99.1" width="36.6" height="24.65" shape-rendering="crispEdges"/><rect fill="#f6f5f2" x="0" y="123.5" width="36.6" height="24.65" shape-rendering="crispEdges"/><rect fill="#f6f5f2" x="36.6" y="123.5" width="1146.8" height="24.65" shape-rendering="crispEdges"/><rect fill="#f6f5f2" x="1183.4" y="123.5" width="36.6" height="24.65" shape-rendering="crispEdges"/><rect fill="#f6f5f2" x="0" y="147.9" width="36.6" height="24.65" shape-rendering="crispEdges"/><rect fill="#f6f5f2" x="36.6" y="147.9" width="1146.8" height="24.65" shape-rendering="crispEdges"/><rect fill="#f6f5f2" x="1183.4" y="147.9" width="36.6" height="24.65" shape-rendering="crispEdges"/><rect fill="#f6f5f2" x="0" y="172.3" width="48.8" height="24.65" shape-rendering="crispEdges"/><rect fill="#f6f5f2" x="48.8" y="172.3" width="1122.4" height="24.65" shape-rendering="crispEdges"/><rect fill="#f6f5f2" x="1171.2" y="172.3" width="48.8" height="24.65" shape-rendering="crispEdges"/><rect fill="#f6f5f2" x="0" y="196.7" width="1220" height="24.65" shape-rendering="crispEdges"/><rect fill="#f6f5f2" x="0" y="221.1" width="48.8" height="24.65" shape-rendering="crispEdges"/><rect fill="#ffffff" x="48.8" y="221.1" width="1122.4" height="24.65" shape-rendering="crispEdges"/><rect fill="#f6f5f2" x="1171.2" y="221.1" width="48.8" height="24.65" shape-rendering="crispEdges"/><rect fill="#f6f5f2" x="0" y="245.5" width="48.8" height="24.65" shape-rendering="crispEdges"/><rect fill="#ffffff" x="48.8" y="245.5" width="12.2" height="24.65" shape-rendering="crispEdges"/><rect fill="#ffffff" x="61" y="245.5" width="36.6" height="24.65" shape-rendering="crispEdges"/><rect fill="#ffffff" x="97.6" y="245.5" width="12.2" height="24.65" shape-rendering="crispEdges"/><rect fill="#ffffff" x="109.8" y="245.5" width="195.2" height="24.65" shape-rendering="crispEdges"/><rect fill="#ffffff" x="305" y="245.5" width="85.4" height="24.65" shape-rendering="crispEdges"/><rect fill="#ffffff" x="390.4" y="245.5" width="36.6" height="24.65" shape-rendering="crispEdges"/><rect fill="#ffffff" x="427" y="245.5" width="134.2" height="24.65" shape-rendering="crispEdges"/><rect fill="#ffffff" x="561.2" y="245.5" width="36.6" height="24.65" shape-rendering="crispEdges"/><rect fill="#ffffff" x="597.8" y="245.5" width="12.2" height="24.65" shape-rendering="crispEdges"/><rect fill="#ffffff" x="610" y="245.5" width="12.2" height="24.65" shape-rendering="crispEdges"/><rect fill="#ffffff" x="622.2" y="245.5" width="12.2" height="24.65" shape-rendering="crispEdges"/><rect fill="#ffffff" x="634.4" y="245.5" width="12.2" height="24.65" shape-rendering="crispEdges"/><rect fill="#ffffff" x="646.6" y="245.5" width="24.4" height="24.65" shape-rendering="crispEdges"/><rect fill="#ffffff" x="671" y="245.5" width="24.4" height="24.65" shape-rendering="crispEdges"/><rect fill="#ffffff" x="695.4" y="245.5" width="12.2" height="24.65" shape-rendering="crispEdges"/><rect fill="#ffffff" x="707.6" y="245.5" width="48.8" height="24.65" shape-rendering="crispEdges"/><rect fill="#ffffff" x="756.4" y="245.5" width="12.2" height="24.65" shape-rendering="crispEdges"/><rect fill="#ffffff" x="768.6" y="245.5" width="402.6" height="24.65" shape-rendering="crispEdges"/><rect fill="#f6f5f2" x="1171.2" y="245.5" width="48.8" height="24.65" shape-rendering="crispEdges"/><rect fill="#f6f5f2" x="0" y="269.9" width="48.8" height="24.65" shape-rendering="crispEdges"/><rect fill="#ffffff" x="48.8" y="269.9" width="12.2" height="24.65" shape-rendering="crispEdges"/><rect fill="#ffffff" x="61" y="269.9" width="48.8" height="24.65" shape-rendering="crispEdges"/><rect fill="#ffffff" x="109.8" y="269.9" width="671" height="24.65" shape-rendering="crispEdges"/><rect fill="#ffffff" x="780.8" y="269.9" width="390.4" height="24.65" shape-rendering="crispEdges"/><rect fill="#f6f5f2" x="1171.2" y="269.9" width="48.8" height="24.65" shape-rendering="crispEdges"/><rect fill="#f6f5f2" x="0" y="294.3" width="48.8" height="24.65" shape-rendering="crispEdges"/><rect fill="#ffffff" x="48.8" y="294.3" width="12.2" height="24.65" shape-rendering="crispEdges"/><rect fill="#ffffff" x="61" y="294.3" width="48.8" height="24.65" shape-rendering="crispEdges"/><rect fill="#ffffff" x="109.8" y="294.3" width="73.2" height="24.65" shape-rendering="crispEdges"/><rect fill="#ffffff" x="183" y="294.3" width="73.2" height="24.65" shape-rendering="crispEdges"/><rect fill="#ffffff" x="256.2" y="294.3" width="24.4" height="24.65" shape-rendering="crispEdges"/><rect fill="#ffffff" x="280.6" y="294.3" width="12.2" height="24.65" shape-rendering="crispEdges"/><rect fill="#ffffff" x="292.8" y="294.3" width="24.4" height="24.65" shape-rendering="crispEdges"/><rect fill="#ffffff" x="317.2" y="294.3" width="12.2" height="24.65" shape-rendering="crispEdges"/><rect fill="#ffffff" x="329.4" y="294.3" width="36.6" height="24.65" shape-rendering="crispEdges"/><rect fill="#ffffff" x="366" y="294.3" width="109.8" height="24.65" shape-rendering="crispEdges"/><rect fill="#ffffff" x="475.8" y="294.3" width="12.2" height="24.65" shape-rendering="crispEdges"/><rect fill="#ffffff" x="488" y="294.3" width="12.2" height="24.65" shape-rendering="crispEdges"/><rect fill="#ffffff" x="500.2" y="294.3" width="12.2" height="24.65" shape-rendering="crispEdges"/><rect fill="#ffffff" x="512.4" y="294.3" width="658.8" height="24.65" shape-rendering="crispEdges"/><rect fill="#f6f5f2" x="1171.2" y="294.3" width="48.8" height="24.65" shape-rendering="crispEdges"/><rect fill="#f6f5f2" x="0" y="318.7" width="48.8" height="24.65" shape-rendering="crispEdges"/><rect fill="#ffffff" x="48.8" y="318.7" width="1122.4" height="24.65" shape-rendering="crispEdges"/><rect fill="#f6f5f2" x="1171.2" y="318.7" width="48.8" height="24.65" shape-rendering="crispEdges"/><rect fill="#f6f5f2" x="0" y="343.1" width="1220" height="24.65" shape-rendering="crispEdges"/><rect fill="#f6f5f2" x="0" y="367.5" width="48.8" height="24.65" shape-rendering="crispEdges"/><rect fill="#f6f5f2" x="48.8" y="367.5" width="402.6" height="24.65" shape-rendering="crispEdges"/><rect fill="#f6f5f2" x="451.4" y="367.5" width="195.2" height="24.65" shape-rendering="crispEdges"/><rect fill="#f6f5f2" x="646.6" y="367.5" width="524.6" height="24.65" shape-rendering="crispEdges"/><rect fill="#f6f5f2" x="1171.2" y="367.5" width="48.8" height="24.65" shape-rendering="crispEdges"/><rect fill="#f6f5f2" x="0" y="391.9" width="36.6" height="24.65" shape-rendering="crispEdges"/><rect fill="#f6f5f2" x="36.6" y="391.9" width="1146.8" height="24.65" shape-rendering="crispEdges"/><rect fill="#f6f5f2" x="1183.4" y="391.9" width="36.6" height="24.65" shape-rendering="crispEdges"/><rect fill="#f6f5f2" x="0" y="416.3" width="36.6" height="24.65" shape-rendering="crispEdges"/><rect fill="#f6f5f2" x="36.6" y="416.3" width="1146.8" height="24.65" shape-rendering="crispEdges"/><rect fill="#f6f5f2" x="1183.4" y="416.3" width="36.6" height="24.65" shape-rendering="crispEdges"/><rect fill="#f6f5f2" x="0" y="440.7" width="36.6" height="24.65" shape-rendering="crispEdges"/><rect fill="#f6f5f2" x="36.6" y="440.7" width="1146.8" height="24.65" shape-rendering="crispEdges"/><rect fill="#f6f5f2" x="1183.4" y="440.7" width="36.6" height="24.65" shape-rendering="crispEdges"/><rect fill="#f6f5f2" x="0" y="465.1" width="36.6" height="24.65" shape-rendering="crispEdges"/><rect fill="#f6f5f2" x="36.6" y="465.1" width="1146.8" height="24.65" shape-rendering="crispEdges"/><rect fill="#f6f5f2" x="1183.4" y="465.1" width="36.6" height="24.65" shape-rendering="crispEdges"/><rect fill="#f6f5f2" x="0" y="489.5" width="36.6" height="24.65" shape-rendering="crispEdges"/><rect fill="#f6f5f2" x="36.6" y="489.5" width="1146.8" height="24.65" shape-rendering="crispEdges"/><rect fill="#f6f5f2" x="1183.4" y="489.5" width="36.6" height="24.65" shape-rendering="crispEdges"/><rect fill="#f6f5f2" x="0" y="513.9" width="36.6" height="24.65" shape-rendering="crispEdges"/><rect fill="#f6f5f2" x="36.6" y="513.9" width="1146.8" height="24.65" shape-rendering="crispEdges"/><rect fill="#f6f5f2" x="1183.4" y="513.9" width="36.6" height="24.65" shape-rendering="crispEdges"/><rect fill="#f6f5f2" x="0" y="538.3" width="36.6" height="24.65" shape-rendering="crispEdges"/><rect fill="#f6f5f2" x="36.6" y="538.3" width="1146.8" height="24.65" shape-rendering="crispEdges"/><rect fill="#f6f5f2" x="1183.4" y="538.3" width="36.6" height="24.65" shape-rendering="crispEdges"/><rect fill="#f6f5f2" x="0" y="562.7" width="36.6" height="24.65" shape-rendering="crispEdges"/><rect fill="#f6f5f2" x="36.6" y="562.7" width="1146.8" height="24.65" shape-rendering="crispEdges"/><rect fill="#f6f5f2" x="1183.4" y="562.7" width="36.6" height="24.65" shape-rendering="crispEdges"/><rect fill="#f6f5f2" x="0" y="587.1" width="36.6" height="24.65" shape-rendering="crispEdges"/><rect fill="#f6f5f2" x="36.6" y="587.1" width="1146.8" height="24.65" shape-rendering="crispEdges"/><rect fill="#f6f5f2" x="1183.4" y="587.1" width="36.6" height="24.65" shape-rendering="crispEdges"/><rect fill="#f6f5f2" x="0" y="611.5" width="36.6" height="24.65" shape-rendering="crispEdges"/><rect fill="#f6f5f2" x="36.6" y="611.5" width="1146.8" height="24.65" shape-rendering="crispEdges"/><rect fill="#f6f5f2" x="1183.4" y="611.5" width="36.6" height="24.65" shape-rendering="crispEdges"/><rect fill="#f6f5f2" x="0" y="635.9" width="36.6" height="24.65" shape-rendering="crispEdges"/><rect fill="#f6f5f2" x="36.6" y="635.9" width="1146.8" height="24.65" shape-rendering="crispEdges"/><rect fill="#f6f5f2" x="1183.4" y="635.9" width="36.6" height="24.65" shape-rendering="crispEdges"/><rect fill="#f6f5f2" x="0" y="660.3" width="1220" height="24.65" shape-rendering="crispEdges"/><rect fill="#f6f5f2" x="0" y="684.7" width="36.6" height="24.65" shape-rendering="crispEdges"/><rect fill="#ffffff" x="36.6" y="684.7" width="1146.8" height="24.65" shape-rendering="crispEdges"/><rect fill="#f6f5f2" x="1183.4" y="684.7" width="36.6" height="24.65" shape-rendering="crispEdges"/><rect fill="#f6f5f2" x="0" y="709.1" width="36.6" height="24.65" shape-rendering="crispEdges"/><rect fill="#ffffff" x="36.6" y="709.1" width="24.4" height="24.65" shape-rendering="crispEdges"/><rect fill="#ffffff" x="61" y="709.1" width="0" height="24.65" shape-rendering="crispEdges"/><rect fill="#262320" x="61" y="709.1" width="12.2" height="24.65" shape-rendering="crispEdges"/><rect fill="#ffffff" x="73.2" y="709.1" width="976" height="24.65" shape-rendering="crispEdges"/><rect fill="#ffffff" x="1049.2" y="709.1" width="12.2" height="24.65" shape-rendering="crispEdges"/><rect fill="#ffffff" x="1061.4" y="709.1" width="97.6" height="24.65" shape-rendering="crispEdges"/><rect fill="#ffffff" x="1159" y="709.1" width="24.4" height="24.65" shape-rendering="crispEdges"/><rect fill="#f6f5f2" x="1183.4" y="709.1" width="36.6" height="24.65" shape-rendering="crispEdges"/><rect fill="#f6f5f2" x="0" y="733.5" width="36.6" height="24.65" shape-rendering="crispEdges"/><rect fill="#ffffff" x="36.6" y="733.5" width="1146.8" height="24.65" shape-rendering="crispEdges"/><rect fill="#f6f5f2" x="1183.4" y="733.5" width="36.6" height="24.65" shape-rendering="crispEdges"/><rect fill="#f6f5f2" x="0" y="757.9" width="48.8" height="24.65" shape-rendering="crispEdges"/><rect fill="#f6f5f2" x="48.8" y="757.9" width="536.8" height="24.65" shape-rendering="crispEdges"/><rect fill="#f6f5f2" x="585.6" y="757.9" width="36.6" height="24.65" shape-rendering="crispEdges"/><rect fill="#f6f5f2" x="622.2" y="757.9" width="48.8" height="24.65" shape-rendering="crispEdges"/><rect fill="#f6f5f2" x="671" y="757.9" width="36.6" height="24.65" shape-rendering="crispEdges"/><rect fill="#f6f5f2" x="707.6" y="757.9" width="97.6" height="24.65" shape-rendering="crispEdges"/><rect fill="#f6f5f2" x="805.2" y="757.9" width="48.8" height="24.65" shape-rendering="crispEdges"/><rect fill="#f6f5f2" x="854" y="757.9" width="85.4" height="24.65" shape-rendering="crispEdges"/><rect fill="#f6f5f2" x="939.4" y="757.9" width="231.8" height="24.65" shape-rendering="crispEdges"/><rect fill="#f6f5f2" x="1171.2" y="757.9" width="48.8" height="24.65" shape-rendering="crispEdges"/>
    <g class="terminal-188473165-matrix">
    <text class="terminal-188473165-r2" x="36.6" y="20" textLength="61" clip-path="url(#terminal-188473165-line-0)">NEURO</text><text class="terminal-188473165-r3" x="97.6" y="20" textLength="85.4" clip-path="url(#terminal-188473165-line-0)">&#160;/&#160;CODE</text><text class="terminal-188473165-r3" x="1122.4" y="20" textLength="61" clip-path="url(#terminal-188473165-line-0)">13:37</text><text class="terminal-188473165-r1" x="1220" y="20" textLength="12.2" clip-path="url(#terminal-188473165-line-0)">
</text><text class="terminal-188473165-r1" x="1220" y="44.4" textLength="12.2" clip-path="url(#terminal-188473165-line-1)">
</text><text class="terminal-188473165-r4" x="36.6" y="68.8" textLength="12.2" clip-path="url(#terminal-188473165-line-2)">│</text><text class="terminal-188473165-r1" x="1220" y="68.8" textLength="12.2" clip-path="url(#terminal-188473165-line-2)">
</text><text class="terminal-188473165-r4" x="36.6" y="93.2" textLength="12.2" clip-path="url(#terminal-188473165-line-3)">│</text><text class="terminal-188473165-r2" x="61" y="93.2" textLength="500.2" clip-path="url(#terminal-188473165-line-3)">请审查下面的内容&#160;/&#160;Review&#160;the&#160;following&#160;evidence.</text><text class="terminal-188473165-r1" x="1220" y="93.2" textLength="12.2" clip-path="url(#terminal-188473165-line-3)">
</text><text class="terminal-188473165-r4" x="36.6" y="117.6" textLength="12.2" clip-path="url(#terminal-188473165-line-4)">│</text><text class="terminal-188473165-r1" x="1220" y="117.6" textLength="12.2" clip-path="url(#terminal-188473165-line-4)">
</text><text class="terminal-188473165-r1" x="1220" y="142" textLength="12.2" clip-path="url(#terminal-188473165-line-5)">
</text><text class="terminal-188473165-r1" x="1220" y="166.4" textLength="12.2" clip-path="url(#terminal-188473165-line-6)">
</text><text class="terminal-188473165-r5" x="48.8" y="190.8" textLength="902.8" clip-path="url(#terminal-188473165-line-7)">代码之前的正文只用于解释，不改变&#160;fenced&#160;code&#160;的&#160;token&#160;colors。&#160;&#160;&#160;&#160;&#160;&#160;&#160;&#160;&#160;&#160;&#160;&#160;&#160;&#160;&#160;&#160;&#160;&#160;&#160;&#160;&#160;&#160;&#160;&#160;&#160;&#160;&#160;&#160;&#160;&#160;</text><text class="terminal-188473165-r1" x="1220" y="190.8" textLength="12.2" clip-path="url(#terminal-188473165-line-7)">
</text><text class="terminal-188473165-r1" x="1220" y="215.2" textLength="12.2" clip-path="url(#terminal-188473165-line-8)">
</text><text class="terminal-188473165-r1" x="1220" y="239.6" textLength="12.2" clip-path="url(#terminal-188473165-line-9)">
</text><text class="terminal-188473165-r6" x="61" y="264" textLength="36.6" clip-path="url(#terminal-188473165-line-10)">def</text><text class="terminal-188473165-r8" x="109.8" y="264" textLength="195.2" clip-path="url(#terminal-188473165-line-10)">validate_request</text><text class="terminal-188473165-r5" x="305" y="264" textLength="85.4" clip-path="url(#terminal-188473165-line-10)">(name:&#160;</text><text class="terminal-188473165-r6" x="390.4" y="264" textLength="36.6" clip-path="url(#terminal-188473165-line-10)">str</text><text class="terminal-188473165-r5" x="427" y="264" textLength="134.2" clip-path="url(#terminal-188473165-line-10)">,&#160;retries:&#160;</text><text class="terminal-188473165-r6" x="561.2" y="264" textLength="36.6" clip-path="url(#terminal-188473165-line-10)">int</text><text class="terminal-188473165-r9" x="610" y="264" textLength="12.2" clip-path="url(#terminal-188473165-line-10)">=</text><text class="terminal-188473165-r10" x="634.4" y="264" textLength="12.2" clip-path="url(#terminal-188473165-line-10)">3</text><text class="terminal-188473165-r5" x="646.6" y="264" textLength="24.4" clip-path="url(#terminal-188473165-line-10)">)&#160;</text><text class="terminal-188473165-r9" x="671" y="264" textLength="24.4" clip-path="url(#terminal-188473165-line-10)">-&gt;</text><text class="terminal-188473165-r6" x="707.6" y="264" textLength="48.8" clip-path="url(#terminal-188473165-line-10)">bool</text><text class="terminal-188473165-r5" x="756.4" y="264" textLength="12.2" clip-path="url(#terminal-188473165-line-10)">:</text><text class="terminal-188473165-r1" x="1220" y="264" textLength="12.2" clip-path="url(#terminal-188473165-line-10)">
</text><text class="terminal-188473165-r11" x="109.8" y="288.4" textLength="671" clip-path="url(#terminal-188473165-line-11)">#&#160;Existing&#160;Syntax&#160;Theme&#160;remains&#160;authoritative&#160;for&#160;code.</text><text class="terminal-188473165-r1" x="1220" y="288.4" textLength="12.2" clip-path="url(#terminal-188473165-line-11)">
</text><text class="terminal-188473165-r6" x="109.8" y="312.8" textLength="73.2" clip-path="url(#terminal-188473165-line-12)">return</text><text class="terminal-188473165-r5" x="183" y="312.8" textLength="73.2" clip-path="url(#terminal-188473165-line-12)">&#160;name&#160;</text><text class="terminal-188473165-r9" x="256.2" y="312.8" textLength="24.4" clip-path="url(#terminal-188473165-line-12)">!=</text><text class="terminal-188473165-r12" x="292.8" y="312.8" textLength="24.4" clip-path="url(#terminal-188473165-line-12)">&quot;&quot;</text><text class="terminal-188473165-r6" x="329.4" y="312.8" textLength="36.6" clip-path="url(#terminal-188473165-line-12)">and</text><text class="terminal-188473165-r5" x="366" y="312.8" textLength="109.8" clip-path="url(#terminal-188473165-line-12)">&#160;retries&#160;</text><text class="terminal-188473165-r9" x="475.8" y="312.8" textLength="12.2" clip-path="url(#terminal-188473165-line-12)">&gt;</text><text class="terminal-188473165-r10" x="500.2" y="312.8" textLength="12.2" clip-path="url(#terminal-188473165-line-12)">0</text><text class="terminal-188473165-r1" x="1220" y="312.8" textLength="12.2" clip-path="url(#terminal-188473165-line-12)">
</text><text class="terminal-188473165-r1" x="1220" y="337.2" textLength="12.2" clip-path="url(#terminal-188473165-line-13)">
</text><text class="terminal-188473165-r1" x="1220" y="361.6" textLength="12.2" clip-path="url(#terminal-188473165-line-14)">
</text><text class="terminal-188473165-r5" x="48.8" y="386" textLength="207.4" clip-path="url(#terminal-188473165-line-15)">代码之后的正文保持现有间距，行内&#160;</text><text class="terminal-188473165-r13" x="451.4" y="386" textLength="195.2" clip-path="url(#terminal-188473165-line-15)">validate_request</text><text class="terminal-188473165-r5" x="646.6" y="386" textLength="451.4" clip-path="url(#terminal-188473165-line-15)">&#160;没有背景块。&#160;&#160;&#160;&#160;&#160;&#160;&#160;&#160;&#160;&#160;&#160;&#160;&#160;&#160;&#160;&#160;&#160;&#160;&#160;&#160;&#160;&#160;&#160;&#160;&#160;&#160;&#160;&#160;&#160;&#160;</text><text class="terminal-188473165-r1" x="1220" y="386" textLength="12.2" clip-path="url(#terminal-188473165-line-15)">
</text><text class="terminal-188473165-r1" x="1220" y="410.4" textLength="12.2" clip-path="url(#terminal-188473165-line-16)">
</text><text class="terminal-188473165-r1" x="1220" y="434.8" textLength="12.2" clip-path="url(#terminal-188473165-line-17)">
</text><text class="terminal-188473165-r1" x="1220" y="459.2" textLength="12.2" clip-path="url(#terminal-188473165-line-18)">
</text><text class="terminal-188473165-r1" x="1220" y="483.6" textLength="12.2" clip-path="url(#terminal-188473165-line-19)">
</text><text class="terminal-188473165-r1" x="1220" y="508" textLength="12.2" clip-path="url(#terminal-188473165-line-20)">
</text><text class="terminal-188473165-r1" x="1220" y="532.4" textLength="12.2" clip-path="url(#terminal-188473165-line-21)">
</text><text class="terminal-188473165-r1" x="1220" y="556.8" textLength="12.2" clip-path="url(#terminal-188473165-line-22)">
</text><text class="terminal-188473165-r1" x="1220" y="581.2" textLength="12.2" clip-path="url(#terminal-188473165-line-23)">
</text><text class="terminal-188473165-r1" x="1220" y="605.6" textLength="12.2" clip-path="url(#terminal-188473165-line-24)">
</text><text class="terminal-188473165-r1" x="1220" y="630" textLength="12.2" clip-path="url(#terminal-188473165-line-25)">
</text><text class="terminal-188473165-r1" x="1220" y="654.4" textLength="12.2" clip-path="url(#terminal-188473165-line-26)">
</text><text class="terminal-188473165-r1" x="1220" y="678.8" textLength="12.2" clip-path="url(#terminal-188473165-line-27)">
</text><text class="terminal-188473165-r1" x="1220" y="703.2" textLength="12.2" clip-path="url(#terminal-188473165-line-28)">
</text><text class="terminal-188473165-r14" x="61" y="727.6" textLength="12.2" clip-path="url(#terminal-188473165-line-29)">W</text><text class="terminal-188473165-r2" x="73.2" y="727.6" textLength="976" clip-path="url(#terminal-188473165-line-29)">hat&#160;shall&#160;we&#160;work&#160;on&#160;next?&#160;&#160;&#160;&#160;&#160;&#160;&#160;&#160;&#160;&#160;&#160;&#160;&#160;&#160;&#160;&#160;&#160;&#160;&#160;&#160;&#160;&#160;&#160;&#160;&#160;&#160;&#160;&#160;&#160;&#160;&#160;&#160;&#160;&#160;&#160;&#160;&#160;&#160;&#160;&#160;&#160;&#160;&#160;&#160;&#160;&#160;&#160;&#160;&#160;&#160;&#160;&#160;&#160;&#160;</text><text class="terminal-188473165-r15" x="1061.4" y="727.6" textLength="97.6" clip-path="url(#terminal-188473165-line-29)">&#160;Send&#160;↑&#160;</text><text class="terminal-188473165-r1" x="1220" y="727.6" textLength="12.2" clip-path="url(#terminal-188473165-line-29)">
</text><text class="terminal-188473165-r1" x="1220" y="752" textLength="12.2" clip-path="url(#terminal-188473165-line-30)">
</text><text class="terminal-188473165-r13" x="48.8" y="776.4" textLength="536.8" clip-path="url(#terminal-188473165-line-31)">fixture-model&#160;&#160;&#160;&#160;&#160;&#160;&#160;&#160;&#160;&#160;&#160;&#160;&#160;&#160;&#160;&#160;&#160;&#160;&#160;&#160;&#160;&#160;&#160;&#160;&#160;&#160;&#160;&#160;&#160;&#160;&#160;</text><text class="terminal-188473165-r16" x="585.6" y="776.4" textLength="36.6" clip-path="url(#terminal-188473165-line-31)">&#160;·&#160;</text><text class="terminal-188473165-r17" x="622.2" y="776.4" textLength="48.8" clip-path="url(#terminal-188473165-line-31)">high</text><text class="terminal-188473165-r16" x="671" y="776.4" textLength="36.6" clip-path="url(#terminal-188473165-line-31)">&#160;·&#160;</text><text class="terminal-188473165-r17" x="707.6" y="776.4" textLength="97.6" clip-path="url(#terminal-188473165-line-31)">normal&#160;&#160;</text><text class="terminal-188473165-r3" x="805.2" y="776.4" textLength="48.8" clip-path="url(#terminal-188473165-line-31)">ctx&#160;</text><text class="terminal-188473165-r17" x="854" y="776.4" textLength="85.4" clip-path="url(#terminal-188473165-line-31)">≈0&#160;tok&#160;</text><text class="terminal-188473165-r3" x="939.4" y="776.4" textLength="231.8" clip-path="url(#terminal-188473165-line-31)">/workspace/neuro-c…</text>
    </g>
    </g>
</svg>
