<svg class="rich-terminal" viewBox="0 0 1482 1026.0" xmlns="http://www.w3.org/2000/svg">
    <!-- Generated with Rich https://www.textualize.io -->
    <style>

    @font-face {
        font-family: "Fira Code";
        src: local("FiraCode-Regular"),
                url("https://cdnjs.cloudflare.com/ajax/libs/firacode/6.2.0/woff2/FiraCode-Regular.woff2") format("woff2"),
                url("https://cdnjs.cloudflare.com/ajax/libs/firacode/6.2.0/woff/FiraCode-Regular.woff") format("woff");
        font-style: normal;
        font-weight: 400;
    }
    @font-face {
        font-family: "Fira Code";
        src: local("FiraCode-Bold"),
                url("https://cdnjs.cloudflare.com/ajax/libs/firacode/6.2.0/woff2/FiraCode-Bold.woff2") format("woff2"),
                url("https://cdnjs.cloudflare.com/ajax/libs/firacode/6.2.0/woff/FiraCode-Bold.woff") format("woff");
        font-style: bold;
        font-weight: 700;
    }

    .terminal-1633617781-matrix {
        font-family: Fira Code, monospace;
        font-size: 20px;
        line-height: 24.4px;
        font-variant-east-asian: full-width;
    }

    .terminal-1633617781-title {
        font-size: 18px;
        font-weight: bold;
        font-family: arial;
    }

    .terminal-1633617781-r1 { fill: #c5c8c6 }
.terminal-1633617781-r2 { fill: #232323 }
.terminal-1633617781-r3 { fill: #636363 }
.terminal-1633617781-r4 { fill: #898989 }
.terminal-1633617781-r5 { fill: #2b2b2b }
.terminal-1633617781-r6 { fill: #232323;font-weight: bold }
.terminal-1633617781-r7 { fill: #454545 }
.terminal-1633617781-r8 { fill: #545454 }
.terminal-1633617781-r9 { fill: #ffffff }
.terminal-1633617781-r10 { fill: #696969 }
.terminal-1633617781-r11 { fill: #7d7d7d }
    </style>

    <defs>
    <clipPath id="terminal-1633617781-clip-terminal">
      <rect x="0" y="0" width="1463.0" height="975.0" />
    </clipPath>
    <clipPath id="terminal-1633617781-line-0">
    <rect x="0" y="1.5" width="1464" height="24.65"/>
            </clipPath>
<clipPath id="terminal-1633617781-line-1">
    <rect x="0" y="25.9" width="1464" height="24.65"/>
            </clipPath>
<clipPath id="terminal-1633617781-line-2">
    <rect x="0" y="50.3" width="1464" height="24.65"/>
            </clipPath>
<clipPath id="terminal-1633617781-line-3">
    <rect x="0" y="74.7" width="1464" height="24.65"/>
            </clipPath>
<clipPath id="terminal-1633617781-line-4">
    <rect x="0" y="99.1" width="1464" height="24.65"/>
            </clipPath>
<clipPath id="terminal-1633617781-line-5">
    <rect x="0" y="123.5" width="1464" height="24.65"/>
            </clipPath>
<clipPath id="terminal-1633617781-line-6">
    <rect x="0" y="147.9" width="1464" height="24.65"/>
            </clipPath>
<clipPath id="terminal-1633617781-line-7">
    <rect x="0" y="172.3" width="1464" height="24.65"/>
            </clipPath>
<clipPath id="terminal-1633617781-line-8">
    <rect x="0" y="196.7" width="1464" height="24.65"/>
            </clipPath>
<clipPath id="terminal-1633617781-line-9">
    <rect x="0" y="221.1" width="1464" height="24.65"/>
            </clipPath>
<clipPath id="terminal-1633617781-line-10">
    <rect x="0" y="245.5" width="1464" height="24.65"/>
            </clipPath>
<clipPath id="terminal-1633617781-line-11">
    <rect x="0" y="269.9" width="1464" height="24.65"/>
            </clipPath>
<clipPath id="terminal-1633617781-line-12">
    <rect x="0" y="294.3" width="1464" height="24.65"/>
            </clipPath>
<clipPath id="terminal-1633617781-line-13">
    <rect x="0" y="318.7" width="1464" height="24.65"/>
            </clipPath>
<clipPath id="terminal-1633617781-line-14">
    <rect x="0" y="343.1" width="1464" height="24.65"/>
            </clipPath>
<clipPath id="terminal-1633617781-line-15">
    <rect x="0" y="367.5" width="1464" height="24.65"/>
            </clipPath>
<clipPath id="terminal-1633617781-line-16">
    <rect x="0" y="391.9" width="1464" height="24.65"/>
            </clipPath>
<clipPath id="terminal-1633617781-line-17">
    <rect x="0" y="416.3" width="1464" height="24.65"/>
            </clipPath>
<clipPath id="terminal-1633617781-line-18">
    <rect x="0" y="440.7" width="1464" height="24.65"/>
            </clipPath>
<clipPath id="terminal-1633617781-line-19">
    <rect x="0" y="465.1" width="1464" height="24.65"/>
            </clipPath>
<clipPath id="terminal-1633617781-line-20">
    <rect x="0" y="489.5" width="1464" height="24.65"/>
            </clipPath>
<clipPath id="terminal-1633617781-line-21">
    <rect x="0" y="513.9" width="1464" height="24.65"/>
            </clipPath>
<clipPath id="terminal-1633617781-line-22">
    <rect x="0" y="538.3" width="1464" height="24.65"/>
            </clipPath>
<clipPath id="terminal-1633617781-line-23">
    <rect x="0" y="562.7" width="1464" height="24.65"/>
            </clipPath>
<clipPath id="terminal-1633617781-line-24">
    <rect x="0" y="587.1" width="1464" height="24.65"/>
            </clipPath>
<clipPath id="terminal-1633617781-line-25">
    <rect x="0" y="611.5" width="1464" height="24.65"/>
            </clipPath>
<clipPath id="terminal-1633617781-line-26">
    <rect x="0" y="635.9" width="1464" height="24.65"/>
            </clipPath>
<clipPath id="terminal-1633617781-line-27">
    <rect x="0" y="660.3" width="1464" height="24.65"/>
            </clipPath>
<clipPath id="terminal-1633617781-line-28">
    <rect x="0" y="684.7" width="1464" height="24.65"/>
            </clipPath>
<clipPath id="terminal-1633617781-line-29">
    <rect x="0" y="709.1" width="1464" height="24.65"/>
            </clipPath>
<clipPath id="terminal-1633617781-line-30">
    <rect x="0" y="733.5" width="1464" height="24.65"/>
            </clipPath>
<clipPath id="terminal-1633617781-line-31">
    <rect x="0" y="757.9" width="1464" height="24.65"/>
            </clipPath>
<clipPath id="terminal-1633617781-line-32">
    <rect x="0" y="782.3" width="1464" height="24.65"/>
            </clipPath>
<clipPath id="terminal-1633617781-line-33">
    <rect x="0" y="806.7" width="1464" height="24.65"/>
            </clipPath>
<clipPath id="terminal-1633617781-line-34">
    <rect x="0" y="831.1" width="1464" height="24.65"/>
            </clipPath>
<clipPath id="terminal-1633617781-line-35">
    <rect x="0" y="855.5" width="1464" height="24.65"/>
            </clipPath>
<clipPath id="terminal-1633617781-line-36">
    <rect x="0" y="879.9" width="1464" height="24.65"/>
            </clipPath>
<clipPath id="terminal-1633617781-line-37">
    <rect x="0" y="904.3" width="1464" height="24.65"/>
            </clipPath>
<clipPath id="terminal-1633617781-line-38">
    <rect x="0" y="928.7" width="1464" height="24.65"/>
            </clipPath>
    </defs>

    <rect fill="#292929" stroke="rgba(255,255,255,0.35)" stroke-width="1" x="1" y="1" width="1480" height="1024" rx="8"/><text class="terminal-1633617781-title" fill="#c5c8c6" text-anchor="middle" x="740" y="27">Neuro&#160;Code&#160;visual&#160;baseline</text>
            <g transform="translate(26,22)">
            <circle cx="0" cy="0" r="7" fill="#ff5f57"/>
            <circle cx="22" cy="0" r="7" fill="#febc2e"/>
            <circle cx="44" cy="0" r="7" fill="#28c840"/>
            </g>

    <g transform="translate(9, 41)" clip-path="url(#terminal-1633617781-clip-terminal)">
    <rect fill="#f5f5f5" x="0" y="1.5" width="36.6" height="24.65" shape-rendering="crispEdges"/><rect fill="#f5f5f5" x="36.6" y="1.5" width="61" height="24.65" shape-rendering="crispEdges"/><rect fill="#f5f5f5" x="97.6" y="1.5" width="85.4" height="24.65" shape-rendering="crispEdges"/><rect fill="#f5f5f5" x="183" y="1.5" width="0" height="24.65" shape-rendering="crispEdges"/><rect fill="#f5f5f5" x="183" y="1.5" width="1183.4" height="24.65" shape-rendering="crispEdges"/><rect fill="#f5f5f5" x="1366.4" y="1.5" width="61" height="24.65" shape-rendering="crispEdges"/><rect fill="#f5f5f5" x="1427.4" y="1.5" width="36.6" height="24.65" shape-rendering="crispEdges"/><rect fill="#f5f5f5" x="0" y="25.9" width="1464" height="24.65" shape-rendering="crispEdges"/><rect fill="#f5f5f5" x="0" y="50.3" width="36.6" height="24.65" shape-rendering="crispEdges"/><rect fill="#efefef" x="36.6" y="50.3" width="12.2" height="24.65" shape-rendering="crispEdges"/><rect fill="#efefef" x="48.8" y="50.3" width="1378.6" height="24.65" shape-rendering="crispEdges"/><rect fill="#f5f5f5" x="1427.4" y="50.3" width="36.6" height="24.65" shape-rendering="crispEdges"/><rect fill="#f5f5f5" x="0" y="74.7" width="36.6" height="24.65" shape-rendering="crispEdges"/><rect fill="#efefef" x="36.6" y="74.7" width="12.2" height="24.65" shape-rendering="crispEdges"/><rect fill="#efefef" x="48.8" y="74.7" width="12.2" height="24.65" shape-rendering="crispEdges"/><rect fill="#efefef" x="61" y="74.7" width="390.4" height="24.65" shape-rendering="crispEdges"/><rect fill="#efefef" x="451.4" y="74.7" width="976" height="24.65" shape-rendering="crispEdges"/><rect fill="#f5f5f5" x="1427.4" y="74.7" width="36.6" height="24.65" shape-rendering="crispEdges"/><rect fill="#f5f5f5" x="0" y="99.1" width="36.6" height="24.65" shape-rendering="crispEdges"/><rect fill="#efefef" x="36.6" y="99.1" width="12.2" height="24.65" shape-rendering="crispEdges"/><rect fill="#efefef" x="48.8" y="99.1" width="1378.6" height="24.65" shape-rendering="crispEdges"/><rect fill="#f5f5f5" x="1427.4" y="99.1" width="36.6" height="24.65" shape-rendering="crispEdges"/><rect fill="#f5f5f5" x="0" y="123.5" width="36.6" height="24.65" shape-rendering="crispEdges"/><rect fill="#f5f5f5" x="36.6" y="123.5" width="1390.8" height="24.65" shape-rendering="crispEdges"/><rect fill="#f5f5f5" x="1427.4" y="123.5" width="36.6" height="24.65" shape-rendering="crispEdges"/><rect fill="#f5f5f5" x="0" y="147.9" width="36.6" height="24.65" shape-rendering="crispEdges"/><rect fill="#f5f5f5" x="36.6" y="147.9" width="1390.8" height="24.65" shape-rendering="crispEdges"/><rect fill="#f5f5f5" x="1427.4" y="147.9" width="36.6" height="24.65" shape-rendering="crispEdges"/><rect fill="#f5f5f5" x="0" y="172.3" width="48.8" height="24.65" shape-rendering="crispEdges"/><rect fill="#f5f5f5" x="48.8" y="172.3" width="146.4" height="24.65" shape-rendering="crispEdges"/><rect fill="#f5f5f5" x="195.2" y="172.3" width="1220" height="24.65" shape-rendering="crispEdges"/><rect fill="#f5f5f5" x="1415.2" y="172.3" width="48.8" height="24.65" shape-rendering="crispEdges"/><rect fill="#f5f5f5" x="0" y="196.7" width="1464" height="24.65" shape-rendering="crispEdges"/><rect fill="#f5f5f5" x="0" y="221.1" width="48.8" height="24.65" shape-rendering="crispEdges"/><rect fill="#f5f5f5" x="48.8" y="221.1" width="134.2" height="24.65" shape-rendering="crispEdges"/><rect fill="#f5f5f5" x="183" y="221.1" width="463.6" height="24.65" shape-rendering="crispEdges"/><rect fill="#f5f5f5" x="646.6" y="221.1" width="48.8" height="24.65" shape-rendering="crispEdges"/><rect fill="#f5f5f5" x="695.4" y="221.1" width="305" height="24.65" shape-rendering="crispEdges"/><rect fill="#f5f5f5" x="1000.4" y="221.1" width="414.8" height="24.65" shape-rendering="crispEdges"/><rect fill="#f5f5f5" x="1415.2" y="221.1" width="48.8" height="24.65" shape-rendering="crispEdges"/><rect fill="#f5f5f5" x="0" y="245.5" width="48.8" height="24.65" shape-rendering="crispEdges"/><rect fill="#f5f5f5" x="48.8" y="245.5" width="48.8" height="24.65" shape-rendering="crispEdges"/><rect fill="#f5f5f5" x="97.6" y="245.5" width="97.6" height="24.65" shape-rendering="crispEdges"/><rect fill="#f5f5f5" x="195.2" y="245.5" width="1220" height="24.65" shape-rendering="crispEdges"/><rect fill="#f5f5f5" x="1415.2" y="245.5" width="48.8" height="24.65" shape-rendering="crispEdges"/><rect fill="#f5f5f5" x="0" y="269.9" width="48.8" height="24.65" shape-rendering="crispEdges"/><rect fill="#f5f5f5" x="48.8" y="269.9" width="1366.4" height="24.65" shape-rendering="crispEdges"/><rect fill="#f5f5f5" x="1415.2" y="269.9" width="48.8" height="24.65" shape-rendering="crispEdges"/><rect fill="#f5f5f5" x="0" y="294.3" width="1464" height="24.65" shape-rendering="crispEdges"/><rect fill="#f5f5f5" x="0" y="318.7" width="48.8" height="24.65" shape-rendering="crispEdges"/><rect fill="#f5f5f5" x="48.8" y="318.7" width="122" height="24.65" shape-rendering="crispEdges"/><rect fill="#f5f5f5" x="170.8" y="318.7" width="1244.4" height="24.65" shape-rendering="crispEdges"/><rect fill="#f5f5f5" x="1415.2" y="318.7" width="48.8" height="24.65" shape-rendering="crispEdges"/><rect fill="#f5f5f5" x="0" y="343.1" width="1464" height="24.65" shape-rendering="crispEdges"/><rect fill="#f5f5f5" x="0" y="367.5" width="48.8" height="24.65" shape-rendering="crispEdges"/><rect fill="#f5f5f5" x="48.8" y="367.5" width="36.6" height="24.65" shape-rendering="crispEdges"/><rect fill="#f5f5f5" x="85.4" y="367.5" width="97.6" height="24.65" shape-rendering="crispEdges"/><rect fill="#f5f5f5" x="183" y="367.5" width="183" height="24.65" shape-rendering="crispEdges"/><rect fill="#f5f5f5" x="366" y="367.5" width="622.2" height="24.65" shape-rendering="crispEdges"/><rect fill="#f5f5f5" x="988.2" y="367.5" width="427" height="24.65" shape-rendering="crispEdges"/><rect fill="#f5f5f5" x="1415.2" y="367.5" width="48.8" height="24.65" shape-rendering="crispEdges"/><rect fill="#f5f5f5" x="0" y="391.9" width="48.8" height="24.65" shape-rendering="crispEdges"/><rect fill="#f5f5f5" x="48.8" y="391.9" width="36.6" height="24.65" shape-rendering="crispEdges"/><rect fill="#f5f5f5" x="85.4" y="391.9" width="1329.8" height="24.65" shape-rendering="crispEdges"/><rect fill="#f5f5f5" x="1415.2" y="391.9" width="48.8" height="24.65" shape-rendering="crispEdges"/><rect fill="#f5f5f5" x="0" y="416.3" width="48.8" height="24.65" shape-rendering="crispEdges"/><rect fill="#f5f5f5" x="48.8" y="416.3" width="36.6" height="24.65" shape-rendering="crispEdges"/><rect fill="#f5f5f5" x="85.4" y="416.3" width="158.6" height="24.65" shape-rendering="crispEdges"/><rect fill="#f5f5f5" x="244" y="416.3" width="109.8" height="24.65" shape-rendering="crispEdges"/><rect fill="#f5f5f5" x="353.8" y="416.3" width="85.4" height="24.65" shape-rendering="crispEdges"/><rect fill="#f5f5f5" x="439.2" y="416.3" width="61" height="24.65" shape-rendering="crispEdges"/><rect fill="#f5f5f5" x="500.2" y="416.3" width="915" height="24.65" shape-rendering="crispEdges"/><rect fill="#f5f5f5" x="1415.2" y="416.3" width="48.8" height="24.65" shape-rendering="crispEdges"/><rect fill="#f5f5f5" x="0" y="440.7" width="1464" height="24.65" shape-rendering="crispEdges"/><rect fill="#f5f5f5" x="0" y="465.1" width="48.8" height="24.65" shape-rendering="crispEdges"/><rect fill="#f5f5f5" x="48.8" y="465.1" width="24.4" height="24.65" shape-rendering="crispEdges"/><rect fill="#f5f5f5" x="73.2" y="465.1" width="1000.4" height="24.65" shape-rendering="crispEdges"/><rect fill="#f5f5f5" x="1073.6" y="465.1" width="317.2" height="24.65" shape-rendering="crispEdges"/><rect fill="#f5f5f5" x="1390.8" y="465.1" width="73.2" height="24.65" shape-rendering="crispEdges"/><rect fill="#f5f5f5" x="0" y="489.5" width="48.8" height="24.65" shape-rendering="crispEdges"/><rect fill="#f5f5f5" x="48.8" y="489.5" width="24.4" height="24.65" shape-rendering="crispEdges"/><rect fill="#f5f5f5" x="73.2" y="489.5" width="512.4" height="24.65" shape-rendering="crispEdges"/><rect fill="#f5f5f5" x="585.6" y="489.5" width="805.2" height="24.65" shape-rendering="crispEdges"/><rect fill="#f5f5f5" x="1390.8" y="489.5" width="73.2" height="24.65" shape-rendering="crispEdges"/><rect fill="#f5f5f5" x="0" y="513.9" width="1464" height="24.65" shape-rendering="crispEdges"/><rect fill="#f5f5f5" x="0" y="538.3" width="48.8" height="24.65" shape-rendering="crispEdges"/><rect fill="#f5f5f5" x="48.8" y="538.3" width="73.2" height="24.65" shape-rendering="crispEdges"/><rect fill="#f5f5f5" x="122" y="538.3" width="1293.2" height="24.65" shape-rendering="crispEdges"/><rect fill="#f5f5f5" x="1415.2" y="538.3" width="48.8" height="24.65" shape-rendering="crispEdges"/><rect fill="#f5f5f5" x="0" y="562.7" width="1464" height="24.65" shape-rendering="crispEdges"/><rect fill="#f5f5f5" x="0" y="587.1" width="48.8" height="24.65" shape-rendering="crispEdges"/><rect fill="#f5f5f5" x="48.8" y="587.1" width="256.2" height="24.65" shape-rendering="crispEdges"/><rect fill="#f5f5f5" x="305" y="587.1" width="109.8" height="24.65" shape-rendering="crispEdges"/><rect fill="#f5f5f5" x="414.8" y="587.1" width="1000.4" height="24.65" shape-rendering="crispEdges"/><rect fill="#f5f5f5" x="1415.2" y="587.1" width="48.8" height="24.65" shape-rendering="crispEdges"/><rect fill="#f5f5f5" x="0" y="611.5" width="1464" height="24.65" shape-rendering="crispEdges"/><rect fill="#f5f5f5" x="0" y="635.9" width="48.8" height="24.65" shape-rendering="crispEdges"/><rect fill="#f5f5f5" x="48.8" y="635.9" width="1366.4" height="24.65" shape-rendering="crispEdges"/><rect fill="#f5f5f5" x="1415.2" y="635.9" width="48.8" height="24.65" shape-rendering="crispEdges"/><rect fill="#f5f5f5" x="0" y="660.3" width="48.8" height="24.65" shape-rendering="crispEdges"/><rect fill="#f5f5f5" x="48.8" y="660.3" width="1366.4" height="24.65" shape-rendering="crispEdges"/><rect fill="#f5f5f5" x="1415.2" y="660.3" width="48.8" height="24.65" shape-rendering="crispEdges"/><rect fill="#f5f5f5" x="0" y="684.7" width="36.6" height="24.65" shape-rendering="crispEdges"/><rect fill="#f5f5f5" x="36.6" y="684.7" width="1390.8" height="24.65" shape-rendering="crispEdges"/><rect fill="#f5f5f5" x="1427.4" y="684.7" width="36.6" height="24.65" shape-rendering="crispEdges"/><rect fill="#f5f5f5" x="0" y="709.1" width="36.6" height="24.65" shape-rendering="crispEdges"/><rect fill="#f5f5f5" x="36.6" y="709.1" width="1390.8" height="24.65" shape-rendering="crispEdges"/><rect fill="#f5f5f5" x="1427.4" y="709.1" width="36.6" height="24.65" shape-rendering="crispEdges"/><rect fill="#f5f5f5" x="0" y="733.5" width="36.6" height="24.65" shape-rendering="crispEdges"/><rect fill="#f5f5f5" x="36.6" y="733.5" width="1390.8" height="24.65" shape-rendering="crispEdges"/><rect fill="#f5f5f5" x="1427.4" y="733.5" width="36.6" height="24.65" shape-rendering="crispEdges"/><rect fill="#f5f5f5" x="0" y="757.9" width="36.6" height="24.65" shape-rendering="crispEdges"/><rect fill="#f5f5f5" x="36.6" y="757.9" width="1390.8" height="24.65" shape-rendering="crispEdges"/><rect fill="#f5f5f5" x="1427.4" y="757.9" width="36.6" height="24.65" shape-rendering="crispEdges"/><rect fill="#f5f5f5" x="0" y="782.3" width="36.6" height="24.65" shape-rendering="crispEdges"/><rect fill="#f5f5f5" x="36.6" y="782.3" width="1390.8" height="24.65" shape-rendering="crispEdges"/><rect fill="#f5f5f5" x="1427.4" y="782.3" width="36.6" height="24.65" shape-rendering="crispEdges"/><rect fill="#f5f5f5" x="0" y="806.7" width="36.6" height="24.65" shape-rendering="crispEdges"/><rect fill="#f5f5f5" x="36.6" y="806.7" width="1390.8" height="24.65" shape-rendering="crispEdges"/><rect fill="#f5f5f5" x="1427.4" y="806.7" width="36.6" height="24.65" shape-rendering="crispEdges"/><rect fill="#f5f5f5" x="0" y="831.1" width="36.6" height="24.65" shape-rendering="crispEdges"/><rect fill="#f5f5f5" x="36.6" y="831.1" width="1390.8" height="24.65" shape-rendering="crispEdges"/><rect fill="#f5f5f5" x="1427.4" y="831.1" width="36.6" height="24.65" shape-rendering="crispEdges"/><rect fill="#f5f5f5" x="0" y="855.5" width="1464" height="24.65" shape-rendering="crispEdges"/><rect fill="#f5f5f5" x="0" y="879.9" width="36.6" height="24.65" shape-rendering="crispEdges"/><rect fill="#ffffff" x="36.6" y="879.9" width="1390.8" height="24.65" shape-rendering="crispEdges"/><rect fill="#f5f5f5" x="1427.4" y="879.9" width="36.6" height="24.65" shape-rendering="crispEdges"/><rect fill="#f5f5f5" x="0" y="904.3" width="36.6" height="24.65" shape-rendering="crispEdges"/><rect fill="#ffffff" x="36.6" y="904.3" width="24.4" height="24.65" shape-rendering="crispEdges"/><rect fill="#ffffff" x="61" y="904.3" width="0" height="24.65" shape-rendering="crispEdges"/><rect fill="#232323" x="61" y="904.3" width="12.2" height="24.65" shape-rendering="crispEdges"/><rect fill="#ffffff" x="73.2" y="904.3" width="1220" height="24.65" shape-rendering="crispEdges"/><rect fill="#ffffff" x="1293.2" y="904.3" width="12.2" height="24.65" shape-rendering="crispEdges"/><rect fill="#ffffff" x="1305.4" y="904.3" width="97.6" height="24.65" shape-rendering="crispEdges"/><rect fill="#ffffff" x="1403" y="904.3" width="24.4" height="24.65" shape-rendering="crispEdges"/><rect fill="#f5f5f5" x="1427.4" y="904.3" width="36.6" height="24.65" shape-rendering="crispEdges"/><rect fill="#f5f5f5" x="0" y="928.7" width="36.6" height="24.65" shape-rendering="crispEdges"/><rect fill="#ffffff" x="36.6" y="928.7" width="1390.8" height="24.65" shape-rendering="crispEdges"/><rect fill="#f5f5f5" x="1427.4" y="928.7" width="36.6" height="24.65" shape-rendering="crispEdges"/><rect fill="#f5f5f5" x="0" y="953.1" width="48.8" height="24.65" shape-rendering="crispEdges"/><rect fill="#f5f5f5" x="48.8" y="953.1" width="695.4" height="24.65" shape-rendering="crispEdges"/><rect fill="#f5f5f5" x="744.2" y="953.1" width="36.6" height="24.65" shape-rendering="crispEdges"/><rect fill="#f5f5f5" x="780.8" y="953.1" width="48.8" height="24.65" shape-rendering="crispEdges"/><rect fill="#f5f5f5" x="829.6" y="953.1" width="36.6" height="24.65" shape-rendering="crispEdges"/><rect fill="#f5f5f5" x="866.2" y="953.1" width="97.6" height="24.65" shape-rendering="crispEdges"/><rect fill="#f5f5f5" x="963.8" y="953.1" width="48.8" height="24.65" shape-rendering="crispEdges"/><rect fill="#f5f5f5" x="1012.6" y="953.1" width="85.4" height="24.65" shape-rendering="crispEdges"/><rect fill="#f5f5f5" x="1098" y="953.1" width="317.2" height="24.65" shape-rendering="crispEdges"/><rect fill="#f5f5f5" x="1415.2" y="953.1" width="48.8" height="24.65" shape-rendering="crispEdges"/>
    <g class="terminal-1633617781-matrix">
    <text class="terminal-1633617781-r2" x="36.6" y="20" textLength="61" clip-path="url(#terminal-1633617781-line-0)">NEURO</text><text class="terminal-1633617781-r3" x="97.6" y="20" textLength="85.4" clip-path="url(#terminal-1633617781-line-0)">&#160;/&#160;CODE</text><text class="terminal-1633617781-r3" x="1366.4" y="20" textLength="61" clip-path="url(#terminal-1633617781-line-0)">13:37</text><text class="terminal-1633617781-r1" x="1464" y="20" textLength="12.2" clip-path="url(#terminal-1633617781-line-0)">
</text><text class="terminal-1633617781-r1" x="1464" y="44.4" textLength="12.2" clip-path="url(#terminal-1633617781-line-1)">
</text><text class="terminal-1633617781-r4" x="36.6" y="68.8" textLength="12.2" clip-path="url(#terminal-1633617781-line-2)">│</text><text class="terminal-1633617781-r1" x="1464" y="68.8" textLength="12.2" clip-path="url(#terminal-1633617781-line-2)">
</text><text class="terminal-1633617781-r4" x="36.6" y="93.2" textLength="12.2" clip-path="url(#terminal-1633617781-line-3)">│</text><text class="terminal-1633617781-r2" x="61" y="93.2" textLength="195.2" clip-path="url(#terminal-1633617781-line-3)">请总结审查证据，并说明如何验证。</text><text class="terminal-1633617781-r1" x="1464" y="93.2" textLength="12.2" clip-path="url(#terminal-1633617781-line-3)">
</text><text class="terminal-1633617781-r4" x="36.6" y="117.6" textLength="12.2" clip-path="url(#terminal-1633617781-line-4)">│</text><text class="terminal-1633617781-r1" x="1464" y="117.6" textLength="12.2" clip-path="url(#terminal-1633617781-line-4)">
</text><text class="terminal-1633617781-r1" x="1464" y="142" textLength="12.2" clip-path="url(#terminal-1633617781-line-5)">
</text><text class="terminal-1633617781-r1" x="1464" y="166.4" textLength="12.2" clip-path="url(#terminal-1633617781-line-6)">
</text><text class="terminal-1633617781-r6" x="48.8" y="190.8" textLength="73.2" clip-path="url(#terminal-1633617781-line-7)">仓库审查结论</text><text class="terminal-1633617781-r1" x="1464" y="190.8" textLength="12.2" clip-path="url(#terminal-1633617781-line-7)">
</text><text class="terminal-1633617781-r1" x="1464" y="215.2" textLength="12.2" clip-path="url(#terminal-1633617781-line-8)">
</text><text class="terminal-1633617781-r5" x="48.8" y="239.6" textLength="73.2" clip-path="url(#terminal-1633617781-line-9)">本轮检查了&#160;</text><text class="terminal-1633617781-r7" x="183" y="239.6" textLength="463.6" clip-path="url(#terminal-1633617781-line-9)">src/neuro_code/interfaces/tui/theme.py</text><text class="terminal-1633617781-r5" x="646.6" y="239.6" textLength="36.6" clip-path="url(#terminal-1633617781-line-9)">&#160;与&#160;</text><text class="terminal-1633617781-r7" x="695.4" y="239.6" textLength="305" clip-path="url(#terminal-1633617781-line-9)">tests/visual/showcases.py</text><text class="terminal-1633617781-r5" x="1000.4" y="239.6" textLength="402.6" clip-path="url(#terminal-1633617781-line-9)">。&#160;&#160;&#160;&#160;&#160;&#160;&#160;&#160;&#160;&#160;&#160;&#160;&#160;&#160;&#160;&#160;&#160;&#160;&#160;&#160;&#160;&#160;&#160;&#160;&#160;&#160;&#160;&#160;&#160;&#160;&#160;&#160;</text><text class="terminal-1633617781-r1" x="1464" y="239.6" textLength="12.2" clip-path="url(#terminal-1633617781-line-9)">
</text><text class="terminal-1633617781-r5" x="48.8" y="264" textLength="24.4" clip-path="url(#terminal-1633617781-line-10)">当前</text><text class="terminal-1633617781-r6" x="97.6" y="264" textLength="48.8" clip-path="url(#terminal-1633617781-line-10)">主要结论</text><text class="terminal-1633617781-r5" x="195.2" y="264" textLength="915" clip-path="url(#terminal-1633617781-line-10)">是：正文应保持连续可读，路径和命令只作为定位证据。&#160;This&#160;paragraph&#160;mixes&#160;English&#160;terms&#160;with&#160;&#160;&#160;&#160;&#160;&#160;&#160;&#160;&#160;&#160;</text><text class="terminal-1633617781-r1" x="1464" y="264" textLength="12.2" clip-path="url(#terminal-1633617781-line-10)">
</text><text class="terminal-1633617781-r5" x="48.8" y="288.4" textLength="1183.4" clip-path="url(#terminal-1633617781-line-11)">中文说明，用于观察换行与&#160;regular&#160;字重。&#160;&#160;&#160;&#160;&#160;&#160;&#160;&#160;&#160;&#160;&#160;&#160;&#160;&#160;&#160;&#160;&#160;&#160;&#160;&#160;&#160;&#160;&#160;&#160;&#160;&#160;&#160;&#160;&#160;&#160;&#160;&#160;&#160;&#160;&#160;&#160;&#160;&#160;&#160;&#160;&#160;&#160;&#160;&#160;&#160;&#160;&#160;&#160;&#160;&#160;&#160;&#160;&#160;&#160;&#160;&#160;&#160;&#160;&#160;&#160;&#160;&#160;&#160;&#160;&#160;&#160;&#160;&#160;&#160;&#160;&#160;&#160;&#160;</text><text class="terminal-1633617781-r1" x="1464" y="288.4" textLength="12.2" clip-path="url(#terminal-1633617781-line-11)">
</text><text class="terminal-1633617781-r1" x="1464" y="312.8" textLength="12.2" clip-path="url(#terminal-1633617781-line-12)">
</text><text class="terminal-1633617781-r2" x="48.8" y="337.2" textLength="61" clip-path="url(#terminal-1633617781-line-13)">证据与判断</text><text class="terminal-1633617781-r1" x="1464" y="337.2" textLength="12.2" clip-path="url(#terminal-1633617781-line-13)">
</text><text class="terminal-1633617781-r1" x="1464" y="361.6" textLength="12.2" clip-path="url(#terminal-1633617781-line-14)">
</text><text class="terminal-1633617781-r3" x="48.8" y="386" textLength="36.6" clip-path="url(#terminal-1633617781-line-15)">&#160;•&#160;</text><text class="terminal-1633617781-r7" x="85.4" y="386" textLength="97.6" clip-path="url(#terminal-1633617781-line-15)">theme.py</text><text class="terminal-1633617781-r5" x="183" y="386" textLength="97.6" clip-path="url(#terminal-1633617781-line-15)">&#160;定义语义样式，</text><text class="terminal-1633617781-r7" x="366" y="386" textLength="622.2" clip-path="url(#terminal-1633617781-line-15)">uv&#160;run&#160;pytest&#160;tests/test_tui_visual_snapshots.py&#160;-q</text><text class="terminal-1633617781-r1" x="1464" y="386" textLength="12.2" clip-path="url(#terminal-1633617781-line-15)">
</text><text class="terminal-1633617781-r5" x="85.4" y="410.4" textLength="1061.4" clip-path="url(#terminal-1633617781-line-16)">负责检查渲染结果；命令本身不是高优先级状态。&#160;&#160;&#160;&#160;&#160;&#160;&#160;&#160;&#160;&#160;&#160;&#160;&#160;&#160;&#160;&#160;&#160;&#160;&#160;&#160;&#160;&#160;&#160;&#160;&#160;&#160;&#160;&#160;&#160;&#160;&#160;&#160;&#160;&#160;&#160;&#160;&#160;&#160;&#160;&#160;&#160;&#160;&#160;&#160;&#160;&#160;&#160;&#160;&#160;&#160;&#160;&#160;&#160;&#160;&#160;&#160;&#160;&#160;&#160;&#160;&#160;&#160;&#160;&#160;&#160;</text><text class="terminal-1633617781-r1" x="1464" y="410.4" textLength="12.2" clip-path="url(#terminal-1633617781-line-16)">
</text><text class="terminal-1633617781-r3" x="48.8" y="434.8" textLength="36.6" clip-path="url(#terminal-1633617781-line-17)">&#160;•&#160;</text><text class="terminal-1633617781-r5" x="85.4" y="434.8" textLength="85.4" clip-path="url(#terminal-1633617781-line-17)">工具摘要应让&#160;</text><text class="terminal-1633617781-r7" x="244" y="434.8" textLength="109.8" clip-path="url(#terminal-1633617781-line-17)">read_file</text><text class="terminal-1633617781-r5" x="353.8" y="434.8" textLength="48.8" clip-path="url(#terminal-1633617781-line-17)">、耗时&#160;</text><text class="terminal-1633617781-r7" x="439.2" y="434.8" textLength="61" clip-path="url(#terminal-1633617781-line-17)">120ms</text><text class="terminal-1633617781-r5" x="500.2" y="434.8" textLength="780.8" clip-path="url(#terminal-1633617781-line-17)">&#160;和路径退到次要阅读层。&#160;&#160;&#160;&#160;&#160;&#160;&#160;&#160;&#160;&#160;&#160;&#160;&#160;&#160;&#160;&#160;&#160;&#160;&#160;&#160;&#160;&#160;&#160;&#160;&#160;&#160;&#160;&#160;&#160;&#160;&#160;&#160;&#160;&#160;&#160;&#160;&#160;&#160;&#160;&#160;&#160;&#160;&#160;&#160;&#160;&#160;&#160;&#160;&#160;&#160;&#160;&#160;</text><text class="terminal-1633617781-r1" x="1464" y="434.8" textLength="12.2" clip-path="url(#terminal-1633617781-line-17)">
</text><text class="terminal-1633617781-r1" x="1464" y="459.2" textLength="12.2" clip-path="url(#terminal-1633617781-line-18)">
</text><text class="terminal-1633617781-r8" x="48.8" y="483.6" textLength="24.4" clip-path="url(#terminal-1633617781-line-19)">▌&#160;</text><text class="terminal-1633617781-r5" x="73.2" y="483.6" textLength="780.8" clip-path="url(#terminal-1633617781-line-19)">提醒：Snapshot&#160;固定了&#160;Textual&#160;的输出，但&#160;System&#160;Theme&#160;在真实终端上的&#160;ANSI&#160;palette&#160;</text><text class="terminal-1633617781-r1" x="1464" y="483.6" textLength="12.2" clip-path="url(#terminal-1633617781-line-19)">
</text><text class="terminal-1633617781-r8" x="48.8" y="508" textLength="24.4" clip-path="url(#terminal-1633617781-line-20)">▌&#160;</text><text class="terminal-1633617781-r5" x="73.2" y="508" textLength="256.2" clip-path="url(#terminal-1633617781-line-20)">仍需要人工检查。这里的引文只作为辅助说明。</text><text class="terminal-1633617781-r1" x="1464" y="508" textLength="12.2" clip-path="url(#terminal-1633617781-line-20)">
</text><text class="terminal-1633617781-r1" x="1464" y="532.4" textLength="12.2" clip-path="url(#terminal-1633617781-line-21)">
</text><text class="terminal-1633617781-r7" x="48.8" y="556.8" textLength="36.6" clip-path="url(#terminal-1633617781-line-22)">下一步</text><text class="terminal-1633617781-r1" x="1464" y="556.8" textLength="12.2" clip-path="url(#terminal-1633617781-line-22)">
</text><text class="terminal-1633617781-r1" x="1464" y="581.2" textLength="12.2" clip-path="url(#terminal-1633617781-line-23)">
</text><text class="terminal-1633617781-r5" x="48.8" y="605.6" textLength="134.2" clip-path="url(#terminal-1633617781-line-24)">确认列表、引用和行内&#160;</text><text class="terminal-1633617781-r7" x="305" y="605.6" textLength="109.8" clip-path="url(#terminal-1633617781-line-24)">AGENTS.md</text><text class="terminal-1633617781-r5" x="414.8" y="605.6" textLength="744.2" clip-path="url(#terminal-1633617781-line-24)">&#160;不形成视觉标签。围栏代码仍可保留独立背景。&#160;&#160;&#160;&#160;&#160;&#160;&#160;&#160;&#160;&#160;&#160;&#160;&#160;&#160;&#160;&#160;&#160;&#160;&#160;&#160;&#160;&#160;&#160;&#160;&#160;&#160;&#160;&#160;&#160;&#160;&#160;&#160;&#160;&#160;&#160;&#160;&#160;&#160;&#160;</text><text class="terminal-1633617781-r1" x="1464" y="605.6" textLength="12.2" clip-path="url(#terminal-1633617781-line-24)">
</text><text class="terminal-1633617781-r1" x="1464" y="630" textLength="12.2" clip-path="url(#terminal-1633617781-line-25)">
</text><text class="terminal-1633617781-r5" x="48.8" y="654.4" textLength="1024.8" clip-path="url(#terminal-1633617781-line-26)">最后继续阅读这一段较长的中文说明，以确认在&#160;80&#160;列和&#160;120&#160;列终端中，&#160;&#160;&#160;&#160;&#160;&#160;&#160;&#160;&#160;&#160;&#160;&#160;&#160;&#160;&#160;&#160;&#160;&#160;&#160;&#160;&#160;&#160;&#160;&#160;&#160;&#160;&#160;&#160;&#160;&#160;&#160;&#160;&#160;&#160;&#160;&#160;&#160;&#160;&#160;&#160;&#160;&#160;&#160;&#160;&#160;&#160;&#160;</text><text class="terminal-1633617781-r1" x="1464" y="654.4" textLength="12.2" clip-path="url(#terminal-1633617781-line-26)">
</text><text class="terminal-1633617781-r5" x="48.8" y="678.8" textLength="951.6" clip-path="url(#terminal-1633617781-line-27)">段落之间的层级稳定，普通句子不会被标题、状态色或耗时数字抢走注意力。&#160;&#160;&#160;&#160;&#160;&#160;&#160;&#160;&#160;&#160;&#160;&#160;&#160;&#160;&#160;&#160;&#160;&#160;&#160;&#160;&#160;&#160;&#160;&#160;&#160;&#160;&#160;&#160;&#160;&#160;&#160;&#160;&#160;&#160;&#160;&#160;&#160;&#160;&#160;&#160;&#160;&#160;&#160;&#160;</text><text class="terminal-1633617781-r1" x="1464" y="678.8" textLength="12.2" clip-path="url(#terminal-1633617781-line-27)">
</text><text class="terminal-1633617781-r1" x="1464" y="703.2" textLength="12.2" clip-path="url(#terminal-1633617781-line-28)">
</text><text class="terminal-1633617781-r1" x="1464" y="727.6" textLength="12.2" clip-path="url(#terminal-1633617781-line-29)">
</text><text class="terminal-1633617781-r1" x="1464" y="752" textLength="12.2" clip-path="url(#terminal-1633617781-line-30)">
</text><text class="terminal-1633617781-r1" x="1464" y="776.4" textLength="12.2" clip-path="url(#terminal-1633617781-line-31)">
</text><text class="terminal-1633617781-r1" x="1464" y="800.8" textLength="12.2" clip-path="url(#terminal-1633617781-line-32)">
</text><text class="terminal-1633617781-r1" x="1464" y="825.2" textLength="12.2" clip-path="url(#terminal-1633617781-line-33)">
</text><text class="terminal-1633617781-r1" x="1464" y="849.6" textLength="12.2" clip-path="url(#terminal-1633617781-line-34)">
</text><text class="terminal-1633617781-r1" x="1464" y="874" textLength="12.2" clip-path="url(#terminal-1633617781-line-35)">
</text><text class="terminal-1633617781-r1" x="1464" y="898.4" textLength="12.2" clip-path="url(#terminal-1633617781-line-36)">
</text><text class="terminal-1633617781-r9" x="61" y="922.8" textLength="12.2" clip-path="url(#terminal-1633617781-line-37)">W</text><text class="terminal-1633617781-r2" x="73.2" y="922.8" textLength="1220" clip-path="url(#terminal-1633617781-line-37)">hat&#160;shall&#160;we&#160;work&#160;on&#160;next?&#160;&#160;&#160;&#160;&#160;&#160;&#160;&#160;&#160;&#160;&#160;&#160;&#160;&#160;&#160;&#160;&#160;&#160;&#160;&#160;&#160;&#160;&#160;&#160;&#160;&#160;&#160;&#160;&#160;&#160;&#160;&#160;&#160;&#160;&#160;&#160;&#160;&#160;&#160;&#160;&#160;&#160;&#160;&#160;&#160;&#160;&#160;&#160;&#160;&#160;&#160;&#160;&#160;&#160;&#160;&#160;&#160;&#160;&#160;&#160;&#160;&#160;&#160;&#160;&#160;&#160;&#160;&#160;&#160;&#160;&#160;&#160;&#160;&#160;</text><text class="terminal-1633617781-r10" x="1305.4" y="922.8" textLength="97.6" clip-path="url(#terminal-1633617781-line-37)">&#160;Send&#160;↑&#160;</text><text class="terminal-1633617781-r1" x="1464" y="922.8" textLength="12.2" clip-path="url(#terminal-1633617781-line-37)">
</text><text class="terminal-1633617781-r1" x="1464" y="947.2" textLength="12.2" clip-path="url(#terminal-1633617781-line-38)">
</text><text class="terminal-1633617781-r7" x="48.8" y="971.6" textLength="695.4" clip-path="url(#terminal-1633617781-line-39)">fixture-model&#160;&#160;&#160;&#160;&#160;&#160;&#160;&#160;&#160;&#160;&#160;&#160;&#160;&#160;&#160;&#160;&#160;&#160;&#160;&#160;&#160;&#160;&#160;&#160;&#160;&#160;&#160;&#160;&#160;&#160;&#160;&#160;&#160;&#160;&#160;&#160;&#160;&#160;&#160;&#160;&#160;&#160;&#160;&#160;</text><text class="terminal-1633617781-r11" x="744.2" y="971.6" textLength="36.6" clip-path="url(#terminal-1633617781-line-39)">&#160;·&#160;</text><text class="terminal-1633617781-r8" x="780.8" y="971.6" textLength="48.8" clip-path="url(#terminal-1633617781-line-39)">high</text><text class="terminal-1633617781-r11" x="829.6" y="971.6" textLength="36.6" clip-path="url(#terminal-1633617781-line-39)">&#160;·&#160;</text><text class="terminal-1633617781-r8" x="866.2" y="971.6" textLength="97.6" clip-path="url(#terminal-1633617781-line-39)">normal&#160;&#160;</text><text class="terminal-1633617781-r3" x="963.8" y="971.6" textLength="48.8" clip-path="url(#terminal-1633617781-line-39)">ctx&#160;</text><text class="terminal-1633617781-r8" x="1012.6" y="971.6" textLength="85.4" clip-path="url(#terminal-1633617781-line-39)">≈0&#160;tok&#160;</text><text class="terminal-1633617781-r3" x="1098" y="971.6" textLength="317.2" clip-path="url(#terminal-1633617781-line-39)">&#160;&#160;&#160;&#160;&#160;/workspace/neuro-code</text>
    </g>
    </g>
</svg>
