<svg class="rich-terminal" viewBox="0 0 1238 830.8" xmlns="http://www.w3.org/2000/svg">
    <!-- Generated with Rich https://www.textualize.io -->
    <style>

    @font-face {
        font-family: "Fira Code";
        src: local("FiraCode-Regular"),
                url("https://cdnjs.cloudflare.com/ajax/libs/firacode/6.2.0/woff2/FiraCode-Regular.woff2") format("woff2"),
                url("https://cdnjs.cloudflare.com/ajax/libs/firacode/6.2.0/woff/FiraCode-Regular.woff") format("woff");
        font-style: normal;
        font-weight: 400;
    }
    @font-face {
        font-family: "Fira Code";
        src: local("FiraCode-Bold"),
                url("https://cdnjs.cloudflare.com/ajax/libs/firacode/6.2.0/woff2/FiraCode-Bold.woff2") format("woff2"),
                url("https://cdnjs.cloudflare.com/ajax/libs/firacode/6.2.0/woff/FiraCode-Bold.woff") format("woff");
        font-style: bold;
        font-weight: 700;
    }

    .terminal-851632900-matrix {
        font-family: Fira Code, monospace;
        font-size: 20px;
        line-height: 24.4px;
        font-variant-east-asian: full-width;
    }

    .terminal-851632900-title {
        font-size: 18px;
        font-weight: bold;
        font-family: arial;
    }

    .terminal-851632900-r1 { fill: #f3f0ea }
.terminal-851632900-r2 { fill: #b6b4af }
.terminal-851632900-r3 { fill: #7a766f }
.terminal-851632900-r4 { fill: #c5c8c6 }
.terminal-851632900-r5 { fill: #b1aeaa }
.terminal-851632900-r6 { fill: #77736d }
.terminal-851632900-r7 { fill: #adc0a4 }
.terminal-851632900-r8 { fill: #1e1e1b }
.terminal-851632900-r9 { fill: #988a72 }
.terminal-851632900-r10 { fill: #a5a29c }
.terminal-851632900-r11 { fill: #706e69 }
.terminal-851632900-r12 { fill: #96928a }
    </style>

    <defs>
    <clipPath id="terminal-851632900-clip-terminal">
      <rect x="0" y="0" width="1219.0" height="779.8" />
    </clipPath>
    <clipPath id="terminal-851632900-line-0">
    <rect x="0" y="1.5" width="1220" height="24.65"/>
            </clipPath>
<clipPath id="terminal-851632900-line-1">
    <rect x="0" y="25.9" width="1220" height="24.65"/>
            </clipPath>
<clipPath id="terminal-851632900-line-2">
    <rect x="0" y="50.3" width="1220" height="24.65"/>
            </clipPath>
<clipPath id="terminal-851632900-line-3">
    <rect x="0" y="74.7" width="1220" height="24.65"/>
            </clipPath>
<clipPath id="terminal-851632900-line-4">
    <rect x="0" y="99.1" width="1220" height="24.65"/>
            </clipPath>
<clipPath id="terminal-851632900-line-5">
    <rect x="0" y="123.5" width="1220" height="24.65"/>
            </clipPath>
<clipPath id="terminal-851632900-line-6">
    <rect x="0" y="147.9" width="1220" height="24.65"/>
            </clipPath>
<clipPath id="terminal-851632900-line-7">
    <rect x="0" y="172.3" width="1220" height="24.65"/>
            </clipPath>
<clipPath id="terminal-851632900-line-8">
    <rect x="0" y="196.7" width="1220" height="24.65"/>
            </clipPath>
<clipPath id="terminal-851632900-line-9">
    <rect x="0" y="221.1" width="1220" height="24.65"/>
            </clipPath>
<clipPath id="terminal-851632900-line-10">
    <rect x="0" y="245.5" width="1220" height="24.65"/>
            </clipPath>
<clipPath id="terminal-851632900-line-11">
    <rect x="0" y="269.9" width="1220" height="24.65"/>
            </clipPath>
<clipPath id="terminal-851632900-line-12">
    <rect x="0" y="294.3" width="1220" height="24.65"/>
            </clipPath>
<clipPath id="terminal-851632900-line-13">
    <rect x="0" y="318.7" width="1220" height="24.65"/>
            </clipPath>
<clipPath id="terminal-851632900-line-14">
    <rect x="0" y="343.1" width="1220" height="24.65"/>
            </clipPath>
<clipPath id="terminal-851632900-line-15">
    <rect x="0" y="367.5" width="1220" height="24.65"/>
            </clipPath>
<clipPath id="terminal-851632900-line-16">
    <rect x="0" y="391.9" width="1220" height="24.65"/>
            </clipPath>
<clipPath id="terminal-851632900-line-17">
    <rect x="0" y="416.3" width="1220" height="24.65"/>
            </clipPath>
<clipPath id="terminal-851632900-line-18">
    <rect x="0" y="440.7" width="1220" height="24.65"/>
            </clipPath>
<clipPath id="terminal-851632900-line-19">
    <rect x="0" y="465.1" width="1220" height="24.65"/>
            </clipPath>
<clipPath id="terminal-851632900-line-20">
    <rect x="0" y="489.5" width="1220" height="24.65"/>
            </clipPath>
<clipPath id="terminal-851632900-line-21">
    <rect x="0" y="513.9" width="1220" height="24.65"/>
            </clipPath>
<clipPath id="terminal-851632900-line-22">
    <rect x="0" y="538.3" width="1220" height="24.65"/>
            </clipPath>
<clipPath id="terminal-851632900-line-23">
    <rect x="0" y="562.7" width="1220" height="24.65"/>
            </clipPath>
<clipPath id="terminal-851632900-line-24">
    <rect x="0" y="587.1" width="1220" height="24.65"/>
            </clipPath>
<clipPath id="terminal-851632900-line-25">
    <rect x="0" y="611.5" width="1220" height="24.65"/>
            </clipPath>
<clipPath id="terminal-851632900-line-26">
    <rect x="0" y="635.9" width="1220" height="24.65"/>
            </clipPath>
<clipPath id="terminal-851632900-line-27">
    <rect x="0" y="660.3" width="1220" height="24.65"/>
            </clipPath>
<clipPath id="terminal-851632900-line-28">
    <rect x="0" y="684.7" width="1220" height="24.65"/>
            </clipPath>
<clipPath id="terminal-851632900-line-29">
    <rect x="0" y="709.1" width="1220" height="24.65"/>
            </clipPath>
<clipPath id="terminal-851632900-line-30">
    <rect x="0" y="733.5" width="1220" height="24.65"/>
            </clipPath>
    </defs>

    <rect fill="#292929" stroke="rgba(255,255,255,0.35)" stroke-width="1" x="1" y="1" width="1236" height="828.8" rx="8"/><text class="terminal-851632900-title" fill="#c5c8c6" text-anchor="middle" x="618" y="27">Neuro&#160;Code&#160;visual&#160;baseline</text>
            <g transform="translate(26,22)">
            <circle cx="0" cy="0" r="7" fill="#ff5f57"/>
            <circle cx="22" cy="0" r="7" fill="#febc2e"/>
            <circle cx="44" cy="0" r="7" fill="#28c840"/>
            </g>

    <g transform="translate(9, 41)" clip-path="url(#terminal-851632900-clip-terminal)">
    <rect fill="#111111" x="0" y="1.5" width="36.6" height="24.65" shape-rendering="crispEdges"/><rect fill="#111111" x="36.6" y="1.5" width="61" height="24.65" shape-rendering="crispEdges"/><rect fill="#111111" x="97.6" y="1.5" width="85.4" height="24.65" shape-rendering="crispEdges"/><rect fill="#111111" x="183" y="1.5" width="0" height="24.65" shape-rendering="crispEdges"/><rect fill="#111111" x="183" y="1.5" width="939.4" height="24.65" shape-rendering="crispEdges"/><rect fill="#111111" x="1122.4" y="1.5" width="61" height="24.65" shape-rendering="crispEdges"/><rect fill="#111111" x="1183.4" y="1.5" width="36.6" height="24.65" shape-rendering="crispEdges"/><rect fill="#111111" x="0" y="25.9" width="1220" height="24.65" shape-rendering="crispEdges"/><rect fill="#111111" x="0" y="50.3" width="36.6" height="24.65" shape-rendering="crispEdges"/><rect fill="#111111" x="36.6" y="50.3" width="1146.8" height="24.65" shape-rendering="crispEdges"/><rect fill="#111111" x="1183.4" y="50.3" width="36.6" height="24.65" shape-rendering="crispEdges"/><rect fill="#111111" x="0" y="74.7" width="36.6" height="24.65" shape-rendering="crispEdges"/><rect fill="#111111" x="36.6" y="74.7" width="1146.8" height="24.65" shape-rendering="crispEdges"/><rect fill="#111111" x="1183.4" y="74.7" width="36.6" height="24.65" shape-rendering="crispEdges"/><rect fill="#111111" x="0" y="99.1" width="36.6" height="24.65" shape-rendering="crispEdges"/><rect fill="#111111" x="36.6" y="99.1" width="1146.8" height="24.65" shape-rendering="crispEdges"/><rect fill="#111111" x="1183.4" y="99.1" width="36.6" height="24.65" shape-rendering="crispEdges"/><rect fill="#111111" x="0" y="123.5" width="36.6" height="24.65" shape-rendering="crispEdges"/><rect fill="#111111" x="36.6" y="123.5" width="1146.8" height="24.65" shape-rendering="crispEdges"/><rect fill="#111111" x="1183.4" y="123.5" width="36.6" height="24.65" shape-rendering="crispEdges"/><rect fill="#111111" x="0" y="147.9" width="36.6" height="24.65" shape-rendering="crispEdges"/><rect fill="#111111" x="36.6" y="147.9" width="1146.8" height="24.65" shape-rendering="crispEdges"/><rect fill="#111111" x="1183.4" y="147.9" width="36.6" height="24.65" shape-rendering="crispEdges"/><rect fill="#111111" x="0" y="172.3" width="36.6" height="24.65" shape-rendering="crispEdges"/><rect fill="#111111" x="36.6" y="172.3" width="73.2" height="24.65" shape-rendering="crispEdges"/><rect fill="#202020" x="109.8" y="172.3" width="1000.4" height="24.65" shape-rendering="crispEdges"/><rect fill="#111111" x="1110.2" y="172.3" width="73.2" height="24.65" shape-rendering="crispEdges"/><rect fill="#111111" x="1183.4" y="172.3" width="36.6" height="24.65" shape-rendering="crispEdges"/><rect fill="#111111" x="0" y="196.7" width="36.6" height="24.65" shape-rendering="crispEdges"/><rect fill="#111111" x="36.6" y="196.7" width="73.2" height="24.65" shape-rendering="crispEdges"/><rect fill="#202020" x="109.8" y="196.7" width="12.2" height="24.65" shape-rendering="crispEdges"/><rect fill="#202020" x="122" y="196.7" width="976" height="24.65" shape-rendering="crispEdges"/><rect fill="#202020" x="1098" y="196.7" width="12.2" height="24.65" shape-rendering="crispEdges"/><rect fill="#111111" x="1110.2" y="196.7" width="73.2" height="24.65" shape-rendering="crispEdges"/><rect fill="#111111" x="1183.4" y="196.7" width="36.6" height="24.65" shape-rendering="crispEdges"/><rect fill="#111111" x="0" y="221.1" width="36.6" height="24.65" shape-rendering="crispEdges"/><rect fill="#111111" x="36.6" y="221.1" width="73.2" height="24.65" shape-rendering="crispEdges"/><rect fill="#202020" x="109.8" y="221.1" width="12.2" height="24.65" shape-rendering="crispEdges"/><rect fill="#202020" x="122" y="221.1" width="976" height="24.65" shape-rendering="crispEdges"/><rect fill="#202020" x="1098" y="221.1" width="12.2" height="24.65" shape-rendering="crispEdges"/><rect fill="#111111" x="1110.2" y="221.1" width="73.2" height="24.65" shape-rendering="crispEdges"/><rect fill="#111111" x="1183.4" y="221.1" width="36.6" height="24.65" shape-rendering="crispEdges"/><rect fill="#111111" x="0" y="245.5" width="36.6" height="24.65" shape-rendering="crispEdges"/><rect fill="#111111" x="36.6" y="245.5" width="73.2" height="24.65" shape-rendering="crispEdges"/><rect fill="#202020" x="109.8" y="245.5" width="12.2" height="24.65" shape-rendering="crispEdges"/><rect fill="#202020" x="122" y="245.5" width="36.6" height="24.65" shape-rendering="crispEdges"/><rect fill="#202020" x="158.6" y="245.5" width="902.8" height="24.65" shape-rendering="crispEdges"/><rect fill="#202020" x="1061.4" y="245.5" width="36.6" height="24.65" shape-rendering="crispEdges"/><rect fill="#202020" x="1098" y="245.5" width="12.2" height="24.65" shape-rendering="crispEdges"/><rect fill="#111111" x="1110.2" y="245.5" width="73.2" height="24.65" shape-rendering="crispEdges"/><rect fill="#111111" x="1183.4" y="245.5" width="36.6" height="24.65" shape-rendering="crispEdges"/><rect fill="#111111" x="0" y="269.9" width="36.6" height="24.65" shape-rendering="crispEdges"/><rect fill="#111111" x="36.6" y="269.9" width="73.2" height="24.65" shape-rendering="crispEdges"/><rect fill="#202020" x="109.8" y="269.9" width="12.2" height="24.65" shape-rendering="crispEdges"/><rect fill="#202020" x="122" y="269.9" width="36.6" height="24.65" shape-rendering="crispEdges"/><rect fill="#202020" x="158.6" y="269.9" width="902.8" height="24.65" shape-rendering="crispEdges"/><rect fill="#202020" x="1061.4" y="269.9" width="36.6" height="24.65" shape-rendering="crispEdges"/><rect fill="#202020" x="1098" y="269.9" width="12.2" height="24.65" shape-rendering="crispEdges"/><rect fill="#111111" x="1110.2" y="269.9" width="73.2" height="24.65" shape-rendering="crispEdges"/><rect fill="#111111" x="1183.4" y="269.9" width="36.6" height="24.65" shape-rendering="crispEdges"/><rect fill="#111111" x="0" y="294.3" width="36.6" height="24.65" shape-rendering="crispEdges"/><rect fill="#111111" x="36.6" y="294.3" width="73.2" height="24.65" shape-rendering="crispEdges"/><rect fill="#202020" x="109.8" y="294.3" width="12.2" height="24.65" shape-rendering="crispEdges"/><rect fill="#202020" x="122" y="294.3" width="36.6" height="24.65" shape-rendering="crispEdges"/><rect fill="#202020" x="158.6" y="294.3" width="122" height="24.65" shape-rendering="crispEdges"/><rect fill="#202020" x="280.6" y="294.3" width="817.4" height="24.65" shape-rendering="crispEdges"/><rect fill="#202020" x="1098" y="294.3" width="12.2" height="24.65" shape-rendering="crispEdges"/><rect fill="#111111" x="1110.2" y="294.3" width="73.2" height="24.65" shape-rendering="crispEdges"/><rect fill="#111111" x="1183.4" y="294.3" width="36.6" height="24.65" shape-rendering="crispEdges"/><rect fill="#111111" x="0" y="318.7" width="36.6" height="24.65" shape-rendering="crispEdges"/><rect fill="#111111" x="36.6" y="318.7" width="73.2" height="24.65" shape-rendering="crispEdges"/><rect fill="#202020" x="109.8" y="318.7" width="12.2" height="24.65" shape-rendering="crispEdges"/><rect fill="#202020" x="122" y="318.7" width="36.6" height="24.65" shape-rendering="crispEdges"/><rect fill="#202020" x="158.6" y="318.7" width="902.8" height="24.65" shape-rendering="crispEdges"/><rect fill="#202020" x="1061.4" y="318.7" width="36.6" height="24.65" shape-rendering="crispEdges"/><rect fill="#202020" x="1098" y="318.7" width="12.2" height="24.65" shape-rendering="crispEdges"/><rect fill="#111111" x="1110.2" y="318.7" width="73.2" height="24.65" shape-rendering="crispEdges"/><rect fill="#111111" x="1183.4" y="318.7" width="36.6" height="24.65" shape-rendering="crispEdges"/><rect fill="#111111" x="0" y="343.1" width="36.6" height="24.65" shape-rendering="crispEdges"/><rect fill="#111111" x="36.6" y="343.1" width="73.2" height="24.65" shape-rendering="crispEdges"/><rect fill="#202020" x="109.8" y="343.1" width="12.2" height="24.65" shape-rendering="crispEdges"/><rect fill="#202020" x="122" y="343.1" width="36.6" height="24.65" shape-rendering="crispEdges"/><rect fill="#202020" x="158.6" y="343.1" width="353.8" height="24.65" shape-rendering="crispEdges"/><rect fill="#202020" x="512.4" y="343.1" width="585.6" height="24.65" shape-rendering="crispEdges"/><rect fill="#202020" x="1098" y="343.1" width="12.2" height="24.65" shape-rendering="crispEdges"/><rect fill="#111111" x="1110.2" y="343.1" width="73.2" height="24.65" shape-rendering="crispEdges"/><rect fill="#111111" x="1183.4" y="343.1" width="36.6" height="24.65" shape-rendering="crispEdges"/><rect fill="#111111" x="0" y="367.5" width="36.6" height="24.65" shape-rendering="crispEdges"/><rect fill="#111111" x="36.6" y="367.5" width="73.2" height="24.65" shape-rendering="crispEdges"/><rect fill="#202020" x="109.8" y="367.5" width="12.2" height="24.65" shape-rendering="crispEdges"/><rect fill="#202020" x="122" y="367.5" width="36.6" height="24.65" shape-rendering="crispEdges"/><rect fill="#202020" x="158.6" y="367.5" width="902.8" height="24.65" shape-rendering="crispEdges"/><rect fill="#202020" x="1061.4" y="367.5" width="36.6" height="24.65" shape-rendering="crispEdges"/><rect fill="#202020" x="1098" y="367.5" width="12.2" height="24.65" shape-rendering="crispEdges"/><rect fill="#111111" x="1110.2" y="367.5" width="73.2" height="24.65" shape-rendering="crispEdges"/><rect fill="#111111" x="1183.4" y="367.5" width="36.6" height="24.65" shape-rendering="crispEdges"/><rect fill="#111111" x="0" y="391.9" width="36.6" height="24.65" shape-rendering="crispEdges"/><rect fill="#111111" x="36.6" y="391.9" width="73.2" height="24.65" shape-rendering="crispEdges"/><rect fill="#202020" x="109.8" y="391.9" width="12.2" height="24.65" shape-rendering="crispEdges"/><rect fill="#202020" x="122" y="391.9" width="36.6" height="24.65" shape-rendering="crispEdges"/><rect fill="#171717" x="158.6" y="391.9" width="902.8" height="24.65" shape-rendering="crispEdges"/><rect fill="#202020" x="1061.4" y="391.9" width="36.6" height="24.65" shape-rendering="crispEdges"/><rect fill="#202020" x="1098" y="391.9" width="12.2" height="24.65" shape-rendering="crispEdges"/><rect fill="#111111" x="1110.2" y="391.9" width="73.2" height="24.65" shape-rendering="crispEdges"/><rect fill="#111111" x="1183.4" y="391.9" width="36.6" height="24.65" shape-rendering="crispEdges"/><rect fill="#111111" x="0" y="416.3" width="36.6" height="24.65" shape-rendering="crispEdges"/><rect fill="#111111" x="36.6" y="416.3" width="73.2" height="24.65" shape-rendering="crispEdges"/><rect fill="#202020" x="109.8" y="416.3" width="12.2" height="24.65" shape-rendering="crispEdges"/><rect fill="#202020" x="122" y="416.3" width="36.6" height="24.65" shape-rendering="crispEdges"/><rect fill="#171717" x="158.6" y="416.3" width="12.2" height="24.65" shape-rendering="crispEdges"/><rect fill="#171717" x="170.8" y="416.3" width="317.2" height="24.65" shape-rendering="crispEdges"/><rect fill="#171717" x="488" y="416.3" width="573.4" height="24.65" shape-rendering="crispEdges"/><rect fill="#202020" x="1061.4" y="416.3" width="36.6" height="24.65" shape-rendering="crispEdges"/><rect fill="#202020" x="1098" y="416.3" width="12.2" height="24.65" shape-rendering="crispEdges"/><rect fill="#111111" x="1110.2" y="416.3" width="73.2" height="24.65" shape-rendering="crispEdges"/><rect fill="#111111" x="1183.4" y="416.3" width="36.6" height="24.65" shape-rendering="crispEdges"/><rect fill="#111111" x="0" y="440.7" width="36.6" height="24.65" shape-rendering="crispEdges"/><rect fill="#111111" x="36.6" y="440.7" width="73.2" height="24.65" shape-rendering="crispEdges"/><rect fill="#202020" x="109.8" y="440.7" width="12.2" height="24.65" shape-rendering="crispEdges"/><rect fill="#202020" x="122" y="440.7" width="36.6" height="24.65" shape-rendering="crispEdges"/><rect fill="#171717" x="158.6" y="440.7" width="902.8" height="24.65" shape-rendering="crispEdges"/><rect fill="#202020" x="1061.4" y="440.7" width="36.6" height="24.65" shape-rendering="crispEdges"/><rect fill="#202020" x="1098" y="440.7" width="12.2" height="24.65" shape-rendering="crispEdges"/><rect fill="#111111" x="1110.2" y="440.7" width="73.2" height="24.65" shape-rendering="crispEdges"/><rect fill="#111111" x="1183.4" y="440.7" width="36.6" height="24.65" shape-rendering="crispEdges"/><rect fill="#111111" x="0" y="465.1" width="36.6" height="24.65" shape-rendering="crispEdges"/><rect fill="#111111" x="36.6" y="465.1" width="73.2" height="24.65" shape-rendering="crispEdges"/><rect fill="#202020" x="109.8" y="465.1" width="12.2" height="24.65" shape-rendering="crispEdges"/><rect fill="#202020" x="122" y="465.1" width="36.6" height="24.65" shape-rendering="crispEdges"/><rect fill="#202020" x="158.6" y="465.1" width="902.8" height="24.65" shape-rendering="crispEdges"/><rect fill="#202020" x="1061.4" y="465.1" width="36.6" height="24.65" shape-rendering="crispEdges"/><rect fill="#202020" x="1098" y="465.1" width="12.2" height="24.65" shape-rendering="crispEdges"/><rect fill="#111111" x="1110.2" y="465.1" width="73.2" height="24.65" shape-rendering="crispEdges"/><rect fill="#111111" x="1183.4" y="465.1" width="36.6" height="24.65" shape-rendering="crispEdges"/><rect fill="#111111" x="0" y="489.5" width="36.6" height="24.65" shape-rendering="crispEdges"/><rect fill="#111111" x="36.6" y="489.5" width="73.2" height="24.65" shape-rendering="crispEdges"/><rect fill="#202020" x="109.8" y="489.5" width="12.2" height="24.65" shape-rendering="crispEdges"/><rect fill="#202020" x="122" y="489.5" width="36.6" height="24.65" shape-rendering="crispEdges"/><rect fill="#202020" x="158.6" y="489.5" width="12.2" height="24.65" shape-rendering="crispEdges"/><rect fill="#202020" x="170.8" y="489.5" width="195.2" height="24.65" shape-rendering="crispEdges"/><rect fill="#202020" x="366" y="489.5" width="12.2" height="24.65" shape-rendering="crispEdges"/><rect fill="#202020" x="378.2" y="489.5" width="500.2" height="24.65" shape-rendering="crispEdges"/><rect fill="#202020" x="878.4" y="489.5" width="12.2" height="24.65" shape-rendering="crispEdges"/><rect fill="#3e3c39" x="890.6" y="489.5" width="170.8" height="24.65" shape-rendering="crispEdges"/><rect fill="#202020" x="1061.4" y="489.5" width="36.6" height="24.65" shape-rendering="crispEdges"/><rect fill="#202020" x="1098" y="489.5" width="12.2" height="24.65" shape-rendering="crispEdges"/><rect fill="#111111" x="1110.2" y="489.5" width="73.2" height="24.65" shape-rendering="crispEdges"/><rect fill="#111111" x="1183.4" y="489.5" width="36.6" height="24.65" shape-rendering="crispEdges"/><rect fill="#111111" x="0" y="513.9" width="36.6" height="24.65" shape-rendering="crispEdges"/><rect fill="#111111" x="36.6" y="513.9" width="73.2" height="24.65" shape-rendering="crispEdges"/><rect fill="#202020" x="109.8" y="513.9" width="12.2" height="24.65" shape-rendering="crispEdges"/><rect fill="#202020" x="122" y="513.9" width="976" height="24.65" shape-rendering="crispEdges"/><rect fill="#202020" x="1098" y="513.9" width="12.2" height="24.65" shape-rendering="crispEdges"/><rect fill="#111111" x="1110.2" y="513.9" width="73.2" height="24.65" shape-rendering="crispEdges"/><rect fill="#111111" x="1183.4" y="513.9" width="36.6" height="24.65" shape-rendering="crispEdges"/><rect fill="#111111" x="0" y="538.3" width="36.6" height="24.65" shape-rendering="crispEdges"/><rect fill="#111111" x="36.6" y="538.3" width="73.2" height="24.65" shape-rendering="crispEdges"/><rect fill="#202020" x="109.8" y="538.3" width="12.2" height="24.65" shape-rendering="crispEdges"/><rect fill="#202020" x="122" y="538.3" width="976" height="24.65" shape-rendering="crispEdges"/><rect fill="#202020" x="1098" y="538.3" width="12.2" height="24.65" shape-rendering="crispEdges"/><rect fill="#111111" x="1110.2" y="538.3" width="73.2" height="24.65" shape-rendering="crispEdges"/><rect fill="#111111" x="1183.4" y="538.3" width="36.6" height="24.65" shape-rendering="crispEdges"/><rect fill="#111111" x="0" y="562.7" width="36.6" height="24.65" shape-rendering="crispEdges"/><rect fill="#111111" x="36.6" y="562.7" width="73.2" height="24.65" shape-rendering="crispEdges"/><rect fill="#202020" x="109.8" y="562.7" width="1000.4" height="24.65" shape-rendering="crispEdges"/><rect fill="#111111" x="1110.2" y="562.7" width="73.2" height="24.65" shape-rendering="crispEdges"/><rect fill="#111111" x="1183.4" y="562.7" width="36.6" height="24.65" shape-rendering="crispEdges"/><rect fill="#111111" x="0" y="587.1" width="36.6" height="24.65" shape-rendering="crispEdges"/><rect fill="#111111" x="36.6" y="587.1" width="1146.8" height="24.65" shape-rendering="crispEdges"/><rect fill="#111111" x="1183.4" y="587.1" width="36.6" height="24.65" shape-rendering="crispEdges"/><rect fill="#111111" x="0" y="611.5" width="36.6" height="24.65" shape-rendering="crispEdges"/><rect fill="#111111" x="36.6" y="611.5" width="1146.8" height="24.65" shape-rendering="crispEdges"/><rect fill="#111111" x="1183.4" y="611.5" width="36.6" height="24.65" shape-rendering="crispEdges"/><rect fill="#111111" x="0" y="635.9" width="36.6" height="24.65" shape-rendering="crispEdges"/><rect fill="#111111" x="36.6" y="635.9" width="1146.8" height="24.65" shape-rendering="crispEdges"/><rect fill="#111111" x="1183.4" y="635.9" width="36.6" height="24.65" shape-rendering="crispEdges"/><rect fill="#111111" x="0" y="660.3" width="1220" height="24.65" shape-rendering="crispEdges"/><rect fill="#111111" x="0" y="684.7" width="36.6" height="24.65" shape-rendering="crispEdges"/><rect fill="#1e1e1b" x="36.6" y="684.7" width="1146.8" height="24.65" shape-rendering="crispEdges"/><rect fill="#111111" x="1183.4" y="684.7" width="36.6" height="24.65" shape-rendering="crispEdges"/><rect fill="#111111" x="0" y="709.1" width="36.6" height="24.65" shape-rendering="crispEdges"/><rect fill="#1e1e1b" x="36.6" y="709.1" width="24.4" height="24.65" shape-rendering="crispEdges"/><rect fill="#1e1e1b" x="61" y="709.1" width="0" height="24.65" shape-rendering="crispEdges"/><rect fill="#b6b4af" x="61" y="709.1" width="12.2" height="24.65" shape-rendering="crispEdges"/><rect fill="#1e1e1b" x="73.2" y="709.1" width="976" height="24.65" shape-rendering="crispEdges"/><rect fill="#1e1e1b" x="1049.2" y="709.1" width="12.2" height="24.65" shape-rendering="crispEdges"/><rect fill="#1e1e1b" x="1061.4" y="709.1" width="97.6" height="24.65" shape-rendering="crispEdges"/><rect fill="#1e1e1b" x="1159" y="709.1" width="24.4" height="24.65" shape-rendering="crispEdges"/><rect fill="#111111" x="1183.4" y="709.1" width="36.6" height="24.65" shape-rendering="crispEdges"/><rect fill="#111111" x="0" y="733.5" width="36.6" height="24.65" shape-rendering="crispEdges"/><rect fill="#1e1e1b" x="36.6" y="733.5" width="1146.8" height="24.65" shape-rendering="crispEdges"/><rect fill="#111111" x="1183.4" y="733.5" width="36.6" height="24.65" shape-rendering="crispEdges"/><rect fill="#111111" x="0" y="757.9" width="48.8" height="24.65" shape-rendering="crispEdges"/><rect fill="#111111" x="48.8" y="757.9" width="536.8" height="24.65" shape-rendering="crispEdges"/><rect fill="#111111" x="585.6" y="757.9" width="36.6" height="24.65" shape-rendering="crispEdges"/><rect fill="#111111" x="622.2" y="757.9" width="48.8" height="24.65" shape-rendering="crispEdges"/><rect fill="#111111" x="671" y="757.9" width="36.6" height="24.65" shape-rendering="crispEdges"/><rect fill="#111111" x="707.6" y="757.9" width="97.6" height="24.65" shape-rendering="crispEdges"/><rect fill="#111111" x="805.2" y="757.9" width="48.8" height="24.65" shape-rendering="crispEdges"/><rect fill="#111111" x="854" y="757.9" width="85.4" height="24.65" shape-rendering="crispEdges"/><rect fill="#111111" x="939.4" y="757.9" width="231.8" height="24.65" shape-rendering="crispEdges"/><rect fill="#111111" x="1171.2" y="757.9" width="48.8" height="24.65" shape-rendering="crispEdges"/>
    <g class="terminal-851632900-matrix">
    <text class="terminal-851632900-r2" x="36.6" y="20" textLength="61" clip-path="url(#terminal-851632900-line-0)">NEURO</text><text class="terminal-851632900-r3" x="97.6" y="20" textLength="85.4" clip-path="url(#terminal-851632900-line-0)">&#160;/&#160;CODE</text><text class="terminal-851632900-r3" x="1122.4" y="20" textLength="61" clip-path="url(#terminal-851632900-line-0)">13:37</text><text class="terminal-851632900-r4" x="1220" y="20" textLength="12.2" clip-path="url(#terminal-851632900-line-0)">
</text><text class="terminal-851632900-r4" x="1220" y="44.4" textLength="12.2" clip-path="url(#terminal-851632900-line-1)">
</text><text class="terminal-851632900-r4" x="1220" y="68.8" textLength="12.2" clip-path="url(#terminal-851632900-line-2)">
</text><text class="terminal-851632900-r4" x="1220" y="93.2" textLength="12.2" clip-path="url(#terminal-851632900-line-3)">
</text><text class="terminal-851632900-r4" x="1220" y="117.6" textLength="12.2" clip-path="url(#terminal-851632900-line-4)">
</text><text class="terminal-851632900-r4" x="1220" y="142" textLength="12.2" clip-path="url(#terminal-851632900-line-5)">
</text><text class="terminal-851632900-r4" x="1220" y="166.4" textLength="12.2" clip-path="url(#terminal-851632900-line-6)">
</text><text class="terminal-851632900-r6" x="109.8" y="190.8" textLength="1000.4" clip-path="url(#terminal-851632900-line-7)">╭────────────────────────────────────────────────────────────────────────────────╮</text><text class="terminal-851632900-r4" x="1220" y="190.8" textLength="12.2" clip-path="url(#terminal-851632900-line-7)">
</text><text class="terminal-851632900-r6" x="109.8" y="215.2" textLength="12.2" clip-path="url(#terminal-851632900-line-8)">│</text><text class="terminal-851632900-r6" x="1098" y="215.2" textLength="12.2" clip-path="url(#terminal-851632900-line-8)">│</text><text class="terminal-851632900-r4" x="1220" y="215.2" textLength="12.2" clip-path="url(#terminal-851632900-line-8)">
</text><text class="terminal-851632900-r6" x="109.8" y="239.6" textLength="12.2" clip-path="url(#terminal-851632900-line-9)">│</text><text class="terminal-851632900-r6" x="1098" y="239.6" textLength="12.2" clip-path="url(#terminal-851632900-line-9)">│</text><text class="terminal-851632900-r4" x="1220" y="239.6" textLength="12.2" clip-path="url(#terminal-851632900-line-9)">
</text><text class="terminal-851632900-r6" x="109.8" y="264" textLength="12.2" clip-path="url(#terminal-851632900-line-10)">│</text><text class="terminal-851632900-r1" x="158.6" y="264" textLength="902.8" clip-path="url(#terminal-851632900-line-10)">Tool&#160;approval&#160;required&#160;&#160;&#160;&#160;&#160;&#160;&#160;&#160;&#160;&#160;&#160;&#160;&#160;&#160;&#160;&#160;&#160;&#160;&#160;&#160;&#160;&#160;&#160;&#160;&#160;&#160;&#160;&#160;&#160;&#160;&#160;&#160;&#160;&#160;&#160;&#160;&#160;&#160;&#160;&#160;&#160;&#160;&#160;&#160;&#160;&#160;&#160;&#160;&#160;&#160;&#160;&#160;</text><text class="terminal-851632900-r6" x="1098" y="264" textLength="12.2" clip-path="url(#terminal-851632900-line-10)">│</text><text class="terminal-851632900-r4" x="1220" y="264" textLength="12.2" clip-path="url(#terminal-851632900-line-10)">
</text><text class="terminal-851632900-r6" x="109.8" y="288.4" textLength="12.2" clip-path="url(#terminal-851632900-line-11)">│</text><text class="terminal-851632900-r6" x="1098" y="288.4" textLength="12.2" clip-path="url(#terminal-851632900-line-11)">│</text><text class="terminal-851632900-r4" x="1220" y="288.4" textLength="12.2" clip-path="url(#terminal-851632900-line-11)">
</text><text class="terminal-851632900-r6" x="109.8" y="312.8" textLength="12.2" clip-path="url(#terminal-851632900-line-12)">│</text><text class="terminal-851632900-r1" x="158.6" y="312.8" textLength="122" clip-path="url(#terminal-851632900-line-12)">Tool:&#160;bash</text><text class="terminal-851632900-r6" x="1098" y="312.8" textLength="12.2" clip-path="url(#terminal-851632900-line-12)">│</text><text class="terminal-851632900-r4" x="1220" y="312.8" textLength="12.2" clip-path="url(#terminal-851632900-line-12)">
</text><text class="terminal-851632900-r6" x="109.8" y="337.2" textLength="12.2" clip-path="url(#terminal-851632900-line-13)">│</text><text class="terminal-851632900-r6" x="1098" y="337.2" textLength="12.2" clip-path="url(#terminal-851632900-line-13)">│</text><text class="terminal-851632900-r4" x="1220" y="337.2" textLength="12.2" clip-path="url(#terminal-851632900-line-13)">
</text><text class="terminal-851632900-r6" x="109.8" y="361.6" textLength="12.2" clip-path="url(#terminal-851632900-line-14)">│</text><text class="terminal-851632900-r1" x="158.6" y="361.6" textLength="353.8" clip-path="url(#terminal-851632900-line-14)">Run&#160;a&#160;read-only&#160;test&#160;command.</text><text class="terminal-851632900-r6" x="1098" y="361.6" textLength="12.2" clip-path="url(#terminal-851632900-line-14)">│</text><text class="terminal-851632900-r4" x="1220" y="361.6" textLength="12.2" clip-path="url(#terminal-851632900-line-14)">
</text><text class="terminal-851632900-r6" x="109.8" y="386" textLength="12.2" clip-path="url(#terminal-851632900-line-15)">│</text><text class="terminal-851632900-r6" x="1098" y="386" textLength="12.2" clip-path="url(#terminal-851632900-line-15)">│</text><text class="terminal-851632900-r4" x="1220" y="386" textLength="12.2" clip-path="url(#terminal-851632900-line-15)">
</text><text class="terminal-851632900-r6" x="109.8" y="410.4" textLength="12.2" clip-path="url(#terminal-851632900-line-16)">│</text><text class="terminal-851632900-r6" x="1098" y="410.4" textLength="12.2" clip-path="url(#terminal-851632900-line-16)">│</text><text class="terminal-851632900-r4" x="1220" y="410.4" textLength="12.2" clip-path="url(#terminal-851632900-line-16)">
</text><text class="terminal-851632900-r6" x="109.8" y="434.8" textLength="12.2" clip-path="url(#terminal-851632900-line-17)">│</text><text class="terminal-851632900-r1" x="170.8" y="434.8" textLength="317.2" clip-path="url(#terminal-851632900-line-17)">Run&#160;the&#160;focused&#160;test&#160;suite</text><text class="terminal-851632900-r6" x="1098" y="434.8" textLength="12.2" clip-path="url(#terminal-851632900-line-17)">│</text><text class="terminal-851632900-r4" x="1220" y="434.8" textLength="12.2" clip-path="url(#terminal-851632900-line-17)">
</text><text class="terminal-851632900-r6" x="109.8" y="459.2" textLength="12.2" clip-path="url(#terminal-851632900-line-18)">│</text><text class="terminal-851632900-r6" x="1098" y="459.2" textLength="12.2" clip-path="url(#terminal-851632900-line-18)">│</text><text class="terminal-851632900-r4" x="1220" y="459.2" textLength="12.2" clip-path="url(#terminal-851632900-line-18)">
</text><text class="terminal-851632900-r6" x="109.8" y="483.6" textLength="12.2" clip-path="url(#terminal-851632900-line-19)">│</text><text class="terminal-851632900-r6" x="1098" y="483.6" textLength="12.2" clip-path="url(#terminal-851632900-line-19)">│</text><text class="terminal-851632900-r4" x="1220" y="483.6" textLength="12.2" clip-path="url(#terminal-851632900-line-19)">
</text><text class="terminal-851632900-r6" x="109.8" y="508" textLength="12.2" clip-path="url(#terminal-851632900-line-20)">│</text><text class="terminal-851632900-r7" x="170.8" y="508" textLength="195.2" clip-path="url(#terminal-851632900-line-20)">&#160;Allow&#160;once&#160;[A]&#160;</text><text class="terminal-851632900-r1" x="378.2" y="508" textLength="500.2" clip-path="url(#terminal-851632900-line-20)">&#160;Allow&#160;identical&#160;action&#160;this&#160;session&#160;[S]&#160;</text><text class="terminal-851632900-r1" x="890.6" y="508" textLength="170.8" clip-path="url(#terminal-851632900-line-20)">&#160;Deny&#160;[D/Esc/C</text><text class="terminal-851632900-r6" x="1098" y="508" textLength="12.2" clip-path="url(#terminal-851632900-line-20)">│</text><text class="terminal-851632900-r4" x="1220" y="508" textLength="12.2" clip-path="url(#terminal-851632900-line-20)">
</text><text class="terminal-851632900-r6" x="109.8" y="532.4" textLength="12.2" clip-path="url(#terminal-851632900-line-21)">│</text><text class="terminal-851632900-r6" x="1098" y="532.4" textLength="12.2" clip-path="url(#terminal-851632900-line-21)">│</text><text class="terminal-851632900-r4" x="1220" y="532.4" textLength="12.2" clip-path="url(#terminal-851632900-line-21)">
</text><text class="terminal-851632900-r6" x="109.8" y="556.8" textLength="12.2" clip-path="url(#terminal-851632900-line-22)">│</text><text class="terminal-851632900-r6" x="1098" y="556.8" textLength="12.2" clip-path="url(#terminal-851632900-line-22)">│</text><text class="terminal-851632900-r4" x="1220" y="556.8" textLength="12.2" clip-path="url(#terminal-851632900-line-22)">
</text><text class="terminal-851632900-r6" x="109.8" y="581.2" textLength="1000.4" clip-path="url(#terminal-851632900-line-23)">╰────────────────────────────────────────────────────────────────────────────────╯</text><text class="terminal-851632900-r4" x="1220" y="581.2" textLength="12.2" clip-path="url(#terminal-851632900-line-23)">
</text><text class="terminal-851632900-r4" x="1220" y="605.6" textLength="12.2" clip-path="url(#terminal-851632900-line-24)">
</text><text class="terminal-851632900-r4" x="1220" y="630" textLength="12.2" clip-path="url(#terminal-851632900-line-25)">
</text><text class="terminal-851632900-r4" x="1220" y="654.4" textLength="12.2" clip-path="url(#terminal-851632900-line-26)">
</text><text class="terminal-851632900-r4" x="1220" y="678.8" textLength="12.2" clip-path="url(#terminal-851632900-line-27)">
</text><text class="terminal-851632900-r4" x="1220" y="703.2" textLength="12.2" clip-path="url(#terminal-851632900-line-28)">
</text><text class="terminal-851632900-r8" x="61" y="727.6" textLength="12.2" clip-path="url(#terminal-851632900-line-29)">W</text><text class="terminal-851632900-r2" x="73.2" y="727.6" textLength="976" clip-path="url(#terminal-851632900-line-29)">hat&#160;shall&#160;we&#160;work&#160;on&#160;next?&#160;&#160;&#160;&#160;&#160;&#160;&#160;&#160;&#160;&#160;&#160;&#160;&#160;&#160;&#160;&#160;&#160;&#160;&#160;&#160;&#160;&#160;&#160;&#160;&#160;&#160;&#160;&#160;&#160;&#160;&#160;&#160;&#160;&#160;&#160;&#160;&#160;&#160;&#160;&#160;&#160;&#160;&#160;&#160;&#160;&#160;&#160;&#160;&#160;&#160;&#160;&#160;&#160;&#160;</text><text class="terminal-851632900-r9" x="1061.4" y="727.6" textLength="97.6" clip-path="url(#terminal-851632900-line-29)">&#160;Send&#160;↑&#160;</text><text class="terminal-851632900-r4" x="1220" y="727.6" textLength="12.2" clip-path="url(#terminal-851632900-line-29)">
</text><text class="terminal-851632900-r4" x="1220" y="752" textLength="12.2" clip-path="url(#terminal-851632900-line-30)">
</text><text class="terminal-851632900-r10" x="48.8" y="776.4" textLength="536.8" clip-path="url(#terminal-851632900-line-31)">fixture-model&#160;&#160;&#160;&#160;&#160;&#160;&#160;&#160;&#160;&#160;&#160;&#160;&#160;&#160;&#160;&#160;&#160;&#160;&#160;&#160;&#160;&#160;&#160;&#160;&#160;&#160;&#160;&#160;&#160;&#160;&#160;</text><text class="terminal-851632900-r11" x="585.6" y="776.4" textLength="36.6" clip-path="url(#terminal-851632900-line-31)">&#160;·&#160;</text><text class="terminal-851632900-r12" x="622.2" y="776.4" textLength="48.8" clip-path="url(#terminal-851632900-line-31)">high</text><text class="terminal-851632900-r11" x="671" y="776.4" textLength="36.6" clip-path="url(#terminal-851632900-line-31)">&#160;·&#160;</text><text class="terminal-851632900-r12" x="707.6" y="776.4" textLength="97.6" clip-path="url(#terminal-851632900-line-31)">normal&#160;&#160;</text><text class="terminal-851632900-r3" x="805.2" y="776.4" textLength="48.8" clip-path="url(#terminal-851632900-line-31)">ctx&#160;</text><text class="terminal-851632900-r12" x="854" y="776.4" textLength="85.4" clip-path="url(#terminal-851632900-line-31)">≈0&#160;tok&#160;</text><text class="terminal-851632900-r3" x="939.4" y="776.4" textLength="231.8" clip-path="url(#terminal-851632900-line-31)">/workspace/neuro-c…</text>
    </g>
    </g>
</svg>
