<svg class="rich-terminal" viewBox="0 0 994 635.5999999999999" xmlns="http://www.w3.org/2000/svg">
    <!-- Generated with Rich https://www.textualize.io -->
    <style>

    @font-face {
        font-family: "Fira Code";
        src: local("FiraCode-Regular"),
                url("https://cdnjs.cloudflare.com/ajax/libs/firacode/6.2.0/woff2/FiraCode-Regular.woff2") format("woff2"),
                url("https://cdnjs.cloudflare.com/ajax/libs/firacode/6.2.0/woff/FiraCode-Regular.woff") format("woff");
        font-style: normal;
        font-weight: 400;
    }
    @font-face {
        font-family: "Fira Code";
        src: local("FiraCode-Bold"),
                url("https://cdnjs.cloudflare.com/ajax/libs/firacode/6.2.0/woff2/FiraCode-Bold.woff2") format("woff2"),
                url("https://cdnjs.cloudflare.com/ajax/libs/firacode/6.2.0/woff/FiraCode-Bold.woff") format("woff");
        font-style: bold;
        font-weight: 700;
    }

    .terminal-1900568105-matrix {
        font-family: Fira Code, monospace;
        font-size: 20px;
        line-height: 24.4px;
        font-variant-east-asian: full-width;
    }

    .terminal-1900568105-title {
        font-size: 18px;
        font-weight: bold;
        font-family: arial;
    }

    .terminal-1900568105-r1 { fill: #f0f0f0 }
.terminal-1900568105-r2 { fill: #b4b4b4 }
.terminal-1900568105-r3 { fill: #767676 }
.terminal-1900568105-r4 { fill: #c5c8c6 }
.terminal-1900568105-r5 { fill: #aeaeae }
.terminal-1900568105-r6 { fill: #737373 }
.terminal-1900568105-r7 { fill: #bababa }
.terminal-1900568105-r8 { fill: #1e1e1e }
.terminal-1900568105-r9 { fill: #8b8b8b }
.terminal-1900568105-r10 { fill: #a2a2a2 }
.terminal-1900568105-r11 { fill: #6e6e6e }
.terminal-1900568105-r12 { fill: #929292 }
    </style>

    <defs>
    <clipPath id="terminal-1900568105-clip-terminal">
      <rect x="0" y="0" width="975.0" height="584.5999999999999" />
    </clipPath>
    <clipPath id="terminal-1900568105-line-0">
    <rect x="0" y="1.5" width="976" height="24.65"/>
            </clipPath>
<clipPath id="terminal-1900568105-line-1">
    <rect x="0" y="25.9" width="976" height="24.65"/>
            </clipPath>
<clipPath id="terminal-1900568105-line-2">
    <rect x="0" y="50.3" width="976" height="24.65"/>
            </clipPath>
<clipPath id="terminal-1900568105-line-3">
    <rect x="0" y="74.7" width="976" height="24.65"/>
            </clipPath>
<clipPath id="terminal-1900568105-line-4">
    <rect x="0" y="99.1" width="976" height="24.65"/>
            </clipPath>
<clipPath id="terminal-1900568105-line-5">
    <rect x="0" y="123.5" width="976" height="24.65"/>
            </clipPath>
<clipPath id="terminal-1900568105-line-6">
    <rect x="0" y="147.9" width="976" height="24.65"/>
            </clipPath>
<clipPath id="terminal-1900568105-line-7">
    <rect x="0" y="172.3" width="976" height="24.65"/>
            </clipPath>
<clipPath id="terminal-1900568105-line-8">
    <rect x="0" y="196.7" width="976" height="24.65"/>
            </clipPath>
<clipPath id="terminal-1900568105-line-9">
    <rect x="0" y="221.1" width="976" height="24.65"/>
            </clipPath>
<clipPath id="terminal-1900568105-line-10">
    <rect x="0" y="245.5" width="976" height="24.65"/>
            </clipPath>
<clipPath id="terminal-1900568105-line-11">
    <rect x="0" y="269.9" width="976" height="24.65"/>
            </clipPath>
<clipPath id="terminal-1900568105-line-12">
    <rect x="0" y="294.3" width="976" height="24.65"/>
            </clipPath>
<clipPath id="terminal-1900568105-line-13">
    <rect x="0" y="318.7" width="976" height="24.65"/>
            </clipPath>
<clipPath id="terminal-1900568105-line-14">
    <rect x="0" y="343.1" width="976" height="24.65"/>
            </clipPath>
<clipPath id="terminal-1900568105-line-15">
    <rect x="0" y="367.5" width="976" height="24.65"/>
            </clipPath>
<clipPath id="terminal-1900568105-line-16">
    <rect x="0" y="391.9" width="976" height="24.65"/>
            </clipPath>
<clipPath id="terminal-1900568105-line-17">
    <rect x="0" y="416.3" width="976" height="24.65"/>
            </clipPath>
<clipPath id="terminal-1900568105-line-18">
    <rect x="0" y="440.7" width="976" height="24.65"/>
            </clipPath>
<clipPath id="terminal-1900568105-line-19">
    <rect x="0" y="465.1" width="976" height="24.65"/>
            </clipPath>
<clipPath id="terminal-1900568105-line-20">
    <rect x="0" y="489.5" width="976" height="24.65"/>
            </clipPath>
<clipPath id="terminal-1900568105-line-21">
    <rect x="0" y="513.9" width="976" height="24.65"/>
            </clipPath>
<clipPath id="terminal-1900568105-line-22">
    <rect x="0" y="538.3" width="976" height="24.65"/>
            </clipPath>
    </defs>

    <rect fill="#292929" stroke="rgba(255,255,255,0.35)" stroke-width="1" x="1" y="1" width="992" height="633.6" rx="8"/><text class="terminal-1900568105-title" fill="#c5c8c6" text-anchor="middle" x="496" y="27">Neuro&#160;Code&#160;visual&#160;baseline</text>
            <g transform="translate(26,22)">
            <circle cx="0" cy="0" r="7" fill="#ff5f57"/>
            <circle cx="22" cy="0" r="7" fill="#febc2e"/>
            <circle cx="44" cy="0" r="7" fill="#28c840"/>
            </g>

    <g transform="translate(9, 41)" clip-path="url(#terminal-1900568105-clip-terminal)">
    <rect fill="#111111" x="0" y="1.5" width="24.4" height="24.65" shape-rendering="crispEdges"/><rect fill="#111111" x="24.4" y="1.5" width="61" height="24.65" shape-rendering="crispEdges"/><rect fill="#111111" x="85.4" y="1.5" width="85.4" height="24.65" shape-rendering="crispEdges"/><rect fill="#111111" x="170.8" y="1.5" width="0" height="24.65" shape-rendering="crispEdges"/><rect fill="#111111" x="170.8" y="1.5" width="719.8" height="24.65" shape-rendering="crispEdges"/><rect fill="#111111" x="890.6" y="1.5" width="61" height="24.65" shape-rendering="crispEdges"/><rect fill="#111111" x="951.6" y="1.5" width="24.4" height="24.65" shape-rendering="crispEdges"/><rect fill="#111111" x="0" y="25.9" width="976" height="24.65" shape-rendering="crispEdges"/><rect fill="#111111" x="0" y="50.3" width="12.2" height="24.65" shape-rendering="crispEdges"/><rect fill="#111111" x="12.2" y="50.3" width="951.6" height="24.65" shape-rendering="crispEdges"/><rect fill="#111111" x="963.8" y="50.3" width="12.2" height="24.65" shape-rendering="crispEdges"/><rect fill="#111111" x="0" y="74.7" width="12.2" height="24.65" shape-rendering="crispEdges"/><rect fill="#111111" x="12.2" y="74.7" width="73.2" height="24.65" shape-rendering="crispEdges"/><rect fill="#202020" x="85.4" y="74.7" width="793" height="24.65" shape-rendering="crispEdges"/><rect fill="#111111" x="878.4" y="74.7" width="85.4" height="24.65" shape-rendering="crispEdges"/><rect fill="#111111" x="963.8" y="74.7" width="12.2" height="24.65" shape-rendering="crispEdges"/><rect fill="#111111" x="0" y="99.1" width="12.2" height="24.65" shape-rendering="crispEdges"/><rect fill="#111111" x="12.2" y="99.1" width="73.2" height="24.65" shape-rendering="crispEdges"/><rect fill="#202020" x="85.4" y="99.1" width="12.2" height="24.65" shape-rendering="crispEdges"/><rect fill="#202020" x="97.6" y="99.1" width="768.6" height="24.65" shape-rendering="crispEdges"/><rect fill="#202020" x="866.2" y="99.1" width="12.2" height="24.65" shape-rendering="crispEdges"/><rect fill="#111111" x="878.4" y="99.1" width="85.4" height="24.65" shape-rendering="crispEdges"/><rect fill="#111111" x="963.8" y="99.1" width="12.2" height="24.65" shape-rendering="crispEdges"/><rect fill="#111111" x="0" y="123.5" width="12.2" height="24.65" shape-rendering="crispEdges"/><rect fill="#111111" x="12.2" y="123.5" width="73.2" height="24.65" shape-rendering="crispEdges"/><rect fill="#202020" x="85.4" y="123.5" width="12.2" height="24.65" shape-rendering="crispEdges"/><rect fill="#202020" x="97.6" y="123.5" width="768.6" height="24.65" shape-rendering="crispEdges"/><rect fill="#202020" x="866.2" y="123.5" width="12.2" height="24.65" shape-rendering="crispEdges"/><rect fill="#111111" x="878.4" y="123.5" width="85.4" height="24.65" shape-rendering="crispEdges"/><rect fill="#111111" x="963.8" y="123.5" width="12.2" height="24.65" shape-rendering="crispEdges"/><rect fill="#111111" x="0" y="147.9" width="12.2" height="24.65" shape-rendering="crispEdges"/><rect fill="#111111" x="12.2" y="147.9" width="73.2" height="24.65" shape-rendering="crispEdges"/><rect fill="#202020" x="85.4" y="147.9" width="12.2" height="24.65" shape-rendering="crispEdges"/><rect fill="#202020" x="97.6" y="147.9" width="36.6" height="24.65" shape-rendering="crispEdges"/><rect fill="#202020" x="134.2" y="147.9" width="695.4" height="24.65" shape-rendering="crispEdges"/><rect fill="#202020" x="829.6" y="147.9" width="36.6" height="24.65" shape-rendering="crispEdges"/><rect fill="#202020" x="866.2" y="147.9" width="12.2" height="24.65" shape-rendering="crispEdges"/><rect fill="#111111" x="878.4" y="147.9" width="85.4" height="24.65" shape-rendering="crispEdges"/><rect fill="#111111" x="963.8" y="147.9" width="12.2" height="24.65" shape-rendering="crispEdges"/><rect fill="#111111" x="0" y="172.3" width="12.2" height="24.65" shape-rendering="crispEdges"/><rect fill="#111111" x="12.2" y="172.3" width="73.2" height="24.65" shape-rendering="crispEdges"/><rect fill="#202020" x="85.4" y="172.3" width="12.2" height="24.65" shape-rendering="crispEdges"/><rect fill="#202020" x="97.6" y="172.3" width="36.6" height="24.65" shape-rendering="crispEdges"/><rect fill="#202020" x="134.2" y="172.3" width="695.4" height="24.65" shape-rendering="crispEdges"/><rect fill="#202020" x="829.6" y="172.3" width="36.6" height="24.65" shape-rendering="crispEdges"/><rect fill="#202020" x="866.2" y="172.3" width="12.2" height="24.65" shape-rendering="crispEdges"/><rect fill="#111111" x="878.4" y="172.3" width="85.4" height="24.65" shape-rendering="crispEdges"/><rect fill="#111111" x="963.8" y="172.3" width="12.2" height="24.65" shape-rendering="crispEdges"/><rect fill="#111111" x="0" y="196.7" width="12.2" height="24.65" shape-rendering="crispEdges"/><rect fill="#111111" x="12.2" y="196.7" width="73.2" height="24.65" shape-rendering="crispEdges"/><rect fill="#202020" x="85.4" y="196.7" width="12.2" height="24.65" shape-rendering="crispEdges"/><rect fill="#202020" x="97.6" y="196.7" width="36.6" height="24.65" shape-rendering="crispEdges"/><rect fill="#202020" x="134.2" y="196.7" width="122" height="24.65" shape-rendering="crispEdges"/><rect fill="#202020" x="256.2" y="196.7" width="610" height="24.65" shape-rendering="crispEdges"/><rect fill="#202020" x="866.2" y="196.7" width="12.2" height="24.65" shape-rendering="crispEdges"/><rect fill="#111111" x="878.4" y="196.7" width="85.4" height="24.65" shape-rendering="crispEdges"/><rect fill="#111111" x="963.8" y="196.7" width="12.2" height="24.65" shape-rendering="crispEdges"/><rect fill="#111111" x="0" y="221.1" width="12.2" height="24.65" shape-rendering="crispEdges"/><rect fill="#111111" x="12.2" y="221.1" width="73.2" height="24.65" shape-rendering="crispEdges"/><rect fill="#202020" x="85.4" y="221.1" width="12.2" height="24.65" shape-rendering="crispEdges"/><rect fill="#202020" x="97.6" y="221.1" width="36.6" height="24.65" shape-rendering="crispEdges"/><rect fill="#202020" x="134.2" y="221.1" width="695.4" height="24.65" shape-rendering="crispEdges"/><rect fill="#202020" x="829.6" y="221.1" width="36.6" height="24.65" shape-rendering="crispEdges"/><rect fill="#202020" x="866.2" y="221.1" width="12.2" height="24.65" shape-rendering="crispEdges"/><rect fill="#111111" x="878.4" y="221.1" width="85.4" height="24.65" shape-rendering="crispEdges"/><rect fill="#111111" x="963.8" y="221.1" width="12.2" height="24.65" shape-rendering="crispEdges"/><rect fill="#111111" x="0" y="245.5" width="12.2" height="24.65" shape-rendering="crispEdges"/><rect fill="#111111" x="12.2" y="245.5" width="73.2" height="24.65" shape-rendering="crispEdges"/><rect fill="#202020" x="85.4" y="245.5" width="12.2" height="24.65" shape-rendering="crispEdges"/><rect fill="#202020" x="97.6" y="245.5" width="36.6" height="24.65" shape-rendering="crispEdges"/><rect fill="#202020" x="134.2" y="245.5" width="353.8" height="24.65" shape-rendering="crispEdges"/><rect fill="#202020" x="488" y="245.5" width="378.2" height="24.65" shape-rendering="crispEdges"/><rect fill="#202020" x="866.2" y="245.5" width="12.2" height="24.65" shape-rendering="crispEdges"/><rect fill="#111111" x="878.4" y="245.5" width="85.4" height="24.65" shape-rendering="crispEdges"/><rect fill="#111111" x="963.8" y="245.5" width="12.2" height="24.65" shape-rendering="crispEdges"/><rect fill="#111111" x="0" y="269.9" width="12.2" height="24.65" shape-rendering="crispEdges"/><rect fill="#111111" x="12.2" y="269.9" width="73.2" height="24.65" shape-rendering="crispEdges"/><rect fill="#202020" x="85.4" y="269.9" width="12.2" height="24.65" shape-rendering="crispEdges"/><rect fill="#202020" x="97.6" y="269.9" width="36.6" height="24.65" shape-rendering="crispEdges"/><rect fill="#202020" x="134.2" y="269.9" width="695.4" height="24.65" shape-rendering="crispEdges"/><rect fill="#202020" x="829.6" y="269.9" width="36.6" height="24.65" shape-rendering="crispEdges"/><rect fill="#202020" x="866.2" y="269.9" width="12.2" height="24.65" shape-rendering="crispEdges"/><rect fill="#111111" x="878.4" y="269.9" width="85.4" height="24.65" shape-rendering="crispEdges"/><rect fill="#111111" x="963.8" y="269.9" width="12.2" height="24.65" shape-rendering="crispEdges"/><rect fill="#111111" x="0" y="294.3" width="12.2" height="24.65" shape-rendering="crispEdges"/><rect fill="#111111" x="12.2" y="294.3" width="73.2" height="24.65" shape-rendering="crispEdges"/><rect fill="#202020" x="85.4" y="294.3" width="12.2" height="24.65" shape-rendering="crispEdges"/><rect fill="#202020" x="97.6" y="294.3" width="36.6" height="24.65" shape-rendering="crispEdges"/><rect fill="#171717" x="134.2" y="294.3" width="695.4" height="24.65" shape-rendering="crispEdges"/><rect fill="#202020" x="829.6" y="294.3" width="36.6" height="24.65" shape-rendering="crispEdges"/><rect fill="#202020" x="866.2" y="294.3" width="12.2" height="24.65" shape-rendering="crispEdges"/><rect fill="#111111" x="878.4" y="294.3" width="85.4" height="24.65" shape-rendering="crispEdges"/><rect fill="#111111" x="963.8" y="294.3" width="12.2" height="24.65" shape-rendering="crispEdges"/><rect fill="#111111" x="0" y="318.7" width="12.2" height="24.65" shape-rendering="crispEdges"/><rect fill="#111111" x="12.2" y="318.7" width="73.2" height="24.65" shape-rendering="crispEdges"/><rect fill="#202020" x="85.4" y="318.7" width="12.2" height="24.65" shape-rendering="crispEdges"/><rect fill="#202020" x="97.6" y="318.7" width="36.6" height="24.65" shape-rendering="crispEdges"/><rect fill="#171717" x="134.2" y="318.7" width="12.2" height="24.65" shape-rendering="crispEdges"/><rect fill="#171717" x="146.4" y="318.7" width="317.2" height="24.65" shape-rendering="crispEdges"/><rect fill="#171717" x="463.6" y="318.7" width="366" height="24.65" shape-rendering="crispEdges"/><rect fill="#202020" x="829.6" y="318.7" width="36.6" height="24.65" shape-rendering="crispEdges"/><rect fill="#202020" x="866.2" y="318.7" width="12.2" height="24.65" shape-rendering="crispEdges"/><rect fill="#111111" x="878.4" y="318.7" width="85.4" height="24.65" shape-rendering="crispEdges"/><rect fill="#111111" x="963.8" y="318.7" width="12.2" height="24.65" shape-rendering="crispEdges"/><rect fill="#111111" x="0" y="343.1" width="12.2" height="24.65" shape-rendering="crispEdges"/><rect fill="#111111" x="12.2" y="343.1" width="73.2" height="24.65" shape-rendering="crispEdges"/><rect fill="#202020" x="85.4" y="343.1" width="12.2" height="24.65" shape-rendering="crispEdges"/><rect fill="#202020" x="97.6" y="343.1" width="36.6" height="24.65" shape-rendering="crispEdges"/><rect fill="#171717" x="134.2" y="343.1" width="695.4" height="24.65" shape-rendering="crispEdges"/><rect fill="#202020" x="829.6" y="343.1" width="36.6" height="24.65" shape-rendering="crispEdges"/><rect fill="#202020" x="866.2" y="343.1" width="12.2" height="24.65" shape-rendering="crispEdges"/><rect fill="#111111" x="878.4" y="343.1" width="85.4" height="24.65" shape-rendering="crispEdges"/><rect fill="#111111" x="963.8" y="343.1" width="12.2" height="24.65" shape-rendering="crispEdges"/><rect fill="#111111" x="0" y="367.5" width="12.2" height="24.65" shape-rendering="crispEdges"/><rect fill="#111111" x="12.2" y="367.5" width="73.2" height="24.65" shape-rendering="crispEdges"/><rect fill="#202020" x="85.4" y="367.5" width="12.2" height="24.65" shape-rendering="crispEdges"/><rect fill="#202020" x="97.6" y="367.5" width="36.6" height="24.65" shape-rendering="crispEdges"/><rect fill="#202020" x="134.2" y="367.5" width="695.4" height="24.65" shape-rendering="crispEdges"/><rect fill="#202020" x="829.6" y="367.5" width="36.6" height="24.65" shape-rendering="crispEdges"/><rect fill="#202020" x="866.2" y="367.5" width="12.2" height="24.65" shape-rendering="crispEdges"/><rect fill="#111111" x="878.4" y="367.5" width="85.4" height="24.65" shape-rendering="crispEdges"/><rect fill="#111111" x="963.8" y="367.5" width="12.2" height="24.65" shape-rendering="crispEdges"/><rect fill="#111111" x="0" y="391.9" width="12.2" height="24.65" shape-rendering="crispEdges"/><rect fill="#111111" x="12.2" y="391.9" width="73.2" height="24.65" shape-rendering="crispEdges"/><rect fill="#202020" x="85.4" y="391.9" width="12.2" height="24.65" shape-rendering="crispEdges"/><rect fill="#202020" x="97.6" y="391.9" width="36.6" height="24.65" shape-rendering="crispEdges"/><rect fill="#202020" x="134.2" y="391.9" width="12.2" height="24.65" shape-rendering="crispEdges"/><rect fill="#202020" x="146.4" y="391.9" width="195.2" height="24.65" shape-rendering="crispEdges"/><rect fill="#202020" x="341.6" y="391.9" width="12.2" height="24.65" shape-rendering="crispEdges"/><rect fill="#202020" x="353.8" y="391.9" width="475.8" height="24.65" shape-rendering="crispEdges"/><rect fill="#202020" x="829.6" y="391.9" width="36.6" height="24.65" shape-rendering="crispEdges"/><rect fill="#202020" x="866.2" y="391.9" width="12.2" height="24.65" shape-rendering="crispEdges"/><rect fill="#111111" x="878.4" y="391.9" width="85.4" height="24.65" shape-rendering="crispEdges"/><rect fill="#111111" x="963.8" y="391.9" width="12.2" height="24.65" shape-rendering="crispEdges"/><rect fill="#111111" x="0" y="416.3" width="12.2" height="24.65" shape-rendering="crispEdges"/><rect fill="#111111" x="12.2" y="416.3" width="73.2" height="24.65" shape-rendering="crispEdges"/><rect fill="#202020" x="85.4" y="416.3" width="12.2" height="24.65" shape-rendering="crispEdges"/><rect fill="#202020" x="97.6" y="416.3" width="768.6" height="24.65" shape-rendering="crispEdges"/><rect fill="#202020" x="866.2" y="416.3" width="12.2" height="24.65" shape-rendering="crispEdges"/><rect fill="#111111" x="878.4" y="416.3" width="85.4" height="24.65" shape-rendering="crispEdges"/><rect fill="#111111" x="963.8" y="416.3" width="12.2" height="24.65" shape-rendering="crispEdges"/><rect fill="#111111" x="0" y="440.7" width="12.2" height="24.65" shape-rendering="crispEdges"/><rect fill="#111111" x="12.2" y="440.7" width="73.2" height="24.65" shape-rendering="crispEdges"/><rect fill="#202020" x="85.4" y="440.7" width="12.2" height="24.65" shape-rendering="crispEdges"/><rect fill="#202020" x="97.6" y="440.7" width="768.6" height="24.65" shape-rendering="crispEdges"/><rect fill="#202020" x="866.2" y="440.7" width="12.2" height="24.65" shape-rendering="crispEdges"/><rect fill="#111111" x="878.4" y="440.7" width="85.4" height="24.65" shape-rendering="crispEdges"/><rect fill="#111111" x="963.8" y="440.7" width="12.2" height="24.65" shape-rendering="crispEdges"/><rect fill="#111111" x="0" y="465.1" width="12.2" height="24.65" shape-rendering="crispEdges"/><rect fill="#111111" x="12.2" y="465.1" width="73.2" height="24.65" shape-rendering="crispEdges"/><rect fill="#202020" x="85.4" y="465.1" width="793" height="24.65" shape-rendering="crispEdges"/><rect fill="#111111" x="878.4" y="465.1" width="85.4" height="24.65" shape-rendering="crispEdges"/><rect fill="#111111" x="963.8" y="465.1" width="12.2" height="24.65" shape-rendering="crispEdges"/><rect fill="#111111" x="0" y="489.5" width="976" height="24.65" shape-rendering="crispEdges"/><rect fill="#111111" x="0" y="513.9" width="12.2" height="24.65" shape-rendering="crispEdges"/><rect fill="#1e1e1e" x="12.2" y="513.9" width="12.2" height="24.65" shape-rendering="crispEdges"/><rect fill="#1e1e1e" x="24.4" y="513.9" width="0" height="24.65" shape-rendering="crispEdges"/><rect fill="#b4b4b4" x="24.4" y="513.9" width="12.2" height="24.65" shape-rendering="crispEdges"/><rect fill="#1e1e1e" x="36.6" y="513.9" width="915" height="24.65" shape-rendering="crispEdges"/><rect fill="#1e1e1e" x="951.6" y="513.9" width="12.2" height="24.65" shape-rendering="crispEdges"/><rect fill="#111111" x="963.8" y="513.9" width="12.2" height="24.65" shape-rendering="crispEdges"/><rect fill="#111111" x="0" y="538.3" width="12.2" height="24.65" shape-rendering="crispEdges"/><rect fill="#1e1e1e" x="12.2" y="538.3" width="12.2" height="24.65" shape-rendering="crispEdges"/><rect fill="#1e1e1e" x="24.4" y="538.3" width="658.8" height="24.65" shape-rendering="crispEdges"/><rect fill="#1e1e1e" x="683.2" y="538.3" width="12.2" height="24.65" shape-rendering="crispEdges"/><rect fill="#1e1e1e" x="695.4" y="538.3" width="109.8" height="24.65" shape-rendering="crispEdges"/><rect fill="#1e1e1e" x="805.2" y="538.3" width="12.2" height="24.65" shape-rendering="crispEdges"/><rect fill="#1e1e1e" x="817.4" y="538.3" width="12.2" height="24.65" shape-rendering="crispEdges"/><rect fill="#1e1e1e" x="829.6" y="538.3" width="12.2" height="24.65" shape-rendering="crispEdges"/><rect fill="#1e1e1e" x="841.8" y="538.3" width="97.6" height="24.65" shape-rendering="crispEdges"/><rect fill="#1e1e1e" x="939.4" y="538.3" width="24.4" height="24.65" shape-rendering="crispEdges"/><rect fill="#111111" x="963.8" y="538.3" width="12.2" height="24.65" shape-rendering="crispEdges"/><rect fill="#111111" x="0" y="562.7" width="24.4" height="24.65" shape-rendering="crispEdges"/><rect fill="#111111" x="24.4" y="562.7" width="256.2" height="24.65" shape-rendering="crispEdges"/><rect fill="#111111" x="280.6" y="562.7" width="36.6" height="24.65" shape-rendering="crispEdges"/><rect fill="#111111" x="317.2" y="562.7" width="48.8" height="24.65" shape-rendering="crispEdges"/><rect fill="#111111" x="366" y="562.7" width="36.6" height="24.65" shape-rendering="crispEdges"/><rect fill="#111111" x="402.6" y="562.7" width="85.4" height="24.65" shape-rendering="crispEdges"/><rect fill="#111111" x="488" y="562.7" width="48.8" height="24.65" shape-rendering="crispEdges"/><rect fill="#111111" x="536.8" y="562.7" width="85.4" height="24.65" shape-rendering="crispEdges"/><rect fill="#111111" x="622.2" y="562.7" width="329.4" height="24.65" shape-rendering="crispEdges"/><rect fill="#111111" x="951.6" y="562.7" width="24.4" height="24.65" shape-rendering="crispEdges"/>
    <g class="terminal-1900568105-matrix">
    <text class="terminal-1900568105-r2" x="24.4" y="20" textLength="61" clip-path="url(#terminal-1900568105-line-0)">NEURO</text><text class="terminal-1900568105-r3" x="85.4" y="20" textLength="85.4" clip-path="url(#terminal-1900568105-line-0)">&#160;/&#160;CODE</text><text class="terminal-1900568105-r3" x="890.6" y="20" textLength="61" clip-path="url(#terminal-1900568105-line-0)">13:37</text><text class="terminal-1900568105-r4" x="976" y="20" textLength="12.2" clip-path="url(#terminal-1900568105-line-0)">
</text><text class="terminal-1900568105-r4" x="976" y="44.4" textLength="12.2" clip-path="url(#terminal-1900568105-line-1)">
</text><text class="terminal-1900568105-r4" x="976" y="68.8" textLength="12.2" clip-path="url(#terminal-1900568105-line-2)">
</text><text class="terminal-1900568105-r6" x="85.4" y="93.2" textLength="793" clip-path="url(#terminal-1900568105-line-3)">╭───────────────────────────────────────────────────────────────╮</text><text class="terminal-1900568105-r4" x="976" y="93.2" textLength="12.2" clip-path="url(#terminal-1900568105-line-3)">
</text><text class="terminal-1900568105-r6" x="85.4" y="117.6" textLength="12.2" clip-path="url(#terminal-1900568105-line-4)">│</text><text class="terminal-1900568105-r6" x="866.2" y="117.6" textLength="12.2" clip-path="url(#terminal-1900568105-line-4)">│</text><text class="terminal-1900568105-r4" x="976" y="117.6" textLength="12.2" clip-path="url(#terminal-1900568105-line-4)">
</text><text class="terminal-1900568105-r6" x="85.4" y="142" textLength="12.2" clip-path="url(#terminal-1900568105-line-5)">│</text><text class="terminal-1900568105-r6" x="866.2" y="142" textLength="12.2" clip-path="url(#terminal-1900568105-line-5)">│</text><text class="terminal-1900568105-r4" x="976" y="142" textLength="12.2" clip-path="url(#terminal-1900568105-line-5)">
</text><text class="terminal-1900568105-r6" x="85.4" y="166.4" textLength="12.2" clip-path="url(#terminal-1900568105-line-6)">│</text><text class="terminal-1900568105-r1" x="134.2" y="166.4" textLength="695.4" clip-path="url(#terminal-1900568105-line-6)">Tool&#160;approval&#160;required&#160;&#160;&#160;&#160;&#160;&#160;&#160;&#160;&#160;&#160;&#160;&#160;&#160;&#160;&#160;&#160;&#160;&#160;&#160;&#160;&#160;&#160;&#160;&#160;&#160;&#160;&#160;&#160;&#160;&#160;&#160;&#160;&#160;&#160;&#160;</text><text class="terminal-1900568105-r6" x="866.2" y="166.4" textLength="12.2" clip-path="url(#terminal-1900568105-line-6)">│</text><text class="terminal-1900568105-r4" x="976" y="166.4" textLength="12.2" clip-path="url(#terminal-1900568105-line-6)">
</text><text class="terminal-1900568105-r6" x="85.4" y="190.8" textLength="12.2" clip-path="url(#terminal-1900568105-line-7)">│</text><text class="terminal-1900568105-r6" x="866.2" y="190.8" textLength="12.2" clip-path="url(#terminal-1900568105-line-7)">│</text><text class="terminal-1900568105-r4" x="976" y="190.8" textLength="12.2" clip-path="url(#terminal-1900568105-line-7)">
</text><text class="terminal-1900568105-r6" x="85.4" y="215.2" textLength="12.2" clip-path="url(#terminal-1900568105-line-8)">│</text><text class="terminal-1900568105-r1" x="134.2" y="215.2" textLength="122" clip-path="url(#terminal-1900568105-line-8)">Tool:&#160;bash</text><text class="terminal-1900568105-r6" x="866.2" y="215.2" textLength="12.2" clip-path="url(#terminal-1900568105-line-8)">│</text><text class="terminal-1900568105-r4" x="976" y="215.2" textLength="12.2" clip-path="url(#terminal-1900568105-line-8)">
</text><text class="terminal-1900568105-r6" x="85.4" y="239.6" textLength="12.2" clip-path="url(#terminal-1900568105-line-9)">│</text><text class="terminal-1900568105-r6" x="866.2" y="239.6" textLength="12.2" clip-path="url(#terminal-1900568105-line-9)">│</text><text class="terminal-1900568105-r4" x="976" y="239.6" textLength="12.2" clip-path="url(#terminal-1900568105-line-9)">
</text><text class="terminal-1900568105-r6" x="85.4" y="264" textLength="12.2" clip-path="url(#terminal-1900568105-line-10)">│</text><text class="terminal-1900568105-r1" x="134.2" y="264" textLength="353.8" clip-path="url(#terminal-1900568105-line-10)">Run&#160;a&#160;read-only&#160;test&#160;command.</text><text class="terminal-1900568105-r6" x="866.2" y="264" textLength="12.2" clip-path="url(#terminal-1900568105-line-10)">│</text><text class="terminal-1900568105-r4" x="976" y="264" textLength="12.2" clip-path="url(#terminal-1900568105-line-10)">
</text><text class="terminal-1900568105-r6" x="85.4" y="288.4" textLength="12.2" clip-path="url(#terminal-1900568105-line-11)">│</text><text class="terminal-1900568105-r6" x="866.2" y="288.4" textLength="12.2" clip-path="url(#terminal-1900568105-line-11)">│</text><text class="terminal-1900568105-r4" x="976" y="288.4" textLength="12.2" clip-path="url(#terminal-1900568105-line-11)">
</text><text class="terminal-1900568105-r6" x="85.4" y="312.8" textLength="12.2" clip-path="url(#terminal-1900568105-line-12)">│</text><text class="terminal-1900568105-r6" x="866.2" y="312.8" textLength="12.2" clip-path="url(#terminal-1900568105-line-12)">│</text><text class="terminal-1900568105-r4" x="976" y="312.8" textLength="12.2" clip-path="url(#terminal-1900568105-line-12)">
</text><text class="terminal-1900568105-r6" x="85.4" y="337.2" textLength="12.2" clip-path="url(#terminal-1900568105-line-13)">│</text><text class="terminal-1900568105-r1" x="146.4" y="337.2" textLength="317.2" clip-path="url(#terminal-1900568105-line-13)">Run&#160;the&#160;focused&#160;test&#160;suite</text><text class="terminal-1900568105-r6" x="866.2" y="337.2" textLength="12.2" clip-path="url(#terminal-1900568105-line-13)">│</text><text class="terminal-1900568105-r4" x="976" y="337.2" textLength="12.2" clip-path="url(#terminal-1900568105-line-13)">
</text><text class="terminal-1900568105-r6" x="85.4" y="361.6" textLength="12.2" clip-path="url(#terminal-1900568105-line-14)">│</text><text class="terminal-1900568105-r6" x="866.2" y="361.6" textLength="12.2" clip-path="url(#terminal-1900568105-line-14)">│</text><text class="terminal-1900568105-r4" x="976" y="361.6" textLength="12.2" clip-path="url(#terminal-1900568105-line-14)">
</text><text class="terminal-1900568105-r6" x="85.4" y="386" textLength="12.2" clip-path="url(#terminal-1900568105-line-15)">│</text><text class="terminal-1900568105-r6" x="866.2" y="386" textLength="12.2" clip-path="url(#terminal-1900568105-line-15)">│</text><text class="terminal-1900568105-r4" x="976" y="386" textLength="12.2" clip-path="url(#terminal-1900568105-line-15)">
</text><text class="terminal-1900568105-r6" x="85.4" y="410.4" textLength="12.2" clip-path="url(#terminal-1900568105-line-16)">│</text><text class="terminal-1900568105-r7" x="146.4" y="410.4" textLength="195.2" clip-path="url(#terminal-1900568105-line-16)">&#160;Allow&#160;once&#160;[A]&#160;</text><text class="terminal-1900568105-r1" x="353.8" y="410.4" textLength="475.8" clip-path="url(#terminal-1900568105-line-16)">&#160;Allow&#160;identical&#160;action&#160;this&#160;session&#160;[S</text><text class="terminal-1900568105-r6" x="866.2" y="410.4" textLength="12.2" clip-path="url(#terminal-1900568105-line-16)">│</text><text class="terminal-1900568105-r4" x="976" y="410.4" textLength="12.2" clip-path="url(#terminal-1900568105-line-16)">
</text><text class="terminal-1900568105-r6" x="85.4" y="434.8" textLength="12.2" clip-path="url(#terminal-1900568105-line-17)">│</text><text class="terminal-1900568105-r6" x="866.2" y="434.8" textLength="12.2" clip-path="url(#terminal-1900568105-line-17)">│</text><text class="terminal-1900568105-r4" x="976" y="434.8" textLength="12.2" clip-path="url(#terminal-1900568105-line-17)">
</text><text class="terminal-1900568105-r6" x="85.4" y="459.2" textLength="12.2" clip-path="url(#terminal-1900568105-line-18)">│</text><text class="terminal-1900568105-r6" x="866.2" y="459.2" textLength="12.2" clip-path="url(#terminal-1900568105-line-18)">│</text><text class="terminal-1900568105-r4" x="976" y="459.2" textLength="12.2" clip-path="url(#terminal-1900568105-line-18)">
</text><text class="terminal-1900568105-r6" x="85.4" y="483.6" textLength="793" clip-path="url(#terminal-1900568105-line-19)">╰───────────────────────────────────────────────────────────────╯</text><text class="terminal-1900568105-r4" x="976" y="483.6" textLength="12.2" clip-path="url(#terminal-1900568105-line-19)">
</text><text class="terminal-1900568105-r4" x="976" y="508" textLength="12.2" clip-path="url(#terminal-1900568105-line-20)">
</text><text class="terminal-1900568105-r8" x="24.4" y="532.4" textLength="12.2" clip-path="url(#terminal-1900568105-line-21)">W</text><text class="terminal-1900568105-r2" x="36.6" y="532.4" textLength="915" clip-path="url(#terminal-1900568105-line-21)">hat&#160;shall&#160;we&#160;work&#160;on&#160;next?&#160;&#160;&#160;&#160;&#160;&#160;&#160;&#160;&#160;&#160;&#160;&#160;&#160;&#160;&#160;&#160;&#160;&#160;&#160;&#160;&#160;&#160;&#160;&#160;&#160;&#160;&#160;&#160;&#160;&#160;&#160;&#160;&#160;&#160;&#160;&#160;&#160;&#160;&#160;&#160;&#160;&#160;&#160;&#160;&#160;&#160;&#160;&#160;&#160;</text><text class="terminal-1900568105-r4" x="976" y="532.4" textLength="12.2" clip-path="url(#terminal-1900568105-line-21)">
</text><text class="terminal-1900568105-r3" x="24.4" y="556.8" textLength="658.8" clip-path="url(#terminal-1900568105-line-22)">Enter&#160;send&#160;·&#160;Ctrl+J/F2&#160;newline&#160;·&#160;/&#160;commands&#160;&#160;&#160;&#160;&#160;&#160;&#160;&#160;&#160;&#160;&#160;</text><text class="terminal-1900568105-r3" x="695.4" y="556.8" textLength="109.8" clip-path="url(#terminal-1900568105-line-22)">&#160;Newline&#160;</text><text class="terminal-1900568105-r9" x="841.8" y="556.8" textLength="97.6" clip-path="url(#terminal-1900568105-line-22)">&#160;Send&#160;↑&#160;</text><text class="terminal-1900568105-r4" x="976" y="556.8" textLength="12.2" clip-path="url(#terminal-1900568105-line-22)">
</text><text class="terminal-1900568105-r10" x="24.4" y="581.2" textLength="256.2" clip-path="url(#terminal-1900568105-line-23)">fixture-model&#160;&#160;&#160;&#160;&#160;&#160;&#160;&#160;</text><text class="terminal-1900568105-r11" x="280.6" y="581.2" textLength="36.6" clip-path="url(#terminal-1900568105-line-23)">&#160;·&#160;</text><text class="terminal-1900568105-r12" x="317.2" y="581.2" textLength="48.8" clip-path="url(#terminal-1900568105-line-23)">high</text><text class="terminal-1900568105-r11" x="366" y="581.2" textLength="36.6" clip-path="url(#terminal-1900568105-line-23)">&#160;·&#160;</text><text class="terminal-1900568105-r12" x="402.6" y="581.2" textLength="85.4" clip-path="url(#terminal-1900568105-line-23)">normal&#160;</text><text class="terminal-1900568105-r3" x="488" y="581.2" textLength="48.8" clip-path="url(#terminal-1900568105-line-23)">ctx&#160;</text><text class="terminal-1900568105-r12" x="536.8" y="581.2" textLength="85.4" clip-path="url(#terminal-1900568105-line-23)">≈0&#160;tok&#160;</text><text class="terminal-1900568105-r3" x="622.2" y="581.2" textLength="329.4" clip-path="url(#terminal-1900568105-line-23)">&#160;&#160;&#160;&#160;&#160;&#160;/workspace/neuro-code</text>
    </g>
    </g>
</svg>
