<svg class="rich-terminal" viewBox="0 0 1238 830.8" xmlns="http://www.w3.org/2000/svg">
    <!-- Generated with Rich https://www.textualize.io -->
    <style>

    @font-face {
        font-family: "Fira Code";
        src: local("FiraCode-Regular"),
                url("https://cdnjs.cloudflare.com/ajax/libs/firacode/6.2.0/woff2/FiraCode-Regular.woff2") format("woff2"),
                url("https://cdnjs.cloudflare.com/ajax/libs/firacode/6.2.0/woff/FiraCode-Regular.woff") format("woff");
        font-style: normal;
        font-weight: 400;
    }
    @font-face {
        font-family: "Fira Code";
        src: local("FiraCode-Bold"),
                url("https://cdnjs.cloudflare.com/ajax/libs/firacode/6.2.0/woff2/FiraCode-Bold.woff2") format("woff2"),
                url("https://cdnjs.cloudflare.com/ajax/libs/firacode/6.2.0/woff/FiraCode-Bold.woff") format("woff");
        font-style: bold;
        font-weight: 700;
    }

    .terminal-2378124978-matrix {
        font-family: Fira Code, monospace;
        font-size: 20px;
        line-height: 24.4px;
        font-variant-east-asian: full-width;
    }

    .terminal-2378124978-title {
        font-size: 18px;
        font-weight: bold;
        font-family: arial;
    }

    .terminal-2378124978-r1 { fill: #c5c8c6 }
.terminal-2378124978-r2 { fill: #262320 }
.terminal-2378124978-r3 { fill: #68625c }
.terminal-2378124978-r4 { fill: #76618f }
.terminal-2378124978-r5 { fill: #2e2b28 }
.terminal-2378124978-r6 { fill: #49443f }
.terminal-2378124978-r7 { fill: #007020 }
.terminal-2378124978-r8 { fill: #767676 }
.terminal-2378124978-r9 { fill: #0d7fae }
.terminal-2378124978-r10 { fill: #4c7e8b;font-style: italic; }
.terminal-2378124978-r11 { fill: #555555 }
.terminal-2378124978-r12 { fill: #666666 }
.terminal-2378124978-r13 { fill: #4070a0 }
.terminal-2378124978-r14 { fill: #06287e }
.terminal-2378124978-r15 { fill: #35855d }
.terminal-2378124978-r16 { fill: #262320;font-weight: bold }
.terminal-2378124978-r17 { fill: #ffffff }
.terminal-2378124978-r18 { fill: #827c75 }
.terminal-2378124978-r19 { fill: #58534e }
    </style>

    <defs>
    <clipPath id="terminal-2378124978-clip-terminal">
      <rect x="0" y="0" width="1219.0" height="779.8" />
    </clipPath>
    <clipPath id="terminal-2378124978-line-0">
    <rect x="0" y="1.5" width="1220" height="24.65"/>
            </clipPath>
<clipPath id="terminal-2378124978-line-1">
    <rect x="0" y="25.9" width="1220" height="24.65"/>
            </clipPath>
<clipPath id="terminal-2378124978-line-2">
    <rect x="0" y="50.3" width="1220" height="24.65"/>
            </clipPath>
<clipPath id="terminal-2378124978-line-3">
    <rect x="0" y="74.7" width="1220" height="24.65"/>
            </clipPath>
<clipPath id="terminal-2378124978-line-4">
    <rect x="0" y="99.1" width="1220" height="24.65"/>
            </clipPath>
<clipPath id="terminal-2378124978-line-5">
    <rect x="0" y="123.5" width="1220" height="24.65"/>
            </clipPath>
<clipPath id="terminal-2378124978-line-6">
    <rect x="0" y="147.9" width="1220" height="24.65"/>
            </clipPath>
<clipPath id="terminal-2378124978-line-7">
    <rect x="0" y="172.3" width="1220" height="24.65"/>
            </clipPath>
<clipPath id="terminal-2378124978-line-8">
    <rect x="0" y="196.7" width="1220" height="24.65"/>
            </clipPath>
<clipPath id="terminal-2378124978-line-9">
    <rect x="0" y="221.1" width="1220" height="24.65"/>
            </clipPath>
<clipPath id="terminal-2378124978-line-10">
    <rect x="0" y="245.5" width="1220" height="24.65"/>
            </clipPath>
<clipPath id="terminal-2378124978-line-11">
    <rect x="0" y="269.9" width="1220" height="24.65"/>
            </clipPath>
<clipPath id="terminal-2378124978-line-12">
    <rect x="0" y="294.3" width="1220" height="24.65"/>
            </clipPath>
<clipPath id="terminal-2378124978-line-13">
    <rect x="0" y="318.7" width="1220" height="24.65"/>
            </clipPath>
<clipPath id="terminal-2378124978-line-14">
    <rect x="0" y="343.1" width="1220" height="24.65"/>
            </clipPath>
<clipPath id="terminal-2378124978-line-15">
    <rect x="0" y="367.5" width="1220" height="24.65"/>
            </clipPath>
<clipPath id="terminal-2378124978-line-16">
    <rect x="0" y="391.9" width="1220" height="24.65"/>
            </clipPath>
<clipPath id="terminal-2378124978-line-17">
    <rect x="0" y="416.3" width="1220" height="24.65"/>
            </clipPath>
<clipPath id="terminal-2378124978-line-18">
    <rect x="0" y="440.7" width="1220" height="24.65"/>
            </clipPath>
<clipPath id="terminal-2378124978-line-19">
    <rect x="0" y="465.1" width="1220" height="24.65"/>
            </clipPath>
<clipPath id="terminal-2378124978-line-20">
    <rect x="0" y="489.5" width="1220" height="24.65"/>
            </clipPath>
<clipPath id="terminal-2378124978-line-21">
    <rect x="0" y="513.9" width="1220" height="24.65"/>
            </clipPath>
<clipPath id="terminal-2378124978-line-22">
    <rect x="0" y="538.3" width="1220" height="24.65"/>
            </clipPath>
<clipPath id="terminal-2378124978-line-23">
    <rect x="0" y="562.7" width="1220" height="24.65"/>
            </clipPath>
<clipPath id="terminal-2378124978-line-24">
    <rect x="0" y="587.1" width="1220" height="24.65"/>
            </clipPath>
<clipPath id="terminal-2378124978-line-25">
    <rect x="0" y="611.5" width="1220" height="24.65"/>
            </clipPath>
<clipPath id="terminal-2378124978-line-26">
    <rect x="0" y="635.9" width="1220" height="24.65"/>
            </clipPath>
<clipPath id="terminal-2378124978-line-27">
    <rect x="0" y="660.3" width="1220" height="24.65"/>
            </clipPath>
<clipPath id="terminal-2378124978-line-28">
    <rect x="0" y="684.7" width="1220" height="24.65"/>
            </clipPath>
<clipPath id="terminal-2378124978-line-29">
    <rect x="0" y="709.1" width="1220" height="24.65"/>
            </clipPath>
<clipPath id="terminal-2378124978-line-30">
    <rect x="0" y="733.5" width="1220" height="24.65"/>
            </clipPath>
    </defs>

    <rect fill="#292929" stroke="rgba(255,255,255,0.35)" stroke-width="1" x="1" y="1" width="1236" height="828.8" rx="8"/><text class="terminal-2378124978-title" fill="#c5c8c6" text-anchor="middle" x="618" y="27">Neuro&#160;Code&#160;visual&#160;baseline</text>
            <g transform="translate(26,22)">
            <circle cx="0" cy="0" r="7" fill="#ff5f57"/>
            <circle cx="22" cy="0" r="7" fill="#febc2e"/>
            <circle cx="44" cy="0" r="7" fill="#28c840"/>
            </g>

    <g transform="translate(9, 41)" clip-path="url(#terminal-2378124978-clip-terminal)">
    <rect fill="#f6f5f2" x="0" y="1.5" width="36.6" height="24.65" shape-rendering="crispEdges"/><rect fill="#f6f5f2" x="36.6" y="1.5" width="61" height="24.65" shape-rendering="crispEdges"/><rect fill="#f6f5f2" x="97.6" y="1.5" width="85.4" height="24.65" shape-rendering="crispEdges"/><rect fill="#f6f5f2" x="183" y="1.5" width="0" height="24.65" shape-rendering="crispEdges"/><rect fill="#f6f5f2" x="183" y="1.5" width="939.4" height="24.65" shape-rendering="crispEdges"/><rect fill="#f6f5f2" x="1122.4" y="1.5" width="61" height="24.65" shape-rendering="crispEdges"/><rect fill="#f6f5f2" x="1183.4" y="1.5" width="36.6" height="24.65" shape-rendering="crispEdges"/><rect fill="#f6f5f2" x="0" y="25.9" width="1220" height="24.65" shape-rendering="crispEdges"/><rect fill="#f6f5f2" x="0" y="50.3" width="48.8" height="24.65" shape-rendering="crispEdges"/><rect fill="#f6f5f2" x="48.8" y="50.3" width="158.6" height="24.65" shape-rendering="crispEdges"/><rect fill="#f6f5f2" x="207.4" y="50.3" width="963.8" height="24.65" shape-rendering="crispEdges"/><rect fill="#f6f5f2" x="1171.2" y="50.3" width="48.8" height="24.65" shape-rendering="crispEdges"/><rect fill="#f6f5f2" x="0" y="74.7" width="1220" height="24.65" shape-rendering="crispEdges"/><rect fill="#f6f5f2" x="0" y="99.1" width="48.8" height="24.65" shape-rendering="crispEdges"/><rect fill="#f6f5f2" x="48.8" y="99.1" width="366" height="24.65" shape-rendering="crispEdges"/><rect fill="#f6f5f2" x="414.8" y="99.1" width="109.8" height="24.65" shape-rendering="crispEdges"/><rect fill="#f6f5f2" x="524.6" y="99.1" width="646.6" height="24.65" shape-rendering="crispEdges"/><rect fill="#f6f5f2" x="1171.2" y="99.1" width="48.8" height="24.65" shape-rendering="crispEdges"/><rect fill="#f6f5f2" x="0" y="123.5" width="1220" height="24.65" shape-rendering="crispEdges"/><rect fill="#f6f5f2" x="0" y="147.9" width="48.8" height="24.65" shape-rendering="crispEdges"/><rect fill="#ffffff" x="48.8" y="147.9" width="1122.4" height="24.65" shape-rendering="crispEdges"/><rect fill="#f6f5f2" x="1171.2" y="147.9" width="48.8" height="24.65" shape-rendering="crispEdges"/><rect fill="#f6f5f2" x="0" y="172.3" width="48.8" height="24.65" shape-rendering="crispEdges"/><rect fill="#ffffff" x="48.8" y="172.3" width="12.2" height="24.65" shape-rendering="crispEdges"/><rect fill="#ffffff" x="61" y="172.3" width="48.8" height="24.65" shape-rendering="crispEdges"/><rect fill="#ffffff" x="109.8" y="172.3" width="12.2" height="24.65" shape-rendering="crispEdges"/><rect fill="#ffffff" x="122" y="172.3" width="134.2" height="24.65" shape-rendering="crispEdges"/><rect fill="#ffffff" x="256.2" y="172.3" width="12.2" height="24.65" shape-rendering="crispEdges"/><rect fill="#ffffff" x="268.4" y="172.3" width="73.2" height="24.65" shape-rendering="crispEdges"/><rect fill="#ffffff" x="341.6" y="172.3" width="122" height="24.65" shape-rendering="crispEdges"/><rect fill="#ffffff" x="463.6" y="172.3" width="707.6" height="24.65" shape-rendering="crispEdges"/><rect fill="#f6f5f2" x="1171.2" y="172.3" width="48.8" height="24.65" shape-rendering="crispEdges"/><rect fill="#f6f5f2" x="0" y="196.7" width="48.8" height="24.65" shape-rendering="crispEdges"/><rect fill="#ffffff" x="48.8" y="196.7" width="12.2" height="24.65" shape-rendering="crispEdges"/><rect fill="#ffffff" x="61" y="196.7" width="183" height="24.65" shape-rendering="crispEdges"/><rect fill="#ffffff" x="244" y="196.7" width="927.2" height="24.65" shape-rendering="crispEdges"/><rect fill="#f6f5f2" x="1171.2" y="196.7" width="48.8" height="24.65" shape-rendering="crispEdges"/><rect fill="#f6f5f2" x="0" y="221.1" width="48.8" height="24.65" shape-rendering="crispEdges"/><rect fill="#ffffff" x="48.8" y="221.1" width="12.2" height="24.65" shape-rendering="crispEdges"/><rect fill="#ffffff" x="61" y="221.1" width="122" height="24.65" shape-rendering="crispEdges"/><rect fill="#ffffff" x="183" y="221.1" width="988.2" height="24.65" shape-rendering="crispEdges"/><rect fill="#f6f5f2" x="1171.2" y="221.1" width="48.8" height="24.65" shape-rendering="crispEdges"/><rect fill="#f6f5f2" x="0" y="245.5" width="48.8" height="24.65" shape-rendering="crispEdges"/><rect fill="#ffffff" x="48.8" y="245.5" width="12.2" height="24.65" shape-rendering="crispEdges"/><rect fill="#ffffff" x="61" y="245.5" width="61" height="24.65" shape-rendering="crispEdges"/><rect fill="#ffffff" x="122" y="245.5" width="12.2" height="24.65" shape-rendering="crispEdges"/><rect fill="#ffffff" x="134.2" y="245.5" width="73.2" height="24.65" shape-rendering="crispEdges"/><rect fill="#ffffff" x="207.4" y="245.5" width="12.2" height="24.65" shape-rendering="crispEdges"/><rect fill="#ffffff" x="219.6" y="245.5" width="951.6" height="24.65" shape-rendering="crispEdges"/><rect fill="#f6f5f2" x="1171.2" y="245.5" width="48.8" height="24.65" shape-rendering="crispEdges"/><rect fill="#f6f5f2" x="0" y="269.9" width="48.8" height="24.65" shape-rendering="crispEdges"/><rect fill="#ffffff" x="48.8" y="269.9" width="12.2" height="24.65" shape-rendering="crispEdges"/><rect fill="#ffffff" x="61" y="269.9" width="122" height="24.65" shape-rendering="crispEdges"/><rect fill="#ffffff" x="183" y="269.9" width="36.6" height="24.65" shape-rendering="crispEdges"/><rect fill="#ffffff" x="219.6" y="269.9" width="12.2" height="24.65" shape-rendering="crispEdges"/><rect fill="#ffffff" x="231.8" y="269.9" width="12.2" height="24.65" shape-rendering="crispEdges"/><rect fill="#ffffff" x="244" y="269.9" width="12.2" height="24.65" shape-rendering="crispEdges"/><rect fill="#ffffff" x="256.2" y="269.9" width="146.4" height="24.65" shape-rendering="crispEdges"/><rect fill="#ffffff" x="402.6" y="269.9" width="768.6" height="24.65" shape-rendering="crispEdges"/><rect fill="#f6f5f2" x="1171.2" y="269.9" width="48.8" height="24.65" shape-rendering="crispEdges"/><rect fill="#f6f5f2" x="0" y="294.3" width="48.8" height="24.65" shape-rendering="crispEdges"/><rect fill="#ffffff" x="48.8" y="294.3" width="12.2" height="24.65" shape-rendering="crispEdges"/><rect fill="#ffffff" x="61" y="294.3" width="48.8" height="24.65" shape-rendering="crispEdges"/><rect fill="#ffffff" x="109.8" y="294.3" width="36.6" height="24.65" shape-rendering="crispEdges"/><rect fill="#ffffff" x="146.4" y="294.3" width="12.2" height="24.65" shape-rendering="crispEdges"/><rect fill="#ffffff" x="158.6" y="294.3" width="61" height="24.65" shape-rendering="crispEdges"/><rect fill="#ffffff" x="219.6" y="294.3" width="12.2" height="24.65" shape-rendering="crispEdges"/><rect fill="#ffffff" x="231.8" y="294.3" width="48.8" height="24.65" shape-rendering="crispEdges"/><rect fill="#ffffff" x="280.6" y="294.3" width="109.8" height="24.65" shape-rendering="crispEdges"/><rect fill="#ffffff" x="390.4" y="294.3" width="36.6" height="24.65" shape-rendering="crispEdges"/><rect fill="#ffffff" x="427" y="294.3" width="12.2" height="24.65" shape-rendering="crispEdges"/><rect fill="#ffffff" x="439.2" y="294.3" width="12.2" height="24.65" shape-rendering="crispEdges"/><rect fill="#ffffff" x="451.4" y="294.3" width="12.2" height="24.65" shape-rendering="crispEdges"/><rect fill="#ffffff" x="463.6" y="294.3" width="24.4" height="24.65" shape-rendering="crispEdges"/><rect fill="#ffffff" x="488" y="294.3" width="24.4" height="24.65" shape-rendering="crispEdges"/><rect fill="#ffffff" x="512.4" y="294.3" width="24.4" height="24.65" shape-rendering="crispEdges"/><rect fill="#ffffff" x="536.8" y="294.3" width="12.2" height="24.65" shape-rendering="crispEdges"/><rect fill="#ffffff" x="549" y="294.3" width="61" height="24.65" shape-rendering="crispEdges"/><rect fill="#ffffff" x="610" y="294.3" width="12.2" height="24.65" shape-rendering="crispEdges"/><rect fill="#ffffff" x="622.2" y="294.3" width="549" height="24.65" shape-rendering="crispEdges"/><rect fill="#f6f5f2" x="1171.2" y="294.3" width="48.8" height="24.65" shape-rendering="crispEdges"/><rect fill="#f6f5f2" x="0" y="318.7" width="48.8" height="24.65" shape-rendering="crispEdges"/><rect fill="#ffffff" x="48.8" y="318.7" width="12.2" height="24.65" shape-rendering="crispEdges"/><rect fill="#ffffff" x="61" y="318.7" width="97.6" height="24.65" shape-rendering="crispEdges"/><rect fill="#ffffff" x="158.6" y="318.7" width="73.2" height="24.65" shape-rendering="crispEdges"/><rect fill="#ffffff" x="231.8" y="318.7" width="85.4" height="24.65" shape-rendering="crispEdges"/><rect fill="#ffffff" x="317.2" y="318.7" width="12.2" height="24.65" shape-rendering="crispEdges"/><rect fill="#ffffff" x="329.4" y="318.7" width="12.2" height="24.65" shape-rendering="crispEdges"/><rect fill="#ffffff" x="341.6" y="318.7" width="36.6" height="24.65" shape-rendering="crispEdges"/><rect fill="#ffffff" x="378.2" y="318.7" width="12.2" height="24.65" shape-rendering="crispEdges"/><rect fill="#ffffff" x="390.4" y="318.7" width="24.4" height="24.65" shape-rendering="crispEdges"/><rect fill="#ffffff" x="414.8" y="318.7" width="12.2" height="24.65" shape-rendering="crispEdges"/><rect fill="#ffffff" x="427" y="318.7" width="48.8" height="24.65" shape-rendering="crispEdges"/><rect fill="#ffffff" x="475.8" y="318.7" width="12.2" height="24.65" shape-rendering="crispEdges"/><rect fill="#ffffff" x="488" y="318.7" width="61" height="24.65" shape-rendering="crispEdges"/><rect fill="#ffffff" x="549" y="318.7" width="48.8" height="24.65" shape-rendering="crispEdges"/><rect fill="#ffffff" x="597.8" y="318.7" width="12.2" height="24.65" shape-rendering="crispEdges"/><rect fill="#ffffff" x="610" y="318.7" width="36.6" height="24.65" shape-rendering="crispEdges"/><rect fill="#ffffff" x="646.6" y="318.7" width="524.6" height="24.65" shape-rendering="crispEdges"/><rect fill="#f6f5f2" x="1171.2" y="318.7" width="48.8" height="24.65" shape-rendering="crispEdges"/><rect fill="#f6f5f2" x="0" y="343.1" width="48.8" height="24.65" shape-rendering="crispEdges"/><rect fill="#ffffff" x="48.8" y="343.1" width="1122.4" height="24.65" shape-rendering="crispEdges"/><rect fill="#f6f5f2" x="1171.2" y="343.1" width="48.8" height="24.65" shape-rendering="crispEdges"/><rect fill="#f6f5f2" x="0" y="367.5" width="1220" height="24.65" shape-rendering="crispEdges"/><rect fill="#f6f5f2" x="0" y="391.9" width="48.8" height="24.65" shape-rendering="crispEdges"/><rect fill="#f6f5f2" x="48.8" y="391.9" width="109.8" height="24.65" shape-rendering="crispEdges"/><rect fill="#f6f5f2" x="158.6" y="391.9" width="1012.6" height="24.65" shape-rendering="crispEdges"/><rect fill="#f6f5f2" x="1171.2" y="391.9" width="48.8" height="24.65" shape-rendering="crispEdges"/><rect fill="#f6f5f2" x="0" y="416.3" width="36.6" height="24.65" shape-rendering="crispEdges"/><rect fill="#f6f5f2" x="36.6" y="416.3" width="1146.8" height="24.65" shape-rendering="crispEdges"/><rect fill="#f6f5f2" x="1183.4" y="416.3" width="36.6" height="24.65" shape-rendering="crispEdges"/><rect fill="#f6f5f2" x="0" y="440.7" width="36.6" height="24.65" shape-rendering="crispEdges"/><rect fill="#f6f5f2" x="36.6" y="440.7" width="1146.8" height="24.65" shape-rendering="crispEdges"/><rect fill="#f6f5f2" x="1183.4" y="440.7" width="36.6" height="24.65" shape-rendering="crispEdges"/><rect fill="#f6f5f2" x="0" y="465.1" width="36.6" height="24.65" shape-rendering="crispEdges"/><rect fill="#f6f5f2" x="36.6" y="465.1" width="1146.8" height="24.65" shape-rendering="crispEdges"/><rect fill="#f6f5f2" x="1183.4" y="465.1" width="36.6" height="24.65" shape-rendering="crispEdges"/><rect fill="#f6f5f2" x="0" y="489.5" width="36.6" height="24.65" shape-rendering="crispEdges"/><rect fill="#f6f5f2" x="36.6" y="489.5" width="1146.8" height="24.65" shape-rendering="crispEdges"/><rect fill="#f6f5f2" x="1183.4" y="489.5" width="36.6" height="24.65" shape-rendering="crispEdges"/><rect fill="#f6f5f2" x="0" y="513.9" width="36.6" height="24.65" shape-rendering="crispEdges"/><rect fill="#f6f5f2" x="36.6" y="513.9" width="1146.8" height="24.65" shape-rendering="crispEdges"/><rect fill="#f6f5f2" x="1183.4" y="513.9" width="36.6" height="24.65" shape-rendering="crispEdges"/><rect fill="#f6f5f2" x="0" y="538.3" width="36.6" height="24.65" shape-rendering="crispEdges"/><rect fill="#f6f5f2" x="36.6" y="538.3" width="1146.8" height="24.65" shape-rendering="crispEdges"/><rect fill="#f6f5f2" x="1183.4" y="538.3" width="36.6" height="24.65" shape-rendering="crispEdges"/><rect fill="#f6f5f2" x="0" y="562.7" width="36.6" height="24.65" shape-rendering="crispEdges"/><rect fill="#f6f5f2" x="36.6" y="562.7" width="1146.8" height="24.65" shape-rendering="crispEdges"/><rect fill="#f6f5f2" x="1183.4" y="562.7" width="36.6" height="24.65" shape-rendering="crispEdges"/><rect fill="#f6f5f2" x="0" y="587.1" width="36.6" height="24.65" shape-rendering="crispEdges"/><rect fill="#f6f5f2" x="36.6" y="587.1" width="1146.8" height="24.65" shape-rendering="crispEdges"/><rect fill="#f6f5f2" x="1183.4" y="587.1" width="36.6" height="24.65" shape-rendering="crispEdges"/><rect fill="#f6f5f2" x="0" y="611.5" width="36.6" height="24.65" shape-rendering="crispEdges"/><rect fill="#f6f5f2" x="36.6" y="611.5" width="1146.8" height="24.65" shape-rendering="crispEdges"/><rect fill="#f6f5f2" x="1183.4" y="611.5" width="36.6" height="24.65" shape-rendering="crispEdges"/><rect fill="#f6f5f2" x="0" y="635.9" width="36.6" height="24.65" shape-rendering="crispEdges"/><rect fill="#f6f5f2" x="36.6" y="635.9" width="1146.8" height="24.65" shape-rendering="crispEdges"/><rect fill="#f6f5f2" x="1183.4" y="635.9" width="36.6" height="24.65" shape-rendering="crispEdges"/><rect fill="#f6f5f2" x="0" y="660.3" width="1220" height="24.65" shape-rendering="crispEdges"/><rect fill="#f6f5f2" x="0" y="684.7" width="36.6" height="24.65" shape-rendering="crispEdges"/><rect fill="#ffffff" x="36.6" y="684.7" width="1146.8" height="24.65" shape-rendering="crispEdges"/><rect fill="#f6f5f2" x="1183.4" y="684.7" width="36.6" height="24.65" shape-rendering="crispEdges"/><rect fill="#f6f5f2" x="0" y="709.1" width="36.6" height="24.65" shape-rendering="crispEdges"/><rect fill="#ffffff" x="36.6" y="709.1" width="24.4" height="24.65" shape-rendering="crispEdges"/><rect fill="#ffffff" x="61" y="709.1" width="0" height="24.65" shape-rendering="crispEdges"/><rect fill="#262320" x="61" y="709.1" width="12.2" height="24.65" shape-rendering="crispEdges"/><rect fill="#ffffff" x="73.2" y="709.1" width="976" height="24.65" shape-rendering="crispEdges"/><rect fill="#ffffff" x="1049.2" y="709.1" width="12.2" height="24.65" shape-rendering="crispEdges"/><rect fill="#ffffff" x="1061.4" y="709.1" width="97.6" height="24.65" shape-rendering="crispEdges"/><rect fill="#ffffff" x="1159" y="709.1" width="24.4" height="24.65" shape-rendering="crispEdges"/><rect fill="#f6f5f2" x="1183.4" y="709.1" width="36.6" height="24.65" shape-rendering="crispEdges"/><rect fill="#f6f5f2" x="0" y="733.5" width="36.6" height="24.65" shape-rendering="crispEdges"/><rect fill="#ffffff" x="36.6" y="733.5" width="1146.8" height="24.65" shape-rendering="crispEdges"/><rect fill="#f6f5f2" x="1183.4" y="733.5" width="36.6" height="24.65" shape-rendering="crispEdges"/><rect fill="#f6f5f2" x="0" y="757.9" width="48.8" height="24.65" shape-rendering="crispEdges"/><rect fill="#f6f5f2" x="48.8" y="757.9" width="536.8" height="24.65" shape-rendering="crispEdges"/><rect fill="#f6f5f2" x="585.6" y="757.9" width="36.6" height="24.65" shape-rendering="crispEdges"/><rect fill="#f6f5f2" x="622.2" y="757.9" width="48.8" height="24.65" shape-rendering="crispEdges"/><rect fill="#f6f5f2" x="671" y="757.9" width="36.6" height="24.65" shape-rendering="crispEdges"/><rect fill="#f6f5f2" x="707.6" y="757.9" width="97.6" height="24.65" shape-rendering="crispEdges"/><rect fill="#f6f5f2" x="805.2" y="757.9" width="48.8" height="24.65" shape-rendering="crispEdges"/><rect fill="#f6f5f2" x="854" y="757.9" width="85.4" height="24.65" shape-rendering="crispEdges"/><rect fill="#f6f5f2" x="939.4" y="757.9" width="231.8" height="24.65" shape-rendering="crispEdges"/><rect fill="#f6f5f2" x="1171.2" y="757.9" width="48.8" height="24.65" shape-rendering="crispEdges"/>
    <g class="terminal-2378124978-matrix">
    <text class="terminal-2378124978-r2" x="36.6" y="20" textLength="61" clip-path="url(#terminal-2378124978-line-0)">NEURO</text><text class="terminal-2378124978-r3" x="97.6" y="20" textLength="85.4" clip-path="url(#terminal-2378124978-line-0)">&#160;/&#160;CODE</text><text class="terminal-2378124978-r3" x="1122.4" y="20" textLength="61" clip-path="url(#terminal-2378124978-line-0)">13:37</text><text class="terminal-2378124978-r1" x="1220" y="20" textLength="12.2" clip-path="url(#terminal-2378124978-line-0)">
</text><text class="terminal-2378124978-r1" x="1220" y="44.4" textLength="12.2" clip-path="url(#terminal-2378124978-line-1)">
</text><text class="terminal-2378124978-r4" x="48.8" y="68.8" textLength="134.2" clip-path="url(#terminal-2378124978-line-2)">Review&#160;/&#160;审查</text><text class="terminal-2378124978-r1" x="1220" y="68.8" textLength="12.2" clip-path="url(#terminal-2378124978-line-2)">
</text><text class="terminal-2378124978-r1" x="1220" y="93.2" textLength="12.2" clip-path="url(#terminal-2378124978-line-3)">
</text><text class="terminal-2378124978-r5" x="48.8" y="117.6" textLength="366" clip-path="url(#terminal-2378124978-line-4)">Ordinary&#160;prose&#160;stays&#160;neutral.&#160;</text><text class="terminal-2378124978-r6" x="414.8" y="117.6" textLength="109.8" clip-path="url(#terminal-2378124978-line-4)">AGENTS.md</text><text class="terminal-2378124978-r5" x="524.6" y="117.6" textLength="646.6" clip-path="url(#terminal-2378124978-line-4)">&#160;remains&#160;foreground-only.&#160;&#160;&#160;&#160;&#160;&#160;&#160;&#160;&#160;&#160;&#160;&#160;&#160;&#160;&#160;&#160;&#160;&#160;&#160;&#160;&#160;&#160;&#160;&#160;&#160;&#160;&#160;&#160;</text><text class="terminal-2378124978-r1" x="1220" y="117.6" textLength="12.2" clip-path="url(#terminal-2378124978-line-4)">
</text><text class="terminal-2378124978-r1" x="1220" y="142" textLength="12.2" clip-path="url(#terminal-2378124978-line-5)">
</text><text class="terminal-2378124978-r1" x="1220" y="166.4" textLength="12.2" clip-path="url(#terminal-2378124978-line-6)">
</text><text class="terminal-2378124978-r7" x="61" y="190.8" textLength="48.8" clip-path="url(#terminal-2378124978-line-7)">from</text><text class="terminal-2378124978-r9" x="122" y="190.8" textLength="134.2" clip-path="url(#terminal-2378124978-line-7)">dataclasses</text><text class="terminal-2378124978-r7" x="268.4" y="190.8" textLength="73.2" clip-path="url(#terminal-2378124978-line-7)">import</text><text class="terminal-2378124978-r5" x="341.6" y="190.8" textLength="122" clip-path="url(#terminal-2378124978-line-7)">&#160;dataclass</text><text class="terminal-2378124978-r1" x="1220" y="190.8" textLength="12.2" clip-path="url(#terminal-2378124978-line-7)">
</text><text class="terminal-2378124978-r10" x="61" y="215.2" textLength="158.6" clip-path="url(#terminal-2378124978-line-8)">#&#160;审查&#160;/&#160;review</text><text class="terminal-2378124978-r1" x="1220" y="215.2" textLength="12.2" clip-path="url(#terminal-2378124978-line-8)">
</text><text class="terminal-2378124978-r11" x="61" y="239.6" textLength="122" clip-path="url(#terminal-2378124978-line-9)">@dataclass</text><text class="terminal-2378124978-r1" x="1220" y="239.6" textLength="12.2" clip-path="url(#terminal-2378124978-line-9)">
</text><text class="terminal-2378124978-r7" x="61" y="264" textLength="61" clip-path="url(#terminal-2378124978-line-10)">class</text><text class="terminal-2378124978-r9" x="134.2" y="264" textLength="73.2" clip-path="url(#terminal-2378124978-line-10)">Report</text><text class="terminal-2378124978-r5" x="207.4" y="264" textLength="12.2" clip-path="url(#terminal-2378124978-line-10)">:</text><text class="terminal-2378124978-r1" x="1220" y="264" textLength="12.2" clip-path="url(#terminal-2378124978-line-10)">
</text><text class="terminal-2378124978-r5" x="61" y="288.4" textLength="122" clip-path="url(#terminal-2378124978-line-11)">&#160;&#160;&#160;&#160;path:&#160;</text><text class="terminal-2378124978-r7" x="183" y="288.4" textLength="36.6" clip-path="url(#terminal-2378124978-line-11)">str</text><text class="terminal-2378124978-r12" x="231.8" y="288.4" textLength="12.2" clip-path="url(#terminal-2378124978-line-11)">=</text><text class="terminal-2378124978-r13" x="256.2" y="288.4" textLength="146.4" clip-path="url(#terminal-2378124978-line-11)">&quot;src/app.py&quot;</text><text class="terminal-2378124978-r1" x="1220" y="288.4" textLength="12.2" clip-path="url(#terminal-2378124978-line-11)">
</text><text class="terminal-2378124978-r7" x="109.8" y="312.8" textLength="36.6" clip-path="url(#terminal-2378124978-line-12)">def</text><text class="terminal-2378124978-r14" x="158.6" y="312.8" textLength="61" clip-path="url(#terminal-2378124978-line-12)">score</text><text class="terminal-2378124978-r5" x="219.6" y="312.8" textLength="12.2" clip-path="url(#terminal-2378124978-line-12)">(</text><text class="terminal-2378124978-r7" x="231.8" y="312.8" textLength="48.8" clip-path="url(#terminal-2378124978-line-12)">self</text><text class="terminal-2378124978-r5" x="280.6" y="312.8" textLength="109.8" clip-path="url(#terminal-2378124978-line-12)">,&#160;count:&#160;</text><text class="terminal-2378124978-r7" x="390.4" y="312.8" textLength="36.6" clip-path="url(#terminal-2378124978-line-12)">int</text><text class="terminal-2378124978-r12" x="439.2" y="312.8" textLength="12.2" clip-path="url(#terminal-2378124978-line-12)">=</text><text class="terminal-2378124978-r15" x="463.6" y="312.8" textLength="24.4" clip-path="url(#terminal-2378124978-line-12)">42</text><text class="terminal-2378124978-r5" x="488" y="312.8" textLength="24.4" clip-path="url(#terminal-2378124978-line-12)">)&#160;</text><text class="terminal-2378124978-r12" x="512.4" y="312.8" textLength="24.4" clip-path="url(#terminal-2378124978-line-12)">-&gt;</text><text class="terminal-2378124978-r7" x="549" y="312.8" textLength="61" clip-path="url(#terminal-2378124978-line-12)">float</text><text class="terminal-2378124978-r5" x="610" y="312.8" textLength="12.2" clip-path="url(#terminal-2378124978-line-12)">:</text><text class="terminal-2378124978-r1" x="1220" y="312.8" textLength="12.2" clip-path="url(#terminal-2378124978-line-12)">
</text><text class="terminal-2378124978-r7" x="158.6" y="337.2" textLength="73.2" clip-path="url(#terminal-2378124978-line-13)">return</text><text class="terminal-2378124978-r5" x="231.8" y="337.2" textLength="85.4" clip-path="url(#terminal-2378124978-line-13)">&#160;count&#160;</text><text class="terminal-2378124978-r12" x="317.2" y="337.2" textLength="12.2" clip-path="url(#terminal-2378124978-line-13)">/</text><text class="terminal-2378124978-r15" x="341.6" y="337.2" textLength="36.6" clip-path="url(#terminal-2378124978-line-13)">2.0</text><text class="terminal-2378124978-r7" x="390.4" y="337.2" textLength="24.4" clip-path="url(#terminal-2378124978-line-13)">if</text><text class="terminal-2378124978-r7" x="427" y="337.2" textLength="48.8" clip-path="url(#terminal-2378124978-line-13)">self</text><text class="terminal-2378124978-r12" x="475.8" y="337.2" textLength="12.2" clip-path="url(#terminal-2378124978-line-13)">.</text><text class="terminal-2378124978-r5" x="488" y="337.2" textLength="61" clip-path="url(#terminal-2378124978-line-13)">path&#160;</text><text class="terminal-2378124978-r7" x="549" y="337.2" textLength="48.8" clip-path="url(#terminal-2378124978-line-13)">else</text><text class="terminal-2378124978-r15" x="610" y="337.2" textLength="36.6" clip-path="url(#terminal-2378124978-line-13)">0.0</text><text class="terminal-2378124978-r1" x="1220" y="337.2" textLength="12.2" clip-path="url(#terminal-2378124978-line-13)">
</text><text class="terminal-2378124978-r1" x="1220" y="361.6" textLength="12.2" clip-path="url(#terminal-2378124978-line-14)">
</text><text class="terminal-2378124978-r1" x="1220" y="386" textLength="12.2" clip-path="url(#terminal-2378124978-line-15)">
</text><text class="terminal-2378124978-r16" x="48.8" y="410.4" textLength="109.8" clip-path="url(#terminal-2378124978-line-16)">Evidence:</text><text class="terminal-2378124978-r5" x="158.6" y="410.4" textLength="1012.6" clip-path="url(#terminal-2378124978-line-16)">&#160;the&#160;code&#160;palette&#160;is&#160;independent&#160;of&#160;the&#160;UI&#160;palette.&#160;&#160;&#160;&#160;&#160;&#160;&#160;&#160;&#160;&#160;&#160;&#160;&#160;&#160;&#160;&#160;&#160;&#160;&#160;&#160;&#160;&#160;&#160;&#160;&#160;&#160;&#160;&#160;&#160;&#160;&#160;&#160;</text><text class="terminal-2378124978-r1" x="1220" y="410.4" textLength="12.2" clip-path="url(#terminal-2378124978-line-16)">
</text><text class="terminal-2378124978-r1" x="1220" y="434.8" textLength="12.2" clip-path="url(#terminal-2378124978-line-17)">
</text><text class="terminal-2378124978-r1" x="1220" y="459.2" textLength="12.2" clip-path="url(#terminal-2378124978-line-18)">
</text><text class="terminal-2378124978-r1" x="1220" y="483.6" textLength="12.2" clip-path="url(#terminal-2378124978-line-19)">
</text><text class="terminal-2378124978-r1" x="1220" y="508" textLength="12.2" clip-path="url(#terminal-2378124978-line-20)">
</text><text class="terminal-2378124978-r1" x="1220" y="532.4" textLength="12.2" clip-path="url(#terminal-2378124978-line-21)">
</text><text class="terminal-2378124978-r1" x="1220" y="556.8" textLength="12.2" clip-path="url(#terminal-2378124978-line-22)">
</text><text class="terminal-2378124978-r1" x="1220" y="581.2" textLength="12.2" clip-path="url(#terminal-2378124978-line-23)">
</text><text class="terminal-2378124978-r1" x="1220" y="605.6" textLength="12.2" clip-path="url(#terminal-2378124978-line-24)">
</text><text class="terminal-2378124978-r1" x="1220" y="630" textLength="12.2" clip-path="url(#terminal-2378124978-line-25)">
</text><text class="terminal-2378124978-r1" x="1220" y="654.4" textLength="12.2" clip-path="url(#terminal-2378124978-line-26)">
</text><text class="terminal-2378124978-r1" x="1220" y="678.8" textLength="12.2" clip-path="url(#terminal-2378124978-line-27)">
</text><text class="terminal-2378124978-r1" x="1220" y="703.2" textLength="12.2" clip-path="url(#terminal-2378124978-line-28)">
</text><text class="terminal-2378124978-r17" x="61" y="727.6" textLength="12.2" clip-path="url(#terminal-2378124978-line-29)">W</text><text class="terminal-2378124978-r2" x="73.2" y="727.6" textLength="976" clip-path="url(#terminal-2378124978-line-29)">hat&#160;shall&#160;we&#160;work&#160;on&#160;next?&#160;&#160;&#160;&#160;&#160;&#160;&#160;&#160;&#160;&#160;&#160;&#160;&#160;&#160;&#160;&#160;&#160;&#160;&#160;&#160;&#160;&#160;&#160;&#160;&#160;&#160;&#160;&#160;&#160;&#160;&#160;&#160;&#160;&#160;&#160;&#160;&#160;&#160;&#160;&#160;&#160;&#160;&#160;&#160;&#160;&#160;&#160;&#160;&#160;&#160;&#160;&#160;&#160;&#160;</text><text class="terminal-2378124978-r4" x="1061.4" y="727.6" textLength="97.6" clip-path="url(#terminal-2378124978-line-29)">&#160;Send&#160;↑&#160;</text><text class="terminal-2378124978-r1" x="1220" y="727.6" textLength="12.2" clip-path="url(#terminal-2378124978-line-29)">
</text><text class="terminal-2378124978-r1" x="1220" y="752" textLength="12.2" clip-path="url(#terminal-2378124978-line-30)">
</text><text class="terminal-2378124978-r6" x="48.8" y="776.4" textLength="536.8" clip-path="url(#terminal-2378124978-line-31)">fixture-model&#160;&#160;&#160;&#160;&#160;&#160;&#160;&#160;&#160;&#160;&#160;&#160;&#160;&#160;&#160;&#160;&#160;&#160;&#160;&#160;&#160;&#160;&#160;&#160;&#160;&#160;&#160;&#160;&#160;&#160;&#160;</text><text class="terminal-2378124978-r18" x="585.6" y="776.4" textLength="36.6" clip-path="url(#terminal-2378124978-line-31)">&#160;·&#160;</text><text class="terminal-2378124978-r19" x="622.2" y="776.4" textLength="48.8" clip-path="url(#terminal-2378124978-line-31)">high</text><text class="terminal-2378124978-r18" x="671" y="776.4" textLength="36.6" clip-path="url(#terminal-2378124978-line-31)">&#160;·&#160;</text><text class="terminal-2378124978-r19" x="707.6" y="776.4" textLength="97.6" clip-path="url(#terminal-2378124978-line-31)">normal&#160;&#160;</text><text class="terminal-2378124978-r3" x="805.2" y="776.4" textLength="48.8" clip-path="url(#terminal-2378124978-line-31)">ctx&#160;</text><text class="terminal-2378124978-r19" x="854" y="776.4" textLength="85.4" clip-path="url(#terminal-2378124978-line-31)">≈0&#160;tok&#160;</text><text class="terminal-2378124978-r3" x="939.4" y="776.4" textLength="231.8" clip-path="url(#terminal-2378124978-line-31)">/workspace/neuro-c…</text>
    </g>
    </g>
</svg>
