<svg class="rich-terminal" viewBox="0 0 994 635.5999999999999" xmlns="http://www.w3.org/2000/svg">
    <!-- Generated with Rich https://www.textualize.io -->
    <style>

    @font-face {
        font-family: "Fira Code";
        src: local("FiraCode-Regular"),
                url("https://cdnjs.cloudflare.com/ajax/libs/firacode/6.2.0/woff2/FiraCode-Regular.woff2") format("woff2"),
                url("https://cdnjs.cloudflare.com/ajax/libs/firacode/6.2.0/woff/FiraCode-Regular.woff") format("woff");
        font-style: normal;
        font-weight: 400;
    }
    @font-face {
        font-family: "Fira Code";
        src: local("FiraCode-Bold"),
                url("https://cdnjs.cloudflare.com/ajax/libs/firacode/6.2.0/woff2/FiraCode-Bold.woff2") format("woff2"),
                url("https://cdnjs.cloudflare.com/ajax/libs/firacode/6.2.0/woff/FiraCode-Bold.woff") format("woff");
        font-style: bold;
        font-weight: 700;
    }

    .terminal-3200217207-matrix {
        font-family: Fira Code, monospace;
        font-size: 20px;
        line-height: 24.4px;
        font-variant-east-asian: full-width;
    }

    .terminal-3200217207-title {
        font-size: 18px;
        font-weight: bold;
        font-family: arial;
    }

    .terminal-3200217207-r1 { fill: #262320 }
.terminal-3200217207-r2 { fill: #262323 }
.terminal-3200217207-r3 { fill: #585250 }
.terminal-3200217207-r4 { fill: #c5c8c6 }
.terminal-3200217207-r5 { fill: #92887e }
.terminal-3200217207-r6 { fill: #2c2929 }
.terminal-3200217207-r7 { fill: #68625c }
.terminal-3200217207-r8 { fill: #ffffff }
.terminal-3200217207-r9 { fill: #8d8b89 }
.terminal-3200217207-r10 { fill: #f6f5f2 }
.terminal-3200217207-r11 { fill: #007020 }
.terminal-3200217207-r12 { fill: #767676 }
.terminal-3200217207-r13 { fill: #0d7fae }
.terminal-3200217207-r14 { fill: #2e2b28 }
.terminal-3200217207-r15 { fill: #4c7e8b;font-style: italic; }
.terminal-3200217207-r16 { fill: #555555 }
.terminal-3200217207-r17 { fill: #c9c8ca }
.terminal-3200217207-r18 { fill: #625276 }
.terminal-3200217207-r19 { fill: #413c3a }
.terminal-3200217207-r20 { fill: #6b6663 }
.terminal-3200217207-r21 { fill: #4c4746 }
    </style>

    <defs>
    <clipPath id="terminal-3200217207-clip-terminal">
      <rect x="0" y="0" width="975.0" height="584.5999999999999" />
    </clipPath>
    <clipPath id="terminal-3200217207-line-0">
    <rect x="0" y="1.5" width="976" height="24.65"/>
            </clipPath>
<clipPath id="terminal-3200217207-line-1">
    <rect x="0" y="25.9" width="976" height="24.65"/>
            </clipPath>
<clipPath id="terminal-3200217207-line-2">
    <rect x="0" y="50.3" width="976" height="24.65"/>
            </clipPath>
<clipPath id="terminal-3200217207-line-3">
    <rect x="0" y="74.7" width="976" height="24.65"/>
            </clipPath>
<clipPath id="terminal-3200217207-line-4">
    <rect x="0" y="99.1" width="976" height="24.65"/>
            </clipPath>
<clipPath id="terminal-3200217207-line-5">
    <rect x="0" y="123.5" width="976" height="24.65"/>
            </clipPath>
<clipPath id="terminal-3200217207-line-6">
    <rect x="0" y="147.9" width="976" height="24.65"/>
            </clipPath>
<clipPath id="terminal-3200217207-line-7">
    <rect x="0" y="172.3" width="976" height="24.65"/>
            </clipPath>
<clipPath id="terminal-3200217207-line-8">
    <rect x="0" y="196.7" width="976" height="24.65"/>
            </clipPath>
<clipPath id="terminal-3200217207-line-9">
    <rect x="0" y="221.1" width="976" height="24.65"/>
            </clipPath>
<clipPath id="terminal-3200217207-line-10">
    <rect x="0" y="245.5" width="976" height="24.65"/>
            </clipPath>
<clipPath id="terminal-3200217207-line-11">
    <rect x="0" y="269.9" width="976" height="24.65"/>
            </clipPath>
<clipPath id="terminal-3200217207-line-12">
    <rect x="0" y="294.3" width="976" height="24.65"/>
            </clipPath>
<clipPath id="terminal-3200217207-line-13">
    <rect x="0" y="318.7" width="976" height="24.65"/>
            </clipPath>
<clipPath id="terminal-3200217207-line-14">
    <rect x="0" y="343.1" width="976" height="24.65"/>
            </clipPath>
<clipPath id="terminal-3200217207-line-15">
    <rect x="0" y="367.5" width="976" height="24.65"/>
            </clipPath>
<clipPath id="terminal-3200217207-line-16">
    <rect x="0" y="391.9" width="976" height="24.65"/>
            </clipPath>
<clipPath id="terminal-3200217207-line-17">
    <rect x="0" y="416.3" width="976" height="24.65"/>
            </clipPath>
<clipPath id="terminal-3200217207-line-18">
    <rect x="0" y="440.7" width="976" height="24.65"/>
            </clipPath>
<clipPath id="terminal-3200217207-line-19">
    <rect x="0" y="465.1" width="976" height="24.65"/>
            </clipPath>
<clipPath id="terminal-3200217207-line-20">
    <rect x="0" y="489.5" width="976" height="24.65"/>
            </clipPath>
<clipPath id="terminal-3200217207-line-21">
    <rect x="0" y="513.9" width="976" height="24.65"/>
            </clipPath>
<clipPath id="terminal-3200217207-line-22">
    <rect x="0" y="538.3" width="976" height="24.65"/>
            </clipPath>
    </defs>

    <rect fill="#292929" stroke="rgba(255,255,255,0.35)" stroke-width="1" x="1" y="1" width="992" height="633.6" rx="8"/><text class="terminal-3200217207-title" fill="#c5c8c6" text-anchor="middle" x="496" y="27">Neuro&#160;Code&#160;visual&#160;baseline</text>
            <g transform="translate(26,22)">
            <circle cx="0" cy="0" r="7" fill="#ff5f57"/>
            <circle cx="22" cy="0" r="7" fill="#febc2e"/>
            <circle cx="44" cy="0" r="7" fill="#28c840"/>
            </g>

    <g transform="translate(9, 41)" clip-path="url(#terminal-3200217207-clip-terminal)">
    <rect fill="#c2c1c1" x="0" y="1.5" width="24.4" height="24.65" shape-rendering="crispEdges"/><rect fill="#c2c1c1" x="24.4" y="1.5" width="61" height="24.65" shape-rendering="crispEdges"/><rect fill="#c2c1c1" x="85.4" y="1.5" width="85.4" height="24.65" shape-rendering="crispEdges"/><rect fill="#c2c1c1" x="170.8" y="1.5" width="0" height="24.65" shape-rendering="crispEdges"/><rect fill="#c2c1c1" x="170.8" y="1.5" width="719.8" height="24.65" shape-rendering="crispEdges"/><rect fill="#c2c1c1" x="890.6" y="1.5" width="61" height="24.65" shape-rendering="crispEdges"/><rect fill="#c2c1c1" x="951.6" y="1.5" width="24.4" height="24.65" shape-rendering="crispEdges"/><rect fill="#c2c1c1" x="0" y="25.9" width="61" height="24.65" shape-rendering="crispEdges"/><rect fill="#ffffff" x="61" y="25.9" width="854" height="24.65" shape-rendering="crispEdges"/><rect fill="#c2c1c1" x="915" y="25.9" width="61" height="24.65" shape-rendering="crispEdges"/><rect fill="#c2c1c1" x="0" y="50.3" width="12.2" height="24.65" shape-rendering="crispEdges"/><rect fill="#c2c1c1" x="12.2" y="50.3" width="48.8" height="24.65" shape-rendering="crispEdges"/><rect fill="#ffffff" x="61" y="50.3" width="12.2" height="24.65" shape-rendering="crispEdges"/><rect fill="#ffffff" x="73.2" y="50.3" width="829.6" height="24.65" shape-rendering="crispEdges"/><rect fill="#ffffff" x="902.8" y="50.3" width="12.2" height="24.65" shape-rendering="crispEdges"/><rect fill="#c2c1c1" x="915" y="50.3" width="48.8" height="24.65" shape-rendering="crispEdges"/><rect fill="#c2c1c1" x="963.8" y="50.3" width="12.2" height="24.65" shape-rendering="crispEdges"/><rect fill="#c2c1c1" x="0" y="74.7" width="12.2" height="24.65" shape-rendering="crispEdges"/><rect fill="#c2c1c1" x="12.2" y="74.7" width="48.8" height="24.65" shape-rendering="crispEdges"/><rect fill="#ffffff" x="61" y="74.7" width="12.2" height="24.65" shape-rendering="crispEdges"/><rect fill="#ffffff" x="73.2" y="74.7" width="24.4" height="24.65" shape-rendering="crispEdges"/><rect fill="#ffffff" x="97.6" y="74.7" width="780.8" height="24.65" shape-rendering="crispEdges"/><rect fill="#ffffff" x="878.4" y="74.7" width="24.4" height="24.65" shape-rendering="crispEdges"/><rect fill="#ffffff" x="902.8" y="74.7" width="12.2" height="24.65" shape-rendering="crispEdges"/><rect fill="#c2c1c1" x="915" y="74.7" width="48.8" height="24.65" shape-rendering="crispEdges"/><rect fill="#c2c1c1" x="963.8" y="74.7" width="12.2" height="24.65" shape-rendering="crispEdges"/><rect fill="#c2c1c1" x="0" y="99.1" width="12.2" height="24.65" shape-rendering="crispEdges"/><rect fill="#c2c1c1" x="12.2" y="99.1" width="48.8" height="24.65" shape-rendering="crispEdges"/><rect fill="#ffffff" x="61" y="99.1" width="12.2" height="24.65" shape-rendering="crispEdges"/><rect fill="#ffffff" x="73.2" y="99.1" width="24.4" height="24.65" shape-rendering="crispEdges"/><rect fill="#ffffff" x="97.6" y="99.1" width="780.8" height="24.65" shape-rendering="crispEdges"/><rect fill="#ffffff" x="878.4" y="99.1" width="24.4" height="24.65" shape-rendering="crispEdges"/><rect fill="#ffffff" x="902.8" y="99.1" width="12.2" height="24.65" shape-rendering="crispEdges"/><rect fill="#c2c1c1" x="915" y="99.1" width="48.8" height="24.65" shape-rendering="crispEdges"/><rect fill="#c2c1c1" x="963.8" y="99.1" width="12.2" height="24.65" shape-rendering="crispEdges"/><rect fill="#c2c1c1" x="0" y="123.5" width="12.2" height="24.65" shape-rendering="crispEdges"/><rect fill="#c2c1c1" x="12.2" y="123.5" width="48.8" height="24.65" shape-rendering="crispEdges"/><rect fill="#ffffff" x="61" y="123.5" width="12.2" height="24.65" shape-rendering="crispEdges"/><rect fill="#ffffff" x="73.2" y="123.5" width="24.4" height="24.65" shape-rendering="crispEdges"/><rect fill="#ffffff" x="97.6" y="123.5" width="707.6" height="24.65" shape-rendering="crispEdges"/><rect fill="#ffffff" x="805.2" y="123.5" width="61" height="24.65" shape-rendering="crispEdges"/><rect fill="#92887e" x="866.2" y="123.5" width="12.2" height="24.65" shape-rendering="crispEdges"/><rect fill="#ffffff" x="878.4" y="123.5" width="24.4" height="24.65" shape-rendering="crispEdges"/><rect fill="#ffffff" x="902.8" y="123.5" width="12.2" height="24.65" shape-rendering="crispEdges"/><rect fill="#c2c1c1" x="915" y="123.5" width="48.8" height="24.65" shape-rendering="crispEdges"/><rect fill="#c2c1c1" x="963.8" y="123.5" width="12.2" height="24.65" shape-rendering="crispEdges"/><rect fill="#c2c1c1" x="0" y="147.9" width="12.2" height="24.65" shape-rendering="crispEdges"/><rect fill="#c2c1c1" x="12.2" y="147.9" width="48.8" height="24.65" shape-rendering="crispEdges"/><rect fill="#ffffff" x="61" y="147.9" width="12.2" height="24.65" shape-rendering="crispEdges"/><rect fill="#ffffff" x="73.2" y="147.9" width="24.4" height="24.65" shape-rendering="crispEdges"/><rect fill="#ffffff" x="97.6" y="147.9" width="219.6" height="24.65" shape-rendering="crispEdges"/><rect fill="#ffffff" x="317.2" y="147.9" width="549" height="24.65" shape-rendering="crispEdges"/><rect fill="#92887e" x="866.2" y="147.9" width="12.2" height="24.65" shape-rendering="crispEdges"/><rect fill="#ffffff" x="878.4" y="147.9" width="24.4" height="24.65" shape-rendering="crispEdges"/><rect fill="#ffffff" x="902.8" y="147.9" width="12.2" height="24.65" shape-rendering="crispEdges"/><rect fill="#c2c1c1" x="915" y="147.9" width="48.8" height="24.65" shape-rendering="crispEdges"/><rect fill="#c2c1c1" x="963.8" y="147.9" width="12.2" height="24.65" shape-rendering="crispEdges"/><rect fill="#c2c1c1" x="0" y="172.3" width="12.2" height="24.65" shape-rendering="crispEdges"/><rect fill="#c2c1c1" x="12.2" y="172.3" width="48.8" height="24.65" shape-rendering="crispEdges"/><rect fill="#ffffff" x="61" y="172.3" width="12.2" height="24.65" shape-rendering="crispEdges"/><rect fill="#ffffff" x="73.2" y="172.3" width="24.4" height="24.65" shape-rendering="crispEdges"/><rect fill="#ffffff" x="97.6" y="172.3" width="768.6" height="24.65" shape-rendering="crispEdges"/><rect fill="#92887e" x="866.2" y="172.3" width="12.2" height="24.65" shape-rendering="crispEdges"/><rect fill="#ffffff" x="878.4" y="172.3" width="24.4" height="24.65" shape-rendering="crispEdges"/><rect fill="#ffffff" x="902.8" y="172.3" width="12.2" height="24.65" shape-rendering="crispEdges"/><rect fill="#c2c1c1" x="915" y="172.3" width="48.8" height="24.65" shape-rendering="crispEdges"/><rect fill="#c2c1c1" x="963.8" y="172.3" width="12.2" height="24.65" shape-rendering="crispEdges"/><rect fill="#c2c1c1" x="0" y="196.7" width="12.2" height="24.65" shape-rendering="crispEdges"/><rect fill="#c2c1c1" x="12.2" y="196.7" width="48.8" height="24.65" shape-rendering="crispEdges"/><rect fill="#ffffff" x="61" y="196.7" width="12.2" height="24.65" shape-rendering="crispEdges"/><rect fill="#ffffff" x="73.2" y="196.7" width="24.4" height="24.65" shape-rendering="crispEdges"/><rect fill="#92887e" x="97.6" y="196.7" width="12.2" height="24.65" shape-rendering="crispEdges"/><rect fill="#f4f4f3" x="109.8" y="196.7" width="744.2" height="24.65" shape-rendering="crispEdges"/><rect fill="#ffffff" x="854" y="196.7" width="12.2" height="24.65" shape-rendering="crispEdges"/><rect fill="#92887e" x="866.2" y="196.7" width="12.2" height="24.65" shape-rendering="crispEdges"/><rect fill="#ffffff" x="878.4" y="196.7" width="24.4" height="24.65" shape-rendering="crispEdges"/><rect fill="#ffffff" x="902.8" y="196.7" width="12.2" height="24.65" shape-rendering="crispEdges"/><rect fill="#c2c1c1" x="915" y="196.7" width="48.8" height="24.65" shape-rendering="crispEdges"/><rect fill="#c2c1c1" x="963.8" y="196.7" width="12.2" height="24.65" shape-rendering="crispEdges"/><rect fill="#c2c1c1" x="0" y="221.1" width="12.2" height="24.65" shape-rendering="crispEdges"/><rect fill="#c2c1c1" x="12.2" y="221.1" width="48.8" height="24.65" shape-rendering="crispEdges"/><rect fill="#ffffff" x="61" y="221.1" width="12.2" height="24.65" shape-rendering="crispEdges"/><rect fill="#ffffff" x="73.2" y="221.1" width="24.4" height="24.65" shape-rendering="crispEdges"/><rect fill="#92887e" x="97.6" y="221.1" width="12.2" height="24.65" shape-rendering="crispEdges"/><rect fill="#f4f4f3" x="109.8" y="221.1" width="24.4" height="24.65" shape-rendering="crispEdges"/><rect fill="#f4f4f3" x="134.2" y="221.1" width="170.8" height="24.65" shape-rendering="crispEdges"/><rect fill="#f4f4f3" x="305" y="221.1" width="512.4" height="24.65" shape-rendering="crispEdges"/><rect fill="#f4f4f3" x="817.4" y="221.1" width="12.2" height="24.65" shape-rendering="crispEdges"/><rect fill="#f4f4f3" x="829.6" y="221.1" width="24.4" height="24.65" shape-rendering="crispEdges"/><rect fill="#ffffff" x="854" y="221.1" width="12.2" height="24.65" shape-rendering="crispEdges"/><rect fill="#92887e" x="866.2" y="221.1" width="12.2" height="24.65" shape-rendering="crispEdges"/><rect fill="#ffffff" x="878.4" y="221.1" width="24.4" height="24.65" shape-rendering="crispEdges"/><rect fill="#ffffff" x="902.8" y="221.1" width="12.2" height="24.65" shape-rendering="crispEdges"/><rect fill="#c2c1c1" x="915" y="221.1" width="48.8" height="24.65" shape-rendering="crispEdges"/><rect fill="#c2c1c1" x="963.8" y="221.1" width="12.2" height="24.65" shape-rendering="crispEdges"/><rect fill="#c2c1c1" x="0" y="245.5" width="12.2" height="24.65" shape-rendering="crispEdges"/><rect fill="#c2c1c1" x="12.2" y="245.5" width="48.8" height="24.65" shape-rendering="crispEdges"/><rect fill="#ffffff" x="61" y="245.5" width="12.2" height="24.65" shape-rendering="crispEdges"/><rect fill="#ffffff" x="73.2" y="245.5" width="24.4" height="24.65" shape-rendering="crispEdges"/><rect fill="#92887e" x="97.6" y="245.5" width="12.2" height="24.65" shape-rendering="crispEdges"/><rect fill="#f4f4f3" x="109.8" y="245.5" width="744.2" height="24.65" shape-rendering="crispEdges"/><rect fill="#ffffff" x="854" y="245.5" width="12.2" height="24.65" shape-rendering="crispEdges"/><rect fill="#92887e" x="866.2" y="245.5" width="12.2" height="24.65" shape-rendering="crispEdges"/><rect fill="#ffffff" x="878.4" y="245.5" width="24.4" height="24.65" shape-rendering="crispEdges"/><rect fill="#ffffff" x="902.8" y="245.5" width="12.2" height="24.65" shape-rendering="crispEdges"/><rect fill="#c2c1c1" x="915" y="245.5" width="48.8" height="24.65" shape-rendering="crispEdges"/><rect fill="#c2c1c1" x="963.8" y="245.5" width="12.2" height="24.65" shape-rendering="crispEdges"/><rect fill="#c2c1c1" x="0" y="269.9" width="12.2" height="24.65" shape-rendering="crispEdges"/><rect fill="#c2c1c1" x="12.2" y="269.9" width="48.8" height="24.65" shape-rendering="crispEdges"/><rect fill="#ffffff" x="61" y="269.9" width="12.2" height="24.65" shape-rendering="crispEdges"/><rect fill="#ffffff" x="73.2" y="269.9" width="24.4" height="24.65" shape-rendering="crispEdges"/><rect fill="#ffffff" x="97.6" y="269.9" width="768.6" height="24.65" shape-rendering="crispEdges"/><rect fill="#92887e" x="866.2" y="269.9" width="12.2" height="24.65" shape-rendering="crispEdges"/><rect fill="#ffffff" x="878.4" y="269.9" width="24.4" height="24.65" shape-rendering="crispEdges"/><rect fill="#ffffff" x="902.8" y="269.9" width="12.2" height="24.65" shape-rendering="crispEdges"/><rect fill="#c2c1c1" x="915" y="269.9" width="48.8" height="24.65" shape-rendering="crispEdges"/><rect fill="#c2c1c1" x="963.8" y="269.9" width="12.2" height="24.65" shape-rendering="crispEdges"/><rect fill="#c2c1c1" x="0" y="294.3" width="12.2" height="24.65" shape-rendering="crispEdges"/><rect fill="#c2c1c1" x="12.2" y="294.3" width="48.8" height="24.65" shape-rendering="crispEdges"/><rect fill="#ffffff" x="61" y="294.3" width="12.2" height="24.65" shape-rendering="crispEdges"/><rect fill="#ffffff" x="73.2" y="294.3" width="24.4" height="24.65" shape-rendering="crispEdges"/><rect fill="#ffffff" x="97.6" y="294.3" width="744.2" height="24.65" shape-rendering="crispEdges"/><rect fill="#ffffff" x="841.8" y="294.3" width="24.4" height="24.65" shape-rendering="crispEdges"/><rect fill="#92887e" x="866.2" y="294.3" width="12.2" height="24.65" shape-rendering="crispEdges"/><rect fill="#ffffff" x="878.4" y="294.3" width="24.4" height="24.65" shape-rendering="crispEdges"/><rect fill="#ffffff" x="902.8" y="294.3" width="12.2" height="24.65" shape-rendering="crispEdges"/><rect fill="#c2c1c1" x="915" y="294.3" width="48.8" height="24.65" shape-rendering="crispEdges"/><rect fill="#c2c1c1" x="963.8" y="294.3" width="12.2" height="24.65" shape-rendering="crispEdges"/><rect fill="#c2c1c1" x="0" y="318.7" width="12.2" height="24.65" shape-rendering="crispEdges"/><rect fill="#c2c1c1" x="12.2" y="318.7" width="48.8" height="24.65" shape-rendering="crispEdges"/><rect fill="#ffffff" x="61" y="318.7" width="12.2" height="24.65" shape-rendering="crispEdges"/><rect fill="#ffffff" x="73.2" y="318.7" width="24.4" height="24.65" shape-rendering="crispEdges"/><rect fill="#ffffff" x="97.6" y="318.7" width="768.6" height="24.65" shape-rendering="crispEdges"/><rect fill="#92887e" x="866.2" y="318.7" width="12.2" height="24.65" shape-rendering="crispEdges"/><rect fill="#ffffff" x="878.4" y="318.7" width="24.4" height="24.65" shape-rendering="crispEdges"/><rect fill="#ffffff" x="902.8" y="318.7" width="12.2" height="24.65" shape-rendering="crispEdges"/><rect fill="#c2c1c1" x="915" y="318.7" width="48.8" height="24.65" shape-rendering="crispEdges"/><rect fill="#c2c1c1" x="963.8" y="318.7" width="12.2" height="24.65" shape-rendering="crispEdges"/><rect fill="#c2c1c1" x="0" y="343.1" width="12.2" height="24.65" shape-rendering="crispEdges"/><rect fill="#c2c1c1" x="12.2" y="343.1" width="48.8" height="24.65" shape-rendering="crispEdges"/><rect fill="#ffffff" x="61" y="343.1" width="12.2" height="24.65" shape-rendering="crispEdges"/><rect fill="#ffffff" x="73.2" y="343.1" width="24.4" height="24.65" shape-rendering="crispEdges"/><rect fill="#ffffff" x="97.6" y="343.1" width="768.6" height="24.65" shape-rendering="crispEdges"/><rect fill="#92887e" x="866.2" y="343.1" width="12.2" height="24.65" shape-rendering="crispEdges"/><rect fill="#ffffff" x="878.4" y="343.1" width="24.4" height="24.65" shape-rendering="crispEdges"/><rect fill="#ffffff" x="902.8" y="343.1" width="12.2" height="24.65" shape-rendering="crispEdges"/><rect fill="#c2c1c1" x="915" y="343.1" width="48.8" height="24.65" shape-rendering="crispEdges"/><rect fill="#c2c1c1" x="963.8" y="343.1" width="12.2" height="24.65" shape-rendering="crispEdges"/><rect fill="#c2c1c1" x="0" y="367.5" width="12.2" height="24.65" shape-rendering="crispEdges"/><rect fill="#c2c1c1" x="12.2" y="367.5" width="48.8" height="24.65" shape-rendering="crispEdges"/><rect fill="#ffffff" x="61" y="367.5" width="12.2" height="24.65" shape-rendering="crispEdges"/><rect fill="#ffffff" x="73.2" y="367.5" width="24.4" height="24.65" shape-rendering="crispEdges"/><rect fill="#ffffff" x="97.6" y="367.5" width="12.2" height="24.65" shape-rendering="crispEdges"/><rect fill="#ffffff" x="109.8" y="367.5" width="48.8" height="24.65" shape-rendering="crispEdges"/><rect fill="#ffffff" x="158.6" y="367.5" width="12.2" height="24.65" shape-rendering="crispEdges"/><rect fill="#ffffff" x="170.8" y="367.5" width="134.2" height="24.65" shape-rendering="crispEdges"/><rect fill="#ffffff" x="305" y="367.5" width="12.2" height="24.65" shape-rendering="crispEdges"/><rect fill="#ffffff" x="317.2" y="367.5" width="73.2" height="24.65" shape-rendering="crispEdges"/><rect fill="#ffffff" x="390.4" y="367.5" width="122" height="24.65" shape-rendering="crispEdges"/><rect fill="#ffffff" x="512.4" y="367.5" width="353.8" height="24.65" shape-rendering="crispEdges"/><rect fill="#f6f5f2" x="866.2" y="367.5" width="12.2" height="24.65" shape-rendering="crispEdges"/><rect fill="#ffffff" x="878.4" y="367.5" width="24.4" height="24.65" shape-rendering="crispEdges"/><rect fill="#ffffff" x="902.8" y="367.5" width="12.2" height="24.65" shape-rendering="crispEdges"/><rect fill="#c2c1c1" x="915" y="367.5" width="48.8" height="24.65" shape-rendering="crispEdges"/><rect fill="#c2c1c1" x="963.8" y="367.5" width="12.2" height="24.65" shape-rendering="crispEdges"/><rect fill="#c2c1c1" x="0" y="391.9" width="12.2" height="24.65" shape-rendering="crispEdges"/><rect fill="#c2c1c1" x="12.2" y="391.9" width="48.8" height="24.65" shape-rendering="crispEdges"/><rect fill="#ffffff" x="61" y="391.9" width="12.2" height="24.65" shape-rendering="crispEdges"/><rect fill="#ffffff" x="73.2" y="391.9" width="24.4" height="24.65" shape-rendering="crispEdges"/><rect fill="#ffffff" x="97.6" y="391.9" width="768.6" height="24.65" shape-rendering="crispEdges"/><rect fill="#f6f5f2" x="866.2" y="391.9" width="12.2" height="24.65" shape-rendering="crispEdges"/><rect fill="#ffffff" x="878.4" y="391.9" width="24.4" height="24.65" shape-rendering="crispEdges"/><rect fill="#ffffff" x="902.8" y="391.9" width="12.2" height="24.65" shape-rendering="crispEdges"/><rect fill="#c2c1c1" x="915" y="391.9" width="48.8" height="24.65" shape-rendering="crispEdges"/><rect fill="#c2c1c1" x="963.8" y="391.9" width="12.2" height="24.65" shape-rendering="crispEdges"/><rect fill="#c2c1c1" x="0" y="416.3" width="12.2" height="24.65" shape-rendering="crispEdges"/><rect fill="#c2c1c1" x="12.2" y="416.3" width="48.8" height="24.65" shape-rendering="crispEdges"/><rect fill="#ffffff" x="61" y="416.3" width="12.2" height="24.65" shape-rendering="crispEdges"/><rect fill="#ffffff" x="73.2" y="416.3" width="24.4" height="24.65" shape-rendering="crispEdges"/><rect fill="#ffffff" x="97.6" y="416.3" width="12.2" height="24.65" shape-rendering="crispEdges"/><rect fill="#ffffff" x="109.8" y="416.3" width="366" height="24.65" shape-rendering="crispEdges"/><rect fill="#ffffff" x="475.8" y="416.3" width="390.4" height="24.65" shape-rendering="crispEdges"/><rect fill="#f6f5f2" x="866.2" y="416.3" width="12.2" height="24.65" shape-rendering="crispEdges"/><rect fill="#ffffff" x="878.4" y="416.3" width="24.4" height="24.65" shape-rendering="crispEdges"/><rect fill="#ffffff" x="902.8" y="416.3" width="12.2" height="24.65" shape-rendering="crispEdges"/><rect fill="#c2c1c1" x="915" y="416.3" width="48.8" height="24.65" shape-rendering="crispEdges"/><rect fill="#c2c1c1" x="963.8" y="416.3" width="12.2" height="24.65" shape-rendering="crispEdges"/><rect fill="#c2c1c1" x="0" y="440.7" width="12.2" height="24.65" shape-rendering="crispEdges"/><rect fill="#c2c1c1" x="12.2" y="440.7" width="48.8" height="24.65" shape-rendering="crispEdges"/><rect fill="#ffffff" x="61" y="440.7" width="12.2" height="24.65" shape-rendering="crispEdges"/><rect fill="#ffffff" x="73.2" y="440.7" width="24.4" height="24.65" shape-rendering="crispEdges"/><rect fill="#ffffff" x="97.6" y="440.7" width="12.2" height="24.65" shape-rendering="crispEdges"/><rect fill="#ffffff" x="109.8" y="440.7" width="122" height="24.65" shape-rendering="crispEdges"/><rect fill="#ffffff" x="231.8" y="440.7" width="634.4" height="24.65" shape-rendering="crispEdges"/><rect fill="#f6f5f2" x="866.2" y="440.7" width="12.2" height="24.65" shape-rendering="crispEdges"/><rect fill="#ffffff" x="878.4" y="440.7" width="24.4" height="24.65" shape-rendering="crispEdges"/><rect fill="#ffffff" x="902.8" y="440.7" width="12.2" height="24.65" shape-rendering="crispEdges"/><rect fill="#c2c1c1" x="915" y="440.7" width="48.8" height="24.65" shape-rendering="crispEdges"/><rect fill="#c2c1c1" x="963.8" y="440.7" width="12.2" height="24.65" shape-rendering="crispEdges"/><rect fill="#c2c1c1" x="0" y="465.1" width="12.2" height="24.65" shape-rendering="crispEdges"/><rect fill="#c2c1c1" x="12.2" y="465.1" width="48.8" height="24.65" shape-rendering="crispEdges"/><rect fill="#ffffff" x="61" y="465.1" width="12.2" height="24.65" shape-rendering="crispEdges"/><rect fill="#ffffff" x="73.2" y="465.1" width="24.4" height="24.65" shape-rendering="crispEdges"/><rect fill="#ffffff" x="97.6" y="465.1" width="390.4" height="24.65" shape-rendering="crispEdges"/><rect fill="#ffffff" x="488" y="465.1" width="61" height="24.65" shape-rendering="crispEdges"/><rect fill="#ffffff" x="549" y="465.1" width="73.2" height="24.65" shape-rendering="crispEdges"/><rect fill="#ffffff" x="622.2" y="465.1" width="122" height="24.65" shape-rendering="crispEdges"/><rect fill="#ffffff" x="744.2" y="465.1" width="73.2" height="24.65" shape-rendering="crispEdges"/><rect fill="#ffffff" x="817.4" y="465.1" width="85.4" height="24.65" shape-rendering="crispEdges"/><rect fill="#ffffff" x="902.8" y="465.1" width="12.2" height="24.65" shape-rendering="crispEdges"/><rect fill="#c2c1c1" x="915" y="465.1" width="48.8" height="24.65" shape-rendering="crispEdges"/><rect fill="#c2c1c1" x="963.8" y="465.1" width="12.2" height="24.65" shape-rendering="crispEdges"/><rect fill="#c2c1c1" x="0" y="489.5" width="12.2" height="24.65" shape-rendering="crispEdges"/><rect fill="#c2c1c1" x="12.2" y="489.5" width="48.8" height="24.65" shape-rendering="crispEdges"/><rect fill="#ffffff" x="61" y="489.5" width="12.2" height="24.65" shape-rendering="crispEdges"/><rect fill="#ffffff" x="73.2" y="489.5" width="829.6" height="24.65" shape-rendering="crispEdges"/><rect fill="#ffffff" x="902.8" y="489.5" width="12.2" height="24.65" shape-rendering="crispEdges"/><rect fill="#c2c1c1" x="915" y="489.5" width="48.8" height="24.65" shape-rendering="crispEdges"/><rect fill="#c2c1c1" x="963.8" y="489.5" width="12.2" height="24.65" shape-rendering="crispEdges"/><rect fill="#c2c1c1" x="0" y="513.9" width="61" height="24.65" shape-rendering="crispEdges"/><rect fill="#ffffff" x="61" y="513.9" width="854" height="24.65" shape-rendering="crispEdges"/><rect fill="#c2c1c1" x="915" y="513.9" width="61" height="24.65" shape-rendering="crispEdges"/><rect fill="#c2c1c1" x="0" y="538.3" width="12.2" height="24.65" shape-rendering="crispEdges"/><rect fill="#c9c8ca" x="12.2" y="538.3" width="24.4" height="24.65" shape-rendering="crispEdges"/><rect fill="#c9c8ca" x="36.6" y="538.3" width="0" height="24.65" shape-rendering="crispEdges"/><rect fill="#262323" x="36.6" y="538.3" width="12.2" height="24.65" shape-rendering="crispEdges"/><rect fill="#c9c8ca" x="48.8" y="538.3" width="780.8" height="24.65" shape-rendering="crispEdges"/><rect fill="#c9c8ca" x="829.6" y="538.3" width="12.2" height="24.65" shape-rendering="crispEdges"/><rect fill="#c9c8ca" x="841.8" y="538.3" width="97.6" height="24.65" shape-rendering="crispEdges"/><rect fill="#c9c8ca" x="939.4" y="538.3" width="24.4" height="24.65" shape-rendering="crispEdges"/><rect fill="#c2c1c1" x="963.8" y="538.3" width="12.2" height="24.65" shape-rendering="crispEdges"/><rect fill="#c2c1c1" x="0" y="562.7" width="24.4" height="24.65" shape-rendering="crispEdges"/><rect fill="#c2c1c1" x="24.4" y="562.7" width="256.2" height="24.65" shape-rendering="crispEdges"/><rect fill="#c2c1c1" x="280.6" y="562.7" width="36.6" height="24.65" shape-rendering="crispEdges"/><rect fill="#c2c1c1" x="317.2" y="562.7" width="48.8" height="24.65" shape-rendering="crispEdges"/><rect fill="#c2c1c1" x="366" y="562.7" width="36.6" height="24.65" shape-rendering="crispEdges"/><rect fill="#c2c1c1" x="402.6" y="562.7" width="85.4" height="24.65" shape-rendering="crispEdges"/><rect fill="#c2c1c1" x="488" y="562.7" width="48.8" height="24.65" shape-rendering="crispEdges"/><rect fill="#c2c1c1" x="536.8" y="562.7" width="85.4" height="24.65" shape-rendering="crispEdges"/><rect fill="#c2c1c1" x="622.2" y="562.7" width="329.4" height="24.65" shape-rendering="crispEdges"/><rect fill="#c2c1c1" x="951.6" y="562.7" width="24.4" height="24.65" shape-rendering="crispEdges"/>
    <g class="terminal-3200217207-matrix">
    <text class="terminal-3200217207-r2" x="24.4" y="20" textLength="61" clip-path="url(#terminal-3200217207-line-0)">NEURO</text><text class="terminal-3200217207-r3" x="85.4" y="20" textLength="85.4" clip-path="url(#terminal-3200217207-line-0)">&#160;/&#160;CODE</text><text class="terminal-3200217207-r3" x="890.6" y="20" textLength="61" clip-path="url(#terminal-3200217207-line-0)">13:37</text><text class="terminal-3200217207-r4" x="976" y="20" textLength="12.2" clip-path="url(#terminal-3200217207-line-0)">
</text><text class="terminal-3200217207-r5" x="61" y="44.4" textLength="854" clip-path="url(#terminal-3200217207-line-1)">╭────────────────────────────────────────────────────────────────────╮</text><text class="terminal-3200217207-r4" x="976" y="44.4" textLength="12.2" clip-path="url(#terminal-3200217207-line-1)">
</text><text class="terminal-3200217207-r5" x="61" y="68.8" textLength="12.2" clip-path="url(#terminal-3200217207-line-2)">│</text><text class="terminal-3200217207-r5" x="902.8" y="68.8" textLength="12.2" clip-path="url(#terminal-3200217207-line-2)">│</text><text class="terminal-3200217207-r4" x="976" y="68.8" textLength="12.2" clip-path="url(#terminal-3200217207-line-2)">
</text><text class="terminal-3200217207-r5" x="61" y="93.2" textLength="12.2" clip-path="url(#terminal-3200217207-line-3)">│</text><text class="terminal-3200217207-r1" x="97.6" y="93.2" textLength="780.8" clip-path="url(#terminal-3200217207-line-3)">Syntax&#160;Theme&#160;&#160;&#160;&#160;&#160;&#160;&#160;&#160;&#160;&#160;&#160;&#160;&#160;&#160;&#160;&#160;&#160;&#160;&#160;&#160;&#160;&#160;&#160;&#160;&#160;&#160;&#160;&#160;&#160;&#160;&#160;&#160;&#160;&#160;&#160;&#160;&#160;&#160;&#160;&#160;&#160;&#160;&#160;&#160;&#160;&#160;&#160;&#160;&#160;&#160;&#160;&#160;</text><text class="terminal-3200217207-r5" x="902.8" y="93.2" textLength="12.2" clip-path="url(#terminal-3200217207-line-3)">│</text><text class="terminal-3200217207-r4" x="976" y="93.2" textLength="12.2" clip-path="url(#terminal-3200217207-line-3)">
</text><text class="terminal-3200217207-r5" x="61" y="117.6" textLength="12.2" clip-path="url(#terminal-3200217207-line-4)">│</text><text class="terminal-3200217207-r5" x="902.8" y="117.6" textLength="12.2" clip-path="url(#terminal-3200217207-line-4)">│</text><text class="terminal-3200217207-r4" x="976" y="117.6" textLength="12.2" clip-path="url(#terminal-3200217207-line-4)">
</text><text class="terminal-3200217207-r5" x="61" y="142" textLength="12.2" clip-path="url(#terminal-3200217207-line-5)">│</text><text class="terminal-3200217207-r7" x="97.6" y="142" textLength="707.6" clip-path="url(#terminal-3200217207-line-5)">Code&#160;token&#160;colors&#160;only.&#160;The&#160;UI&#160;keeps&#160;its&#160;own&#160;surfaces&#160;and&#160;</text><text class="terminal-3200217207-r5" x="902.8" y="142" textLength="12.2" clip-path="url(#terminal-3200217207-line-5)">│</text><text class="terminal-3200217207-r4" x="976" y="142" textLength="12.2" clip-path="url(#terminal-3200217207-line-5)">
</text><text class="terminal-3200217207-r5" x="61" y="166.4" textLength="12.2" clip-path="url(#terminal-3200217207-line-6)">│</text><text class="terminal-3200217207-r7" x="97.6" y="166.4" textLength="219.6" clip-path="url(#terminal-3200217207-line-6)">reading&#160;hierarchy.</text><text class="terminal-3200217207-r5" x="902.8" y="166.4" textLength="12.2" clip-path="url(#terminal-3200217207-line-6)">│</text><text class="terminal-3200217207-r4" x="976" y="166.4" textLength="12.2" clip-path="url(#terminal-3200217207-line-6)">
</text><text class="terminal-3200217207-r5" x="61" y="190.8" textLength="12.2" clip-path="url(#terminal-3200217207-line-7)">│</text><text class="terminal-3200217207-r5" x="902.8" y="190.8" textLength="12.2" clip-path="url(#terminal-3200217207-line-7)">│</text><text class="terminal-3200217207-r4" x="976" y="190.8" textLength="12.2" clip-path="url(#terminal-3200217207-line-7)">
</text><text class="terminal-3200217207-r5" x="61" y="215.2" textLength="12.2" clip-path="url(#terminal-3200217207-line-8)">│</text><text class="terminal-3200217207-r8" x="97.6" y="215.2" textLength="12.2" clip-path="url(#terminal-3200217207-line-8)">▊</text><text class="terminal-3200217207-r5" x="109.8" y="215.2" textLength="744.2" clip-path="url(#terminal-3200217207-line-8)">▔▔▔▔▔▔▔▔▔▔▔▔▔▔▔▔▔▔▔▔▔▔▔▔▔▔▔▔▔▔▔▔▔▔▔▔▔▔▔▔▔▔▔▔▔▔▔▔▔▔▔▔▔▔▔▔▔▔▔▔▔</text><text class="terminal-3200217207-r5" x="854" y="215.2" textLength="12.2" clip-path="url(#terminal-3200217207-line-8)">▎</text><text class="terminal-3200217207-r5" x="902.8" y="215.2" textLength="12.2" clip-path="url(#terminal-3200217207-line-8)">│</text><text class="terminal-3200217207-r4" x="976" y="215.2" textLength="12.2" clip-path="url(#terminal-3200217207-line-8)">
</text><text class="terminal-3200217207-r5" x="61" y="239.6" textLength="12.2" clip-path="url(#terminal-3200217207-line-9)">│</text><text class="terminal-3200217207-r8" x="97.6" y="239.6" textLength="12.2" clip-path="url(#terminal-3200217207-line-9)">▊</text><text class="terminal-3200217207-r1" x="134.2" y="239.6" textLength="170.8" clip-path="url(#terminal-3200217207-line-9)">Auto&#160;/&#160;Default</text><text class="terminal-3200217207-r9" x="817.4" y="239.6" textLength="12.2" clip-path="url(#terminal-3200217207-line-9)">▼</text><text class="terminal-3200217207-r5" x="854" y="239.6" textLength="12.2" clip-path="url(#terminal-3200217207-line-9)">▎</text><text class="terminal-3200217207-r5" x="902.8" y="239.6" textLength="12.2" clip-path="url(#terminal-3200217207-line-9)">│</text><text class="terminal-3200217207-r4" x="976" y="239.6" textLength="12.2" clip-path="url(#terminal-3200217207-line-9)">
</text><text class="terminal-3200217207-r5" x="61" y="264" textLength="12.2" clip-path="url(#terminal-3200217207-line-10)">│</text><text class="terminal-3200217207-r8" x="97.6" y="264" textLength="12.2" clip-path="url(#terminal-3200217207-line-10)">▊</text><text class="terminal-3200217207-r5" x="109.8" y="264" textLength="744.2" clip-path="url(#terminal-3200217207-line-10)">▁▁▁▁▁▁▁▁▁▁▁▁▁▁▁▁▁▁▁▁▁▁▁▁▁▁▁▁▁▁▁▁▁▁▁▁▁▁▁▁▁▁▁▁▁▁▁▁▁▁▁▁▁▁▁▁▁▁▁▁▁</text><text class="terminal-3200217207-r5" x="854" y="264" textLength="12.2" clip-path="url(#terminal-3200217207-line-10)">▎</text><text class="terminal-3200217207-r5" x="902.8" y="264" textLength="12.2" clip-path="url(#terminal-3200217207-line-10)">│</text><text class="terminal-3200217207-r4" x="976" y="264" textLength="12.2" clip-path="url(#terminal-3200217207-line-10)">
</text><text class="terminal-3200217207-r5" x="61" y="288.4" textLength="12.2" clip-path="url(#terminal-3200217207-line-11)">│</text><text class="terminal-3200217207-r5" x="902.8" y="288.4" textLength="12.2" clip-path="url(#terminal-3200217207-line-11)">│</text><text class="terminal-3200217207-r4" x="976" y="288.4" textLength="12.2" clip-path="url(#terminal-3200217207-line-11)">
</text><text class="terminal-3200217207-r5" x="61" y="312.8" textLength="12.2" clip-path="url(#terminal-3200217207-line-12)">│</text><text class="terminal-3200217207-r7" x="97.6" y="312.8" textLength="744.2" clip-path="url(#terminal-3200217207-line-12)">Palette:&#160;Friendly&#160;Light&#160;·&#160;adapted&#160;to&#160;the&#160;current&#160;code&#160;surface</text><text class="terminal-3200217207-r5" x="902.8" y="312.8" textLength="12.2" clip-path="url(#terminal-3200217207-line-12)">│</text><text class="terminal-3200217207-r4" x="976" y="312.8" textLength="12.2" clip-path="url(#terminal-3200217207-line-12)">
</text><text class="terminal-3200217207-r5" x="61" y="337.2" textLength="12.2" clip-path="url(#terminal-3200217207-line-13)">│</text><text class="terminal-3200217207-r5" x="902.8" y="337.2" textLength="12.2" clip-path="url(#terminal-3200217207-line-13)">│</text><text class="terminal-3200217207-r4" x="976" y="337.2" textLength="12.2" clip-path="url(#terminal-3200217207-line-13)">
</text><text class="terminal-3200217207-r5" x="61" y="361.6" textLength="12.2" clip-path="url(#terminal-3200217207-line-14)">│</text><text class="terminal-3200217207-r10" x="866.2" y="361.6" textLength="12.2" clip-path="url(#terminal-3200217207-line-14)">▅</text><text class="terminal-3200217207-r5" x="902.8" y="361.6" textLength="12.2" clip-path="url(#terminal-3200217207-line-14)">│</text><text class="terminal-3200217207-r4" x="976" y="361.6" textLength="12.2" clip-path="url(#terminal-3200217207-line-14)">
</text><text class="terminal-3200217207-r5" x="61" y="386" textLength="12.2" clip-path="url(#terminal-3200217207-line-15)">│</text><text class="terminal-3200217207-r11" x="109.8" y="386" textLength="48.8" clip-path="url(#terminal-3200217207-line-15)">from</text><text class="terminal-3200217207-r13" x="170.8" y="386" textLength="134.2" clip-path="url(#terminal-3200217207-line-15)">dataclasses</text><text class="terminal-3200217207-r11" x="317.2" y="386" textLength="73.2" clip-path="url(#terminal-3200217207-line-15)">import</text><text class="terminal-3200217207-r14" x="390.4" y="386" textLength="122" clip-path="url(#terminal-3200217207-line-15)">&#160;dataclass</text><text class="terminal-3200217207-r5" x="902.8" y="386" textLength="12.2" clip-path="url(#terminal-3200217207-line-15)">│</text><text class="terminal-3200217207-r4" x="976" y="386" textLength="12.2" clip-path="url(#terminal-3200217207-line-15)">
</text><text class="terminal-3200217207-r5" x="61" y="410.4" textLength="12.2" clip-path="url(#terminal-3200217207-line-16)">│</text><text class="terminal-3200217207-r5" x="902.8" y="410.4" textLength="12.2" clip-path="url(#terminal-3200217207-line-16)">│</text><text class="terminal-3200217207-r4" x="976" y="410.4" textLength="12.2" clip-path="url(#terminal-3200217207-line-16)">
</text><text class="terminal-3200217207-r5" x="61" y="434.8" textLength="12.2" clip-path="url(#terminal-3200217207-line-17)">│</text><text class="terminal-3200217207-r15" x="109.8" y="434.8" textLength="317.2" clip-path="url(#terminal-3200217207-line-17)">#&#160;代码审查&#160;/&#160;repository&#160;review</text><text class="terminal-3200217207-r5" x="902.8" y="434.8" textLength="12.2" clip-path="url(#terminal-3200217207-line-17)">│</text><text class="terminal-3200217207-r4" x="976" y="434.8" textLength="12.2" clip-path="url(#terminal-3200217207-line-17)">
</text><text class="terminal-3200217207-r5" x="61" y="459.2" textLength="12.2" clip-path="url(#terminal-3200217207-line-18)">│</text><text class="terminal-3200217207-r16" x="109.8" y="459.2" textLength="122" clip-path="url(#terminal-3200217207-line-18)">@dataclass</text><text class="terminal-3200217207-r5" x="902.8" y="459.2" textLength="12.2" clip-path="url(#terminal-3200217207-line-18)">│</text><text class="terminal-3200217207-r4" x="976" y="459.2" textLength="12.2" clip-path="url(#terminal-3200217207-line-18)">
</text><text class="terminal-3200217207-r5" x="61" y="483.6" textLength="12.2" clip-path="url(#terminal-3200217207-line-19)">│</text><text class="terminal-3200217207-r1" x="549" y="483.6" textLength="73.2" clip-path="url(#terminal-3200217207-line-19)">&#160;Back&#160;</text><text class="terminal-3200217207-r1" x="744.2" y="483.6" textLength="73.2" clip-path="url(#terminal-3200217207-line-19)">&#160;Save&#160;</text><text class="terminal-3200217207-r5" x="902.8" y="483.6" textLength="12.2" clip-path="url(#terminal-3200217207-line-19)">│</text><text class="terminal-3200217207-r4" x="976" y="483.6" textLength="12.2" clip-path="url(#terminal-3200217207-line-19)">
</text><text class="terminal-3200217207-r5" x="61" y="508" textLength="12.2" clip-path="url(#terminal-3200217207-line-20)">│</text><text class="terminal-3200217207-r5" x="902.8" y="508" textLength="12.2" clip-path="url(#terminal-3200217207-line-20)">│</text><text class="terminal-3200217207-r4" x="976" y="508" textLength="12.2" clip-path="url(#terminal-3200217207-line-20)">
</text><text class="terminal-3200217207-r5" x="61" y="532.4" textLength="854" clip-path="url(#terminal-3200217207-line-21)">╰────────────────────────────────────────────────────────────────────╯</text><text class="terminal-3200217207-r4" x="976" y="532.4" textLength="12.2" clip-path="url(#terminal-3200217207-line-21)">
</text><text class="terminal-3200217207-r17" x="36.6" y="556.8" textLength="12.2" clip-path="url(#terminal-3200217207-line-22)">W</text><text class="terminal-3200217207-r2" x="48.8" y="556.8" textLength="780.8" clip-path="url(#terminal-3200217207-line-22)">hat&#160;shall&#160;we&#160;work&#160;on&#160;next?&#160;&#160;&#160;&#160;&#160;&#160;&#160;&#160;&#160;&#160;&#160;&#160;&#160;&#160;&#160;&#160;&#160;&#160;&#160;&#160;&#160;&#160;&#160;&#160;&#160;&#160;&#160;&#160;&#160;&#160;&#160;&#160;&#160;&#160;&#160;&#160;&#160;&#160;</text><text class="terminal-3200217207-r18" x="841.8" y="556.8" textLength="97.6" clip-path="url(#terminal-3200217207-line-22)">&#160;Send&#160;↑&#160;</text><text class="terminal-3200217207-r4" x="976" y="556.8" textLength="12.2" clip-path="url(#terminal-3200217207-line-22)">
</text><text class="terminal-3200217207-r19" x="24.4" y="581.2" textLength="256.2" clip-path="url(#terminal-3200217207-line-23)">fixture-model&#160;&#160;&#160;&#160;&#160;&#160;&#160;&#160;</text><text class="terminal-3200217207-r20" x="280.6" y="581.2" textLength="36.6" clip-path="url(#terminal-3200217207-line-23)">&#160;·&#160;</text><text class="terminal-3200217207-r21" x="317.2" y="581.2" textLength="48.8" clip-path="url(#terminal-3200217207-line-23)">high</text><text class="terminal-3200217207-r20" x="366" y="581.2" textLength="36.6" clip-path="url(#terminal-3200217207-line-23)">&#160;·&#160;</text><text class="terminal-3200217207-r21" x="402.6" y="581.2" textLength="85.4" clip-path="url(#terminal-3200217207-line-23)">normal&#160;</text><text class="terminal-3200217207-r3" x="488" y="581.2" textLength="48.8" clip-path="url(#terminal-3200217207-line-23)">ctx&#160;</text><text class="terminal-3200217207-r21" x="536.8" y="581.2" textLength="85.4" clip-path="url(#terminal-3200217207-line-23)">≈0&#160;tok&#160;</text><text class="terminal-3200217207-r3" x="622.2" y="581.2" textLength="329.4" clip-path="url(#terminal-3200217207-line-23)">&#160;&#160;&#160;&#160;&#160;&#160;/workspace/neuro-code</text>
    </g>
    </g>
</svg>
