<svg class="rich-terminal" viewBox="0 0 1482 1026.0" xmlns="http://www.w3.org/2000/svg">
    <!-- Generated with Rich https://www.textualize.io -->
    <style>

    @font-face {
        font-family: "Fira Code";
        src: local("FiraCode-Regular"),
                url("https://cdnjs.cloudflare.com/ajax/libs/firacode/6.2.0/woff2/FiraCode-Regular.woff2") format("woff2"),
                url("https://cdnjs.cloudflare.com/ajax/libs/firacode/6.2.0/woff/FiraCode-Regular.woff") format("woff");
        font-style: normal;
        font-weight: 400;
    }
    @font-face {
        font-family: "Fira Code";
        src: local("FiraCode-Bold"),
                url("https://cdnjs.cloudflare.com/ajax/libs/firacode/6.2.0/woff2/FiraCode-Bold.woff2") format("woff2"),
                url("https://cdnjs.cloudflare.com/ajax/libs/firacode/6.2.0/woff/FiraCode-Bold.woff") format("woff");
        font-style: bold;
        font-weight: 700;
    }

    .terminal-3976490087-matrix {
        font-family: Fira Code, monospace;
        font-size: 20px;
        line-height: 24.4px;
        font-variant-east-asian: full-width;
    }

    .terminal-3976490087-title {
        font-size: 18px;
        font-weight: bold;
        font-family: arial;
    }

    .terminal-3976490087-r1 { fill: #c5c8c6 }
.terminal-3976490087-r2 { fill: #262320 }
.terminal-3976490087-r3 { fill: #68625c }
.terminal-3976490087-r4 { fill: #2e2b28 }
.terminal-3976490087-r5 { fill: #4c7e8b;font-style: italic; }
.terminal-3976490087-r6 { fill: #007020 }
.terminal-3976490087-r7 { fill: #767676 }
.terminal-3976490087-r8 { fill: #0d7fae }
.terminal-3976490087-r9 { fill: #902000 }
.terminal-3976490087-r10 { fill: #06287e }
.terminal-3976490087-r11 { fill: #666666 }
.terminal-3976490087-r12 { fill: #4070a0 }
.terminal-3976490087-r13 { fill: #35855d }
.terminal-3976490087-r14 { fill: #ffffff }
.terminal-3976490087-r15 { fill: #76618f }
.terminal-3976490087-r16 { fill: #49443f }
.terminal-3976490087-r17 { fill: #827c75 }
.terminal-3976490087-r18 { fill: #58534e }
    </style>

    <defs>
    <clipPath id="terminal-3976490087-clip-terminal">
      <rect x="0" y="0" width="1463.0" height="975.0" />
    </clipPath>
    <clipPath id="terminal-3976490087-line-0">
    <rect x="0" y="1.5" width="1464" height="24.65"/>
            </clipPath>
<clipPath id="terminal-3976490087-line-1">
    <rect x="0" y="25.9" width="1464" height="24.65"/>
            </clipPath>
<clipPath id="terminal-3976490087-line-2">
    <rect x="0" y="50.3" width="1464" height="24.65"/>
            </clipPath>
<clipPath id="terminal-3976490087-line-3">
    <rect x="0" y="74.7" width="1464" height="24.65"/>
            </clipPath>
<clipPath id="terminal-3976490087-line-4">
    <rect x="0" y="99.1" width="1464" height="24.65"/>
            </clipPath>
<clipPath id="terminal-3976490087-line-5">
    <rect x="0" y="123.5" width="1464" height="24.65"/>
            </clipPath>
<clipPath id="terminal-3976490087-line-6">
    <rect x="0" y="147.9" width="1464" height="24.65"/>
            </clipPath>
<clipPath id="terminal-3976490087-line-7">
    <rect x="0" y="172.3" width="1464" height="24.65"/>
            </clipPath>
<clipPath id="terminal-3976490087-line-8">
    <rect x="0" y="196.7" width="1464" height="24.65"/>
            </clipPath>
<clipPath id="terminal-3976490087-line-9">
    <rect x="0" y="221.1" width="1464" height="24.65"/>
            </clipPath>
<clipPath id="terminal-3976490087-line-10">
    <rect x="0" y="245.5" width="1464" height="24.65"/>
            </clipPath>
<clipPath id="terminal-3976490087-line-11">
    <rect x="0" y="269.9" width="1464" height="24.65"/>
            </clipPath>
<clipPath id="terminal-3976490087-line-12">
    <rect x="0" y="294.3" width="1464" height="24.65"/>
            </clipPath>
<clipPath id="terminal-3976490087-line-13">
    <rect x="0" y="318.7" width="1464" height="24.65"/>
            </clipPath>
<clipPath id="terminal-3976490087-line-14">
    <rect x="0" y="343.1" width="1464" height="24.65"/>
            </clipPath>
<clipPath id="terminal-3976490087-line-15">
    <rect x="0" y="367.5" width="1464" height="24.65"/>
            </clipPath>
<clipPath id="terminal-3976490087-line-16">
    <rect x="0" y="391.9" width="1464" height="24.65"/>
            </clipPath>
<clipPath id="terminal-3976490087-line-17">
    <rect x="0" y="416.3" width="1464" height="24.65"/>
            </clipPath>
<clipPath id="terminal-3976490087-line-18">
    <rect x="0" y="440.7" width="1464" height="24.65"/>
            </clipPath>
<clipPath id="terminal-3976490087-line-19">
    <rect x="0" y="465.1" width="1464" height="24.65"/>
            </clipPath>
<clipPath id="terminal-3976490087-line-20">
    <rect x="0" y="489.5" width="1464" height="24.65"/>
            </clipPath>
<clipPath id="terminal-3976490087-line-21">
    <rect x="0" y="513.9" width="1464" height="24.65"/>
            </clipPath>
<clipPath id="terminal-3976490087-line-22">
    <rect x="0" y="538.3" width="1464" height="24.65"/>
            </clipPath>
<clipPath id="terminal-3976490087-line-23">
    <rect x="0" y="562.7" width="1464" height="24.65"/>
            </clipPath>
<clipPath id="terminal-3976490087-line-24">
    <rect x="0" y="587.1" width="1464" height="24.65"/>
            </clipPath>
<clipPath id="terminal-3976490087-line-25">
    <rect x="0" y="611.5" width="1464" height="24.65"/>
            </clipPath>
<clipPath id="terminal-3976490087-line-26">
    <rect x="0" y="635.9" width="1464" height="24.65"/>
            </clipPath>
<clipPath id="terminal-3976490087-line-27">
    <rect x="0" y="660.3" width="1464" height="24.65"/>
            </clipPath>
<clipPath id="terminal-3976490087-line-28">
    <rect x="0" y="684.7" width="1464" height="24.65"/>
            </clipPath>
<clipPath id="terminal-3976490087-line-29">
    <rect x="0" y="709.1" width="1464" height="24.65"/>
            </clipPath>
<clipPath id="terminal-3976490087-line-30">
    <rect x="0" y="733.5" width="1464" height="24.65"/>
            </clipPath>
<clipPath id="terminal-3976490087-line-31">
    <rect x="0" y="757.9" width="1464" height="24.65"/>
            </clipPath>
<clipPath id="terminal-3976490087-line-32">
    <rect x="0" y="782.3" width="1464" height="24.65"/>
            </clipPath>
<clipPath id="terminal-3976490087-line-33">
    <rect x="0" y="806.7" width="1464" height="24.65"/>
            </clipPath>
<clipPath id="terminal-3976490087-line-34">
    <rect x="0" y="831.1" width="1464" height="24.65"/>
            </clipPath>
<clipPath id="terminal-3976490087-line-35">
    <rect x="0" y="855.5" width="1464" height="24.65"/>
            </clipPath>
<clipPath id="terminal-3976490087-line-36">
    <rect x="0" y="879.9" width="1464" height="24.65"/>
            </clipPath>
<clipPath id="terminal-3976490087-line-37">
    <rect x="0" y="904.3" width="1464" height="24.65"/>
            </clipPath>
<clipPath id="terminal-3976490087-line-38">
    <rect x="0" y="928.7" width="1464" height="24.65"/>
            </clipPath>
    </defs>

    <rect fill="#292929" stroke="rgba(255,255,255,0.35)" stroke-width="1" x="1" y="1" width="1480" height="1024" rx="8"/><text class="terminal-3976490087-title" fill="#c5c8c6" text-anchor="middle" x="740" y="27">Neuro&#160;Code&#160;visual&#160;baseline</text>
            <g transform="translate(26,22)">
            <circle cx="0" cy="0" r="7" fill="#ff5f57"/>
            <circle cx="22" cy="0" r="7" fill="#febc2e"/>
            <circle cx="44" cy="0" r="7" fill="#28c840"/>
            </g>

    <g transform="translate(9, 41)" clip-path="url(#terminal-3976490087-clip-terminal)">
    <rect fill="#f6f5f2" x="0" y="1.5" width="36.6" height="24.65" shape-rendering="crispEdges"/><rect fill="#f6f5f2" x="36.6" y="1.5" width="61" height="24.65" shape-rendering="crispEdges"/><rect fill="#f6f5f2" x="97.6" y="1.5" width="85.4" height="24.65" shape-rendering="crispEdges"/><rect fill="#f6f5f2" x="183" y="1.5" width="0" height="24.65" shape-rendering="crispEdges"/><rect fill="#f6f5f2" x="183" y="1.5" width="1183.4" height="24.65" shape-rendering="crispEdges"/><rect fill="#f6f5f2" x="1366.4" y="1.5" width="61" height="24.65" shape-rendering="crispEdges"/><rect fill="#f6f5f2" x="1427.4" y="1.5" width="36.6" height="24.65" shape-rendering="crispEdges"/><rect fill="#f6f5f2" x="0" y="25.9" width="1464" height="24.65" shape-rendering="crispEdges"/><rect fill="#f6f5f2" x="0" y="50.3" width="48.8" height="24.65" shape-rendering="crispEdges"/><rect fill="#ffffff" x="48.8" y="50.3" width="1366.4" height="24.65" shape-rendering="crispEdges"/><rect fill="#f6f5f2" x="1415.2" y="50.3" width="48.8" height="24.65" shape-rendering="crispEdges"/><rect fill="#f6f5f2" x="0" y="74.7" width="48.8" height="24.65" shape-rendering="crispEdges"/><rect fill="#ffffff" x="48.8" y="74.7" width="12.2" height="24.65" shape-rendering="crispEdges"/><rect fill="#ffffff" x="61" y="74.7" width="305" height="24.65" shape-rendering="crispEdges"/><rect fill="#ffffff" x="366" y="74.7" width="1049.2" height="24.65" shape-rendering="crispEdges"/><rect fill="#f6f5f2" x="1415.2" y="74.7" width="48.8" height="24.65" shape-rendering="crispEdges"/><rect fill="#f6f5f2" x="0" y="99.1" width="48.8" height="24.65" shape-rendering="crispEdges"/><rect fill="#ffffff" x="48.8" y="99.1" width="12.2" height="24.65" shape-rendering="crispEdges"/><rect fill="#ffffff" x="61" y="99.1" width="195.2" height="24.65" shape-rendering="crispEdges"/><rect fill="#ffffff" x="256.2" y="99.1" width="1159" height="24.65" shape-rendering="crispEdges"/><rect fill="#f6f5f2" x="1415.2" y="99.1" width="48.8" height="24.65" shape-rendering="crispEdges"/><rect fill="#f6f5f2" x="0" y="123.5" width="48.8" height="24.65" shape-rendering="crispEdges"/><rect fill="#ffffff" x="48.8" y="123.5" width="12.2" height="24.65" shape-rendering="crispEdges"/><rect fill="#ffffff" x="61" y="123.5" width="73.2" height="24.65" shape-rendering="crispEdges"/><rect fill="#ffffff" x="134.2" y="123.5" width="12.2" height="24.65" shape-rendering="crispEdges"/><rect fill="#ffffff" x="146.4" y="123.5" width="73.2" height="24.65" shape-rendering="crispEdges"/><rect fill="#ffffff" x="219.6" y="123.5" width="12.2" height="24.65" shape-rendering="crispEdges"/><rect fill="#ffffff" x="231.8" y="123.5" width="12.2" height="24.65" shape-rendering="crispEdges"/><rect fill="#ffffff" x="244" y="123.5" width="12.2" height="24.65" shape-rendering="crispEdges"/><rect fill="#ffffff" x="256.2" y="123.5" width="73.2" height="24.65" shape-rendering="crispEdges"/><rect fill="#ffffff" x="329.4" y="123.5" width="12.2" height="24.65" shape-rendering="crispEdges"/><rect fill="#ffffff" x="341.6" y="123.5" width="36.6" height="24.65" shape-rendering="crispEdges"/><rect fill="#ffffff" x="378.2" y="123.5" width="12.2" height="24.65" shape-rendering="crispEdges"/><rect fill="#ffffff" x="390.4" y="123.5" width="12.2" height="24.65" shape-rendering="crispEdges"/><rect fill="#ffffff" x="402.6" y="123.5" width="1012.6" height="24.65" shape-rendering="crispEdges"/><rect fill="#f6f5f2" x="1415.2" y="123.5" width="48.8" height="24.65" shape-rendering="crispEdges"/><rect fill="#f6f5f2" x="0" y="147.9" width="48.8" height="24.65" shape-rendering="crispEdges"/><rect fill="#ffffff" x="48.8" y="147.9" width="12.2" height="24.65" shape-rendering="crispEdges"/><rect fill="#ffffff" x="61" y="147.9" width="48.8" height="24.65" shape-rendering="crispEdges"/><rect fill="#ffffff" x="109.8" y="147.9" width="12.2" height="24.65" shape-rendering="crispEdges"/><rect fill="#ffffff" x="122" y="147.9" width="73.2" height="24.65" shape-rendering="crispEdges"/><rect fill="#ffffff" x="195.2" y="147.9" width="12.2" height="24.65" shape-rendering="crispEdges"/><rect fill="#ffffff" x="207.4" y="147.9" width="12.2" height="24.65" shape-rendering="crispEdges"/><rect fill="#ffffff" x="219.6" y="147.9" width="1195.6" height="24.65" shape-rendering="crispEdges"/><rect fill="#f6f5f2" x="1415.2" y="147.9" width="48.8" height="24.65" shape-rendering="crispEdges"/><rect fill="#f6f5f2" x="0" y="172.3" width="48.8" height="24.65" shape-rendering="crispEdges"/><rect fill="#ffffff" x="48.8" y="172.3" width="12.2" height="24.65" shape-rendering="crispEdges"/><rect fill="#ffffff" x="61" y="172.3" width="48.8" height="24.65" shape-rendering="crispEdges"/><rect fill="#ffffff" x="109.8" y="172.3" width="24.4" height="24.65" shape-rendering="crispEdges"/><rect fill="#ffffff" x="134.2" y="172.3" width="12.2" height="24.65" shape-rendering="crispEdges"/><rect fill="#ffffff" x="146.4" y="172.3" width="85.4" height="24.65" shape-rendering="crispEdges"/><rect fill="#ffffff" x="231.8" y="172.3" width="12.2" height="24.65" shape-rendering="crispEdges"/><rect fill="#ffffff" x="244" y="172.3" width="12.2" height="24.65" shape-rendering="crispEdges"/><rect fill="#ffffff" x="256.2" y="172.3" width="48.8" height="24.65" shape-rendering="crispEdges"/><rect fill="#ffffff" x="305" y="172.3" width="12.2" height="24.65" shape-rendering="crispEdges"/><rect fill="#ffffff" x="317.2" y="172.3" width="12.2" height="24.65" shape-rendering="crispEdges"/><rect fill="#ffffff" x="329.4" y="172.3" width="24.4" height="24.65" shape-rendering="crispEdges"/><rect fill="#ffffff" x="353.8" y="172.3" width="12.2" height="24.65" shape-rendering="crispEdges"/><rect fill="#ffffff" x="366" y="172.3" width="73.2" height="24.65" shape-rendering="crispEdges"/><rect fill="#ffffff" x="439.2" y="172.3" width="12.2" height="24.65" shape-rendering="crispEdges"/><rect fill="#ffffff" x="451.4" y="172.3" width="12.2" height="24.65" shape-rendering="crispEdges"/><rect fill="#ffffff" x="463.6" y="172.3" width="951.6" height="24.65" shape-rendering="crispEdges"/><rect fill="#f6f5f2" x="1415.2" y="172.3" width="48.8" height="24.65" shape-rendering="crispEdges"/><rect fill="#f6f5f2" x="0" y="196.7" width="48.8" height="24.65" shape-rendering="crispEdges"/><rect fill="#ffffff" x="48.8" y="196.7" width="12.2" height="24.65" shape-rendering="crispEdges"/><rect fill="#ffffff" x="61" y="196.7" width="97.6" height="24.65" shape-rendering="crispEdges"/><rect fill="#ffffff" x="158.6" y="196.7" width="85.4" height="24.65" shape-rendering="crispEdges"/><rect fill="#ffffff" x="244" y="196.7" width="12.2" height="24.65" shape-rendering="crispEdges"/><rect fill="#ffffff" x="256.2" y="196.7" width="134.2" height="24.65" shape-rendering="crispEdges"/><rect fill="#ffffff" x="390.4" y="196.7" width="12.2" height="24.65" shape-rendering="crispEdges"/><rect fill="#ffffff" x="402.6" y="196.7" width="12.2" height="24.65" shape-rendering="crispEdges"/><rect fill="#ffffff" x="414.8" y="196.7" width="48.8" height="24.65" shape-rendering="crispEdges"/><rect fill="#ffffff" x="463.6" y="196.7" width="73.2" height="24.65" shape-rendering="crispEdges"/><rect fill="#ffffff" x="536.8" y="196.7" width="12.2" height="24.65" shape-rendering="crispEdges"/><rect fill="#ffffff" x="549" y="196.7" width="12.2" height="24.65" shape-rendering="crispEdges"/><rect fill="#ffffff" x="561.2" y="196.7" width="12.2" height="24.65" shape-rendering="crispEdges"/><rect fill="#ffffff" x="573.4" y="196.7" width="24.4" height="24.65" shape-rendering="crispEdges"/><rect fill="#ffffff" x="597.8" y="196.7" width="12.2" height="24.65" shape-rendering="crispEdges"/><rect fill="#ffffff" x="610" y="196.7" width="805.2" height="24.65" shape-rendering="crispEdges"/><rect fill="#f6f5f2" x="1415.2" y="196.7" width="48.8" height="24.65" shape-rendering="crispEdges"/><rect fill="#f6f5f2" x="0" y="221.1" width="48.8" height="24.65" shape-rendering="crispEdges"/><rect fill="#ffffff" x="48.8" y="221.1" width="12.2" height="24.65" shape-rendering="crispEdges"/><rect fill="#ffffff" x="61" y="221.1" width="48.8" height="24.65" shape-rendering="crispEdges"/><rect fill="#ffffff" x="109.8" y="221.1" width="12.2" height="24.65" shape-rendering="crispEdges"/><rect fill="#ffffff" x="122" y="221.1" width="1293.2" height="24.65" shape-rendering="crispEdges"/><rect fill="#f6f5f2" x="1415.2" y="221.1" width="48.8" height="24.65" shape-rendering="crispEdges"/><rect fill="#f6f5f2" x="0" y="245.5" width="48.8" height="24.65" shape-rendering="crispEdges"/><rect fill="#ffffff" x="48.8" y="245.5" width="12.2" height="24.65" shape-rendering="crispEdges"/><rect fill="#ffffff" x="61" y="245.5" width="12.2" height="24.65" shape-rendering="crispEdges"/><rect fill="#ffffff" x="73.2" y="245.5" width="1342" height="24.65" shape-rendering="crispEdges"/><rect fill="#f6f5f2" x="1415.2" y="245.5" width="48.8" height="24.65" shape-rendering="crispEdges"/><rect fill="#f6f5f2" x="0" y="269.9" width="48.8" height="24.65" shape-rendering="crispEdges"/><rect fill="#ffffff" x="48.8" y="269.9" width="1366.4" height="24.65" shape-rendering="crispEdges"/><rect fill="#f6f5f2" x="1415.2" y="269.9" width="48.8" height="24.65" shape-rendering="crispEdges"/><rect fill="#f6f5f2" x="0" y="294.3" width="36.6" height="24.65" shape-rendering="crispEdges"/><rect fill="#f6f5f2" x="36.6" y="294.3" width="1390.8" height="24.65" shape-rendering="crispEdges"/><rect fill="#f6f5f2" x="1427.4" y="294.3" width="36.6" height="24.65" shape-rendering="crispEdges"/><rect fill="#f6f5f2" x="0" y="318.7" width="36.6" height="24.65" shape-rendering="crispEdges"/><rect fill="#f6f5f2" x="36.6" y="318.7" width="1390.8" height="24.65" shape-rendering="crispEdges"/><rect fill="#f6f5f2" x="1427.4" y="318.7" width="36.6" height="24.65" shape-rendering="crispEdges"/><rect fill="#f6f5f2" x="0" y="343.1" width="36.6" height="24.65" shape-rendering="crispEdges"/><rect fill="#f6f5f2" x="36.6" y="343.1" width="1390.8" height="24.65" shape-rendering="crispEdges"/><rect fill="#f6f5f2" x="1427.4" y="343.1" width="36.6" height="24.65" shape-rendering="crispEdges"/><rect fill="#f6f5f2" x="0" y="367.5" width="36.6" height="24.65" shape-rendering="crispEdges"/><rect fill="#f6f5f2" x="36.6" y="367.5" width="1390.8" height="24.65" shape-rendering="crispEdges"/><rect fill="#f6f5f2" x="1427.4" y="367.5" width="36.6" height="24.65" shape-rendering="crispEdges"/><rect fill="#f6f5f2" x="0" y="391.9" width="36.6" height="24.65" shape-rendering="crispEdges"/><rect fill="#f6f5f2" x="36.6" y="391.9" width="1390.8" height="24.65" shape-rendering="crispEdges"/><rect fill="#f6f5f2" x="1427.4" y="391.9" width="36.6" height="24.65" shape-rendering="crispEdges"/><rect fill="#f6f5f2" x="0" y="416.3" width="36.6" height="24.65" shape-rendering="crispEdges"/><rect fill="#f6f5f2" x="36.6" y="416.3" width="1390.8" height="24.65" shape-rendering="crispEdges"/><rect fill="#f6f5f2" x="1427.4" y="416.3" width="36.6" height="24.65" shape-rendering="crispEdges"/><rect fill="#f6f5f2" x="0" y="440.7" width="36.6" height="24.65" shape-rendering="crispEdges"/><rect fill="#f6f5f2" x="36.6" y="440.7" width="1390.8" height="24.65" shape-rendering="crispEdges"/><rect fill="#f6f5f2" x="1427.4" y="440.7" width="36.6" height="24.65" shape-rendering="crispEdges"/><rect fill="#f6f5f2" x="0" y="465.1" width="36.6" height="24.65" shape-rendering="crispEdges"/><rect fill="#f6f5f2" x="36.6" y="465.1" width="1390.8" height="24.65" shape-rendering="crispEdges"/><rect fill="#f6f5f2" x="1427.4" y="465.1" width="36.6" height="24.65" shape-rendering="crispEdges"/><rect fill="#f6f5f2" x="0" y="489.5" width="36.6" height="24.65" shape-rendering="crispEdges"/><rect fill="#f6f5f2" x="36.6" y="489.5" width="1390.8" height="24.65" shape-rendering="crispEdges"/><rect fill="#f6f5f2" x="1427.4" y="489.5" width="36.6" height="24.65" shape-rendering="crispEdges"/><rect fill="#f6f5f2" x="0" y="513.9" width="36.6" height="24.65" shape-rendering="crispEdges"/><rect fill="#f6f5f2" x="36.6" y="513.9" width="1390.8" height="24.65" shape-rendering="crispEdges"/><rect fill="#f6f5f2" x="1427.4" y="513.9" width="36.6" height="24.65" shape-rendering="crispEdges"/><rect fill="#f6f5f2" x="0" y="538.3" width="36.6" height="24.65" shape-rendering="crispEdges"/><rect fill="#f6f5f2" x="36.6" y="538.3" width="1390.8" height="24.65" shape-rendering="crispEdges"/><rect fill="#f6f5f2" x="1427.4" y="538.3" width="36.6" height="24.65" shape-rendering="crispEdges"/><rect fill="#f6f5f2" x="0" y="562.7" width="36.6" height="24.65" shape-rendering="crispEdges"/><rect fill="#f6f5f2" x="36.6" y="562.7" width="1390.8" height="24.65" shape-rendering="crispEdges"/><rect fill="#f6f5f2" x="1427.4" y="562.7" width="36.6" height="24.65" shape-rendering="crispEdges"/><rect fill="#f6f5f2" x="0" y="587.1" width="36.6" height="24.65" shape-rendering="crispEdges"/><rect fill="#f6f5f2" x="36.6" y="587.1" width="1390.8" height="24.65" shape-rendering="crispEdges"/><rect fill="#f6f5f2" x="1427.4" y="587.1" width="36.6" height="24.65" shape-rendering="crispEdges"/><rect fill="#f6f5f2" x="0" y="611.5" width="36.6" height="24.65" shape-rendering="crispEdges"/><rect fill="#f6f5f2" x="36.6" y="611.5" width="1390.8" height="24.65" shape-rendering="crispEdges"/><rect fill="#f6f5f2" x="1427.4" y="611.5" width="36.6" height="24.65" shape-rendering="crispEdges"/><rect fill="#f6f5f2" x="0" y="635.9" width="36.6" height="24.65" shape-rendering="crispEdges"/><rect fill="#f6f5f2" x="36.6" y="635.9" width="1390.8" height="24.65" shape-rendering="crispEdges"/><rect fill="#f6f5f2" x="1427.4" y="635.9" width="36.6" height="24.65" shape-rendering="crispEdges"/><rect fill="#f6f5f2" x="0" y="660.3" width="36.6" height="24.65" shape-rendering="crispEdges"/><rect fill="#f6f5f2" x="36.6" y="660.3" width="1390.8" height="24.65" shape-rendering="crispEdges"/><rect fill="#f6f5f2" x="1427.4" y="660.3" width="36.6" height="24.65" shape-rendering="crispEdges"/><rect fill="#f6f5f2" x="0" y="684.7" width="36.6" height="24.65" shape-rendering="crispEdges"/><rect fill="#f6f5f2" x="36.6" y="684.7" width="1390.8" height="24.65" shape-rendering="crispEdges"/><rect fill="#f6f5f2" x="1427.4" y="684.7" width="36.6" height="24.65" shape-rendering="crispEdges"/><rect fill="#f6f5f2" x="0" y="709.1" width="36.6" height="24.65" shape-rendering="crispEdges"/><rect fill="#f6f5f2" x="36.6" y="709.1" width="1390.8" height="24.65" shape-rendering="crispEdges"/><rect fill="#f6f5f2" x="1427.4" y="709.1" width="36.6" height="24.65" shape-rendering="crispEdges"/><rect fill="#f6f5f2" x="0" y="733.5" width="36.6" height="24.65" shape-rendering="crispEdges"/><rect fill="#f6f5f2" x="36.6" y="733.5" width="1390.8" height="24.65" shape-rendering="crispEdges"/><rect fill="#f6f5f2" x="1427.4" y="733.5" width="36.6" height="24.65" shape-rendering="crispEdges"/><rect fill="#f6f5f2" x="0" y="757.9" width="36.6" height="24.65" shape-rendering="crispEdges"/><rect fill="#f6f5f2" x="36.6" y="757.9" width="1390.8" height="24.65" shape-rendering="crispEdges"/><rect fill="#f6f5f2" x="1427.4" y="757.9" width="36.6" height="24.65" shape-rendering="crispEdges"/><rect fill="#f6f5f2" x="0" y="782.3" width="36.6" height="24.65" shape-rendering="crispEdges"/><rect fill="#f6f5f2" x="36.6" y="782.3" width="1390.8" height="24.65" shape-rendering="crispEdges"/><rect fill="#f6f5f2" x="1427.4" y="782.3" width="36.6" height="24.65" shape-rendering="crispEdges"/><rect fill="#f6f5f2" x="0" y="806.7" width="36.6" height="24.65" shape-rendering="crispEdges"/><rect fill="#f6f5f2" x="36.6" y="806.7" width="1390.8" height="24.65" shape-rendering="crispEdges"/><rect fill="#f6f5f2" x="1427.4" y="806.7" width="36.6" height="24.65" shape-rendering="crispEdges"/><rect fill="#f6f5f2" x="0" y="831.1" width="36.6" height="24.65" shape-rendering="crispEdges"/><rect fill="#f6f5f2" x="36.6" y="831.1" width="1390.8" height="24.65" shape-rendering="crispEdges"/><rect fill="#f6f5f2" x="1427.4" y="831.1" width="36.6" height="24.65" shape-rendering="crispEdges"/><rect fill="#f6f5f2" x="0" y="855.5" width="1464" height="24.65" shape-rendering="crispEdges"/><rect fill="#f6f5f2" x="0" y="879.9" width="36.6" height="24.65" shape-rendering="crispEdges"/><rect fill="#ffffff" x="36.6" y="879.9" width="1390.8" height="24.65" shape-rendering="crispEdges"/><rect fill="#f6f5f2" x="1427.4" y="879.9" width="36.6" height="24.65" shape-rendering="crispEdges"/><rect fill="#f6f5f2" x="0" y="904.3" width="36.6" height="24.65" shape-rendering="crispEdges"/><rect fill="#ffffff" x="36.6" y="904.3" width="24.4" height="24.65" shape-rendering="crispEdges"/><rect fill="#ffffff" x="61" y="904.3" width="0" height="24.65" shape-rendering="crispEdges"/><rect fill="#262320" x="61" y="904.3" width="12.2" height="24.65" shape-rendering="crispEdges"/><rect fill="#ffffff" x="73.2" y="904.3" width="1220" height="24.65" shape-rendering="crispEdges"/><rect fill="#ffffff" x="1293.2" y="904.3" width="12.2" height="24.65" shape-rendering="crispEdges"/><rect fill="#ffffff" x="1305.4" y="904.3" width="97.6" height="24.65" shape-rendering="crispEdges"/><rect fill="#ffffff" x="1403" y="904.3" width="24.4" height="24.65" shape-rendering="crispEdges"/><rect fill="#f6f5f2" x="1427.4" y="904.3" width="36.6" height="24.65" shape-rendering="crispEdges"/><rect fill="#f6f5f2" x="0" y="928.7" width="36.6" height="24.65" shape-rendering="crispEdges"/><rect fill="#ffffff" x="36.6" y="928.7" width="1390.8" height="24.65" shape-rendering="crispEdges"/><rect fill="#f6f5f2" x="1427.4" y="928.7" width="36.6" height="24.65" shape-rendering="crispEdges"/><rect fill="#f6f5f2" x="0" y="953.1" width="48.8" height="24.65" shape-rendering="crispEdges"/><rect fill="#f6f5f2" x="48.8" y="953.1" width="695.4" height="24.65" shape-rendering="crispEdges"/><rect fill="#f6f5f2" x="744.2" y="953.1" width="36.6" height="24.65" shape-rendering="crispEdges"/><rect fill="#f6f5f2" x="780.8" y="953.1" width="48.8" height="24.65" shape-rendering="crispEdges"/><rect fill="#f6f5f2" x="829.6" y="953.1" width="36.6" height="24.65" shape-rendering="crispEdges"/><rect fill="#f6f5f2" x="866.2" y="953.1" width="97.6" height="24.65" shape-rendering="crispEdges"/><rect fill="#f6f5f2" x="963.8" y="953.1" width="48.8" height="24.65" shape-rendering="crispEdges"/><rect fill="#f6f5f2" x="1012.6" y="953.1" width="85.4" height="24.65" shape-rendering="crispEdges"/><rect fill="#f6f5f2" x="1098" y="953.1" width="317.2" height="24.65" shape-rendering="crispEdges"/><rect fill="#f6f5f2" x="1415.2" y="953.1" width="48.8" height="24.65" shape-rendering="crispEdges"/>
    <g class="terminal-3976490087-matrix">
    <text class="terminal-3976490087-r2" x="36.6" y="20" textLength="61" clip-path="url(#terminal-3976490087-line-0)">NEURO</text><text class="terminal-3976490087-r3" x="97.6" y="20" textLength="85.4" clip-path="url(#terminal-3976490087-line-0)">&#160;/&#160;CODE</text><text class="terminal-3976490087-r3" x="1366.4" y="20" textLength="61" clip-path="url(#terminal-3976490087-line-0)">13:37</text><text class="terminal-3976490087-r1" x="1464" y="20" textLength="12.2" clip-path="url(#terminal-3976490087-line-0)">
</text><text class="terminal-3976490087-r1" x="1464" y="44.4" textLength="12.2" clip-path="url(#terminal-3976490087-line-1)">
</text><text class="terminal-3976490087-r1" x="1464" y="68.8" textLength="12.2" clip-path="url(#terminal-3976490087-line-2)">
</text><text class="terminal-3976490087-r5" x="61" y="93.2" textLength="305" clip-path="url(#terminal-3976490087-line-3)">//&#160;Preserve&#160;source&#160;tokens</text><text class="terminal-3976490087-r1" x="1464" y="93.2" textLength="12.2" clip-path="url(#terminal-3976490087-line-3)">
</text><text class="terminal-3976490087-r6" x="61" y="117.6" textLength="195.2" clip-path="url(#terminal-3976490087-line-4)">#[derive(Debug)]</text><text class="terminal-3976490087-r1" x="1464" y="117.6" textLength="12.2" clip-path="url(#terminal-3976490087-line-4)">
</text><text class="terminal-3976490087-r6" x="61" y="142" textLength="73.2" clip-path="url(#terminal-3976490087-line-5)">struct</text><text class="terminal-3976490087-r8" x="146.4" y="142" textLength="73.2" clip-path="url(#terminal-3976490087-line-5)">Report</text><text class="terminal-3976490087-r4" x="231.8" y="142" textLength="12.2" clip-path="url(#terminal-3976490087-line-5)">{</text><text class="terminal-3976490087-r4" x="256.2" y="142" textLength="73.2" clip-path="url(#terminal-3976490087-line-5)">count:</text><text class="terminal-3976490087-r9" x="341.6" y="142" textLength="36.6" clip-path="url(#terminal-3976490087-line-5)">u32</text><text class="terminal-3976490087-r4" x="390.4" y="142" textLength="12.2" clip-path="url(#terminal-3976490087-line-5)">}</text><text class="terminal-3976490087-r1" x="1464" y="142" textLength="12.2" clip-path="url(#terminal-3976490087-line-5)">
</text><text class="terminal-3976490087-r6" x="61" y="166.4" textLength="48.8" clip-path="url(#terminal-3976490087-line-6)">impl</text><text class="terminal-3976490087-r4" x="122" y="166.4" textLength="73.2" clip-path="url(#terminal-3976490087-line-6)">Report</text><text class="terminal-3976490087-r4" x="207.4" y="166.4" textLength="12.2" clip-path="url(#terminal-3976490087-line-6)">{</text><text class="terminal-3976490087-r1" x="1464" y="166.4" textLength="12.2" clip-path="url(#terminal-3976490087-line-6)">
</text><text class="terminal-3976490087-r6" x="109.8" y="190.8" textLength="24.4" clip-path="url(#terminal-3976490087-line-7)">fn</text><text class="terminal-3976490087-r10" x="146.4" y="190.8" textLength="85.4" clip-path="url(#terminal-3976490087-line-7)">summary</text><text class="terminal-3976490087-r4" x="231.8" y="190.8" textLength="12.2" clip-path="url(#terminal-3976490087-line-7)">(</text><text class="terminal-3976490087-r11" x="244" y="190.8" textLength="12.2" clip-path="url(#terminal-3976490087-line-7)">&amp;</text><text class="terminal-3976490087-r6" x="256.2" y="190.8" textLength="48.8" clip-path="url(#terminal-3976490087-line-7)">self</text><text class="terminal-3976490087-r4" x="305" y="190.8" textLength="12.2" clip-path="url(#terminal-3976490087-line-7)">)</text><text class="terminal-3976490087-r4" x="329.4" y="190.8" textLength="24.4" clip-path="url(#terminal-3976490087-line-7)">-&gt;</text><text class="terminal-3976490087-r6" x="366" y="190.8" textLength="73.2" clip-path="url(#terminal-3976490087-line-7)">String</text><text class="terminal-3976490087-r4" x="451.4" y="190.8" textLength="12.2" clip-path="url(#terminal-3976490087-line-7)">{</text><text class="terminal-3976490087-r1" x="1464" y="190.8" textLength="12.2" clip-path="url(#terminal-3976490087-line-7)">
</text><text class="terminal-3976490087-r10" x="158.6" y="215.2" textLength="85.4" clip-path="url(#terminal-3976490087-line-8)">format!</text><text class="terminal-3976490087-r4" x="244" y="215.2" textLength="12.2" clip-path="url(#terminal-3976490087-line-8)">(</text><text class="terminal-3976490087-r12" x="256.2" y="215.2" textLength="134.2" clip-path="url(#terminal-3976490087-line-8)">&quot;count:&#160;{}&quot;</text><text class="terminal-3976490087-r4" x="390.4" y="215.2" textLength="12.2" clip-path="url(#terminal-3976490087-line-8)">,</text><text class="terminal-3976490087-r6" x="414.8" y="215.2" textLength="48.8" clip-path="url(#terminal-3976490087-line-8)">self</text><text class="terminal-3976490087-r4" x="463.6" y="215.2" textLength="73.2" clip-path="url(#terminal-3976490087-line-8)">.count</text><text class="terminal-3976490087-r11" x="549" y="215.2" textLength="12.2" clip-path="url(#terminal-3976490087-line-8)">+</text><text class="terminal-3976490087-r13" x="573.4" y="215.2" textLength="24.4" clip-path="url(#terminal-3976490087-line-8)">42</text><text class="terminal-3976490087-r4" x="597.8" y="215.2" textLength="12.2" clip-path="url(#terminal-3976490087-line-8)">)</text><text class="terminal-3976490087-r1" x="1464" y="215.2" textLength="12.2" clip-path="url(#terminal-3976490087-line-8)">
</text><text class="terminal-3976490087-r4" x="109.8" y="239.6" textLength="12.2" clip-path="url(#terminal-3976490087-line-9)">}</text><text class="terminal-3976490087-r1" x="1464" y="239.6" textLength="12.2" clip-path="url(#terminal-3976490087-line-9)">
</text><text class="terminal-3976490087-r4" x="61" y="264" textLength="12.2" clip-path="url(#terminal-3976490087-line-10)">}</text><text class="terminal-3976490087-r1" x="1464" y="264" textLength="12.2" clip-path="url(#terminal-3976490087-line-10)">
</text><text class="terminal-3976490087-r1" x="1464" y="288.4" textLength="12.2" clip-path="url(#terminal-3976490087-line-11)">
</text><text class="terminal-3976490087-r1" x="1464" y="312.8" textLength="12.2" clip-path="url(#terminal-3976490087-line-12)">
</text><text class="terminal-3976490087-r1" x="1464" y="337.2" textLength="12.2" clip-path="url(#terminal-3976490087-line-13)">
</text><text class="terminal-3976490087-r1" x="1464" y="361.6" textLength="12.2" clip-path="url(#terminal-3976490087-line-14)">
</text><text class="terminal-3976490087-r1" x="1464" y="386" textLength="12.2" clip-path="url(#terminal-3976490087-line-15)">
</text><text class="terminal-3976490087-r1" x="1464" y="410.4" textLength="12.2" clip-path="url(#terminal-3976490087-line-16)">
</text><text class="terminal-3976490087-r1" x="1464" y="434.8" textLength="12.2" clip-path="url(#terminal-3976490087-line-17)">
</text><text class="terminal-3976490087-r1" x="1464" y="459.2" textLength="12.2" clip-path="url(#terminal-3976490087-line-18)">
</text><text class="terminal-3976490087-r1" x="1464" y="483.6" textLength="12.2" clip-path="url(#terminal-3976490087-line-19)">
</text><text class="terminal-3976490087-r1" x="1464" y="508" textLength="12.2" clip-path="url(#terminal-3976490087-line-20)">
</text><text class="terminal-3976490087-r1" x="1464" y="532.4" textLength="12.2" clip-path="url(#terminal-3976490087-line-21)">
</text><text class="terminal-3976490087-r1" x="1464" y="556.8" textLength="12.2" clip-path="url(#terminal-3976490087-line-22)">
</text><text class="terminal-3976490087-r1" x="1464" y="581.2" textLength="12.2" clip-path="url(#terminal-3976490087-line-23)">
</text><text class="terminal-3976490087-r1" x="1464" y="605.6" textLength="12.2" clip-path="url(#terminal-3976490087-line-24)">
</text><text class="terminal-3976490087-r1" x="1464" y="630" textLength="12.2" clip-path="url(#terminal-3976490087-line-25)">
</text><text class="terminal-3976490087-r1" x="1464" y="654.4" textLength="12.2" clip-path="url(#terminal-3976490087-line-26)">
</text><text class="terminal-3976490087-r1" x="1464" y="678.8" textLength="12.2" clip-path="url(#terminal-3976490087-line-27)">
</text><text class="terminal-3976490087-r1" x="1464" y="703.2" textLength="12.2" clip-path="url(#terminal-3976490087-line-28)">
</text><text class="terminal-3976490087-r1" x="1464" y="727.6" textLength="12.2" clip-path="url(#terminal-3976490087-line-29)">
</text><text class="terminal-3976490087-r1" x="1464" y="752" textLength="12.2" clip-path="url(#terminal-3976490087-line-30)">
</text><text class="terminal-3976490087-r1" x="1464" y="776.4" textLength="12.2" clip-path="url(#terminal-3976490087-line-31)">
</text><text class="terminal-3976490087-r1" x="1464" y="800.8" textLength="12.2" clip-path="url(#terminal-3976490087-line-32)">
</text><text class="terminal-3976490087-r1" x="1464" y="825.2" textLength="12.2" clip-path="url(#terminal-3976490087-line-33)">
</text><text class="terminal-3976490087-r1" x="1464" y="849.6" textLength="12.2" clip-path="url(#terminal-3976490087-line-34)">
</text><text class="terminal-3976490087-r1" x="1464" y="874" textLength="12.2" clip-path="url(#terminal-3976490087-line-35)">
</text><text class="terminal-3976490087-r1" x="1464" y="898.4" textLength="12.2" clip-path="url(#terminal-3976490087-line-36)">
</text><text class="terminal-3976490087-r14" x="61" y="922.8" textLength="12.2" clip-path="url(#terminal-3976490087-line-37)">W</text><text class="terminal-3976490087-r2" x="73.2" y="922.8" textLength="1220" clip-path="url(#terminal-3976490087-line-37)">hat&#160;shall&#160;we&#160;work&#160;on&#160;next?&#160;&#160;&#160;&#160;&#160;&#160;&#160;&#160;&#160;&#160;&#160;&#160;&#160;&#160;&#160;&#160;&#160;&#160;&#160;&#160;&#160;&#160;&#160;&#160;&#160;&#160;&#160;&#160;&#160;&#160;&#160;&#160;&#160;&#160;&#160;&#160;&#160;&#160;&#160;&#160;&#160;&#160;&#160;&#160;&#160;&#160;&#160;&#160;&#160;&#160;&#160;&#160;&#160;&#160;&#160;&#160;&#160;&#160;&#160;&#160;&#160;&#160;&#160;&#160;&#160;&#160;&#160;&#160;&#160;&#160;&#160;&#160;&#160;&#160;</text><text class="terminal-3976490087-r15" x="1305.4" y="922.8" textLength="97.6" clip-path="url(#terminal-3976490087-line-37)">&#160;Send&#160;↑&#160;</text><text class="terminal-3976490087-r1" x="1464" y="922.8" textLength="12.2" clip-path="url(#terminal-3976490087-line-37)">
</text><text class="terminal-3976490087-r1" x="1464" y="947.2" textLength="12.2" clip-path="url(#terminal-3976490087-line-38)">
</text><text class="terminal-3976490087-r16" x="48.8" y="971.6" textLength="695.4" clip-path="url(#terminal-3976490087-line-39)">fixture-model&#160;&#160;&#160;&#160;&#160;&#160;&#160;&#160;&#160;&#160;&#160;&#160;&#160;&#160;&#160;&#160;&#160;&#160;&#160;&#160;&#160;&#160;&#160;&#160;&#160;&#160;&#160;&#160;&#160;&#160;&#160;&#160;&#160;&#160;&#160;&#160;&#160;&#160;&#160;&#160;&#160;&#160;&#160;&#160;</text><text class="terminal-3976490087-r17" x="744.2" y="971.6" textLength="36.6" clip-path="url(#terminal-3976490087-line-39)">&#160;·&#160;</text><text class="terminal-3976490087-r18" x="780.8" y="971.6" textLength="48.8" clip-path="url(#terminal-3976490087-line-39)">high</text><text class="terminal-3976490087-r17" x="829.6" y="971.6" textLength="36.6" clip-path="url(#terminal-3976490087-line-39)">&#160;·&#160;</text><text class="terminal-3976490087-r18" x="866.2" y="971.6" textLength="97.6" clip-path="url(#terminal-3976490087-line-39)">normal&#160;&#160;</text><text class="terminal-3976490087-r3" x="963.8" y="971.6" textLength="48.8" clip-path="url(#terminal-3976490087-line-39)">ctx&#160;</text><text class="terminal-3976490087-r18" x="1012.6" y="971.6" textLength="85.4" clip-path="url(#terminal-3976490087-line-39)">≈0&#160;tok&#160;</text><text class="terminal-3976490087-r3" x="1098" y="971.6" textLength="317.2" clip-path="url(#terminal-3976490087-line-39)">&#160;&#160;&#160;&#160;&#160;/workspace/neuro-code</text>
    </g>
    </g>
</svg>
